/* XPM */
static char *result[] = {
/* columns rows colors chars-per-pixel */
"32 32 215 2 ",
"   c #000000",
".  c #0A0604",
"X  c #0D0906",
"o  c #0F0B08",
"O  c #100906",
"+  c #1C0906",
"@  c #130D0A",
"#  c #1A110B",
"$  c #17100D",
"%  c #1E1510",
"&  c #2A0A07",
"*  c #220C06",
"=  c #360C07",
"-  c #24140D",
";  c #2C130C",
":  c #2D180E",
">  c #3E190F",
",  c #39140C",
"<  c #251911",
"1  c #2C1C13",
"2  c #2D1713",
"3  c #351B13",
"4  c #3D1E13",
"5  c #2F231B",
"6  c #342319",
"7  c #3C2519",
"8  c #3B2618",
"9  c #3E2D21",
"0  c #3F3126",
"q  c #480F05",
"w  c #461B0E",
"e  c #47140C",
"r  c #56170A",
"t  c #5C1209",
"y  c #531B0D",
"u  c #421711",
"i  c #4A1D14",
"p  c #5D1F12",
"a  c #64190B",
"s  c #711D0A",
"d  c #681F11",
"f  c #5F260F",
"g  c #422115",
"h  c #4C2415",
"j  c #48251A",
"k  c #432B1D",
"l  c #4B2B1B",
"z  c #41271C",
"x  c #572413",
"c  c #5A2916",
"v  c #552B1B",
"b  c #5B2C1B",
"n  c #5C2414",
"m  c #4D301F",
"M  c #5B331E",
"N  c #54301E",
"B  c #65220E",
"V  c #69220F",
"C  c #78240F",
"Z  c #6D2B15",
"A  c #642B1A",
"S  c #6B2B18",
"D  c #632714",
"F  c #722615",
"G  c #792B16",
"H  c #732A14",
"J  c #67341C",
"K  c #6B331E",
"L  c #75351C",
"P  c #7B341C",
"I  c #4D2C23",
"U  c #452E24",
"Y  c #572E22",
"T  c #433124",
"R  c #4B3524",
"E  c #4C3629",
"W  c #46362A",
"Q  c #533423",
"!  c #5C3423",
"~  c #553825",
"^  c #58372C",
"/  c #533A2A",
"(  c #5C3A2A",
")  c #5E3B25",
"_  c #4F3E30",
"`  c #642F23",
"'  c #653423",
"]  c #6C3421",
"[  c #633B25",
"{  c #6C3A26",
"}  c #643C29",
"|  c #6C3D2A",
" . c #61362A",
".. c #723723",
"X. c #7C3B23",
"o. c #773C28",
"O. c #743C23",
"+. c #683E30",
"@. c #5C402C",
"#. c #584132",
"$. c #65422D",
"%. c #6D442D",
"&. c #6D482D",
"*. c #664227",
"=. c #7C4125",
"-. c #74442B",
";. c #7D4A2C",
":. c #654632",
">. c #6B4432",
",. c #654A35",
"<. c #6D4932",
"1. c #664C3C",
"2. c #6D4D3B",
"3. c #754B33",
"4. c #7D4C32",
"5. c #724638",
"6. c #734C39",
"7. c #794835",
"8. c #69513F",
"9. c #7C5134",
"0. c #75513B",
"q. c #7C533C",
"w. c #6A5041",
"e. c #7B5B43",
"r. c #785B49",
"t. c #745341",
"y. c #7B614B",
"u. c #786553",
"i. c #81230B",
"p. c #912F11",
"a. c #83361B",
"s. c #86391A",
"d. c #8B3B1D",
"f. c #813516",
"g. c #923918",
"h. c #803F29",
"j. c #863C23",
"k. c #98441C",
"l. c #B1521F",
"z. c #834125",
"x. c #854823",
"c. c #8C4925",
"v. c #8D472C",
"b. c #834A2D",
"n. c #8A4629",
"m. c #944A2A",
"M. c #8C522F",
"N. c #965127",
"B. c #9F512C",
"V. c #8B4E34",
"C. c #844E39",
"Z. c #844C34",
"A. c #914D33",
"S. c #9A4D30",
"D. c #835335",
"F. c #8B5335",
"G. c #825339",
"H. c #8B553A",
"J. c #845A3D",
"K. c #8C5C3D",
"L. c #935434",
"P. c #9B5A34",
"I. c #945C3B",
"U. c #945A35",
"Y. c #A34C28",
"T. c #A4582D",
"R. c #AC5226",
"E. c #B05C2C",
"W. c #A25E33",
"Q. c #A85A37",
"!. c #A45C39",
"~. c #8E613F",
"^. c #94603D",
"/. c #9D623E",
"(. c #A5643B",
"). c #B56B37",
"_. c #865B45",
"`. c #8A5D42",
"'. c #915C42",
"]. c #876043",
"[. c #8C6146",
"{. c #8C644A",
"}. c #8E694E",
"|. c #84624C",
" X c #956343",
".X c #9C6443",
"XX c #94654A",
"oX c #99694A",
"OX c #9C704D",
"+X c #866854",
"@X c #8B6B54",
"#X c #946F59",
"$X c #996E59",
"%X c #986D53",
"&X c #87715C",
"*X c #987152",
"=X c #9A765C",
"-X c #947357",
";X c #A56541",
":X c #AA6B48",
">X c #A46C47",
",X c #A6724D",
"<X c #AC744C",
"1X c #A87758",
"2X c #A87A57",
"3X c #B47749",
"4X c #967A64",
"5X c #BF825D",
"6X c #A78367",
"7X c #B38866",
"8X c #AC8D75",
"9X c #AD947F",
"0X c #C3895B",
"qX c #CD9A6C",
"wX c #C89E7A",
/* pixels */
"& & Y P ..F t I n , y B v c ^ { d l G o.z.L X.S { V C Z a r u , ",
"; 2 Y K S A ' -.%.-.b ! b Y o.S A a.a.S d.;.b.=.a.X.a.L d d i e ",
"& 4 G F G d -.L.6.XXn.+.A ` X.S v g.a.A g.D.U.;.j.=.d.h.F C B e ",
"2 3 Y 5.v.H.v.o.A.T.Z.`...] o.3 - k.b.A.^.Y.U.^.v.P b j.p S j.F ",
"; = A o.Z._.Z.9.9.I.H._.q.0.T .   # W ]._.%XJ.].C.o.Q >. .^ n i ",
"i E x X.J.A.K.A.`.F.R.o.v.] 1       m  Xx.XX5XoX).<XoX{.A.| L n ",
"I E ! | _.G.C.Z.5.H.G.`._.% $       E }.-X&X7X.XI. XI.`.C.%.b i ",
"E +.%.<._.Z.G G ' j.4.<X%.T         ~ -X2X-X<X3X(.Q.E.R.d.a.L p ",
"Y } ..{ o.C.{.].|.P.P.6.<           / (.[.:X<X|.7X%X,Xx.M.e.H.D.",
"A v ] ] P Z.'.[.}.P.F.6 O           E :X#X>X>X}.6XoX{.9.L.F.D.`.",
"u i A ..s.F.,X.X^.F.R #     . .     *.0X$XoXF..X(.P.`.;.o.g...W.",
"u b b ] P 4.XXK./ 6 ,..   X 5       @.1X8X+X%X#XoX X~.&.O.o.{ n.",
"F b.x.;.F.m.{.*.o 1       e.< .     #.2XwX4XqXXXOX/.5X(.x.} c.G ",
"x K K K -.b.D.W 9     . u.W _ @     ( 4X-X2X2X1X2X1.3.-.>.O.J -.",
"y F F L 3.c.c.:.    . *.k D.~ @     Q }.*X,X=X7X6X:.>.A [ L b b ",
"i x Z [ ;.M.&.8     7 8 J.[.) X     0 ^. X*X=X9X8X+X5.,.J c M x ",
"w x B L b.;.H.-.3 ~ < <.P.F.M O     T M.L.>X%X6X4Xr.0.:.M h g w ",
"r B x G v.,X<XI.S.b.L.I.N.Y.N .     R F.L.T.(.<X-X XL.&.J x y K ",
"y Z Z L c.;X2X{.F.F.H.F.L.L.~ .     l M.I.L.G.3.q.XXv.$.M $.( } ",
"n f.k.N.T.(.:X:X=X;X;X!.Q. X*.$     k T.e.-.T h A [ F.;.q.+Xr.v.",
"h { 0.r.&X@X&X@X+X| X.H.^.[./ 8     5 8 6 @ 1 #   - E >.r.1.u.1.",
"> b | q.y.%X&X{..XX.g.j.T.T.) 8       . O         l r.q._.:.r.w.",
"3 v -.6.].{.}.'.I..XI.d.z.{ l .                 - <.e.t.5...7.j.",
"+ x %.,._.r.{.I. X<XI.n w : 3               < k 3 9 {.w.>.} 5.X.",
", V 3..X[.}.}.9.;.[ h x 9           X $ 1 6 :.%.^ I.J.%.( Q ..d.",
", v J 4.D.q.q.;.k # < O       X 7 - - ~ F.^.}.q.E &.<.( | b n p ",
", [ J F.F.D.Z.Y.~ O       . N 8 l F..XR.T.0X,XG.Q L c.6.V.] r q ",
"& > h [ ~ e.q.! 3       - 8 1 $.2.o.-.%.9.q.[.$.( ! A j I 7 ; = ",
"q r J s.J (..Xx 4 @ ; k * M -.L.4.L m.7.;.G.z.b.Y.P C a ! J x i.",
"& , v ' M l j 8 u 4 z U ' O.| ,.' O.{ j.0.1.6.( S d b b A { X.! ",
"& e x S A v D h j h ( { J d.-.q.P c.h.p.;.8.0.%.S s n b C L X.c ",
"+ = y u 7 7 u u i j Z v A A v j.k.j.k.f.9.3.3.P P v 3 7 r t > e "
};
