/* XPM */
static char *result[] = {
/* columns rows colors chars-per-pixel */
"32 32 213 2 ",
"   c #010000",
".  c #0B0705",
"X  c #0E0906",
"o  c #1B0B06",
"O  c #140D0A",
"+  c #1A0E09",
"@  c #1D120C",
"#  c #1C1511",
"$  c #2A0A07",
"%  c #360C07",
"&  c #23130B",
"*  c #2E130D",
"=  c #2B190F",
"-  c #3E190F",
";  c #3A130C",
":  c #241711",
">  c #2D1713",
",  c #241912",
"<  c #2B1C13",
"1  c #241D18",
"2  c #351B13",
"3  c #3C1C11",
"4  c #342116",
"5  c #3A2316",
"6  c #352419",
"7  c #3C2519",
"8  c #3D2C1F",
"9  c #480F05",
"0  c #42130B",
"q  c #45190E",
"w  c #4C160D",
"e  c #56170A",
"r  c #5C1209",
"t  c #531B0D",
"y  c #421711",
"u  c #4C1D14",
"i  c #441D12",
"p  c #5D1F12",
"a  c #64190B",
"s  c #711D0A",
"d  c #681F11",
"f  c #5F260F",
"g  c #422115",
"h  c #4C2416",
"j  c #48251A",
"k  c #442A1C",
"l  c #4A2A1B",
"z  c #572413",
"x  c #582917",
"c  c #552B1B",
"v  c #5B2C1B",
"b  c #5B2514",
"n  c #5B331E",
"m  c #52321E",
"M  c #65220E",
"N  c #69220F",
"B  c #78240F",
"V  c #6D2B15",
"C  c #642B1A",
"Z  c #6B2B18",
"A  c #642514",
"S  c #722615",
"D  c #792B16",
"F  c #742B16",
"G  c #67341C",
"H  c #6B331E",
"J  c #6A3217",
"K  c #75351C",
"L  c #7B341C",
"P  c #4D2D22",
"I  c #412B22",
"U  c #572E22",
"Y  c #4D3528",
"T  c #4B392A",
"R  c #4A3426",
"E  c #543424",
"W  c #5C3A2A",
"Q  c #5A3526",
"!  c #642F23",
"~  c #653423",
"^  c #6C3421",
"/  c #633A25",
"(  c #6C3A25",
")  c #643C2B",
"_  c #6C3D2A",
"`  c #61362A",
"'  c #723723",
"]  c #733D23",
"[  c #7C3B22",
"{  c #773C28",
"}  c #683E30",
"|  c #5D402E",
" . c #5E4230",
".. c #574435",
"X. c #64432D",
"o. c #6D442C",
"O. c #6D482D",
"+. c #7C4124",
"@. c #74442B",
"#. c #7D4A2C",
"$. c #7B452C",
"%. c #6C4432",
"&. c #654A35",
"*. c #664D3D",
"=. c #6B4E3D",
"-. c #674733",
";. c #7A4531",
":. c #754B34",
">. c #7C4C32",
",. c #724638",
"<. c #734D39",
"1. c #7C4D3A",
"2. c #734532",
"3. c #68513F",
"4. c #7C5134",
"5. c #75513B",
"6. c #7C533C",
"7. c #6A5041",
"8. c #745845",
"9. c #7C5B44",
"0. c #785B49",
"q. c #745341",
"w. c #7B614B",
"e. c #7A6554",
"r. c #81230B",
"t. c #912F11",
"y. c #813516",
"u. c #83361B",
"i. c #86391A",
"p. c #8B3B1D",
"a. c #893617",
"s. c #923918",
"d. c #803F29",
"f. c #853C23",
"g. c #8E401A",
"h. c #9A441D",
"j. c #B1521F",
"k. c #834125",
"l. c #8D4224",
"z. c #854823",
"x. c #8C4925",
"c. c #8D472C",
"v. c #844A2D",
"b. c #89482C",
"n. c #944A2A",
"m. c #8C522F",
"M. c #9F512C",
"N. c #965127",
"B. c #844C34",
"V. c #8C4D33",
"C. c #844E39",
"Z. c #914D33",
"A. c #9A4D30",
"S. c #835235",
"D. c #8B5335",
"F. c #83553A",
"G. c #8B553A",
"H. c #8C5C3D",
"J. c #845B3E",
"K. c #935434",
"L. c #945A35",
"P. c #945C3B",
"I. c #9B5A34",
"U. c #A4582D",
"Y. c #AC5226",
"T. c #B05C2C",
"R. c #A55D36",
"E. c #A34C28",
"W. c #8E613F",
"Q. c #94603D",
"!. c #9E623C",
"~. c #A6653B",
"^. c #B56B37",
"/. c #855B44",
"(. c #8A5D42",
"). c #815D4B",
"_. c #945E43",
"`. c #876043",
"'. c #8C6146",
"]. c #85634D",
"[. c #8C644A",
"{. c #8E694E",
"}. c #956343",
"|. c #9C6A46",
" X c #94654A",
".X c #99664B",
"XX c #9B6646",
"oX c #9C704D",
"OX c #866854",
"+X c #8B6B53",
"@X c #9A6D53",
"#X c #996E59",
"$X c #956D54",
"%X c #87715C",
"&X c #987152",
"*X c #9A765C",
"=X c #947255",
"-X c #A56541",
";X c #AA6B48",
":X c #A46C47",
">X c #A6724D",
",X c #AC744C",
"<X c #B47749",
"1X c #A77957",
"2X c #B47D53",
"3X c #967A64",
"4X c #BF825D",
"5X c #A78367",
"6X c #B38866",
"7X c #AC8D75",
"8X c #AD947F",
"9X c #CD9A6C",
"0X c #C89E7A",
/* pixels */
"$ $ U L ^ S r P b ; t N c x W ^ d l D { k.K [ V ( d B V a e y ; ",
"* > U ^ Z C ~ $.o.@.v Q v U { Z C u.u.Z p.#.v.+.u.[ i.K d N u 0 ",
"$ 3 D S D d 2.K.5. Xk.} C ! [ K ] s.u.C s.S.L.#.f.d.p.[ S B A w ",
"> 2 U 2.V.D.c.{ n.U.C.J.! x ^ <.f.g.K.Z.Q.E.L.Q.c.L v f.p Z f.S ",
"> % C { B./.B.1.4.P.o.I 7 O , # , l 8.J./.&X/.`.C.{ E %.` Q b u ",
"u Y z L J.n.H.V.(.$.*   +           6 6.z. X4X|.^.,X.X[.Z._ ' b ",
"P Y Q _ /.F.C.B.2.I ,                 R =X%X6X}.P.}.H.(.C.o.v u ",
"Y } @.O.).B.D D ~ o                   T 1X*X,X<X~.R.T.j.p.u.K p ",
"U ) ' ^ { F.[.`.].      . 6 6 l .     m '.;X,X].6X@X>Xz.m.9.G.S.",
"C c ^ ^ L B._.(.T l     . |.I.o.X     W #X:X:X{.5X.X'.4.K.D.S.(.",
"i u C ' i.D.>XXXE /       }.2X8..     X.#X.XD.XX~.I.'.#.+.s.' R.",
"y v v ^ L #. XH.(.6       +XW.R ,     &.7XOX$X#X:X(.'.O.] { ( b.",
"V v.z.#.D.n.[.S./.k O   X 1X}.+     . 9.0X3X9X.XoX!.4X~.z.) l.D ",
"b H H H @.v.S.w.9.W O 3.1 6X..O     < *.=X1X1X1X1X*.:.@.%.] G o.",
"t S S K :.x.x.6.;.$.(.!. .Q.O     O 4 {.&X>X*X6X5XX.%.C / K x v ",
"i b V / $.m.H.S.;.1.%.I.oXY O     , ..Q.}.=X*X8X7XOX<.&.G x n b ",
"q z M K v.#.G.G.$.6.5.H.K.@     . 4 9.m.K.;X@X5X3X0.5.-.n j g q ",
"e M b D c.>X,XP.A.v.K.P.G       & ^ Q.D.L.U.~.,X*X}.K.%.G z t H ",
"t V V K x.-X1X[.D.D.G.D.2 X     + S.L.m.P.K.Q._. X}.V.X.n } W ) ",
"f y.h.N.U.~.;X;X*X-X~.K.2       +.M.<X^..X-X@Xl.Y.G.K.v.1.OX9.c.",
"h ( 5.0.%X+X%X+XOXo.[ k       , /.&X*XS.:.OX).:.6.>.*.%.0.*.e.*.",
"- x _ 6.w.@X%X[.XXL a.o       < ]./.8.j = < , / F.V.0.6./.&.0.7.",
"2 c @.5.`.[.{._.P.XX@.o       + = & # X . .     @  .[.q.<.' 2.f.",
"o z o.&./.0.[.P.}.,X)                           @ X.[.7.%.) 2.[ ",
"; N :.|.'.{.{.4.D.S.h                         . Y P./.o.W E ' p.",
"% c G >.S.6.6.#.:.:.7 .               & @ 4 8 6 , E O.W _ v b p ",
"; / H D.D.S.B.M.>.H k .   . 4 4 k / X.G K 4X>XF.E K l.<.V.^ e 9 ",
"$ 3 h / E 9.6.n ) U U @.^ 7 k -.=.{ @.O.4.6.'.X.X.Q C j P 5 * % ",
"9 e G i.G ~.XXC V @.Z S.D #.@.K.>.K n.;.#.S.k.v.E.L B a U H z r.",
"$ ; c ~ U l h 7 g g E } ~ ] _ &.~ ] ] f.5.3.<.W Z N v v C ( [ Q ",
"$ 0 z Z C c A h j g W ( G p.@.6.L l.d.t.#.3.5.o.V s b v B K [ c ",
"o % t 0 7 7 g q u j V v C C c f.h.d.h.y.4.:.:.K L x 2 7 e r - w "
};
