/* XPM */
static char *result[] = {
/* columns rows colors chars-per-pixel */
"32 32 211 2 ",
"   c #010000",
".  c #0A0604",
"X  c #0D0906",
"o  c #110A07",
"O  c #1B0A06",
"+  c #150E09",
"@  c #1B0E09",
"#  c #1B120D",
"$  c #14110F",
"%  c #1F1812",
"&  c #2A0A07",
"*  c #340D07",
"=  c #380C07",
"-  c #24150E",
";  c #2F120E",
":  c #27150B",
">  c #33130B",
",  c #3E190F",
"<  c #3C130C",
"1  c #2D1713",
"2  c #241A12",
"3  c #2C1B12",
"4  c #211611",
"5  c #331C14",
"6  c #3C1D12",
"7  c #2D231B",
"8  c #352216",
"9  c #3C2316",
"0  c #3C2419",
"q  c #36271D",
"w  c #372A21",
"e  c #3E2F25",
"r  c #480F05",
"t  c #42130B",
"y  c #45190E",
"u  c #4C160D",
"i  c #56170A",
"p  c #5C1209",
"a  c #531B0D",
"s  c #421711",
"d  c #4C1D14",
"f  c #441D12",
"g  c #5D1F12",
"h  c #64190B",
"j  c #711D0A",
"k  c #681F11",
"l  c #5F260F",
"z  c #422215",
"x  c #4B2415",
"c  c #49261A",
"v  c #442C1D",
"b  c #4A291B",
"n  c #562414",
"m  c #5A2A17",
"M  c #552B1C",
"N  c #5B2C1B",
"B  c #5B2514",
"V  c #4D311F",
"C  c #5B341E",
"Z  c #65220E",
"A  c #69220F",
"S  c #78240F",
"D  c #6D2B15",
"F  c #642B1A",
"G  c #6B2B18",
"H  c #642514",
"J  c #722615",
"K  c #792B16",
"L  c #732A14",
"P  c #66341C",
"I  c #6B331E",
"U  c #75351C",
"Y  c #7B341C",
"T  c #7B3014",
"R  c #412E22",
"E  c #4E2D22",
"W  c #572E22",
"Q  c #443225",
"!  c #4B3323",
"~  c #4E3629",
"^  c #4F3829",
"/  c #483628",
"(  c #543323",
")  c #5C3424",
"_  c #563825",
"`  c #5A372B",
"'  c #5B3B2A",
"]  c #563C2B",
"[  c #523E32",
"{  c #6C3421",
"}  c #643B24",
"|  c #6C3B26",
" . c #643C2A",
".. c #6C3D2A",
"X. c #643525",
"o. c #723723",
"O. c #723B23",
"+. c #7C3B22",
"@. c #773C28",
"#. c #683E30",
"$. c #76401F",
"%. c #5D422F",
"&. c #524032",
"*. c #5B4233",
"=. c #5F4936",
"-. c #6D442C",
";. c #6D482D",
":. c #65432E",
">. c #7C4125",
",. c #74442B",
"<. c #7C422C",
"1. c #744A2C",
"2. c #7D4A2C",
"3. c #6C4432",
"4. c #644A35",
"5. c #6D4A34",
"6. c #664D3D",
"7. c #634535",
"8. c #754B33",
"9. c #7B4C34",
"0. c #734C39",
"q. c #764735",
"w. c #69513F",
"e. c #75513B",
"r. c #7B533C",
"t. c #7B5337",
"y. c #6A5041",
"u. c #785C4A",
"i. c #785945",
"p. c #7B614B",
"a. c #746555",
"s. c #81230B",
"d. c #912F11",
"f. c #833516",
"g. c #82361B",
"h. c #86391A",
"j. c #8B3B1D",
"k. c #923918",
"l. c #803F29",
"z. c #863C23",
"x. c #9A441D",
"c. c #B1521F",
"v. c #834125",
"b. c #854823",
"n. c #8C4925",
"m. c #844B2D",
"M. c #8C4B2C",
"N. c #88442A",
"B. c #994A29",
"V. c #934828",
"C. c #8C522F",
"Z. c #9F512C",
"A. c #95512B",
"S. c #834D34",
"D. c #8A4C33",
"F. c #844E39",
"G. c #914D33",
"H. c #845335",
"J. c #8B5335",
"K. c #8E5B3B",
"L. c #86573B",
"P. c #945534",
"I. c #945C3C",
"U. c #995A34",
"Y. c #A34C28",
"T. c #A4582D",
"R. c #B05C2C",
"E. c #A85A37",
"W. c #A45D37",
"Q. c #8E613F",
"!. c #94603D",
"~. c #9D623E",
"^. c #A5643B",
"/. c #B56B37",
"(. c #865A45",
"). c #8A5D42",
"_. c #925C42",
"`. c #995F45",
"'. c #856045",
"]. c #8D6245",
"[. c #8B634A",
"{. c #87644D",
"}. c #94654A",
"|. c #99664B",
" X c #92694B",
".X c #9D6B4B",
"XX c #9A6544",
"oX c #9C704D",
"OX c #866854",
"+X c #8C6C55",
"@X c #836B59",
"#X c #9A6D53",
"$X c #996E59",
"%X c #956E56",
"&X c #87715C",
"*X c #89705D",
"=X c #9B755B",
"-X c #95755C",
";X c #A56541",
":X c #A26E4B",
">X c #AA6B48",
",X c #A76C45",
"<X c #A5724D",
"1X c #AC744B",
"2X c #B57648",
"3X c #A97956",
"4X c #B47E54",
"5X c #997A63",
"6X c #C27D4B",
"7X c #B9855E",
"8X c #AD8667",
/* pixels */
"& & E Y o.J p E B < a Z M m ` { k b L >.v.U Y G | A J D h i y < ",
"; 1 W { G F X.,.-.,.N ) N W @.G F g.g.G j.2.m.>.h.+.h.U k k d t ",
"& 6 K J K g ,.S.%.r.o.` n W F F C T Y B f.;.C.2.z.@.j.z.L J H r ",
"1 5 W q.M.J.+.6 @ @ # 2 O O @ % @ & 9 b V F 1.L.M.Y N z.g G z.J ",
"; & F @.S.(.9 X                         . 2 q *.9.@.( 3.X.` B d ",
"d ~ n Y L.G.!                                 o /.1X.X[.G...U B ",
"E ~ ) ..(.H.+                       .       7 !.I.`.K.).F.-.N d ",
"~ #.-.-.{.S.O       8 ! V ^ V ! x ! V q 2 . v 8.^.E.R.c.j.g.o.g ",
"W  .o.| @.H.Q       m.(.[..XI.XX#X1X#X^.).>X<X{.8X#X<Xb.C.i.K.H.",
"F M { { Y S.`       C }.!.1XU.W.>X3X#X>X$X:X,X X8X|.].t.P.J.S.).",
"f d F o.h.J.5..     _ 1XoXoX].+X<X.X2X4X$X|.J.XX^.U.].2.>.k.o.W.",
"s N N { Y 2.~ .     ^ r.r.&.3 2 2 Q ' [ *Xu.%X%X|.].Q.;.O.@.| N.",
"D m.b.2.J.V.] X     v 7 + + X         # % &.7X}..X~.7X^.b. .n.K ",
"n I I I ,.m.v X     7 $                     % {.3X6.q.,.3.O.P -.",
"a J L Y 8.n.m X                     .         =.-X4.3.F } U N N ",
"f n D } ,.C._ #           2 5 V 0 v 7 .       $ @Xu.8.4.P m C B ",
"y n Z U m.2.V 9       8 C 5 b P.I.I.i.-.z +     . &.e.7.C x z y ",
"i Z B K M.<XL.8 X   b V $.Y.P.V.B.M.!.J.:.: .     v P.;.P n a I ",
"a D D U n.;X3X[.) C @ -.P.U.P.J.S.H.U.C.I.M 3     o <.:.C #.'  .",
"l f.x.A.T.W.>X>X=X;X;XW.E.].;X<XT.Z.2X/.|.J.e       | 2.9.OXi.M.",
"x | e.i.&X+X&X+XOX..+.L.!.[. X7X X#X=XJ.).5X7.      w 3.u.6.a.6.",
", N ..r.p.#X&X'.XX+.k.z.B.T.>X6X=X#X-XN.N.}._ .     e r.(.4.u.y.",
"5 M ,.e.'.{.(.9.I.XXI.j.B.P.A.J.P.P..X,XXXP.) .     Q i.0.o.q.z.",
"O n -.4.(.*.[ ( :.XXI.g.j.M.A.9.P.M.XX,X).D.0       ^ y.3. .q.+.",
"< Z 8..X].Q     . 5 z z V 5.S.,.D.-.2.r.2.( #       ' ;.' ( o.j.",
"> M P 9.H.'       . X o # @ + # : @ - - # 2 $     X V *...N B g ",
"< } P J.J.V X                                   # > +.0.D.{ i r ",
"& s x X.( 4.2                                 3 v 3 F c E 0 * * ",
"r i P h.P ^.XXn , -   .                   3 x 5 P Y S h ) P n s.",
"& < M X.C b c 9 z z ( #.X.o.) R z c c n / Q ! ' D k N N F | +.) ",
"& t n G F M H c c z ' | P j.,.r.Y n.<.d.2.w.e.-.D j B N J U +.M ",
"O * a t 0 0 f y d c D N F F M z.x.v.x.f.9.8.8.Y Y m 5 9 i p , u "
};
