/* XPM */
static char *result[] = {
/* columns rows colors chars-per-pixel */
"32 32 197 2 ",
"   c #010101",
".  c #090604",
"X  c #0B0905",
"o  c #0E0B08",
"O  c #150301",
"+  c #130A06",
"@  c #130D09",
"#  c #190E0A",
"$  c #16100B",
"%  c #1B120D",
"&  c #250301",
"*  c #2D0502",
"=  c #2B0A07",
"-  c #310501",
";  c #3D0300",
":  c #310B03",
">  c #390B04",
",  c #25160E",
"<  c #29100B",
"1  c #3C1206",
"2  c #32140C",
"3  c #391508",
"4  c #2C1D15",
"5  c #371D13",
"6  c #292018",
"7  c #342115",
"8  c #3A2113",
"9  c #30271C",
"0  c #372A21",
"q  c #400B02",
"w  c #490903",
"e  c #5C0A02",
"r  c #431206",
"t  c #4E1506",
"y  c #411409",
"u  c #4B170C",
"i  c #401B0D",
"p  c #4A1F0E",
"a  c #541204",
"s  c #561F0B",
"d  c #5D1C0B",
"f  c #641303",
"g  c #651D06",
"h  c #691D06",
"j  c #611F0D",
"k  c #691908",
"l  c #721703",
"z  c #791F06",
"x  c #4C210E",
"c  c #5F2106",
"v  c #452213",
"b  c #4B2514",
"n  c #4D2B1D",
"m  c #552613",
"M  c #5B2814",
"N  c #552B1B",
"B  c #52311E",
"V  c #5C311B",
"C  c #6C260D",
"Z  c #74220D",
"A  c #7A270E",
"S  c #642713",
"D  c #6B2711",
"F  c #622D1D",
"G  c #762A14",
"H  c #673115",
"J  c #64341F",
"K  c #6B3119",
"L  c #753117",
"P  c #7B3214",
"I  c #73341E",
"U  c #75391E",
"Y  c #7D381C",
"T  c #4B2E20",
"R  c #443123",
"E  c #4D3324",
"W  c #48392C",
"Q  c #523524",
"!  c #5C3724",
"~  c #573429",
"^  c #5D3E2B",
"/  c #6C3721",
"(  c #643925",
")  c #6C3A25",
"_  c #623828",
"`  c #683C2C",
"'  c #7A3B22",
"]  c #5A4737",
"[  c #64412B",
"{  c #6D442A",
"}  c #6E4A2D",
"|  c #7A4325",
" . c #74422A",
".. c #7B442D",
"X. c #734A2C",
"o. c #7E4A2B",
"O. c #644734",
"+. c #654932",
"@. c #6B4B35",
"#. c #664D3A",
"$. c #734535",
"%. c #764B32",
"&. c #7B4B35",
"*. c #69503D",
"=. c #7D5031",
"-. c #765039",
";. c #7C533A",
":. c #785441",
">. c #755844",
",. c #7A5B45",
"<. c #7D614A",
"1. c #746554",
"2. c #821E03",
"3. c #922B09",
"4. c #82320F",
"5. c #853414",
"6. c #8C3817",
"7. c #84391E",
"8. c #8B3B1E",
"9. c #933611",
"0. c #963F15",
"q. c #823E22",
"w. c #86461E",
"e. c #9D4416",
"r. c #B25019",
"t. c #864127",
"y. c #8C4721",
"u. c #8E4528",
"i. c #854929",
"p. c #8D4A28",
"a. c #9A4924",
"s. c #944C29",
"d. c #9B4C2C",
"f. c #8D512B",
"g. c #975022",
"h. c #844C33",
"j. c #8D4E32",
"k. c #924C30",
"l. c #845133",
"z. c #8C5334",
"x. c #855B3C",
"c. c #8D5C3B",
"v. c #945331",
"b. c #995532",
"n. c #945B33",
"m. c #9D5B35",
"M. c #955D39",
"N. c #A44A23",
"B. c #AC5121",
"V. c #A35428",
"C. c #B15C28",
"Z. c #A55D34",
"A. c #A95A34",
"S. c #8F613D",
"D. c #95603A",
"F. c #9E623D",
"G. c #A6643B",
"H. c #B66B35",
"J. c #875A43",
"K. c #8A5D40",
"L. c #925D40",
"P. c #9B5F43",
"I. c #8B6143",
"U. c #85624B",
"Y. c #8D6449",
"T. c #8E694D",
"R. c #956342",
"E. c #9D6441",
"W. c #9D6A44",
"Q. c #956549",
"!. c #9A664B",
"~. c #93694A",
"^. c #9F6B4B",
"/. c #9D714D",
"(. c #876953",
"). c #8C6B52",
"_. c #9A6D53",
"`. c #88725C",
"'. c #997458",
"]. c #A56C42",
"[. c #AB6B45",
"{. c #A7734C",
"}. c #AD754B",
"|. c #A67B53",
" X c #AB7A54",
".X c #A57C5A",
"XX c #B57F52",
"oX c #BE7E52",
"OX c #867362",
"+X c #987962",
"@X c #A98466",
"#X c #A2856E",
"$X c #B58966",
"%X c #B19175",
"&X c #C0835D",
"*X c #C48B5B",
"=X c #C99E7B",
/* pixels */
"& & T 5.I Z e T d > a g m m ~ K k b Z q.w.L Y D J h z C f a q > ",
"= < N K D S F ' { | M V M N ' D S 5.5.D 6.| i.' 5.Y 5.L k h u q ",
"& 3 A Z A d  .v.-.Q.q.` S F 7.G ' 9.5.S 9.l.n.o.7.q.6.7.Z z S w ",
"< 2 N  .u.z.u.q.d.V.h.x./ K q.J.a.e.k.k.D.N.n.D.u.P M q.d D 7.z ",
"= * S ' h.J. .` [ o.&.x.$.@.;.>.h.o.,.;.;.T.K.I.h.' T $._ ~ d u ",
"u E s P J.t.7 @ % , 2 8 b b W Q E x B R v @. XW.H.}.^.Y.s.) K d ",
"T T V ) J.[ 5           . o % % @ % @ o 6 0 >.D.M.R.c.K.h.) M u ",
"E ` {  .U...+                               . F.G.A.C.r.6.5.L j ",
"N ( / / ' n @         .                       ,.$X_.{.w.f.,.z.l.",
"S m K K P h.L.;.W N n E 8 + X . . . .         U.@XQ.Y.=.v.z.l.c.",
"y u D / 6.z.{.E.D.G.W.}.W.{.&X@X*XXXc.4     . E.G.m.R.o.' 9./ Z.",
"r M M K P o.Q.c.K.W._.Q.@X).S.~.|..X[ .     % '.].K.c.{ U ' / t.",
"C i.w.i.z.s.Y.l.J.m.{.U.oX.X].H..X=X9     . #.!./.F.&XG.w.( y.A ",
"d K H H | i.l.<.,.-.'.@X%X$X@X@X@X+X.     X T.|..X#.X. .{ U K ) ",
"a z Z L %.w.y.;...| K.n.I.D.M.'./.O..     % T.@X@X[ { S J L M M ",
"y m C ( | p.c.l...%.T n E R Q B Q 4 .     $ 0 OX#X(.%.+.H m V c ",
"r s c L i.o.z.z.| [ @ $ + # + # + X           o W >.-.[ V p i r ",
"a g M A p.{.}.M.d.i.,                           ] D.v.{ H s a K ",
"a C C P y.G. XT.z.n 5                         Q Y.R.k.[ V ` ! ( ",
"d 4.e.g.V.Z.[.[.'.G.! 8 . . . .         . 8 0 p K z.b.o.&.(.,.p.",
"p K ;.,.`.).`.).(.) Y z.D.Y.~..Xo     + ^ +X_.;.;.&.#.{ ,.#.1.#.",
"1 M ) ;.<._.`.Y.].Y 9.q.V.V.G.X..     + t.Q.E.z.c.k.>.;.I.+.,.#.",
"2 m  .-.J.Y.Y.L.M.E.M.6.a.z.s.n       Q E.b.M.x.p.K.U.:.%.I ..q.",
"O s { +.J.,.Y.M.P.}.P.9.e.p.s.#       } L.k.M.l.y.-.J.>.{ _ $.Y ",
"> g X.W.I.T.T.=.z.h.a.a.K.!.G.5       I.G.E.|.R.~ M.x.{ ! B I 6.",
"* m H o.l.;.;.o.%.o.i.t. .$.l.,     @ =.z.c.~.;.E { { ^ ) M d d ",
"> J H z.f.l.h.V.&.K ( n.Z.i. .[ o N , B.V.&X{.l.B L 8.%.j.K a ; ",
"& 1 x ( Q ,.;.M ( N N | ' ! [ ^ R V 8 { =.;.I.` ^ V S b n 8 : - ",
"w a K 5.H G.F.S D  .D h.A o.) v.o.L a...o.l.w.i.V.P z f V H s 2.",
"& > m J V b x 8 i i Q ` J ' ) O.J U / 7.-.@.%.! D h M M S / Y V ",
"& ; c S S m j x v y ! / H 6.) x.P 0.q.3.o.*.-.) C l d M z L Y m ",
"O - t q 8 8 3 r u v C M S S m q.e.q.0.4.&.%.&.P P m 2 5 a e 1 w "
};
