/* XPM */
static char *result[] = {
/* columns rows colors chars-per-pixel */
"32 32 209 2 ",
"   c #010100",
".  c #0B0604",
"X  c #0D0906",
"o  c #0F0B08",
"O  c #120A06",
"+  c #1C0906",
"@  c #140D0A",
"#  c #160B07",
"$  c #1D120C",
"%  c #16120E",
"&  c #2A0A07",
"*  c #340D07",
"=  c #380C07",
"-  c #21140D",
";  c #2D140C",
":  c #2A180E",
">  c #34140B",
",  c #311B0E",
"<  c #3E190F",
"1  c #3C130C",
"2  c #2D1713",
"3  c #251B13",
"4  c #2B1B13",
"5  c #351C14",
"6  c #3A1C12",
"7  c #2C2119",
"8  c #3D2216",
"9  c #35251A",
"0  c #3A2519",
"q  c #3F291B",
"w  c #312016",
"e  c #322922",
"r  c #3F3024",
"t  c #480F05",
"y  c #42130B",
"u  c #45190E",
"i  c #4C160D",
"p  c #56170A",
"a  c #5C1209",
"s  c #531B0D",
"d  c #421711",
"f  c #431C11",
"g  c #4C1D14",
"h  c #5D1F12",
"j  c #64190B",
"k  c #711D0A",
"l  c #681F11",
"z  c #5E250F",
"x  c #432215",
"c  c #4C2416",
"v  c #4E2816",
"b  c #42271B",
"n  c #48251A",
"m  c #452B1D",
"M  c #4B2B1D",
"N  c #412817",
"B  c #562413",
"V  c #582917",
"C  c #552B1B",
"Z  c #5B2C1B",
"A  c #5C2414",
"S  c #4B311F",
"D  c #5B331D",
"F  c #52301C",
"G  c #65220E",
"H  c #69220F",
"J  c #78240F",
"K  c #6D2B15",
"L  c #642B1A",
"P  c #6B2B18",
"I  c #652615",
"U  c #722615",
"Y  c #722B15",
"T  c #792B16",
"R  c #67341C",
"E  c #6B331E",
"W  c #76351B",
"Q  c #7B341C",
"!  c #422E21",
"~  c #4D2D23",
"^  c #562E22",
"/  c #4E3324",
"(  c #4E3528",
")  c #4A3A2D",
"_  c #533323",
"`  c #5B3423",
"'  c #523926",
"]  c #5C3A2A",
"[  c #593A29",
"{  c #653423",
"}  c #6C3522",
"|  c #633924",
" . c #6C3A26",
".. c #643C2A",
"X. c #6C3D2A",
"o. c #61362A",
"O. c #723723",
"+. c #7C3B23",
"@. c #763C28",
"#. c #743C23",
"$. c #683E30",
"%. c #5C4030",
"&. c #5B4738",
"*. c #66442D",
"=. c #6D442C",
"-. c #6D482D",
";. c #7C4125",
":. c #74442B",
">. c #73492F",
",. c #7D4A2C",
"<. c #6C4532",
"1. c #654A35",
"2. c #664D3D",
"3. c #644431",
"4. c #754B33",
"5. c #734C39",
"6. c #7E4E3A",
"7. c #784833",
"8. c #69513F",
"9. c #7D5235",
"0. c #75513B",
"q. c #7C533C",
"w. c #6C5142",
"e. c #785B49",
"r. c #785A44",
"t. c #7C614C",
"y. c #7B6756",
"u. c #81230B",
"i. c #912F11",
"p. c #813516",
"a. c #83361B",
"s. c #86391A",
"d. c #8B3B1D",
"f. c #923918",
"g. c #803F29",
"h. c #863C23",
"j. c #95411C",
"k. c #9C461D",
"l. c #B1521F",
"z. c #834125",
"x. c #854823",
"c. c #85442B",
"v. c #8D472C",
"b. c #844A2D",
"n. c #8C4829",
"m. c #934B2B",
"M. c #954626",
"N. c #8C522F",
"B. c #9F512C",
"V. c #95512B",
"C. c #844E39",
"Z. c #854D34",
"A. c #914D33",
"S. c #845235",
"D. c #8B5335",
"F. c #87583C",
"G. c #945534",
"H. c #945C3B",
"J. c #985A34",
"K. c #A4582D",
"L. c #B05C2C",
"P. c #A85A37",
"I. c #A45D37",
"U. c #A34C28",
"Y. c #8E613F",
"T. c #94603D",
"R. c #9D623E",
"E. c #A6653B",
"W. c #B56B37",
"Q. c #865A44",
"!. c #8A5D42",
"~. c #835740",
"^. c #945E43",
"/. c #876043",
"(. c #8C6146",
"). c #8C644A",
"_. c #8E694E",
"`. c #84624C",
"'. c #9C6443",
"]. c #9C6A46",
"[. c #94654A",
"{. c #92694B",
"}. c #9D6B4B",
"|. c #966445",
" X c #9C704D",
".X c #866854",
"XX c #8C6C55",
"oX c #886652",
"OX c #966C52",
"+X c #9A6D53",
"@X c #87715C",
"#X c #9B755B",
"$X c #977559",
"%X c #A56541",
"&X c #AA6B48",
"*X c #A86C45",
"=X c #A6724D",
"-X c #AC744C",
";X c #B47749",
":X c #A57954",
">X c #A37B5A",
",X c #AA7956",
"<X c #B97E53",
"1X c #C27D4B",
"2X c #BF825D",
"3X c #A78367",
"4X c #A2856B",
"5X c #B38866",
"6X c #C3895B",
/* pixels */
"& & ~ Q O.U a ~ A 1 s H C V ] } H M Y ;.z.W +.P  .H J K j p d 1 ",
"; 2 ^ } P L { ;.=.:.Z ^ C ^ } L V T a.P s.,.b.;.a.+.s.W l H g y ",
"& 6 T U T l <.G.5.r.{ q < 5 g u 6 z Y Z f.S.H.,.h.+.h.h.U U A i ",
"2 5 ^ 7.v.D.v.@.v , # . . . O .   , 8 { H.B.J.T.v.Q Z h.h K h.U ",
"; * L @.C.Q.C./ @                     9 0.OX!./.C.@.` <.o.[ A g ",
"g ( B Q F.v.9.6 .                       R [.2X].W.-X}.).A. .W A ",
"~ ( ` X.Q.C.! O       9 9 . .           r y.5X'.H.|.H.!.C.=.Z g ",
"( $.=.-.`.Z.#     o - -.-.:X;X}.;       o e.-X;XE.P.L.U.d.a.W h ",
"^ ..O. .@.C..     : C Q.). XH.R.[ $       m -X`.5X+X=Xx.N.r.D.S.",
"L C } } Q M @     $ J.{.T.-XJ.I.=Xw       w T._.3X[.).9.G.D.S.!.",
"f g L O.s.M o     F ].-X X:X2X3X6X' .       :.'.E.J.Y.,.;.f.O.I.",
"d Z Z } Q M @     ' OX[. X_.Y._.:X%.        %.oX}.(.Y.-.#.@. .c.",
"K b.x.,.D.v @     m =X`.2X:X*XW.>X)         . Q.}.R.2XE.x...M.T ",
"B E E E :.C q     3 e.$X4X#XXX.Xt.%           %.#X2.4.:.<.#.R =.",
"s U U Q 4.v D     . 4 N m m 9 7 ! %     .     @ $X*.<.L | W Z Z ",
"f B K | :.N.N -       O @ @ X X       - 3     . y..X5.1.R V D B ",
"u B z W b.,.7.4 .                   7 | N o     e w.0.3.D c f f ",
"p H z T v.=X-X:.; .             X 8 ] w D ,       F.G.-.R B s E ",
"s K K W n.E.,X).D.>.~ :   .   4 4 F N.N.H.n     . -.A.3.D $.] ..",
"h Q k.V.K.E.&X&X#X%X%XI.P.|.E.=XK.B.;XW.[.>.      m J.,.6..Xe.v.",
"c  .0.e.@XXX@XXX.XX.+.D.H.).{.3X{.+X#XD.!.&.      b 2.<.e.2.y.2.",
"< V =.9.t.+X@X).'.+.f.h.B.K.&X1X#X+X#Xb.b.( o     n e.6.Q.1.e.w.",
"5 C :.5./.).oX^.H.'.H.d.V.J.V.D.G.G.}.R.9.b .     ! ).r.5.O.7.h.",
"+ A -.1.Q.e.).H.|.;X^.d.j.v.m.7.G.c.4.*.m O       0 ).w.<...<.#.",
"1 H 4.].(._._.9.D.S.M.M.0.F.H.@.:.b - o .         ] F.-.] _ O.d.",
"> C R ,.S.q.q.,.4.4.o.x 9 0 m 4 O $ @           @ / >.%.X.Z A h ",
"1 o.R D.D.S.Z.B.6.E 0     . . o               w 4 B z.5.A.} p = ",
"& < c | _ r.q.D ..^ 5                 $ : ! 9 4 4 ` L n ~ 0 > = ",
"t p R s.R E.'.L P | ; O           ; B $ ` S.z.b.B.Q J j D R B u.",
"& 1 C { D M c 0 x f _ 4 $     o 5 ; 8 h.0.2.5.] P H Z Z L  .+.` ",
"& y A K L C I c n x ]  .R d.:.0.W M.;.i.,.8.0.-.K k A Z U W +.C ",
"+ * g y 0 0 f u g n K Z L L C h.k.z.j.a.9.4.4.W Q A 5 8 p a < i "
};
