/* XPM */
static char *result[] = {
/* columns rows colors chars-per-pixel */
"32 32 149 2 ",
"   c black",
".  c #010101",
"X  c #020100",
"o  c #020101",
"O  c #030101",
"+  c #030201",
"@  c #030202",
"#  c #040201",
"$  c #050201",
"%  c #050302",
"&  c #060404",
"*  c #060504",
"=  c #060505",
"-  c #070605",
";  c #080705",
":  c #090706",
">  c #080707",
",  c #0A0706",
"<  c #0A0907",
"1  c #090909",
"2  c #0A0908",
"3  c #0B0A08",
"4  c #0D0A08",
"5  c #0F0D0C",
"6  c #0F0E0D",
"7  c #100D0B",
"8  c #30110A",
"9  c #32120B",
"0  c #33130C",
"q  c #33140C",
"w  c #35150D",
"e  c #241D1D",
"r  c #251D1D",
"t  c #261E1E",
"y  c #3F1A10",
"u  c #292121",
"i  c #2A2221",
"p  c #2B2222",
"a  c #2C2322",
"s  c #401A11",
"d  c #401B11",
"f  c #421B11",
"g  c #431C12",
"h  c #472218",
"j  c #492419",
"k  c #49241A",
"l  c #4A261C",
"z  c #4B271C",
"x  c #4C271C",
"c  c #4D281D",
"v  c #4F2A1E",
"b  c #512C1F",
"n  c #5F382C",
"m  c #60392D",
"M  c #613A2C",
"N  c #613A2E",
"B  c #623B2E",
"V  c #623B2F",
"C  c #633B2F",
"Z  c #653D2E",
"A  c #694030",
"S  c #6B4332",
"D  c #684237",
"F  c #694337",
"G  c #694437",
"H  c #6E4534",
"J  c #704634",
"K  c #714836",
"L  c #734836",
"P  c #794D32",
"I  c #7A4E32",
"U  c #7B4F33",
"Y  c #7C4F33",
"T  c #764B38",
"R  c #7E5237",
"E  c #805438",
"W  c #805538",
"Q  c #815538",
"!  c #815539",
"~  c #825639",
"^  c #82563A",
"/  c #83573A",
"(  c #885939",
")  c #89593A",
"_  c #895A3B",
"`  c #8A5A3A",
"'  c #8B5B3B",
"]  c #996745",
"[  c #996746",
"{  c #9C6A47",
"}  c #9E6B48",
"|  c #9E6C49",
" . c #9F6D4B",
".. c #9C6D4D",
"X. c #9E6D4D",
"o. c #9C6E4E",
"O. c #9E6E4E",
"+. c #A06D4A",
"@. c #A06F4D",
"#. c #A16F4D",
"$. c #A17050",
"%. c #A27150",
"&. c #A37251",
"*. c #A47453",
"=. c #A57555",
"-. c #A67656",
";. c #B68F74",
":. c #BB9276",
">. c #BC9378",
",. c #BC9478",
"<. c #BD9479",
"1. c #BE9578",
"2. c #BE9679",
"3. c #C3997B",
"4. c #C3997C",
"5. c #C49A7D",
"6. c #C59B7E",
"7. c #C5A086",
"8. c #C8A188",
"9. c #C8A288",
"0. c #CBA48A",
"q. c #CDA58A",
"w. c #CDA58B",
"e. c #D0A88D",
"r. c #D1A98E",
"t. c #D2AA8F",
"y. c #CFAE97",
"u. c #D2AB90",
"i. c #D6B49B",
"p. c #D6B49C",
"a. c #D7B49C",
"s. c #D7B59C",
"d. c #D8B59E",
"f. c #DCBFAB",
"g. c #E0BCA3",
"h. c #E1C4B0",
"j. c #E3C5B0",
"k. c #E4C5B1",
"l. c #E4C6B2",
"z. c #E5C6B2",
"x. c #EACBB6",
"c. c #EBCCB7",
"v. c #F7F3F1",
"b. c #F7F4F2",
"n. c #FBF8F7",
"m. c #FBF9F8",
"M. c #FBF9F9",
"N. c white",
"B. c None",
/* pixels */
"B.B.B.B.B.B.B.B.                                B.B.B.B.B.B.B.B.",
"B.B.B.B.B.B.B.B.# # # # # # # # # # # # # # O O B.B.B.B.B.B.B.B.",
"B.B.B.B.B.B.    z z z z z z z z z z z z z l d s     B.B.B.B.B.B.",
"B.B.B.B.B.B.    c c c c c c c c c c c c c x f f     B.B.B.B.B.B.",
"B.B.B.B.  # z c c c h h c c c c c c c c h h c c f y X   B.B.B.B.",
"B.B.B.B.  # z c c c h h c c c c c c c c h h c c f y X   B.B.B.B.",
"B.B.B.B.  # z c c c h h c c h h c c c c h h c c f y X   B.B.B.B.",
"B.B.B.B.  # z c c c h h c c h h c c c c h h c c f y X   B.B.B.B.",
"B.B.    c c c c c v W ~ c v W ~ c v W ~ h h c c f y X   B.B.B.B.",
"B.B.    c c c c v b Q ~ v b Q ~ c v W ~ j k c c g s $ O B.B.B.B.",
"B.B.    c c c c W Q ~ ~ W Q ~ ~ c v W ~ E R j h c x d s     B.B.",
"B.B.    c c c c ~ ~ ~ ~ ~ ~ ~ ~ c v W ~ ~ E j h c x f f     B.B.",
"B.B.B.B.  O s f ` ( B N N V ! ~ ` ( B N N C ) ` c v P I     B.B.",
"B.B.B.B.  O s f ' _ m n D F / / ' ) m n D G ` ' c v P I     B.B.",
"B.B.B.B.  O s f %.X.w 9 M.b.=.%.} ] w 9 M.v.@.} c v P I     B.B.",
"B.B.B.B.  O s f &.O.q 8 N.m.-.&.} [ 0 8 N.n.#.} c v P I     B.B.",
"B.B.B.B.  O s f &.&.&.&.&.&.&.&.} } } } } | &.&.        B.B.B.B.",
"B.B.B.B.  O s f ..o.*.*.%.%.$.$.{ { { { +. .....        B.B.B.B.",
"B.B.B.B.B.B.B.B.% 4 1.4./ ^ Y U U U U U 3.:., % B.B.B.B.B.B.B.B.",
"B.B.B.B.B.B.B.B.  ; 2.5.~ ! I I I I I I 5.>.&   B.B.B.B.B.B.B.B.",
"B.B.B.B.B.B.    5.6.r.r.  ; 2.5.5.>.&   r.e.5.5.    B.B.B.B.B.B.",
"B.B.B.B.B.B.: : 6.6.r.r.  ; 2.5.6.,.&   r.e.6.6.; ; B.B.B.B.B.B.",
"B.B.B.B.  : 7.0.r.r.r.r.  ; 2.5.r.8.*   r.r.r.r.2.;.&   B.B.B.B.",
"B.B.B.B.  : 0.r.r.r.r.r.  ; 2.5.r.9.*   r.r.r.r.5.>.&   B.B.B.B.",
"B.B.B.B.  % J L 5.6.r.r.r.r.r.r.r.r.r.r.r.q.T L A Z +   B.B.B.B.",
"B.B.B.B.  % S H >.<.t.u.u.u.u.u.u.u.u.u.t.w.K H Z M +   B.B.B.B.",
"B.B.B.B.B.B.@ @ & 7 k.x.x.x.x.x.x.x.x.x.g.i., @ + + B.B.B.B.B.B.",
"B.B.B.B.B.B.      2 l.c.c.c.c.c.c.c.c.c.g.p.=       B.B.B.B.B.B.",
"B.B.B.B.B.B.B.B.  2 l.c.g.a.-     3 z.c.g.p.=   B.B.B.B.B.B.B.B.",
"B.B.B.B.B.B.B.B.  < f.j.s.y.-     3 f.h.d.y.=   B.B.B.B.B.B.B.B.",
"B.B.B.B.B.B.B.B.  o i a 6 6 B.B.B.B.5 5 p u .   B.B.B.B.B.B.B.B.",
"B.B.B.B.B.B.B.B.  o r t 1 1 B.B.B.B.> > t e .   B.B.B.B.B.B.B.B."
};
