/* XPM */
static char *result[] = {
/* columns rows colors chars-per-pixel */
"64 64 181 2 ",
"   c black",
".  c #010000",
"X  c #010101",
"o  c #030201",
"O  c #020202",
"+  c #030202",
"@  c gray1",
"#  c #040100",
"$  c #060201",
"%  c #070201",
"&  c #050302",
"*  c #070403",
"=  c #070702",
"-  c #060606",
";  c #070606",
":  c #080503",
">  c #080504",
",  c #0A0604",
"<  c #0A0605",
"1  c #080707",
"2  c #0D0704",
"3  c #0B0B02",
"4  c #0C0901",
"5  c #0E0B01",
"6  c #0B0807",
"7  c #07070D",
"8  c gray3",
"9  c #090909",
"0  c #0C0908",
"q  c #0F0C0B",
"w  c #0C090E",
"e  c #0C0C0C",
"r  c #110D02",
"t  c gray12",
"y  c #2F1003",
"u  c #2B150C",
"i  c #2E170D",
"p  c #321104",
"a  c #331205",
"s  c #361204",
"d  c #3E1A04",
"f  c #3A1608",
"g  c #3B1608",
"h  c #30190F",
"j  c #3D1B0E",
"k  c #3E1C0F",
"l  c #231C1C",
"z  c #241D1D",
"x  c #261E1E",
"c  c #271F1F",
"v  c #311A10",
"b  c #331B10",
"n  c #341C11",
"m  c gray13",
"M  c #222222",
"N  c #272423",
"B  c #272627",
"V  c #282628",
"C  c #2A282A",
"Z  c #2B292B",
"A  c #2E2929",
"S  c #2C2B2B",
"D  c #2C2B2C",
"F  c #2D2C2D",
"G  c #2F2E2F",
"H  c #312C2C",
"J  c #302F30",
"K  c #401C05",
"L  c #411C05",
"P  c #431E06",
"I  c #431E0B",
"U  c #401F12",
"Y  c #48200B",
"T  c #4D220C",
"R  c #452316",
"E  c #412418",
"W  c #452619",
"Q  c #45271A",
"!  c #4A291B",
"~  c #4D2C1D",
"^  c #512C1B",
"/  c #522D1C",
"(  c #5C3726",
")  c #5E3827",
"_  c #5B372A",
"`  c #5E3928",
"'  c #633B29",
"]  c #653C2A",
"[  c #653D2B",
"{  c #623B2D",
"}  c #643E2F",
"|  c #50501D",
" . c #55551F",
".. c #5C5C21",
"X. c #664131",
"o. c #694030",
"O. c #6B4332",
"+. c #6F4432",
"@. c #6D4535",
"#. c #734836",
"$. c #734A36",
"%. c #744936",
"&. c #754B36",
"*. c #754B37",
"=. c #744C39",
"-. c #774C38",
";. c #754D3A",
":. c #784E39",
">. c #7A4F3A",
",. c #7B503B",
"<. c #7C533F",
"1. c #70702B",
"2. c #747129",
"3. c #767329",
"4. c #79752A",
"5. c #795140",
"6. c #7B5340",
"7. c #7A5241",
"8. c #7C5440",
"9. c #7F5541",
"0. c #7F5744",
"q. c #A9531A",
"w. c #B0561A",
"e. c #9A7609",
"r. c #9E770A",
"t. c #9C780A",
"y. c #A0790A",
"u. c #A67F0A",
"i. c #A27E0C",
"p. c #A85823",
"a. c #AF5B24",
"s. c #835843",
"d. c #845944",
"f. c #855A45",
"g. c #835B48",
"h. c #845C48",
"j. c #80801D",
"k. c #A4800D",
"l. c #A8810B",
"z. c #B78D10",
"x. c #B98F11",
"c. c #BB8F10",
"v. c #BB9111",
"b. c #BD9011",
"n. c #BF9212",
"m. c #BF9513",
"M. c #898920",
"N. c #949422",
"B. c #C19714",
"V. c #C59811",
"C. c #C79A12",
"Z. c #C39914",
"A. c #CA9C13",
"S. c #D8A818",
"D. c #DAAA18",
"F. c #DCA918",
"G. c #DEAB18",
"H. c #E0B01B",
"J. c #E2B21B",
"K. c #E8B519",
"L. c #EBB71A",
"P. c #8F8C8B",
"I. c gray59",
"U. c #999796",
"Y. c #A29B97",
"T. c #A29C97",
"R. c gray63",
"E. c gray64",
"W. c #B9B6B5",
"Q. c #BDBAB9",
"!. c #BDBBBA",
"~. c #C1BEBD",
"^. c #C1C1C1",
"/. c #C3C3C3",
"(. c gray78",
"). c #F1EEED",
"_. c #F2EEED",
"`. c #F6F2F1",
"'. c #FBFBFB",
"]. c white",
"[. c None",
/* pixels */
"[.[.[.[.[.[.[.[.[.[.[.[.[.[.[.[.                                                                [.[.[.[.[.[.[.[.[.[.[.[.[.[.[.[.",
"[.[.[.[.[.[.[.[.[.[.[.[.[.[.[.[.                                                                [.[.[.[.[.[.[.[.[.[.[.[.[.[.[.[.",
"[.[.[.[.[.[.[.[.[.[.[.[.[.[.[.[.                                                                [.[.[.[.[.[.[.[.[.[.[.[.[.[.[.[.",
"[.[.[.[.[.[.[.[.[.[.[.[.[.[.[.[.r r r r 5 5 5 5 5 5 5 5 5 5 5 5 5 5 5 5 5 5 5 5 5 5 5 5 4 4 4 4 [.[.[.[.[.[.[.[.[.[.[.[.[.[.[.[.",
"[.[.[.[.[.[.[.[.[.[.[.[.        D.D.D.S.v.x.x.x.x.x.x.x.x.x.x.x.x.x.x.x.x.x.x.x.x.x.x.z.t.e.e.e.        [.[.[.[.[.[.[.[.[.[.[.[.",
"[.[.[.[.[.[.[.[.[.[.[.[.        L.L.L.K.A.C.C.C.C.C.C.C.C.C.C.C.C.C.C.C.C.C.C.C.C.C.C.V.l.u.u.u.        [.[.[.[.[.[.[.[.[.[.[.[.",
"[.[.[.[.[.[.[.[.[.[.[.[.        L.L.L.K.A.C.C.C.C.C.C.C.C.C.C.C.C.C.C.C.C.C.C.C.C.C.C.V.l.u.u.u.        [.[.[.[.[.[.[.[.[.[.[.[.",
"[.[.[.[.[.[.[.[.[.[.[.[.        L.L.L.K.A.C.C.C.C.C.C.C.C.C.C.C.C.C.C.C.C.C.C.C.C.C.C.V.l.u.u.u.        [.[.[.[.[.[.[.[.[.[.[.[.",
"[.[.[.[.[.[.[.[.[.[.[.[.        L.L.L.K.A.C.C.C.C.C.C.C.C.C.C.C.C.C.C.C.C.C.C.C.C.C.C.V.l.u.u.u.        [.[.[.[.[.[.[.[.[.[.[.[.",
"[.[.[.[.[.[.[.[.[.[.[.[.        L.L.L.K.A.C.C.C.C.C.C.C.C.C.C.C.C.C.C.C.C.C.C.C.C.C.C.V.l.u.u.u.        [.[.[.[.[.[.[.[.[.[.[.[.",
"[.[.[.[.[.[.[.[.[.[.[.[.        L.L.L.K.A.C.C.C.C.C.C.C.C.C.C.C.C.C.C.C.C.C.C.C.C.C.C.V.l.u.u.u.        [.[.[.[.[.[.[.[.[.[.[.[.",
"[.[.[.[.[.[.[.[.[.[.[.[.3 3 3 3 J.J.J.H.Z.B.B.B.B.B.B.B.B.B.B.B.B.B.B.B.B.B.B.B.B.B.B.m.k.i.i.i.= = = = [.[.[.[.[.[.[.[.[.[.[.[.",
"[.[.[.[.[.[.[.[.      3 j.M.M.M.4.4.4.4.3.3.3.3.3.3.3.3.3.3.3.3.3.3.3.3.3.3.3.3.3.3.3.3.2.2.2.2. . . .| =       [.[.[.[.[.[.[.[.",
"[.[.[.[.[.[.[.[.      3 M.N.N.N.1.1.1.1.1.1.1.1.1.1.1.1.1.1.1.1.1.1.1.1.1.1.1.1.1.1.1.1.1.1.1.1....... .=       [.[.[.[.[.[.[.[.",
"[.[.[.[.[.[.[.[.      3 M.N.N.N.1.1.1.1.1.1.1.1.1.1.1.1.1.1.1.1.1.1.1.1.1.1.1.1.1.1.1.1.1.1.1.1....... .=       [.[.[.[.[.[.[.[.",
"[.[.[.[.[.[.[.[.      3 M.N.N.N.1.1.1.1.1.1.1.1.1.1.1.1.1.1.1.1.1.1.1.1.1.1.1.1.1.1.1.1.1.1.1.1....... .=       [.[.[.[.[.[.[.[.",
"[.[.[.[.        L.L.L.K.A.C.C.C.C.C.C.C.C.C.C.C.C.C.C.C.C.C.C.C.C.C.C.C.C.C.C.C.C.C.C.C.C.C.C.C.C.C.C.V.l.u.u.u.        [.[.[.[.",
"[.[.[.[.        L.L.L.K.A.C.C.C.C.C.C.C.C.C.C.C.C.C.C.C.C.C.C.C.C.C.C.C.C.C.C.C.C.C.C.C.C.C.C.C.C.C.C.V.l.u.u.u.        [.[.[.[.",
"[.[.[.[.        L.L.L.K.A.C.C.C.C.C.C.C.C.C.C.C.C.C.C.C.C.C.C.C.C.C.C.C.C.C.C.C.C.C.C.C.C.C.C.C.C.C.C.V.l.u.u.u.        [.[.[.[.",
"[.[.[.[.        G.G.G.F.n.b.b.b.b.b.b.b.b.b.b.b.b.b.b.b.b.b.b.b.b.b.b.b.b.b.b.b.b.b.b.b.b.b.b.b.b.b.b.c.y.r.r.r.        [.[.[.[.",
"[.[.[.[.        P P P P L K K K K K K K K K K K K K K K K K K K K K K K K K K K K K K K K K K K K K K K d d d d         [.[.[.[.",
"[.[.[.[.        s s s s s s s s s s s s s s s s s s s s s s s s s s s s s s s s s s s s s s s s s s s s s s s s         [.[.[.[.",
"[.[.[.[.        s s s s s s s s s s s s s s s s s s s s s s s s s s s s s s s s s s s s s s s s s s s s s s s s         [.[.[.[.",
"[.[.[.[.        s s s s s s s s s s s s s s s s s s s s s s s s s s s s s s s s s s s s s s s s s s s s s s s s         [.[.[.[.",
"      # p s s s s s s s s s s s ' ' ' ( *       /././.W.U s s s ' ' ' ( *       /././.Q.5.#.#.#.s s s f +.#.#.#.s s s p #       ",
"      # p s s s s s s s s s s s ' ' ' ( *       /././.W.U s s s ' ' ' ( *       /././.Q.5.#.#.#.s s s f +.#.#.#.s s s p #       ",
"      # p s s s s s s s s s s s ' ' ' ( *       /././.W.U s s s ' ' ' ( *       /././.Q.5.#.#.#.s s s f +.#.#.#.s s s p #       ",
"e e e q a s s s p p p p s s s s ] ] ] ) , o o o (.(.(.!.R g g g [ [ [ ` , o o o (.(.(.~.7.%.%.%.s s s f +.#.#.#.s s s p #       ",
"I.I.I.P.j s s s # # # % p s s s :.:.:.$.h u u u '.'.'.).0.&.&.&.s.s.s.<.v u u u '.'.'._.g.>.>.>.s s s f +.#.#.#.s s s p #       ",
"R.R.R.U.k s s s       # p s s s >.>.>.*.b i i i ].].].`.h.>.>.>.f.f.f.9.n i i i ].].].`.h.>.>.>.s s s f +.#.#.#.s s s p #       ",
"R.R.R.U.k s s s       # p s s s >.>.>.*.b i i i ].].].`.h.>.>.>.f.f.f.9.n i i i ].].].`.h.>.>.>.s s s f +.#.#.#.s s s p #       ",
"R.R.R.U.k s s s       # p s s s >.>.>.*.b i i i ].].].`.h.>.>.>.f.f.f.9.n i i i ].].].`.h.>.>.>.s s s f +.#.#.#.s s s p #       ",
"/./././.[.[.[.[.      # p s s s f.f.f.d.,.>.>.>.>.>.>.>.>.>.>.>.>.>.>.>.>.>.>.>.>.>.>.,.d.f.f.f.! ! ! W &               [.[.[.[.",
"/./././.[.[.[.[.      # p s s s f.f.f.d.,.>.>.>.>.>.>.>.>.>.>.>.>.>.>.>.>.>.>.>.>.>.>.,.d.f.f.f.! ! ! W &               [.[.[.[.",
"/./././.[.[.[.[.      # p s s s f.f.f.d.,.>.>.>.>.>.>.>.>.>.>.>.>.>.>.>.>.>.>.>.>.>.>.,.d.f.f.f.! ! ! W &               [.[.[.[.",
"/./././.[.[.[.[.      # y p p p 8.8.8.6.;.=.=.=.-.-.-.-.-.-.-.-.-.-.-.-.-.-.-.-.=.=.=.;.6.8.8.8.Q Q Q E &               [.[.[.[.",
"/./././.[.[.[.[.[.[.[.[.# # # # < < < 0 A H H H ~ ~ ~ ~ ~ ~ ~ ~ ~ ~ ~ ~ ~ ~ ~ ~ H H H A 0 < < < w w w w [.[.[.[.[.[.[.[.[.[.[.[.",
"/./././.[.[.[.[.[.[.[.[.              @ V Z Z Z ! ! ! ! ! ! ! ! ! ! ! ! ! ! ! ! Z Z Z V @       7 7 7 7 [.[.[.[.[.[.[.[.[.[.[.[.",
"/./././.[.[.[.[.[.[.[.[.              @ V Z Z Z ! ! ! ! ! ! ! ! ! ! ! ! ! ! ! ! Z Z Z V @       7 7 7 7 [.[.[.[.[.[.[.[.[.[.[.[.",
"/./././.[.[.[.[.[.[.[.[.              @ V Z Z Z ! ! ! ! ! ! ! ! ! ! ! ! ! ! ! ! Z Z Z V @       7 7 7 7 [.[.[.[.[.[.[.[.[.[.[.[.",
"[.[.[.[././././.      @ V Z Z Z Z Z Z C M m m m       @ V Z Z Z Z Z Z V @       m m m M C Z Z Z Z Z Z V @       [.[.[.[.[.[.[.[.",
"[.[.[.[././././.      @ V Z Z Z Z Z Z C M m m m       @ V Z Z Z Z Z Z V @       m m m M C Z Z Z Z Z Z V @       [.[.[.[.[.[.[.[.",
"[.[.[.[././././.      @ V Z Z Z Z Z Z C M m m m       @ V Z Z Z Z Z Z V @       m m m M C Z Z Z Z Z Z V @       [.[.[.[.[.[.[.[.",
"[.[.[.[.^.^.^.^.      @ V Z Z Z C C C C M m m m       @ B C C C C C C B @       m m m M C C C C C C C B @       [.[.[.[.[.[.[.[.",
"[.[.[.[.E.E.E.E.      @ V Z Z Z M M M M m m m m       O t M M M M M M t O       m m m m M M M M M M M t O       [.[.[.[.[.[.[.[.",
"[.[.[.[.R.R.R.R.      @ V Z Z Z m m m m m m m m       O t m m m m m m t O       m m m m m m m m m m m t O       [.[.[.[.[.[.[.[.",
"[.[.[.[.R.R.R.R.      @ V Z Z Z m m m m m m m m       O t m m m m m m t O       m m m m m m m m m m m t O       [.[.[.[.[.[.[.[.",
"[.[.[.[.R.R.R.R.      @ V Z Z Z m m m m m m m m       O t m m m m m m t O       m m m m m m m m m m m t O       [.[.[.[.[.[.[.[.",
"R.R.R.R.[.[.[.[.      > O.#.#.#.m m m m m m m m m m m m m m m m m m m m m m m m m m m N @.#.#.#.o.o.o.{ :       [.[.[.[.[.[.[.[.",
"R.R.R.R.[.[.[.[.      > O.#.#.#.m m m m m m m m m m m m m m m m m m m m m m m m m m m N @.#.#.#.o.o.o.{ :       [.[.[.[.[.[.[.[.",
"R.R.R.R.[.[.[.[.      > O.#.#.#.m m m m m m m m m m m m m m m m m m m m m m m m m m m N @.#.#.#.o.o.o.{ :       [.[.[.[.[.[.[.[.",
"T.T.T.Y.[.[.[.[.$ $ $ 2 } O.O.O.t t t t M M M M M M M M M M M M M M M M M M M M M M M N X.O.O.O.{ { { _ :       [.[.[.[.[.[.[.[.",
"a.a.a.p./ ! ! ! Y Y Y I 2 > > > O O O - D G G G G G G G G G G G G G G G G G G G G G G D 6 > > > : : : : [.[.[.[.[.[.[.[.[.[.[.[.",
"w.w.w.q.^ ! ! ! T T T Y $             @ F J J J J J J J J J J J J J J J J J J J J J J F @               [.[.[.[.[.[.[.[.[.[.[.[.",
"w.w.w.q.^ ! ! ! T T T Y $             @ F J J J J J J J J J J J J J J J J J J J J J J F @               [.[.[.[.[.[.[.[.[.[.[.[.",
"w.w.w.q.^ ! ! ! T T T Y $             @ F J J J J J J J J J J J J J J J J J J J J J J F @               [.[.[.[.[.[.[.[.[.[.[.[.",
"[.[.[.[.[.[.[.[.[.[.[.[.[.[.[.[.      @ F J J J                                 J J J F @       [.[.[.[.[.[.[.[.[.[.[.[.[.[.[.[.",
"[.[.[.[.[.[.[.[.[.[.[.[.[.[.[.[.      @ F J J J                                 J J J F @       [.[.[.[.[.[.[.[.[.[.[.[.[.[.[.[.",
"[.[.[.[.[.[.[.[.[.[.[.[.[.[.[.[.      @ F J J J                                 J J J F @       [.[.[.[.[.[.[.[.[.[.[.[.[.[.[.[.",
"[.[.[.[.[.[.[.[.[.[.[.[.[.[.[.[.      @ S G G G X X X X                 . . . . G G G S @       [.[.[.[.[.[.[.[.[.[.[.[.[.[.[.[.",
"[.[.[.[.[.[.[.[.[.[.[.[.[.[.[.[.      + z c c c 8 8 8 8 [.[.[.[.[.[.[.[.; ; ; ; c c c z +       [.[.[.[.[.[.[.[.[.[.[.[.[.[.[.[.",
"[.[.[.[.[.[.[.[.[.[.[.[.[.[.[.[.      + l x x x 9 9 9 9 [.[.[.[.[.[.[.[.1 1 1 1 x x x l +       [.[.[.[.[.[.[.[.[.[.[.[.[.[.[.[.",
"[.[.[.[.[.[.[.[.[.[.[.[.[.[.[.[.      + l x x x 9 9 9 9 [.[.[.[.[.[.[.[.1 1 1 1 x x x l +       [.[.[.[.[.[.[.[.[.[.[.[.[.[.[.[.",
"[.[.[.[.[.[.[.[.[.[.[.[.[.[.[.[.      + l x x x 9 9 9 9 [.[.[.[.[.[.[.[.1 1 1 1 x x x l +       [.[.[.[.[.[.[.[.[.[.[.[.[.[.[.[."
};
