/* XPM */
static char *result[] = {
/* columns rows colors chars-per-pixel */
"64 64 187 2 ",
"   c black",
".  c #010100",
"X  c #020202",
"o  c gray1",
"O  c #060201",
"+  c #070403",
"@  c #050405",
"#  c #060606",
"$  c #070707",
"%  c #080503",
"&  c #090604",
"*  c #0C0806",
"=  c #0D0806",
"-  c #0D0906",
";  c #0C0907",
":  c gray3",
">  c #090909",
",  c #0C0908",
"<  c #0F0A08",
"1  c #0F0B09",
"2  c #0E0E0E",
"3  c #120E01",
"4  c #100C0A",
"5  c #100C0C",
"6  c #130F0F",
"7  c #160F0C",
"8  c #13110F",
"9  c gray12",
"0  c #37311F",
"q  c #212020",
"w  c gray13",
"e  c #222222",
"r  c #232323",
"t  c gray14",
"y  c #252525",
"u  c #272627",
"i  c #2D2A20",
"p  c #282828",
"a  c #2A292A",
"s  c #2B292B",
"d  c #2D2B2D",
"f  c #2D2C2D",
"g  c #2E2C2E",
"h  c #2E2D2E",
"j  c #2F2D2F",
"k  c #302E2F",
"l  c #3B352B",
"z  c #39342C",
"x  c #3B352C",
"c  c #3B362C",
"v  c #3C372C",
"b  c #3D372C",
"n  c #3C362D",
"m  c #302F30",
"M  c #373232",
"N  c #373637",
"B  c #383232",
"V  c #3A3333",
"C  c #3A3535",
"Z  c #3B3A3B",
"A  c #3D3B3D",
"S  c #3E3C3E",
"D  c #3F3D3F",
"F  c #48200B",
"G  c #4D220C",
"H  c #542F1C",
"J  c #5A321D",
"K  c #423B2A",
"L  c #5C3726",
"P  c #5C3727",
"I  c #5B372A",
"U  c #633B29",
"Y  c #633B2A",
"T  c #613B2C",
"R  c #623B2D",
"E  c #4B463B",
"W  c #4E483C",
"Q  c #68402D",
"!  c #69402D",
"~  c #68402E",
"^  c #694030",
"/  c #684131",
"(  c #6C4330",
")  c #6F4534",
"_  c #714936",
"`  c #754D39",
"'  c #7A4F3A",
"]  c #7E523D",
"[  c #7F533D",
"{  c #403E40",
"}  c #616061",
"|  c #666566",
" . c #696869",
".. c #6E6D6E",
"X. c gray44",
"o. c #767676",
"O. c gray47",
"+. c gray50",
"@. c #986448",
"#. c #9D735F",
"$. c #A06A4C",
"%. c #A36C4E",
"&. c #A97149",
"*. c #B67A4F",
"=. c #AC7151",
"-. c #AB7359",
";. c #AE755B",
":. c #AE765C",
">. c #B07454",
",. c #B97A57",
"<. c #B77D5F",
"1. c #A37661",
"2. c #A17662",
"3. c #A87A65",
"4. c #A97C67",
"5. c #AD7F6A",
"6. c #B47C61",
"7. c #B57D62",
"8. c #B87F61",
"9. c #B28B15",
"0. c #BB9113",
"q. c #BC9214",
"w. c #C79A12",
"e. c #D1A30C",
"r. c #D2A40D",
"t. c #DEAC09",
"y. c #DFAD0A",
"u. c #DDAC1A",
"i. c #DEAD1B",
"p. c #EDBB0D",
"a. c #E4B514",
"s. c #E8B512",
"d. c #EAB619",
"f. c #EBB71A",
"g. c #F0BE10",
"h. c #F1BF12",
"j. c #FFC90E",
"k. c #F9C313",
"l. c #B68167",
"z. c #BD8263",
"x. c #BA8165",
"c. c #BB8266",
"v. c #BE8364",
"b. c #BE8365",
"n. c #BF8465",
"m. c #BF8467",
"M. c #BC8468",
"N. c #BF8568",
"B. c #C0886C",
"V. c #C48B6F",
"C. c #C68C6F",
"Z. c #C78D70",
"A. c #C48F73",
"S. c #C59074",
"D. c #CC9072",
"F. c #CD9173",
"G. c #CE9173",
"H. c #CF9274",
"J. c #CF9375",
"K. c #CF9276",
"L. c #D09378",
"P. c #D1987A",
"I. c #D2997B",
"U. c #D49A7C",
"Y. c #D49B7D",
"T. c gray71",
"R. c #BAB9B9",
"E. c #CF9F85",
"W. c #CF9F87",
"Q. c #CE9999",
"!. c #CE9A98",
"~. c #D2A085",
"^. c #D9A589",
"/. c #DBA88C",
"(. c #DBA88E",
"). c #DBA19D",
"_. c #DCA3A0",
"`. c #DDA4A2",
"'. c #DEA5A3",
"]. c #DEA5A5",
"[. c #C3C3C3",
"{. c gray78",
"}. c #EEEBEA",
"|. c #F2EFEE",
" X c #FBFBFB",
".X c white",
"XX c None",
/* pixels */
"XXXXXXXXXXXXXXXXXXXXXXXXXXXXXXXXXXXXXXXX                                                        XXXXXXXXXXXXXXXXXXXXXXXXXXXXXXXX",
"XXXXXXXXXXXXXXXXXXXXXXXXXXXXXXXXXXXXXXXX                                                        XXXXXXXXXXXXXXXXXXXXXXXXXXXXXXXX",
"XXXXXXXXXXXXXXXXXXXXXXXXXXXXXXXXXXXXXXXX                                                        XXXXXXXXXXXXXXXXXXXXXXXXXXXXXXXX",
"XXXXXXXXXXXXXXXXXXXXXXXXXXXXXXXXXXXXXXXX% % % % % % % % + + + + + + + + + + + + + + + + + + + + XXXXXXXXXXXXXXXXXXXXXXXXXXXXXXXX",
"XXXXXXXXXXXXXXXXXXXXXXXXXXXXXXXX      % I R R R R R R T P L L L L L L L L L L L L L L L L L L L         XXXXXXXXXXXXXXXXXXXXXXXX",
"XXXXXXXXXXXXXXXXXXXXXXXXXXXXXXXX      % R ^ ^ ^ ^ ^ ^ ^ Y U U U U U U U U U U U U U U U U U U U         XXXXXXXXXXXXXXXXXXXXXXXX",
"XXXXXXXXXXXXXXXXXXXXXXXXXXXXXXXX      % R ^ ^ ^ ^ ^ ^ ^ Y U U U U U U U U U U U U U U U U U U U         XXXXXXXXXXXXXXXXXXXXXXXX",
"XXXXXXXXXXXXXXXXXXXXXXXXXXXXXXXX      % R ^ ^ ^ ^ ^ ^ ^ Y U U U U U U U U U U U U U U U U U U U         XXXXXXXXXXXXXXXXXXXXXXXX",
"XXXXXXXXXXXXXXXXXXXXXXXXXXXXXXXX      % R ^ ^ ^ U U U U U U U U U U U U U U U U U U U U U U U U 5.5.5.2.,       XXXXXXXXXXXXXXXX",
"XXXXXXXXXXXXXXXXXXXXXXXXXXXXXXXX      % R ^ ^ ^ U U U U U U U U U U U U U U U U U U U U U U U U 5.5.5.2.,       XXXXXXXXXXXXXXXX",
"XXXXXXXXXXXXXXXXXXXXXXXXXXXXXXXX      % R ^ ^ ^ U U U U U U U U U U U U U U U U U U U U U U U U 5.5.5.2.,       XXXXXXXXXXXXXXXX",
"XXXXXXXXXXXXXXXXXXXXXXXXXXXXXXXX1 1 1 7 / ) ) ) ! ! ! ! ! ! ! ! ! ! ! ! ! ! ! ! U U U U Q ~ ~ ~ 4.4.4.#.;       XXXXXXXXXXXXXXXX",
"XXXXXXXXXXXXXXXXXXXXXXXX        S.S.S.A.8.<.<.<.6.6.6.6.6.6.6.6.6.6.6.6.6.6.6.6.U U U Q 1.3.3.3.] ] ] ` &       XXXXXXXXXXXXXXXX",
"XXXXXXXXXXXXXXXXXXXXXXXX        Y.Y.Y.I.n.z.z.z.x.x.x.x.x.x.x.x.x.x.x.x.x.x.x.x.U U U ~ 3.5.5.5.' ' ' _ &       XXXXXXXXXXXXXXXX",
"XXXXXXXXXXXXXXXXXXXXXXXX        Y.Y.Y.I.n.z.z.z.x.x.x.x.x.x.x.x.x.x.x.x.x.x.x.x.U U U ~ 3.5.5.5.' ' ' _ &       XXXXXXXXXXXXXXXX",
"XXXXXXXXXXXXXXXXXXXXXXXX        Y.Y.Y.I.n.z.z.z.x.x.x.x.x.x.x.x.x.x.x.x.x.x.x.x.U U U ~ 3.5.5.5.' ' ' _ &       XXXXXXXXXXXXXXXX",
"XXXXXXXXXXXXXXXXXXXXXXXX        Z.Z.Z.C.c.x.x.x.x.x.x.x.x.x.x.x.x.x.x.x.x.x.x.x.x.x.x.7.[ ' ' ' ' ' ' _ &       XXXXXXXXXXXXXXXX",
"XXXXXXXXXXXXXXXXXXXXXXXX        Z.Z.Z.C.c.x.x.x.x.x.x.x.x.x.x.x.x.x.x.x.x.x.x.x.x.x.x.7.[ ' ' ' ' ' ' _ &       XXXXXXXXXXXXXXXX",
"XXXXXXXXXXXXXXXXXXXXXXXX        Z.Z.Z.C.c.x.x.x.x.x.x.x.x.x.x.x.x.x.x.x.x.x.x.x.x.x.x.7.[ ' ' ' ' ' ' _ &       XXXXXXXXXXXXXXXX",
"XXXXXXXXXXXXXXXXXXXXXXXX        Z.Z.Z.C.c.x.x.x.x.x.x.x.x.x.x.x.x.x.x.x.x.x.x.x.x.x.x.7.[ ' ' ' ' ' ' _ &       XXXXXXXXXXXXXXXX",
"XXXXXXXXXXXXXXXXXXXXXXXX        Z.Z.Z.C.v.z.z.z.x.x.x.x.x.x.x.x.x.x.x.x.x.x.x.x.x.x.x.7.[ ' ' ' ' ' ' _ &       XXXXXXXXXXXXXXXX",
"XXXXXXXXXXXXXXXXXXXXXXXX        Z.Z.Z.C.v.z.z.z.x.x.x.x.x.x.x.x.x.x.x.x.x.x.x.x.x.x.x.7.[ ' ' ' ' ' ' _ &       XXXXXXXXXXXXXXXX",
"XXXXXXXXXXXXXXXXXXXXXXXX        Z.Z.Z.C.v.z.z.z.x.x.x.x.x.x.x.x.x.x.x.x.x.x.x.x.x.x.x.7.[ ' ' ' ' ' ' _ &       XXXXXXXXXXXXXXXX",
"XXXXXXXXXXXXXXXXXXXXXXXX        Z.Z.Z.C.v.z.z.z.x.x.x.x.x.x.x.x.x.x.x.x.x.x.x.x.x.x.x.7.[ ' ' ' ' ' ' _ &       XXXXXXXXXXXXXXXX",
"XXXXXXXXXXXXXXXXXXXXXXXX              2 T.[.[.[.x.x.x.x.x.x.x.x.      2 T.[.[.[.H.H.H.G.v.z.z.z.' ' ' _ &       XXXXXXXXXXXXXXXX",
"XXXXXXXXXXXXXXXXXXXXXXXX              2 T.[.[.[.x.x.x.x.x.x.x.x.      2 T.[.[.[.H.H.H.G.v.z.z.z.' ' ' _ &       XXXXXXXXXXXXXXXX",
"XXXXXXXXXXXXXXXXXXXXXXXX              2 T.[.[.[.x.x.x.x.x.x.x.x.      2 T.[.[.[.H.H.H.G.v.z.z.z.' ' ' _ &       XXXXXXXXXXXXXXXX",
"XXXXXXXXXXXXXXXXXXXXXXXX        O O O 8 R.{.{.{.M.M.M.M.M.M.M.M.O O O 8 R.{.{.{.L.L.L.K.b.z.z.z.' ' ' _ &       XXXXXXXXXXXXXXXX",
"XXXXXXXXXXXXXXXXXXXXXXXX        F F F H }. X X X^.^.^.^.^.^.^.^.F F F H }. X X X`.`.`.).m.z.z.z.' ' ' _ &       XXXXXXXXXXXXXXXX",
"XXXXXXXXXXXXXXXXXXXXXXXX        G G G J |..X.X.X/./././././././.G G G J |..X.X.X].].]._.N.z.z.z.' ' ' _ &       XXXXXXXXXXXXXXXX",
"XXXXXXXXXXXXXXXXXXXXXXXX        G G G J |..X.X.X/./././././././.G G G J |..X.X.X].].]._.N.z.z.z.' ' ' _ &       XXXXXXXXXXXXXXXX",
"XXXXXXXXXXXXXXXXXXXXXXXX        G G G J |..X.X.X/./././././././.G G G J |..X.X.X].].]._.N.z.z.z.' ' ' _ &       XXXXXXXXXXXXXXXX",
"XXXXXXXXXXXXXXXXXXXXXXXX        ].].].'.(./././././././././././.Y.Y.Y.U.J.H.H.H.>.>.>.*.k.j.j.j.        XXXXXXXXXXXXXXXXXXXXXXXX",
"XXXXXXXXXXXXXXXXXXXXXXXX        ].].].'.(./././././././././././.Y.Y.Y.U.J.H.H.H.>.>.>.*.k.j.j.j.        XXXXXXXXXXXXXXXXXXXXXXXX",
"XXXXXXXXXXXXXXXXXXXXXXXX        ].].].'.(./././././././././././.Y.Y.Y.U.J.H.H.H.>.>.>.*.k.j.j.j.        XXXXXXXXXXXXXXXXXXXXXXXX",
"XXXXXXXXXXXXXXXXXXXXXXXX        Q.Q.Q.!.W.E.E.E.~.~.~.~.~.~.~.~.P.P.P.P.F.D.D.D.%.%.%.&.s.p.p.p.        XXXXXXXXXXXXXXXXXXXXXXXX",
"XXXXXXXXXXXXXXXXXXXXXXXXXXXXXXXX5 5 5 6 M C C C ( ( ( ( ( ( ( ( :.:.:.:.;.;.;.;.= = = - 3 3 3 3 XXXXXXXXXXXXXXXXXXXXXXXXXXXXXXXX",
"XXXXXXXXXXXXXXXXXXXXXXXXXXXXXXXX      o s g g g U U U U U U U U -.-.-.-.-.-.-.-.                XXXXXXXXXXXXXXXXXXXXXXXXXXXXXXXX",
"XXXXXXXXXXXXXXXXXXXXXXXXXXXXXXXX      o s g g g U U U U U U U U -.-.-.-.-.-.-.-.                XXXXXXXXXXXXXXXXXXXXXXXXXXXXXXXX",
"XXXXXXXXXXXXXXXXXXXXXXXXXXXXXXXX      o s g g g U U U U U U U U -.-.-.-.-.-.-.-.                XXXXXXXXXXXXXXXXXXXXXXXXXXXXXXXX",
"XXXXXXXXXXXXXXXXXXXXXXXX        { { { W h.j.j.j.g g g g g g g g g g g z q.w.w.w.m m m m m m m m         XXXXXXXXXXXXXXXXXXXXXXXX",
"XXXXXXXXXXXXXXXXXXXXXXXX        { { { W h.j.j.j.g g g g g g g g g g g z q.w.w.w.m m m m m m m m         XXXXXXXXXXXXXXXXXXXXXXXX",
"XXXXXXXXXXXXXXXXXXXXXXXX        { { { W h.j.j.j.g g g g g g g g g g g z q.w.w.w.m m m m m m m m         XXXXXXXXXXXXXXXXXXXXXXXX",
"XXXXXXXXXXXXXXXXXXXXXXXX@ @ @ @ D D D E a.g.g.g.l l l x c n n n z z z K 9.0.0.0.m m m m m m m m o o o o XXXXXXXXXXXXXXXXXXXXXXXX",
"XXXXXXXXXXXXXXXX      @ N Z Z Z j j j k v b b b e.e.e.r.u.i.i.i.q.q.q.9.0 i i i g g g h m m m m f f f a o       XXXXXXXXXXXXXXXX",
"XXXXXXXXXXXXXXXX      @ Z { { { g g g g g g g g t.t.t.y.d.f.f.f.w.w.w.0.i w w w g g g g m m m m m m m f o       XXXXXXXXXXXXXXXX",
"XXXXXXXXXXXXXXXX      @ Z { { { g g g g g g g g t.t.t.y.d.f.f.f.w.w.w.0.i w w w g g g g m m m m m m m f o       XXXXXXXXXXXXXXXX",
"XXXXXXXXXXXXXXXX      @ Z { { { g g g g g g g g t.t.t.y.d.f.f.f.w.w.w.0.i w w w g g g g m m m m m m m f o       XXXXXXXXXXXXXXXX",
"XXXXXXXXXXXXXXXX      - =.,.,.,.g g g g g g g g g g g g g g g g g g g g g g g g g g g V V.H.H.H.>.>.>.%.=       XXXXXXXXXXXXXXXX",
"XXXXXXXXXXXXXXXX      - =.,.,.,.g g g g g g g g g g g g g g g g g g g g g g g g g g g V V.H.H.H.>.>.>.%.=       XXXXXXXXXXXXXXXX",
"XXXXXXXXXXXXXXXX      - =.,.,.,.g g g g g g g g g g g g g g g g g g g g g g g g g g g V V.H.H.H.>.>.>.%.=       XXXXXXXXXXXXXXXX",
"XXXXXXXXXXXXXXXX      - $.=.=.=.s s s s g g g g j j j j j j j j j j j j d d d d d d d B l.B.B.B.%.%.%.@.*       XXXXXXXXXXXXXXXX",
"XXXXXXXXXXXXXXXXXXXXXXXX- - - - o o o # s g g g D D D D D D D D D D D A t e e e e e e q 4 < < < = = = * .       XXXXXXXXXXXXXXXX",
"XXXXXXXXXXXXXXXXXXXXXXXX              o s g g g { { { { { { { { { { { S r w w w w w w 9 X                       XXXXXXXXXXXXXXXX",
"XXXXXXXXXXXXXXXXXXXXXXXX              o s g g g { { { { { { { { { { { S r w w w w w w 9 X                       XXXXXXXXXXXXXXXX",
"XXXXXXXXXXXXXXXXXXXXXXXX              o s g g g { { { { { { { { { { { S r w w w w w w 9 X                       XXXXXXXXXXXXXXXX",
"XXXXXXXXXXXXXXXXXXXXXXXXXXXXXXXX      > o.+.+.+.                                ......| :       XXXXXXXXXXXXXXXXXXXXXXXXXXXXXXXX",
"XXXXXXXXXXXXXXXXXXXXXXXXXXXXXXXX      > o.+.+.+.                                ......| :       XXXXXXXXXXXXXXXXXXXXXXXXXXXXXXXX",
"XXXXXXXXXXXXXXXXXXXXXXXXXXXXXXXX      > o.+.+.+.                                ......| :       XXXXXXXXXXXXXXXXXXXXXXXXXXXXXXXX",
"XXXXXXXXXXXXXXXXXXXXXXXXXXXXXXXX      > X.O.O.O.                                 . . .} $       XXXXXXXXXXXXXXXXXXXXXXXXXXXXXXXX",
"XXXXXXXXXXXXXXXXXXXXXXXXXXXXXXXX      o y p p p         XXXXXXXXXXXXXXXX        u u u t o       XXXXXXXXXXXXXXXXXXXXXXXXXXXXXXXX",
"XXXXXXXXXXXXXXXXXXXXXXXXXXXXXXXX      X 9 w w w         XXXXXXXXXXXXXXXX        w w w 9 X       XXXXXXXXXXXXXXXXXXXXXXXXXXXXXXXX",
"XXXXXXXXXXXXXXXXXXXXXXXXXXXXXXXX      X 9 w w w         XXXXXXXXXXXXXXXX        w w w 9 X       XXXXXXXXXXXXXXXXXXXXXXXXXXXXXXXX",
"XXXXXXXXXXXXXXXXXXXXXXXXXXXXXXXX      X 9 w w w         XXXXXXXXXXXXXXXX        w w w 9 X       XXXXXXXXXXXXXXXXXXXXXXXXXXXXXXXX"
};
