/* XPM */
static char *result[] = {
/* columns rows colors chars-per-pixel */
"64 64 224 2 ",
"   c black",
".  c #010100",
"X  c #010101",
"o  c #030201",
"O  c #040302",
"+  c #050302",
"@  c #070503",
"#  c #080502",
"$  c #080503",
"%  c #090603",
"&  c #0A0603",
"*  c #0A0703",
"=  c #0B0505",
"-  c #0B0804",
";  c #0C0905",
":  c #0D0905",
">  c #07070B",
",  c #07070C",
"<  c #07070D",
"1  c #06080E",
"2  c #0F0D0B",
"3  c #0B0B0D",
"4  c #08090F",
"5  c #0B0B0E",
"6  c #0C0C0E",
"7  c #0C0C0F",
"8  c #120C06",
"9  c #100B08",
"0  c #110C09",
"q  c #100E0D",
"w  c #100F0D",
"e  c #120C0E",
"r  c #130C0F",
"t  c #140D0F",
"y  c #1A130E",
"u  c #1C140F",
"i  c #090A10",
"p  c #1F1414",
"a  c #13141D",
"s  c #1A191A",
"d  c #211515",
"f  c #211616",
"g  c #221716",
"h  c #211A18",
"j  c #281B19",
"k  c #2B1D1A",
"l  c #633E19",
"z  c #6B431B",
"x  c #73481D",
"c  c #74491E",
"v  c #734B23",
"b  c #734C2A",
"n  c #744D2B",
"m  c #7A5026",
"M  c #7C5025",
"N  c #7B5128",
"B  c #7B5229",
"V  c #7F572B",
"C  c #7D552D",
"Z  c #7A5433",
"A  c #282C52",
"S  c #2B2F55",
"D  c #2E335C",
"F  c #343456",
"G  c #363659",
"H  c #30355F",
"J  c #37385E",
"K  c #383A61",
"L  c #4B4F7F",
"P  c #4C507F",
"I  c #933B3B",
"U  c #9E3F3F",
"Y  c #845527",
"T  c #845628",
"R  c #855628",
"E  c #80572C",
"W  c #8A5E2F",
"Q  c #865E35",
"!  c #8A5D31",
"~  c #8B5F30",
"^  c #8C5E32",
"/  c #8E6339",
"(  c #8F6439",
")  c #916138",
"_  c #92633A",
"`  c #92663C",
"'  c #97693B",
"]  c #986A3C",
"[  c #996B3D",
"{  c #924143",
"}  c #934244",
"|  c #9D4648",
" . c #9F4749",
".. c #A06F47",
"X. c #4E5282",
"o. c #4E5385",
"O. c #535786",
"+. c #505588",
"@. c #545988",
"#. c #555A8C",
"$. c #565B8C",
"%. c #5262B1",
"&. c #5565B8",
"*. c #5767B9",
"=. c #5869BF",
"-. c #626EBD",
";. c #626FBD",
":. c #6270BF",
">. c #596AC1",
",. c #6372C0",
"<. c #6474C5",
"1. c #6D79C7",
"2. c #6879CD",
"3. c #6A7ACE",
"4. c #6B7BCF",
"5. c #6D7CCD",
"6. c #747EC5",
"7. c #757FC6",
"8. c #6B7CD3",
"9. c #6F7FD3",
"0. c #6C7DD4",
"q. c #6D7ED5",
"w. c #CE7C98",
"e. c #7282D0",
"r. c #7482D2",
"t. c #7583D2",
"y. c #7684D0",
"u. c #7080D4",
"i. c #7081D4",
"p. c #7484D5",
"a. c #7585D6",
"s. c #7A8BDF",
"d. c #7B8CE0",
"f. c #B99E8B",
"g. c #8B8BA9",
"h. c #8A91B1",
"j. c #8990B4",
"k. c #9695B6",
"l. c #9097BB",
"z. c #959CBF",
"x. c #969CBE",
"c. c #9B9AB8",
"v. c #C29D84",
"b. c #C4A088",
"n. c #C7A995",
"m. c #CFAE97",
"M. c #D0B099",
"N. c #E0B59F",
"B. c #DB84A3",
"V. c #DC84A4",
"C. c #DF8DA9",
"Z. c #E48AA6",
"A. c #EB8DAF",
"S. c #EC8EB0",
"D. c #ED96B4",
"F. c #EE96B5",
"G. c #EF97B5",
"H. c #ED9AB7",
"J. c #F79CB8",
"K. c #F89DB9",
"L. c #C5B0A1",
"P. c #CCB8AF",
"I. c #D6B0A1",
"U. c #D7B1A3",
"Y. c #D6B6A0",
"T. c #D9B2A4",
"R. c #D9B4A6",
"E. c #D7B8A2",
"W. c #D8BBA6",
"Q. c #DABCA7",
"!. c #D2B7AA",
"~. c #D3BDAD",
"^. c #DABFAC",
"/. c #D8BFB4",
"(. c #E0B7A1",
"). c #F6A0BA",
"_. c #DBC2AF",
"`. c #DDC5B3",
"'. c #D9C3B9",
"]. c #DAC4B9",
"[. c #D9C4BA",
"{. c #DBC5BB",
"}. c #DBC5BC",
"|. c #DCC7BD",
" X c #E0C4B1",
".X c #E1C8B6",
"XX c #E2C8B7",
"oX c #E3C9B8",
"OX c #E2CAB8",
"+X c #E3CBBA",
"@X c #E5CFBF",
"#X c #929AC0",
"$X c #929AC1",
"%X c #939BC2",
"&X c #969DC0",
"*X c #828FDB",
"=X c #828FDC",
"-X c #8290DD",
";X c #8291DD",
":X c #9BA2C2",
">X c #A6A6C7",
",X c #A1A7CB",
"<X c #A2A9D0",
"1X c #A3ABD1",
"2X c #A6ADD0",
"3X c #A7AED1",
"4X c #FEA0C1",
"5X c #FFA1C2",
"6X c #FEA4C4",
"7X c #FEA5C4",
"8X c #E5C1CF",
"9X c #E5C4D1",
"0X c #EEC7D1",
"qX c #EDCAD3",
"wX c #F6CBDC",
"eX c #F6CFDE",
"rX c #F5D2E0",
"tX c #F3EEEA",
"yX c #F3EFEA",
"uX c #F5F2EF",
"iX c #FDFBF9",
"pX c #FDFBFA",
"aX c white",
"sX c None",
/* pixels */
"sXsXsXsXsXsXsXsXsXsXsXsXsXsXsXsX      X 9 0 0 0 0 0 0 0 0 0 0 0 0 0 0 0 0 0 0 0 0 0 0 9 O o o o sXsXsXsXsXsXsXsXsXsXsXsXsXsXsXsX",
"sXsXsXsXsXsXsXsXsXsXsXsXsXsXsXsX      X 9 0 0 0 0 0 0 0 0 0 0 0 0 0 0 0 0 0 0 0 0 0 0 9 O o o o sXsXsXsXsXsXsXsXsXsXsXsXsXsXsXsX",
"sXsXsXsXsXsXsXsXsXsXsXsXsXsXsXsX      X 9 0 0 0 0 0 0 0 0 0 0 0 0 0 0 0 0 0 0 0 0 0 0 9 O o o o sXsXsXsXsXsXsXsXsXsXsXsXsXsXsXsX",
"sXsXsXsXsXsXsXsXsXsXsXsXsXsXsXsXe e e r f g g g h h h h g g g g h h h h g g g g d d d p @ + + + sXsXsXsXsXsXsXsXsXsXsXsXsXsXsXsX",
"sXsXsXsXsXsXsXsXsXsXsXsX        D.D.D.D.F.F.F.F.9X9X9X8XH.F.F.F.9X9X9X8XH.F.F.F.B.B.B.w.j y y y sXsXsXsXsXsXsXsXsXsXsXsXsXsXsXsX",
"sXsXsXsXsXsXsXsXsXsXsXsX        5X5X5X5X5X5X5X5XrXrXrXeX7X5X5X5XrXrXrXeX7X5X5X5XA.A.A.V.k u u u sXsXsXsXsXsXsXsXsXsXsXsXsXsXsXsX",
"sXsXsXsXsXsXsXsXsXsXsXsX        5X5X5X5X5X5X5X5XrXrXrXeX7X5X5X5XrXrXrXeX7X5X5X5XA.A.A.V.k u u u sXsXsXsXsXsXsXsXsXsXsXsXsXsXsXsX",
"sXsXsXsXsXsXsXsXsXsXsXsX        5X5X5X5X5X5X5X5XrXrXrXeX7X5X5X5XrXrXrXeX7X5X5X5XA.A.A.V.k u u u sXsXsXsXsXsXsXsXsXsXsXsXsXsXsXsX",
"sXsXsXsXsXsXsXsXsXsXsXsX        5X5X5X7XeXrXrXrX5X5X5X7XeXrXrXrX5X5X5X7XeXrXrXrX5X5X5X4XS.A.A.A.        sXsXsXsXsXsXsXsXsXsXsXsX",
"sXsXsXsXsXsXsXsXsXsXsXsX        5X5X5X7XeXrXrXrX5X5X5X7XeXrXrXrX5X5X5X7XeXrXrXrX5X5X5X4XS.A.A.A.        sXsXsXsXsXsXsXsXsXsXsXsX",
"sXsXsXsXsXsXsXsXsXsXsXsX        5X5X5X7XeXrXrXrX5X5X5X7XeXrXrXrX5X5X5X7XeXrXrXrX5X5X5X4XS.A.A.A.        sXsXsXsXsXsXsXsXsXsXsXsX",
"sXsXsXsXsXsXsXsXsXsXsXsX        5X5X5X7XeXrXrXrX5X5X5X6XwXeXeXeX5X5X5X7XeXrXrXrX5X5X5X4XS.A.A.A.        sXsXsXsXsXsXsXsXsXsXsXsX",
"sXsXsXsX                        5X5X5X7XeXrXrXrX5X5X5X5X6X7X7X7X5X5X5X7XeXrXrXrX5X5X5X4XS.A.A.A.        sXsXsXsXsXsXsXsXsXsXsXsX",
"sXsXsXsX                        5X5X5X7XeXrXrXrX5X5X5X5X5X5X5X5X5X5X5X7XeXrXrXrX5X5X5X4XS.A.A.A.        sXsXsXsXsXsXsXsXsXsXsXsX",
"sXsXsXsX                        5X5X5X7XeXrXrXrX5X5X5X5X5X5X5X5X5X5X5X7XeXrXrXrX5X5X5X4XS.A.A.A.        sXsXsXsXsXsXsXsXsXsXsXsX",
"sXsXsXsX                        5X5X5X7XeXrXrXrX5X5X5X5X5X5X5X5X5X5X5X7XeXrXrXrX5X5X5X4XS.A.A.A.        sXsXsXsXsXsXsXsXsXsXsXsX",
"      e D.5X5X5X5X5X5X5X5X5X5X5X5X5X5X5X5X5X5X5XrXrXrXeX7X5X5X5XrXrXrXeX7X5X5X5XA.A.A.A.A.A.A.A.        sXsXsXsXsXsXsXsXsXsXsXsX",
"      e D.5X5X5X5X5X5X5X5X5X5X5X5X5X5X5X5X5X5X5XrXrXrXeX7X5X5X5XrXrXrXeX7X5X5X5XA.A.A.A.A.A.A.A.        sXsXsXsXsXsXsXsXsXsXsXsX",
"      e D.5X5X5X5X5X5X5X5X5X5X5X5X5X5X5X5X5X5X5XrXrXrXeX7X5X5X5XrXrXrXeX7X5X5X5XA.A.A.A.A.A.A.A.        sXsXsXsXsXsXsXsXsXsXsXsX",
"      e C.G.G.G.K.K.K.K.K.K.K.K.J.J.J.J.J.J.J.J.qXqXqX0X).J.J.J.qXqXqX0X).J.J.J.Z.Z.Z.Z.Z.Z.Z.Z.& & & & sXsXsXsXsXsXsXsXsXsXsXsX",
"sXsXsXsXt t t t ................_ _ _ _ _ _ _ _ ` ` ` ` _ _ _ _ ` ` ` ` _ _ _ _ ) ) ) ) ) ) ) ) M M M v &       sXsXsXsXsXsXsXsX",
"sXsXsXsX        [ [ [ [ [ [ [ [ W W W W W W W W W W W W W W W W W W W W W W W W W W W W W W W W R R R M &       sXsXsXsXsXsXsXsX",
"sXsXsXsX        [ [ [ [ [ [ [ [ W W W W W W W W W W W W W W W W W W W W W W W W W W W W W W W W R R R M &       sXsXsXsXsXsXsXsX",
"sXsXsXsX        [ [ [ [ [ [ [ [ W W W W W W W W W W W W W W W W W W W W W W W W W W W W W W W W R R R M &       sXsXsXsXsXsXsXsX",
"sXsXsXsX        [ [ [ ] ~ W W W x x x x x x x x x x x m m.Y.Y.Y.x x x x x x x x x x x c Y R R R R R R M &       sXsXsXsXsXsXsXsX",
"sXsXsXsX        [ [ [ ] ~ W W W x x x x x x x x x x x m m.Y.Y.Y.x x x x x x x x x x x c Y R R R R R R M &       sXsXsXsXsXsXsXsX",
"sXsXsXsX        [ [ [ ] ~ W W W x x x x x x x x x x x m m.Y.Y.Y.x x x x x x x x x x x c Y R R R R R R M &       sXsXsXsXsXsXsXsX",
"sXsXsXsX; : : : ] ] ] ' ~ W W W N N N N C C C C b b b Z M.E.E.E.N N N B C C C C b b b n ! ^ ^ ^ R R R M 8 & & & sXsXsXsXsXsXsXsX",
"      - Q ( ( ( ~ ~ ~ ~ W W W W W.W.W.^.tXuXuXuX1.1.1.7.].OXOXOX_._._.`.yXuXuXuX1.1.1.6.!.Q.Q.Q.R R R T M M M M         sXsXsXsX",
"      - / [ [ [ W W W W W W W W  X X XXXiXaXaXaX0.0.0.t.}.+X+X+X+X+X+X@XpXaXaXaX0.0.0.r./. X X XR R R R R R R R         sXsXsXsX",
"      - / [ [ [ W W W W W W W W  X X XXXiXaXaXaX0.0.0.t.}.+X+X+X+X+X+X@XpXaXaXaX0.0.0.r./. X X XR R R R R R R R         sXsXsXsX",
"      - / [ [ [ W W W W W W W W  X X XXXiXaXaXaX0.0.0.t.}.+X+X+X+X+X+X@XpXaXaXaX0.0.0.r./. X X XR R R R R R R R         sXsXsXsX",
"sXsXsXsX        W W W E *       N.N.N.(.oX+X+X+X+X+X+X+X+X+X+X+X+X+X+X+X+X+X+X+X+X+X+XoX(.N.N.N.      # z x x x         sXsXsXsX",
"sXsXsXsX        W W W E *       N.N.N.(.oX+X+X+X+X+X+X+X+X+X+X+X+X+X+X+X+X+X+X+X+X+X+XoX(.N.N.N.      # z x x x         sXsXsXsX",
"sXsXsXsX        W W W E *       N.N.N.(.oX+X+X+X+X+X+X+X+X+X+X+X+X+X+X+X+X+X+X+X+X+X+XoX(.N.N.N.      # z x x x         sXsXsXsX",
"sXsXsXsX        W W W V %       T.T.T.R.{.|.|.|..X.X.X.X.X.X.X.X.X.X.X.X.X.X.X.X[.[.[.'.U.I.I.I.X X X $ l z z z         sXsXsXsX",
"sXsXsXsXsXsXsXsXsXsXsXsX.       *X*X*X=X-X;X;X;Xb.b.b.b.b.b.b.b.b.b.b.b.b.b.b.b.:.:.:.:.;.-.-.-., , , > $ # # # sXsXsXsXsXsXsXsX",
"sXsXsXsXsXsXsXsXsXsXsXsX        d.d.d.d.d.d.d.d.v.v.v.v.v.v.v.v.v.v.v.v.v.v.v.v.=.=.=.=.=.=.=.=.< < < , X       sXsXsXsXsXsXsXsX",
"sXsXsXsXsXsXsXsXsXsXsXsX        d.d.d.d.d.d.d.d.v.v.v.v.v.v.v.v.v.v.v.v.v.v.v.v.=.=.=.=.=.=.=.=.< < < , X       sXsXsXsXsXsXsXsX",
"sXsXsXsXsXsXsXsXsXsXsXsX        d.d.d.d.d.d.d.d.v.v.v.v.v.v.v.v.v.v.v.v.v.v.v.v.=.=.=.=.=.=.=.=.< < < , X       sXsXsXsXsXsXsXsX",
"sXsXsXsXsXsXsXsX      i e.d.d.d.d.d.d.a.D A A A =.=.=.=.=.=.=.=.=.=.=.&.J F F F 0.0.0.8.>.=.=.=.=.=.=.%.1       sXsXsXsXsXsXsXsX",
"sXsXsXsXsXsXsXsX      i e.d.d.d.d.d.d.a.D A A A =.=.=.=.=.=.=.=.=.=.=.&.J F F F 0.0.0.8.>.=.=.=.=.=.=.%.1       sXsXsXsXsXsXsXsX",
"sXsXsXsXsXsXsXsX      i e.d.d.d.d.d.d.a.D A A A =.=.=.=.=.=.=.=.=.=.=.&.J F F F 0.0.0.8.>.=.=.=.=.=.=.%.1       sXsXsXsXsXsXsXsX",
"sXsXsXsXsXsXsXsX      i e.d.d.d.s.s.s.p.H S S S >.>.>.>.>.>.>.>.>.>.>.*.K G G G 0.0.0.8.>.=.=.=.=.=.=.%.1       sXsXsXsXsXsXsXsX",
"sXsXsXsXsXsXsXsX      i e.d.d.d.q.q.q.4.o.L L L 8.8.8.8.8.8.8.8.8.8.8.2.o.P P P 0.0.0.8.>.=.=.=.=.=.=.%.1       sXsXsXsXsXsXsXsX",
"sXsXsXsXsXsXsXsX      i e.d.d.d.0.0.0.3.+.X.X.X.0.0.0.0.0.0.0.0.0.0.0.3.+.X.X.X.0.0.0.8.>.=.=.=.=.=.=.%.1       sXsXsXsXsXsXsXsX",
"sXsXsXsXsXsXsXsX      i e.d.d.d.0.0.0.3.+.X.X.X.0.0.0.0.0.0.0.0.0.0.0.3.+.X.X.X.0.0.0.8.>.=.=.=.=.=.=.%.1       sXsXsXsXsXsXsXsX",
"sXsXsXsXsXsXsXsX      i e.d.d.d.0.0.0.3.+.X.X.X.0.0.0.0.0.0.0.0.0.0.0.3.+.X.X.X.0.0.0.8.>.=.=.=.=.=.=.%.1       sXsXsXsXsXsXsXsX",
"sXsXsXsXsXsXsXsX      w ~.+X+X+X0.0.0.3.+.X.X.X.0.0.0.0.0.0.0.0.0.0.0.3.+.X.X.X.0.0.0.t.}.+X+X+XY.Y.Y.n.2       sXsXsXsXsXsXsXsX",
"sXsXsXsXsXsXsXsX      w ~.+X+X+X0.0.0.3.+.X.X.X.0.0.0.0.0.0.0.0.0.0.0.3.+.X.X.X.0.0.0.t.}.+X+X+XY.Y.Y.n.2       sXsXsXsXsXsXsXsX",
"sXsXsXsXsXsXsXsX      w ~.+X+X+X0.0.0.3.+.X.X.X.0.0.0.0.0.0.0.0.0.0.0.3.+.X.X.X.0.0.0.t.}.+X+X+XY.Y.Y.n.2       sXsXsXsXsXsXsXsX",
"sXsXsXsXsXsXsXsX      q L.~.~.~.<.<.<.,.$.@.@.@.i.i.i.u.9.9.9.9.9.9.9.5.#.O.O.O.9.9.9.y.P.~.~.~.n.n.n.f.2       sXsXsXsXsXsXsXsX",
"sXsXsXsXsXsXsXsXsXsXsXsXq w w w 4 4 4 a x.,X,X,X1X1X1X<X%X$X$X$X$X$X$X#Xl.l.l.l.$X$X$Xj.s w w w 2 2 2 2 sXsXsXsXsXsXsXsXsXsXsXsX",
"sXsXsXsXsXsXsXsXsXsXsXsX              7 :X3X3X3X3X3X3X2X&Xz.z.z.z.z.z.z.z.z.z.z.z.z.z.h.5               sXsXsXsXsXsXsXsXsXsXsXsX",
"sXsXsXsXsXsXsXsXsXsXsXsX              7 :X3X3X3X3X3X3X2X&Xz.z.z.z.z.z.z.z.z.z.z.z.z.z.h.5               sXsXsXsXsXsXsXsXsXsXsXsX",
"sXsXsXsXsXsXsXsXsXsXsXsX              7 :X3X3X3X3X3X3X2X&Xz.z.z.z.z.z.z.z.z.z.z.z.z.z.h.5               sXsXsXsXsXsXsXsXsXsXsXsX",
"sXsXsXsXsXsXsXsXsXsXsXsXsXsXsXsX      7 :X3X3X3X                                z.z.z.h.5       sXsXsXsXsXsXsXsXsXsXsXsXsXsXsXsX",
"sXsXsXsXsXsXsXsXsXsXsXsXsXsXsXsX      7 :X3X3X3X                                z.z.z.h.5       sXsXsXsXsXsXsXsXsXsXsXsXsXsXsXsX",
"sXsXsXsXsXsXsXsXsXsXsXsXsXsXsXsX      7 :X3X3X3X                                z.z.z.h.5       sXsXsXsXsXsXsXsXsXsXsXsXsXsXsXsX",
"sXsXsXsXsXsXsXsXsXsXsXsXsXsXsXsX      6 c.>X>X>X                                k.k.k.g.3       sXsXsXsXsXsXsXsXsXsXsXsXsXsXsXsX",
"sXsXsXsXsXsXsXsXsXsXsXsXsXsXsXsX      = }  . . .        sXsXsXsXsXsXsXsX        | | | { =       sXsXsXsXsXsXsXsXsXsXsXsXsXsXsXsX",
"sXsXsXsXsXsXsXsXsXsXsXsXsXsXsXsX      = I U U U         sXsXsXsXsXsXsXsX        U U U I =       sXsXsXsXsXsXsXsXsXsXsXsXsXsXsXsX",
"sXsXsXsXsXsXsXsXsXsXsXsXsXsXsXsX      = I U U U         sXsXsXsXsXsXsXsX        U U U I =       sXsXsXsXsXsXsXsXsXsXsXsXsXsXsXsX",
"sXsXsXsXsXsXsXsXsXsXsXsXsXsXsXsX      = I U U U         sXsXsXsXsXsXsXsX        U U U I =       sXsXsXsXsXsXsXsXsXsXsXsXsXsXsXsX"
};
