/* XPM */
static char *result[] = {
/* columns rows colors chars-per-pixel */
"64 64 217 2 ",
"   c black",
".  c #010100",
"X  c #000001",
"o  c #020202",
"O  c #030202",
"+  c gray1",
"@  c #040303",
"#  c #010703",
"$  c #060404",
"%  c #040407",
"&  c #060506",
"*  c #060606",
"=  c #070607",
"-  c #0C0806",
";  c #0D0806",
":  c #040408",
">  c #08070A",
",  c gray3",
"<  c #090909",
"1  c gray4",
"2  c #0F0A08",
"3  c #0C0C0C",
"4  c #0E0E0E",
"5  c #100C0A",
"6  c #0F1511",
"7  c #101010",
"8  c #111111",
"9  c gray7",
"0  c gray11",
"q  c gray12",
"w  c #211A1A",
"e  c #211D1A",
"r  c #231C1C",
"t  c #261E1E",
"y  c #261F1F",
"u  c #291F1E",
"i  c #202020",
"p  c gray13",
"a  c #222222",
"s  c #232323",
"d  c #272022",
"f  c #262525",
"g  c gray15",
"h  c #282020",
"j  c #2C2220",
"k  c #2F2422",
"l  c #2C2525",
"z  c #2F2526",
"x  c #2E2727",
"c  c #282828",
"v  c #2B292B",
"b  c #2D2B2D",
"n  c #2D2C2D",
"m  c #2E2C2E",
"M  c #2F2E2F",
"N  c #302422",
"B  c #312522",
"V  c #322624",
"C  c #342727",
"Z  c #332827",
"A  c #332828",
"S  c #36292A",
"D  c #312D2B",
"F  c #34292C",
"G  c #322E2C",
"H  c #382A2A",
"J  c #382B2F",
"K  c #3A2D2D",
"L  c #302E30",
"P  c #302F30",
"I  c #343234",
"U  c #353435",
"Y  c #3E3C3E",
"T  c #3F3C3E",
"R  c #4A291B",
"E  c #502E1F",
"W  c #492A21",
"Q  c #492B21",
"!  c #4A2C22",
"~  c #503126",
"^  c #443331",
"/  c #443333",
"(  c #0B5F21",
")  c #0C6624",
"_  c #1C6A31",
"`  c #1D7134",
"'  c #6E4836",
"]  c #744C38",
"[  c #7A4F3A",
"{  c #2E3258",
"}  c #2F335C",
"|  c #303359",
" . c #31355C",
".. c #30345D",
"X. c #32355D",
"o. c #31355F",
"O. c #353963",
"+. c #353964",
"@. c #393B66",
"#. c #3A3C65",
"$. c #393C66",
"%. c #3C3D67",
"&. c #383C6A",
"*. c #393D6B",
"=. c #3F3F68",
"-. c #3B3F6D",
";. c #403E40",
":. c #444244",
">. c #454345",
",. c #484547",
"<. c #484648",
"1. c #494849",
"2. c #4D4B4C",
"3. c #4D4B4D",
"4. c #4F4D4F",
"5. c #414169",
"6. c #4C4E79",
"7. c #4E4F7B",
"8. c #4C507F",
"9. c #54547F",
"0. c #666566",
"q. c #6E6D6E",
"w. c gray43",
"e. c #717171",
"r. c gray45",
"t. c #747374",
"y. c #757474",
"u. c #767676",
"i. c #777677",
"p. c gray47",
"a. c #797878",
"s. c #797979",
"d. c #7B7A7B",
"f. c gray49",
"g. c gray50",
"h. c #FF7F27",
"j. c #986448",
"k. c #936553",
"l. c #976754",
"z. c #9A6851",
"x. c #9D6951",
"c. c #9B6B57",
"v. c #9D6C58",
"b. c #A36C4E",
"n. c #A66E50",
"m. c #A76E50",
"M. c #A36E55",
"N. c #AE7353",
"B. c #AF7353",
"V. c #AB7359",
"C. c #AE755B",
"Z. c #AE765C",
"A. c #B07454",
"S. c #B17454",
"D. c #B87A57",
"F. c #B97A57",
"G. c #BB7D5B",
"H. c #FC822E",
"J. c #FF8836",
"K. c #FB8A3C",
"L. c #B58167",
"P. c #BA8165",
"I. c #BC8468",
"U. c #C0886C",
"Y. c #C38A6E",
"T. c #C48B71",
"R. c #CC9072",
"E. c #CD9173",
"W. c #CF9274",
"Q. c #CF9375",
"!. c #CF9B7D",
"~. c #D09378",
"^. c #D1987A",
"/. c #D49A7C",
"(. c #D49B7D",
"). c #4D5180",
"_. c #4E5282",
"`. c gray53",
"'. c gray55",
"]. c gray59",
"[. c gray63",
"{. c gray64",
"}. c gray71",
"|. c #B9BAB9",
" X c #CB9C82",
".X c #CF9F85",
"XX c #D09F87",
"oX c #D09A98",
"OX c #D19B9B",
"+X c #D29D9B",
"@X c #D29C9C",
"#X c #DEA585",
"$X c #D9A588",
"%X c #D9A589",
"&X c #DBA88C",
"*X c #DBA88E",
"=X c #DDA4A2",
"-X c #DEA5A3",
";X c #DEA5A5",
":X c #C1C1C1",
">X c #C3C3C3",
",X c gray78",
"<X c #D2D2D2",
"1X c LightGray",
"2X c #DADADA",
"3X c #DDDDDD",
"4X c #EEE5DF",
"5X c #E2E2E2",
"6X c gray89",
"7X c gray92",
"8X c gray93",
"9X c #EAF0EB",
"0X c #EEF4EF",
"qX c #FFF6F0",
"wX c #FBFBFB",
"eX c white",
"rX c None",
/* pixels */
"rXrXrXrXrXrXrXrXrXrXrXrXrXrXrXrX                                                                rXrXrXrXrXrXrXrXrXrXrXrXrXrXrXrX",
"rXrXrXrXrXrXrXrXrXrXrXrXrXrXrXrX                                                                rXrXrXrXrXrXrXrXrXrXrXrXrXrXrXrX",
"rXrXrXrXrXrXrXrXrXrXrXrXrXrXrXrX                                                                rXrXrXrXrXrXrXrXrXrXrXrXrXrXrXrX",
"rXrXrXrXrXrXrXrXrXrXrXrXrXrXrXrX: : : : : : : : : : : : : : : : : : : : : : : : : : : % X       rXrXrXrXrXrXrXrXrXrXrXrXrXrXrXrX",
"rXrXrXrXrXrXrXrXrXrXrXrX        O.O.O.O.O.O.O.O.O.O.O.O.O.O.O.O.O.O.O.O.O.O.O.O.O.O.O. .%               rXrXrXrXrXrXrXrXrXrXrXrX",
"rXrXrXrXrXrXrXrXrXrXrXrX        *.*.*.*.*.*.*.*.*.*.*.*.*.*.*.*.*.*.*.*.*.*.*.*.*.*.*.O.:               rXrXrXrXrXrXrXrXrXrXrXrX",
"rXrXrXrXrXrXrXrXrXrXrXrX        *.*.*.*.*.*.*.*.*.*.*.*.*.*.*.*.*.*.*.*.*.*.*.*.*.*.*.O.:               rXrXrXrXrXrXrXrXrXrXrXrX",
"rXrXrXrXrXrXrXrXrXrXrXrX        *.*.*.*.*.*.*.*.*.*.*.*.*.*.*.*.*.*.*.*.*.*.*.*.*.*.*.O.:               rXrXrXrXrXrXrXrXrXrXrXrX",
"rXrXrXrXrXrXrXrXrXrXrXrX        _._._.).-.*.*.*._._._.).-.*.*.*._._._.).-.*.*.*._._._.8.o.} } }         rXrXrXrXrXrXrXrXrXrXrXrX",
"rXrXrXrXrXrXrXrXrXrXrXrX        _._._.).-.*.*.*._._._.).-.*.*.*._._._.).-.*.*.*._._._.8.o.} } }         rXrXrXrXrXrXrXrXrXrXrXrX",
"rXrXrXrXrXrXrXrXrXrXrXrX        _._._.).-.*.*.*._._._.).-.*.*.*._._._.).-.*.*.*._._._.8.o.} } }         rXrXrXrXrXrXrXrXrXrXrXrX",
"rXrXrXrXrXrXrXrXrXrXrXrX        _._._.).-.*.*.*._._._.).-.*.*.*._._._.).-.*.*.*._._._.8.o.} } }         rXrXrXrXrXrXrXrXrXrXrXrX",
"rXrXrXrX                        _._._.).-.*.*.*._._._.).-.*.*.*._._._.).-.*.*.*._._._.8.o.} } }         rXrXrXrXrXrXrXrXrXrXrXrX",
"rXrXrXrX                        _._._.).-.*.*.*._._._.).-.*.*.*._._._.).-.*.*.*._._._.8.o.} } }         rXrXrXrXrXrXrXrXrXrXrXrX",
"rXrXrXrX                        _._._.).-.*.*.*._._._.).-.*.*.*._._._.).-.*.*.*._._._.8.o.} } }         rXrXrXrXrXrXrXrXrXrXrXrX",
"rXrXrXrX                        _._._.).-.*.*.*._._._.).-.*.*.*._._._.).-.*.*.*._._._.8.o.} } }         rXrXrXrXrXrXrXrXrXrXrXrX",
"      : O.*.*.*.*.*.*.*.*.*.*.*._._._.).-.*.*.*._._._._._._._._.*.*.*.*.*.*.*.*.*.*.*.&...} } }         rXrXrXrXrXrXrXrXrXrXrXrX",
"      : O.*.*.*.*.*.*.*.*.*.*.*._._._.).-.*.*.*._._._._._._._._.*.*.*.*.*.*.*.*.*.*.*.&...} } }         rXrXrXrXrXrXrXrXrXrXrXrX",
"      : O.*.*.*.*.*.*.*.*.*.*.*._._._.).-.*.*.*._._._._._._._._.*.*.*.*.*.*.*.*.*.*.*.&...} } }         rXrXrXrXrXrXrXrXrXrXrXrX",
"      : X.O.O.O.O.O.O.+.@.$.$.$.7.7.7.6.%.#.#.#.9.9.9.9.7.7.7.7.#.#.#.#.#.#.#.#.5.5.5.=.| { { {         rXrXrXrXrXrXrXrXrXrXrXrX",
"rXrXrXrX: : : : : : : > F J J J ! ! ! ! Q W W W v.v.v.l.~ ! ! ! W W W W W W W W c.c.c.k.z d d d                 rXrXrXrXrXrXrXrX",
"rXrXrXrX              @ C H H H R R R R R R R R M.M.M.x.E R R R R R R R R R R R M.M.M.z.k t t t                 rXrXrXrXrXrXrXrX",
"rXrXrXrX              @ C H H H R R R R R R R R M.M.M.x.E R R R R R R R R R R R M.M.M.z.k t t t                 rXrXrXrXrXrXrXrX",
"rXrXrXrX              @ C H H H R R R R R R R R M.M.M.x.E R R R R R R R R R R R M.M.M.z.k t t t                 rXrXrXrXrXrXrXrX",
">X>X>X>XrXrXrXrX      @ C H H H       4 }.>X>X>XP.P.P.P.P.P.P.P.      4 }.>X>X>XW.W.W.Y.V t t t t t t r O               rXrXrXrX",
">X>X>X>XrXrXrXrX      @ C H H H       4 }.>X>X>XP.P.P.P.P.P.P.P.      4 }.>X>X>XW.W.W.Y.V t t t t t t r O               rXrXrXrX",
">X>X>X>XrXrXrXrX      @ C H H H       4 }.>X>X>XP.P.P.P.P.P.P.P.      4 }.>X>X>XW.W.W.Y.V t t t t t t r O               rXrXrXrX",
">X>X>X>XrXrXrXrX      @ C H H H # # # 6 |.,X,X,XI.I.I.I.I.I.I.I.# # # 6 |.,X,X,X~.~.~.T.V t t t j j j u $ O O O         rXrXrXrX",
"rXrXrXrXrXrXrXrX      @ C H H H ( ( ( _ 9XwXwXwX%X%X%X%X%X%X%X%X( ( ( _ 9XwXwXwX=X=X=XoXZ t t t ] ] ] ' u r r r         rXrXrXrX",
"rXrXrXrXrXrXrXrX      @ C H H H ) ) ) ` 0XeXeXeX&X&X&X&X&X&X&X&X) ) ) ` 0XeXeXeX;X;X;XOXA t t t [ [ [ ] j t t t         rXrXrXrX",
"rXrXrXrXrXrXrXrX      @ C H H H ) ) ) ` 0XeXeXeX&X&X&X&X&X&X&X&X) ) ) ` 0XeXeXeX;X;X;XOXA t t t [ [ [ ] j t t t         rXrXrXrX",
"rXrXrXrXrXrXrXrX      @ C H H H ) ) ) ` 0XeXeXeX&X&X&X&X&X&X&X&X) ) ) ` 0XeXeXeX;X;X;XOXA t t t [ [ [ ] j t t t         rXrXrXrX",
">X>X>X}.4       H H H H H H H H ;X;X;X-X*X&X&X&X&X&X&X&X&X&X&X&X(.(.(./.Q.W.W.W.A.A.A.S.D.F.F.F.t t t t t t t t                 ",
">X>X>X}.4       H H H H H H H H ;X;X;X-X*X&X&X&X&X&X&X&X&X&X&X&X(.(.(./.Q.W.W.W.A.A.A.S.D.F.F.F.t t t t t t t t                 ",
">X>X>X}.4       H H H H H H H H ;X;X;X-X*X&X&X&X&X&X&X&X&X&X&X&X(.(.(./.Q.W.W.W.A.A.A.S.D.F.F.F.t t t t t t t t                 ",
">X>X>X}.4       H H H H H H H H @X@X@X+XXX.X.X.X$X$X$X$X$X$X$X$X^.^.^.^.E.R.R.R.n.n.n.m.N.B.B.B.t t t t t t t t O O O O         ",
">X>X>X}.4       H H H H H H H H / / / / ^ ^ ^ ^ G.G.G.G.G.G.G.G.Z.Z.Z.Z.C.C.C.C.N N N N B B B B t t t t t t t t r r r w O       ",
">X>X>X}.4       H H H H H H H H H H H H H H H H F.F.F.F.F.F.F.F.V.V.V.V.V.V.V.V.t t t t t t t t t t t t t t t t t t t r O       ",
">X>X>X}.4       H H H H H H H H H H H H H H H H F.F.F.F.F.F.F.F.V.V.V.V.V.V.V.V.t t t t t t t t t t t t t t t t t t t r O       ",
">X>X>X}.4       H H H H H H H H H H H H H H H H F.F.F.F.F.F.F.F.V.V.V.V.V.V.V.V.t t t t t t t t t t t t t t t t t t t r O       ",
">X>X>X>XrXrXrXrX      @ C H H H 4.4.4.1.*       ;.;.;.;.;.;.;.;.;.;.;.Y h t t t g g g g g g g g t t t t t t t t t t t r O       ",
">X>X>X>XrXrXrXrX      @ C H H H 4.4.4.1.*       ;.;.;.;.;.;.;.;.;.;.;.Y h t t t g g g g g g g g t t t t t t t t t t t r O       ",
">X>X>X>XrXrXrXrX      @ C H H H 4.4.4.1.*       ;.;.;.;.;.;.;.;.;.;.;.Y h t t t g g g g g g g g t t t t t t t t t t t r O       ",
":X:X:X:XrXrXrXrX      @ S K K K 3.3.3.<.4 < < < ;.;.;.;.;.;.;.;.;.;.;.T x l l l g g g g g g g g y y y y t t t t r r r w O       ",
"{.{.{.{.rXrXrXrX      & ,.2.2.2.L L L U e.u.u.u.;.;.;.;.;.;.;.;.;.;.;.:.y.a.a.a.g g g g g g g g f f f f y t t t O O O O         ",
"[.[.[.[.rXrXrXrX      * 1.4.4.4.m m m I s.g.g.g.;.;.;.;.;.;.;.;.;.;.;.>.d.g.g.g.g g g g g g g g g g g f y t t t                 ",
"[.[.[.[.rXrXrXrX      * 1.4.4.4.m m m I s.g.g.g.;.;.;.;.;.;.;.;.;.;.;.>.d.g.g.g.g g g g g g g g g g g f y t t t                 ",
"[.[.[.[.rXrXrXrX      * 1.4.4.4.m m m I s.g.g.g.;.;.;.;.;.;.;.;.;.;.;.>.d.g.g.g.g g g g g g g g g g g f y t t t                 ",
"[.[.[.].3             5  X&X&X&Xm m m I s.g.g.g.p p p a b m m m m m m I s.g.g.g.g g g G Y.W.W.W.A.A.A.b.;       rXrXrXrXrXrXrXrX",
"[.[.[.].3             5  X&X&X&Xm m m I s.g.g.g.p p p a b m m m m m m I s.g.g.g.g g g G Y.W.W.W.A.A.A.b.;       rXrXrXrXrXrXrXrX",
"[.[.[.].3             5  X&X&X&Xm m m I s.g.g.g.p p p a b m m m m m m I s.g.g.g.g g g G Y.W.W.W.A.A.A.b.;       rXrXrXrXrXrXrXrX",
"].].].'.0 9 9 9 9 9 9 e !.#X#X#Xv v v P t.s.s.s.a a a s n m m m m m m I r.p.p.p.g g g D L.U.U.U.b.b.b.j.-       rXrXrXrXrXrXrXrX",
"3 3 3 0 3X8X8X8X8X8X8X4XK.H.H.H.+ + + = P I I I M M M M P P P P P P P M c c c c p p p i 5 2 2 2 ; ; ; - .       rXrXrXrXrXrXrXrX",
"      9 8XeXeXeXeXeXeXqXJ.h.h.h.      + v m m m P P P P P P P P P P P M a p p p p p p q o                       rXrXrXrXrXrXrXrX",
"      9 8XeXeXeXeXeXeXqXJ.h.h.h.      + v m m m P P P P P P P P P P P M a p p p p p p q o                       rXrXrXrXrXrXrXrX",
"      9 8XeXeXeXeXeXeXqXJ.h.h.h.      + v m m m P P P P P P P P P P P M a p p p p p p q o                       rXrXrXrXrXrXrXrX",
"                                      < u.g.g.g.                                q.q.q.0.,       rXrXrXrXrXrXrXrXrXrXrXrXrXrXrXrX",
"                                      < u.g.g.g.                                q.q.q.0.,       rXrXrXrXrXrXrXrXrXrXrXrXrXrXrXrX",
"                                      < u.g.g.g.                                q.q.q.0.,       rXrXrXrXrXrXrXrXrXrXrXrXrXrXrXrX",
"                                      1 f.`.`.`.                                i.i.i.w.,       rXrXrXrXrXrXrXrXrXrXrXrXrXrXrXrX",
"rXrXrXrXrXrXrXrXrXrXrXrXrXrXrXrX      7 1X6X6X6X        rXrXrXrXrXrXrXrX        5X5X5X<X7       rXrXrXrXrXrXrXrXrXrXrXrXrXrXrXrX",
"rXrXrXrXrXrXrXrXrXrXrXrXrXrXrXrX      8 2X7X7X7X        rXrXrXrXrXrXrXrX        7X7X7X2X8       rXrXrXrXrXrXrXrXrXrXrXrXrXrXrXrX",
"rXrXrXrXrXrXrXrXrXrXrXrXrXrXrXrX      8 2X7X7X7X        rXrXrXrXrXrXrXrX        7X7X7X2X8       rXrXrXrXrXrXrXrXrXrXrXrXrXrXrXrX",
"rXrXrXrXrXrXrXrXrXrXrXrXrXrXrXrX      8 2X7X7X7X        rXrXrXrXrXrXrXrX        7X7X7X2X8       rXrXrXrXrXrXrXrXrXrXrXrXrXrXrXrX"
};
