/* XPM */
static char *result[] = {
/* columns rows colors chars-per-pixel */
"64 64 167 2 ",
"   c black",
".  c #010000",
"X  c #010101",
"o  c #010703",
"O  c #060606",
"+  c #090604",
"@  c #080605",
"#  c #0A0604",
"$  c #0B0605",
"%  c #0D0806",
"&  c #0D0907",
"*  c #060609",
"=  c #06060A",
"-  c #07070B",
";  c #0B0908",
":  c #0C0A09",
">  c #0E0A08",
",  c #0F0A08",
"<  c #0D0B0A",
"1  c #0E0C0B",
"2  c #0F0B0D",
"3  c #0C0C0C",
"4  c #0F0D0C",
"5  c #0F0C0E",
"6  c #100A07",
"7  c #100B0E",
"8  c #110C0C",
"9  c #100E0C",
"0  c #100D0F",
"q  c #0D130E",
"w  c #0C0D14",
"e  c #191310",
"r  c #1B1512",
"t  c #1E1716",
"y  c #1B1815",
"u  c #0B5F21",
"i  c #0C6624",
"p  c #1C6A31",
"a  c #1D7134",
"s  c #6E4A3B",
"d  c #714936",
"f  c #764D39",
"g  c #774F3F",
"h  c #7A4F3A",
"j  c #7F533D",
"k  c #494849",
"l  c #4F4B4C",
"z  c #4F4D4F",
"x  c #504C4D",
"c  c #555152",
"v  c #565253",
"b  c #7B5342",
"n  c #444771",
"m  c #4B4C74",
"M  c #484C79",
"N  c #494D79",
"B  c #4A4D7A",
"V  c #4A4E7B",
"C  c #51527D",
"Z  c #9A6548",
"A  c #A46C4D",
"S  c #A36E55",
"D  c #A77158",
"F  c #A8755B",
"G  c #AD785E",
"H  c #B17453",
"J  c #B2785B",
"K  c #B47A5D",
"L  c #B47B5D",
"P  c #B67C5F",
"I  c #92796E",
"U  c #977C70",
"Y  c #AE7A64",
"T  c #B17B63",
"R  c #B57D62",
"E  c #B07C64",
"W  c #B37E64",
"Q  c #B27E67",
"!  c #9C8175",
"~  c #9D8276",
"^  c #BA8165",
"/  c #BC8367",
"(  c #B28169",
")  c #BD846A",
"_  c #BD866C",
"`  c #A38679",
"'  c #A0877B",
"]  c #A78A7D",
"[  c #A68B7E",
"{  c #BF8A71",
"}  c #C0886C",
"|  c #C99176",
" . c #C99277",
".. c #CF9274",
"X. c #CB9378",
"o. c #CB9379",
"O. c #CE977D",
"+. c #CF977D",
"@. c #C9997F",
"#. c #CA997F",
"$. c #D1987A",
"%. c #D1997B",
"&. c #D2997B",
"*. c #D39B7D",
"=. c #D0997F",
"-. c #D49B7D",
";. c #D39C7F",
":. c #4E5282",
">. c #4F5384",
",. c #555580",
"<. c #565580",
"1. c #505485",
"2. c #525785",
"3. c #585C8D",
"4. c #585D8E",
"5. c #595D8E",
"6. c #595D8F",
"7. c #5D6296",
"8. c #5D6297",
"9. c #5E6397",
"0. c #5F6499",
"q. c gray59",
"w. c gray61",
"e. c #AA8F82",
"r. c #AC9184",
"t. c #AD958A",
"y. c #B39688",
"u. c #B4988A",
"i. c #B5988A",
"p. c #B6998B",
"a. c #BBA092",
"s. c #B9A094",
"d. c #BCA095",
"f. c #BCA497",
"g. c gray63",
"h. c gray66",
"j. c #C99980",
"k. c #CA9980",
"l. c #D39C81",
"z. c #D59C80",
"x. c #D79B99",
"c. c #D79B9B",
"v. c #C6AA9D",
"b. c #C7AC9E",
"n. c #C7AC9F",
"m. c #C8AB9D",
"M. c #C9ACA0",
"N. c #C8ADA0",
"B. c #C9AEA1",
"V. c #CAB0A2",
"C. c #D2B5A5",
"Z. c #D7B9A9",
"A. c #D5B9AA",
"S. c #D5BAAB",
"D. c #D6BAAB",
"F. c #D8BCAD",
"G. c #D9BDAE",
"H. c #E2A4A1",
"J. c #E5A4A2",
"K. c #E7A6A4",
"L. c #E6A7A6",
"P. c #E8A7A7",
"I. c #E7EDE9",
"U. c #EEF4EF",
"Y. c #F8F8F8",
"T. c white",
"R. c None",
/* pixels */
"R.R.R.R.R.R.R.R.R.R.R.R.R.R.R.R.R.R.R.R.        $ $ $ $ # # # # # # # # # # # # # # # + .       R.R.R.R.R.R.R.R.R.R.R.R.R.R.R.R.",
"R.R.R.R.R.R.R.R.R.R.R.R.R.R.R.R.R.R.R.R.        $ $ $ $ # # # # # # # # # # # # # # # + .       R.R.R.R.R.R.R.R.R.R.R.R.R.R.R.R.",
"R.R.R.R.R.R.R.R.R.R.R.R.R.R.R.R.R.R.R.R.        $ $ $ $ # # # # # # # # # # # # # # # + .       R.R.R.R.R.R.R.R.R.R.R.R.R.R.R.R.",
"R.R.R.R.R.R.R.R.R.R.R.R.R.R.R.R.R.R.R.R.- - - - 7 7 7 7 2 2 2 2 2 2 2 2 2 2 2 2 0 0 0 5 = * * * R.R.R.R.R.R.R.R.R.R.R.R.R.R.R.R.",
"R.R.R.R.R.R.R.R.R.R.R.R.R.R.R.R.      - 2.4.4.4.N N N N N N N N N N N N N N N N 5.5.5.3.B M M M         R.R.R.R.R.R.R.R.R.R.R.R.",
"R.R.R.R.R.R.R.R.R.R.R.R.R.R.R.R.      - 4.0.0.0.:.:.:.:.:.:.:.:.:.:.:.:.:.:.:.:.0.0.0.9.>.:.:.:.        R.R.R.R.R.R.R.R.R.R.R.R.",
"R.R.R.R.R.R.R.R.R.R.R.R.R.R.R.R.      - 4.0.0.0.:.:.:.:.:.:.:.:.:.:.:.:.:.:.:.:.0.0.0.9.>.:.:.:.        R.R.R.R.R.R.R.R.R.R.R.R.",
"R.R.R.R.R.R.R.R.R.R.R.R.R.R.R.R.      - 4.0.0.0.:.:.:.:.:.:.:.:.:.:.:.:.:.:.:.:.0.0.0.9.>.:.:.:.        R.R.R.R.R.R.R.R.R.R.R.R.",
"R.R.R.R.R.R.R.R.R.R.R.R.R.R.R.R.      - 4.0.0.0.0.0.0.9.>.:.:.:.:.:.:.>.9.0.0.0.0.0.0.9.>.:.:.:.:.:.:.M *       R.R.R.R.R.R.R.R.",
"R.R.R.R.R.R.R.R.R.R.R.R.R.R.R.R.      - 4.0.0.0.0.0.0.9.>.:.:.:.:.:.:.>.9.0.0.0.0.0.0.9.>.:.:.:.:.:.:.M *       R.R.R.R.R.R.R.R.",
"R.R.R.R.R.R.R.R.R.R.R.R.R.R.R.R.      - 4.0.0.0.0.0.0.9.>.:.:.:.:.:.:.>.9.0.0.0.0.0.0.9.>.:.:.:.:.:.:.M *       R.R.R.R.R.R.R.R.",
"R.R.R.R.R.R.R.R.R.R.R.R.R.R.R.R.* * * w 6.0.0.0.9.9.9.7.1.>.>.>.:.:.:.>.9.0.0.0.9.9.9.7.1.>.>.>.:.:.:.M *       R.R.R.R.R.R.R.R.",
"R.R.R.R.                        M M M V 8.0.0.0.>.>.>.1.7.9.9.9.:.:.:.>.9.0.0.0.>.>.>.1.7.9.9.9.:.:.:.M *       R.R.R.R.R.R.R.R.",
"R.R.R.R.                        :.:.:.>.9.0.0.0.:.:.:.>.9.0.0.0.:.:.:.>.9.0.0.0.:.:.:.>.9.0.0.0.:.:.:.M *       R.R.R.R.R.R.R.R.",
"R.R.R.R.                        :.:.:.>.9.0.0.0.:.:.:.>.9.0.0.0.:.:.:.>.9.0.0.0.:.:.:.>.9.0.0.0.:.:.:.M *       R.R.R.R.R.R.R.R.",
"R.R.R.R.                        :.:.:.>.9.0.0.0.:.:.:.>.9.0.0.0.:.:.:.>.9.0.0.0.:.:.:.>.9.0.0.0.:.:.:.M *       R.R.R.R.R.R.R.R.",
"      * M :.:.:.:.:.:.:.:.:.:.:.:.:.:.:.:.:.:.:.:.:.:.:.:.:.:.:.:.:.:.:.:.:.:.:.:.:.:.:.:.:.:.:.:.:.:.M *       R.R.R.R.R.R.R.R.",
"      * M :.:.:.:.:.:.:.:.:.:.:.:.:.:.:.:.:.:.:.:.:.:.:.:.:.:.:.:.:.:.:.:.:.:.:.:.:.:.:.:.:.:.:.:.:.:.M *       R.R.R.R.R.R.R.R.",
"      * M :.:.:.:.:.:.:.:.:.:.:.:.:.:.:.:.:.:.:.:.:.:.:.:.:.:.:.:.:.:.:.:.:.:.:.:.:.:.:.:.:.:.:.:.:.:.M *       R.R.R.R.R.R.R.R.",
"      * n M M M M M M M M M M M <.<.<.<.<.<.<.<.<.<.<.<.<.<.<.<.<.<.<.<.<.<.<.<.<.<.<.,.C C C C C C C m *       R.R.R.R.R.R.R.R.",
"R.R.R.R.* * * * * * * * * * * * Q Q Q Q Q Q Q Q Q Q Q Q Q Q Q Q Q Q Q Q Q Q Q Q Q Q Q Y b g g g g g g s @       R.R.R.R.R.R.R.R.",
"R.R.R.R.                        ^ ^ ^ ^ ^ ^ ^ ^ ^ ^ ^ ^ ^ ^ ^ ^ ^ ^ ^ ^ ^ ^ ^ ^ ^ ^ ^ R j h h h h h h d +       R.R.R.R.R.R.R.R.",
"R.R.R.R.                        ^ ^ ^ ^ ^ ^ ^ ^ ^ ^ ^ ^ ^ ^ ^ ^ ^ ^ ^ ^ ^ ^ ^ ^ ^ ^ ^ R j h h h h h h d +       R.R.R.R.R.R.R.R.",
"R.R.R.R.                        ^ ^ ^ ^ ^ ^ ^ ^ ^ ^ ^ ^ ^ ^ ^ ^ ^ ^ ^ ^ ^ ^ ^ ^ ^ ^ ^ R j h h h h h h d +       R.R.R.R.R.R.R.R.",
"R.R.R.R.R.R.R.R.R.R.R.R.        g.g.g.q.3       S S S S S S S S g.g.g.q.3       X.X.X.| K J J J h h h d +       R.R.R.R.R.R.R.R.",
"R.R.R.R.R.R.R.R.R.R.R.R.        g.g.g.q.3       S S S S S S S S g.g.g.q.3       X.X.X.| K J J J h h h d +       R.R.R.R.R.R.R.R.",
"R.R.R.R.R.R.R.R.R.R.R.R.        g.g.g.q.3       S S S S S S S S g.g.g.q.3       X.X.X.| K J J J h h h d +       R.R.R.R.R.R.R.R.",
"R.R.R.R.R.R.R.R.R.R.R.R.        h.h.h.w.q o o o D D D D D D D D h.h.h.w.q o o o o.o.o. .P L L L j j j f +       R.R.R.R.R.R.R.R.",
"R.R.R.R.R.R.R.R.R.R.R.R.        Y.Y.Y.I.p u u u $.$.$.$.$.$.$.$.Y.Y.Y.I.p u u u @.@.@.#.%.&.&.&.R R R F &       R.R.R.R.R.R.R.R.",
"R.R.R.R.R.R.R.R.R.R.R.R.        T.T.T.U.a i i i -.-.-.-.-.-.-.-.T.T.T.U.a i i i j.j.j.k.*.-.-.-.^ ^ ^ G &       R.R.R.R.R.R.R.R.",
"R.R.R.R.R.R.R.R.R.R.R.R.        T.T.T.U.a i i i -.-.-.-.-.-.-.-.T.T.T.U.a i i i j.j.j.k.*.-.-.-.^ ^ ^ G &       R.R.R.R.R.R.R.R.",
"R.R.R.R.R.R.R.R.R.R.R.R.        T.T.T.U.a i i i -.-.-.-.-.-.-.-.T.T.T.U.a i i i j.j.j.k.*.-.-.-.^ ^ ^ G &       R.R.R.R.R.R.R.R.",
"R.R.R.R.R.R.R.R.R.R.R.R.        P.P.P.K.z.-.-.-.-.-.-.-.-.-.-.-.-.-.-.-.=.=.=.=.P.P.P.J.) ^ ^ ^ 6 6 6 6 R.R.R.R.R.R.R.R.R.R.R.R.",
"R.R.R.R.R.R.R.R.R.R.R.R.        P.P.P.K.z.-.-.-.-.-.-.-.-.-.-.-.-.-.-.-.=.=.=.=.P.P.P.J.) ^ ^ ^ 6 6 6 6 R.R.R.R.R.R.R.R.R.R.R.R.",
"R.R.R.R.R.R.R.R.R.R.R.R.        P.P.P.K.z.-.-.-.-.-.-.-.-.-.-.-.-.-.-.-.=.=.=.=.P.P.P.J.) ^ ^ ^ 6 6 6 6 R.R.R.R.R.R.R.R.R.R.R.R.",
"R.R.R.R.R.R.R.R.R.R.R.R.        c.c.c.x.l.;.;.;.&.&.&.&.&.&.&.&.&.&.&.&.+.O.O.O.L.L.L.H.T G G G 6 6 6 6 R.R.R.R.R.R.R.R.R.R.R.R.",
"R.R.R.R.R.R.R.R.R.R.R.R.R.R.R.R.8 8 8 t a.m.m.m./ / / / / / / / / / / / / / / / M.M.M.d.r & & & R.R.R.R.R.R.R.R.R.R.R.R.R.R.R.R.",
"R.R.R.R.R.R.R.R.R.R.R.R.R.R.R.R.      1 s.n.n.n.^ ^ ^ ^ ^ ^ ^ ^ ^ ^ ^ ^ ^ ^ ^ ^ n.n.n.s.1       R.R.R.R.R.R.R.R.R.R.R.R.R.R.R.R.",
"R.R.R.R.R.R.R.R.R.R.R.R.R.R.R.R.      1 s.n.n.n.^ ^ ^ ^ ^ ^ ^ ^ ^ ^ ^ ^ ^ ^ ^ ^ n.n.n.s.1       R.R.R.R.R.R.R.R.R.R.R.R.R.R.R.R.",
"R.R.R.R.R.R.R.R.R.R.R.R.R.R.R.R.      1 s.n.n.n.^ ^ ^ ^ ^ ^ ^ ^ ^ ^ ^ ^ ^ ^ ^ ^ n.n.n.s.1       R.R.R.R.R.R.R.R.R.R.R.R.R.R.R.R.",
"R.R.R.R.R.R.R.R.R.R.R.R.        G.G.G.G.G.G.G.G.y.y.y.u.v.n.n.n.n.n.n.v.u.y.y.y.G.G.G.F.N.n.n.n.        R.R.R.R.R.R.R.R.R.R.R.R.",
"R.R.R.R.R.R.R.R.R.R.R.R.        G.G.G.G.G.G.G.G.y.y.y.u.v.n.n.n.n.n.n.v.u.y.y.y.G.G.G.F.N.n.n.n.        R.R.R.R.R.R.R.R.R.R.R.R.",
"R.R.R.R.R.R.R.R.R.R.R.R.        G.G.G.G.G.G.G.G.y.y.y.u.v.n.n.n.n.n.n.v.u.y.y.y.G.G.G.F.N.n.n.n.        R.R.R.R.R.R.R.R.R.R.R.R.",
"R.R.R.R.R.R.R.R.R.R.R.R.4 9 9 9 G.G.G.G.G.G.G.G.y.y.y.i.b.N.N.N.N.N.N.b.i.y.y.y.G.G.G.F.B.N.N.N.1 1 1 1 R.R.R.R.R.R.R.R.R.R.R.R.",
"R.R.R.R.R.R.R.R.      4 f.V.V.V.G.G.G.G.G.G.G.G.y.y.y.p.A.F.F.F.F.F.F.A.p.y.y.y.G.G.G.G.F.F.F.F.s.s.s.t.1       R.R.R.R.R.R.R.R.",
"R.R.R.R.R.R.R.R.      9 V.G.G.G.G.G.G.G.G.G.G.G.y.y.y.p.D.G.G.G.G.G.G.D.p.y.y.y.G.G.G.G.G.G.G.G.n.n.n.s.1       R.R.R.R.R.R.R.R.",
"R.R.R.R.R.R.R.R.      9 V.G.G.G.G.G.G.G.G.G.G.G.y.y.y.p.D.G.G.G.G.G.G.D.p.y.y.y.G.G.G.G.G.G.G.G.n.n.n.s.1       R.R.R.R.R.R.R.R.",
"R.R.R.R.R.R.R.R.      9 V.G.G.G.G.G.G.G.G.G.G.G.y.y.y.p.D.G.G.G.G.G.G.D.p.y.y.y.G.G.G.G.G.G.G.G.n.n.n.s.1       R.R.R.R.R.R.R.R.",
"R.R.R.R.R.R.R.R.      % A H H H G.G.G.G.G.G.G.G.G.G.G.G.G.G.G.G.G.G.G.G.G.G.G.G.G.G.G.Z.{ _ _ _ ......} ,       R.R.R.R.R.R.R.R.",
"R.R.R.R.R.R.R.R.      % A H H H G.G.G.G.G.G.G.G.G.G.G.G.G.G.G.G.G.G.G.G.G.G.G.G.G.G.G.Z.{ _ _ _ ......} ,       R.R.R.R.R.R.R.R.",
"R.R.R.R.R.R.R.R.      % A H H H G.G.G.G.G.G.G.G.G.G.G.G.G.G.G.G.G.G.G.G.G.G.G.G.G.G.G.Z.{ _ _ _ ......} ,       R.R.R.R.R.R.R.R.",
"R.R.R.R.R.R.R.R.      % Z A A A V.V.V.V.S.D.D.D.A.A.A.A.A.A.A.A.A.A.A.A.A.A.A.A.A.A.A.C.( E E E } } } W >       R.R.R.R.R.R.R.R.",
"R.R.R.R.R.R.R.R.R.R.R.R.% % % % 9 9 9 y e.p.p.p.] ] ] ] ] ] ] ] ] ] ] ] ] ] ] ] ] ] ] ! e > > > , , , > X       R.R.R.R.R.R.R.R.",
"R.R.R.R.R.R.R.R.R.R.R.R.              < [ y.y.y.` ` ` ` ` ` ` ` ` ` ` ` ` ` ` ` ` ` ` U :                       R.R.R.R.R.R.R.R.",
"R.R.R.R.R.R.R.R.R.R.R.R.              < [ y.y.y.` ` ` ` ` ` ` ` ` ` ` ` ` ` ` ` ` ` ` U :                       R.R.R.R.R.R.R.R.",
"R.R.R.R.R.R.R.R.R.R.R.R.              < [ y.y.y.` ` ` ` ` ` ` ` ` ` ` ` ` ` ` ` ` ` ` U :                       R.R.R.R.R.R.R.R.",
"R.R.R.R.R.R.R.R.R.R.R.R.R.R.R.R.      < [ y.y.y.                                ` ` ` U :       R.R.R.R.R.R.R.R.R.R.R.R.R.R.R.R.",
"R.R.R.R.R.R.R.R.R.R.R.R.R.R.R.R.      < [ y.y.y.                                ` ` ` U :       R.R.R.R.R.R.R.R.R.R.R.R.R.R.R.R.",
"R.R.R.R.R.R.R.R.R.R.R.R.R.R.R.R.      < [ y.y.y.                                ` ` ` U :       R.R.R.R.R.R.R.R.R.R.R.R.R.R.R.R.",
"R.R.R.R.R.R.R.R.R.R.R.R.R.R.R.R.      : ' r.r.r.                                ~ ~ ~ I ;       R.R.R.R.R.R.R.R.R.R.R.R.R.R.R.R.",
"R.R.R.R.R.R.R.R.R.R.R.R.R.R.R.R.      O x v v v         R.R.R.R.R.R.R.R.        c c c l O       R.R.R.R.R.R.R.R.R.R.R.R.R.R.R.R.",
"R.R.R.R.R.R.R.R.R.R.R.R.R.R.R.R.      O k z z z         R.R.R.R.R.R.R.R.        z z z k O       R.R.R.R.R.R.R.R.R.R.R.R.R.R.R.R.",
"R.R.R.R.R.R.R.R.R.R.R.R.R.R.R.R.      O k z z z         R.R.R.R.R.R.R.R.        z z z k O       R.R.R.R.R.R.R.R.R.R.R.R.R.R.R.R.",
"R.R.R.R.R.R.R.R.R.R.R.R.R.R.R.R.      O k z z z         R.R.R.R.R.R.R.R.        z z z k O       R.R.R.R.R.R.R.R.R.R.R.R.R.R.R.R."
};
