/* XPM */
static char *result[] = {
/* columns rows colors chars-per-pixel */
"32 32 165 2 ",
"   c black",
".  c #020202",
"X  c #030202",
"o  c #040202",
"O  c #050302",
"+  c #010402",
"@  c #050403",
"#  c #060403",
"$  c #020204",
"%  c #040404",
"&  c #050404",
"*  c #040405",
"=  c gray2",
"-  c #060504",
";  c #070505",
":  c #060605",
">  c #040406",
",  c #040407",
"<  c #070606",
"1  c #080504",
"2  c #090604",
"3  c #0A0604",
"4  c #0B0605",
"5  c #080706",
"6  c #080707",
"7  c #050906",
"8  c #090807",
"9  c #0A0807",
"0  c #0B0807",
"q  c #07080C",
"w  c #0D0909",
"e  c #0E090A",
"r  c #0D0A0A",
"t  c #0E0A0B",
"y  c #0E0C0B",
"u  c #0F0C0B",
"i  c #100A07",
"p  c #0C6323",
"a  c #0C6624",
"s  c #126829",
"d  c #136A2A",
"f  c #754B38",
"g  c #734C3A",
"h  c #784E39",
"j  c #7A4F3A",
"k  c #794F3C",
"l  c #7C513B",
"z  c #7B513D",
"x  c #7D513C",
"c  c #4B4A4B",
"v  c #4D4B4D",
"b  c #4E4B4D",
"n  c #4F4D4E",
"m  c #4F4D4F",
"M  c #514F50",
"N  c #524F51",
"B  c #484C79",
"V  c #4C4E7A",
"C  c #4A4E7D",
"Z  c #4C507E",
"A  c #4C507F",
"S  c #50527F",
"D  c #A56C4D",
"F  c #A96F4F",
"G  c #A36E55",
"H  c #A57057",
"J  c #AC7151",
"K  c #B17453",
"L  c #B2785B",
"P  c #B3795C",
"I  c #B37A5C",
"U  c #B47A5D",
"Y  c #997E72",
"T  c #B07A60",
"R  c #B27C61",
"E  c #B47D63",
"W  c #B77F63",
"Q  c #B47D64",
"!  c #B87F64",
"~  c #9C8074",
"^  c #9E8275",
"/  c #9F8477",
"(  c #B58067",
")  c #B78066",
"_  c #BA8165",
"`  c #BB8266",
"'  c #BB8267",
"]  c #B68269",
"[  c #BE866A",
"{  c #BD866C",
"}  c #BE886E",
"|  c #A38679",
" . c #A5887B",
".. c #C68C6F",
"X. c #CA9277",
"o. c #CF9274",
"O. c #CB9378",
"+. c #CB9379",
"@. c #CF987E",
"#. c #D39A7C",
"$. c #D0997F",
"%. c #D49B7D",
"&. c #D49B7E",
"*. c #D39C7E",
"=. c #D49C7F",
"-. c #4C5080",
";. c #4E5282",
":. c #4E5283",
">. c #4F5383",
",. c #4F5384",
"<. c #525481",
"1. c #535481",
"2. c #5A5F91",
"3. c #5C6194",
"4. c #5C6195",
"5. c #5D6195",
"6. c #5E6397",
"7. c #5E6398",
"8. c #5F6498",
"9. c #5F6499",
"0. c #9A9A9A",
"q. c gray62",
"w. c #AA8F82",
"e. c #AE9284",
"r. c #AF9385",
"t. c #AF9386",
"y. c #B39688",
"u. c #B39789",
"i. c #B49789",
"p. c #B5988A",
"a. c #B9A094",
"s. c #BFA598",
"d. c gray63",
"f. c #A5A5A5",
"g. c #C99980",
"h. c #CA9980",
"j. c #C0A599",
"k. c #C1A79B",
"l. c #C2A79A",
"z. c #C6AB9E",
"x. c #C7AB9E",
"c. c #C7AC9E",
"v. c #C7AC9F",
"b. c #C8AC9F",
"n. c #DEA09E",
"m. c #C8ADA0",
"M. c #DEA0A0",
"N. c #CDB3A5",
"B. c #D0B5A7",
"V. c #D3B8A9",
"C. c #D5B8A9",
"Z. c #D7BBAC",
"A. c #D8BBAB",
"S. c #D8BCAD",
"D. c #D9BDAE",
"F. c #E5A5A3",
"G. c #E6A5A4",
"H. c #E7A6A5",
"J. c #E7A7A6",
"K. c #E8A7A7",
"L. c #F2F6F3",
"P. c #F5F8F5",
"I. c gray99",
"U. c white",
"Y. c None",
/* pixels */
"Y.Y.Y.Y.Y.Y.Y.Y.Y.Y.    4 4 3 3 3 3 3 3 3 2     Y.Y.Y.Y.Y.Y.Y.Y.",
"Y.Y.Y.Y.Y.Y.Y.Y.Y.Y., , e e w w w w w w t r > * Y.Y.Y.Y.Y.Y.Y.Y.",
"Y.Y.Y.Y.Y.Y.Y.Y.  , 2.4.Z Z Z Z Z Z Z Z 5.3.A Z     Y.Y.Y.Y.Y.Y.",
"Y.Y.Y.Y.Y.Y.Y.Y.  , 4.9.;.;.;.;.;.;.;.;.9.7.:.;.    Y.Y.Y.Y.Y.Y.",
"Y.Y.Y.Y.Y.Y.Y.Y.  , 4.9.9.7.:.;.;.>.8.9.9.7.:.;.;.C $   Y.Y.Y.Y.",
"Y.Y.Y.Y.Y.Y.Y.Y.* q 4.9.7.6.,.>.;.>.8.9.7.6.,.>.;.C $   Y.Y.Y.Y.",
"Y.Y.            Z -.7.9.:.,.7.8.;.>.8.9.:.,.7.8.;.C $   Y.Y.Y.Y.",
"Y.Y.            ;.>.8.9.;.>.8.9.;.>.8.9.;.>.8.9.;.C $   Y.Y.Y.Y.",
"  * Z ;.;.;.;.;.;.;.;.;.;.;.;.;.;.;.;.;.;.;.;.;.;.C $   Y.Y.Y.Y.",
"  * B C C C C C 1.1.1.1.1.1.1.1.1.1.1.1.1.<.S S S V $   Y.Y.Y.Y.",
"Y.Y.$ $ $ $ $ $ ) ) ) ) ) ) ) ) ) ) ) ) ) Q z k k g X   Y.Y.Y.Y.",
"Y.Y.            _ _ _ _ _ _ _ _ _ _ _ _ _ W l j j f o   Y.Y.Y.Y.",
"Y.Y.Y.Y.Y.Y.    d.0.=   G G G G d.0.=   O.X.P L j f o   Y.Y.Y.Y.",
"Y.Y.Y.Y.Y.Y.    f.q.7 + H H H H f.q.7 + +.X.U I x h o   Y.Y.Y.Y.",
"Y.Y.Y.Y.Y.Y.    I.L.s p #.#.#.#.I.L.s p g.h.#.#.! T @   Y.Y.Y.Y.",
"Y.Y.Y.Y.Y.Y.    U.P.d a %.%.%.%.U.P.d a g.h.%.%._ R @   Y.Y.Y.Y.",
"Y.Y.Y.Y.Y.Y.    K.H.&.%.%.%.%.%.%.%.$.$.K.G.' _ i i Y.Y.Y.Y.Y.Y.",
"Y.Y.Y.Y.Y.Y.    M.n.=.*.#.#.#.#.#.#.@.@.J.F.E R i i Y.Y.Y.Y.Y.Y.",
"Y.Y.Y.Y.Y.Y.Y.Y.; u l.c.` ` ` ` ` ` ` ` b.j.0 @ Y.Y.Y.Y.Y.Y.Y.Y.",
"Y.Y.Y.Y.Y.Y.Y.Y.  6 k.v._ _ _ _ _ _ _ _ v.s.-   Y.Y.Y.Y.Y.Y.Y.Y.",
"Y.Y.Y.Y.Y.Y.    D.D.D.D.y.i.x.v.v.z.u.y.D.S.v.v.    Y.Y.Y.Y.Y.Y.",
"Y.Y.Y.Y.Y.Y.8 9 D.D.D.D.y.i.v.m.m.c.i.y.D.S.m.m.6 6 Y.Y.Y.Y.Y.Y.",
"Y.Y.Y.Y.  8 N.V.D.D.D.D.y.p.Z.D.D.Z.i.y.D.D.D.D.k.a.-   Y.Y.Y.Y.",
"Y.Y.Y.Y.  9 V.D.D.D.D.D.y.p.S.D.D.Z.i.y.D.D.D.D.v.s.-   Y.Y.Y.Y.",
"Y.Y.Y.Y.  1 J K D.D.D.D.D.D.D.D.D.D.D.D.D.A.} { o...#   Y.Y.Y.Y.",
"Y.Y.Y.Y.  1 D F B.B.Z.Z.Z.Z.Z.Z.Z.Z.Z.Z.Z.C.] ( ..[ #   Y.Y.Y.Y.",
"Y.Y.Y.Y.Y.Y.O O : y r.i. . . . . . . . . .^ 9 # # #     Y.Y.Y.Y.",
"Y.Y.Y.Y.Y.Y.      5 e.y.| | | | | | | | | ~ &           Y.Y.Y.Y.",
"Y.Y.Y.Y.Y.Y.Y.Y.  5 e.y.                | ~ &   Y.Y.Y.Y.Y.Y.Y.Y.",
"Y.Y.Y.Y.Y.Y.Y.Y.  < w.t.                / Y @   Y.Y.Y.Y.Y.Y.Y.Y.",
"Y.Y.Y.Y.Y.Y.Y.Y.  % n N     Y.Y.Y.Y.    M b .   Y.Y.Y.Y.Y.Y.Y.Y.",
"Y.Y.Y.Y.Y.Y.Y.Y.  % v m     Y.Y.Y.Y.    m c .   Y.Y.Y.Y.Y.Y.Y.Y."
};
