/* XPM */
static char *result[] = {
/* columns rows colors chars-per-pixel */
"32 32 211 2 ",
"   c #010000",
".  c #0B0604",
"X  c #0D0906",
"o  c #130A06",
"O  c #1C0906",
"+  c #140D09",
"@  c #170B07",
"#  c #1B110D",
"$  c #16110D",
"%  c #1F1610",
"&  c #2A0A07",
"*  c #340D07",
"=  c #380C07",
"-  c #23150E",
";  c #2C140C",
":  c #2E190E",
">  c #281207",
",  c #32130B",
"<  c #3E1A0F",
"1  c #3B140C",
"2  c #2D1712",
"3  c #251A13",
"4  c #2C1C13",
"5  c #291F18",
"6  c #341B14",
"7  c #3B1D12",
"8  c #2D211A",
"9  c #332015",
"0  c #3E2416",
"q  c #33241B",
"w  c #3B2619",
"e  c #3E291D",
"r  c #3E2E23",
"t  c #3F352B",
"y  c #480F05",
"u  c #42130B",
"i  c #44190E",
"p  c #4D1B0E",
"a  c #4B130C",
"s  c #56170A",
"d  c #5C1209",
"f  c #531B0C",
"g  c #421711",
"h  c #431E12",
"j  c #4C1D14",
"k  c #5D1F12",
"l  c #64190B",
"z  c #711D0A",
"x  c #681F11",
"c  c #5F260F",
"v  c #422215",
"b  c #4B2314",
"n  c #49261A",
"m  c #432B1D",
"M  c #4A2C1D",
"N  c #4B2815",
"B  c #562414",
"V  c #5C2414",
"C  c #582917",
"Z  c #542B1C",
"A  c #5B2C1B",
"S  c #502917",
"D  c #5B331D",
"F  c #65220E",
"G  c #69220F",
"H  c #78240F",
"J  c #612514",
"K  c #6D2B15",
"L  c #642B1A",
"P  c #6B2B18",
"I  c #662814",
"U  c #722615",
"Y  c #792B16",
"T  c #732A14",
"R  c #66341C",
"E  c #6B331D",
"W  c #74341C",
"Q  c #7B341B",
"!  c #4D2D22",
"~  c #452920",
"^  c #572E22",
"/  c #423023",
"(  c #443529",
")  c #4E3528",
"_  c #4D3628",
"`  c #5E3C26",
"'  c #563E2F",
"]  c #5D3A2A",
"[  c #583425",
"{  c #513E32",
"}  c #653523",
"|  c #6B3522",
" . c #623A24",
".. c #6C3A26",
"X. c #643C2A",
"o. c #6C3D2A",
"O. c #61362A",
"+. c #723723",
"@. c #7C3B23",
"#. c #773D29",
"$. c #743C23",
"%. c #683E30",
"&. c #554334",
"*. c #62422B",
"=. c #6C442C",
"-. c #6D4429",
";. c #7C4224",
":. c #74442B",
">. c #7D4A2C",
",. c #78442A",
"<. c #644332",
"1. c #6B4432",
"2. c #6A4C38",
"3. c #7A4531",
"4. c #754C33",
"5. c #7C4C31",
"6. c #764836",
"7. c #6B513E",
"8. c #7D5135",
"9. c #75513B",
"0. c #7C533C",
"q. c #745036",
"w. c #685243",
"e. c #7B5A44",
"r. c #785B49",
"t. c #755945",
"y. c #7B614B",
"u. c #746555",
"i. c #81230B",
"p. c #813516",
"a. c #86391A",
"s. c #8B3B1D",
"d. c #83361B",
"f. c #923918",
"g. c #853D24",
"h. c #99441D",
"j. c #B1521F",
"k. c #844225",
"l. c #854823",
"z. c #8D472C",
"x. c #844A2D",
"c. c #8A472A",
"v. c #994A29",
"b. c #934929",
"n. c #8C522F",
"m. c #9F512C",
"M. c #95512B",
"N. c #8B4C33",
"B. c #844E39",
"V. c #844C34",
"C. c #964D32",
"Z. c #835235",
"A. c #8B5335",
"S. c #8B553A",
"D. c #8B5B3B",
"F. c #84583B",
"G. c #945434",
"H. c #945A35",
"J. c #9B5A34",
"K. c #945C3B",
"L. c #9A5D3C",
"P. c #A34C28",
"I. c #A4582D",
"U. c #AC5226",
"Y. c #B05C2C",
"T. c #A45C39",
"R. c #A55A36",
"E. c #8E613F",
"W. c #94603D",
"Q. c #9D623E",
"!. c #A5643C",
"~. c #B56B37",
"^. c #855A44",
"/. c #8A5D42",
"(. c #995F45",
"). c #925D42",
"_. c #8C6146",
"`. c #8C644A",
"'. c #86624A",
"]. c #956343",
"[. c #9C6A46",
"{. c #94654A",
"}. c #92694C",
"|. c #9D6B4B",
" X c #9B6545",
".X c #9C704D",
"XX c #8A6A52",
"oX c #9A6D53",
"OX c #996E59",
"+X c #956E56",
"@X c #987152",
"#X c #9A765C",
"$X c #947255",
"%X c #A56541",
"&X c #A66B45",
"*X c #A6724D",
"=X c #AB734B",
"-X c #A47954",
";X c #A97957",
":X c #B77D53",
">X c #B47749",
",X c #997A63",
"<X c #A57D61",
"1X c #C27D4B",
"2X c #A78367",
"3X c #AC8D75",
"4X c #AD947F",
"5X c #B09074",
"6X c #B38866",
"7X c #C3895B",
"8X c #C89E7A",
/* pixels */
"& & ! Q +.U d ^ V 1 f F C C ] | x n T ;.k.W Q P ..G H G l s g 1 ",
"; 2 ^ | P L } :.=.:.A [ n Z | V V W Q P a.>.x.;.d.@.a.W G G j u ",
"& 7 Y U Y x 1.C.9.^.| ~ ; ; 6 , : i I B f.Z.H.>.g.;.g.g.Y H J a ",
"2 6 ^ 6.c.A.z.#.R S # + X . o X . > 0  .D.P.H.W.z.Q A g.k P g.U ",
"2 * L #.V.^.3./ 3 - .                 X 9.}.^.'.B.#.^ 1.O.] V j ",
"j ) B Q F.C.m 0 $                     o 0 <.|.[.~.=X|.`.N.o.W V ",
"! ) [ #.^.=.-         . 8 . .           . + t.8.K.].K./.B.o.A j ",
") %.=.=.r.- o     > w w *.}.D.e .           . 4 Z.R.Y.U.s.d.+.k ",
"^ X.+...n +     q : -.^.`.|.K.F.' 6           X 4 e.*Xl.n.e.S.Z.",
"L Z ..P ,       / :.J.]./.=XJ.T.&X;XoX5.o         w 0.8.H.A.Z./.",
"g j L +.o     . M %X[.=X|.*X:X2X7X:X1X7XOXr .     . *.:.;.f...R.",
"g A A |       o 0.[.+X{.-X$XE.}.;X<X;X;X3XXX{ 3     X ` $.#...k.",
"K x.l.v X     # ^.L.*X'.:X;X&X~.;X8X2X;X8X,X-X3        .;.X.c.Y ",
"V E E v X     ( e.9.$X2X5X6X2X2X2X,X;X#X$X-X-X7.4     . ] $.R -.",
"f U Y i .     e 3.3./.!.}.&X X2X-X`. X}.@X*X#XXXr       : W A A ",
"h B K 0 .     m 3.8.1.J.[._.Q.Q.!.[.y.K.].@X#X4Xu.$     . S D V ",
"i B c < .     M ,.0.0.D.J.A.H.C.K.K.e.n.G.&XoX2Xw.5       v v i ",
"s F V p o     w C.x.G.K.M.P.G.b.v.c.W.A.H.I.!.;X#X .      , f E ",
"f K K i :     8 x.A.S.A.G.G.G.A.Z.Z.H.n.K.G.L.(.{.*.      6 ] X.",
"c p.h.D N     . XX%X%XT.R.W.!.*XI.m.>X~.{.%XoXk.U.m .     { r.z.",
"b ..9.r.( X     { O.@.S.W.`.}.6X}.oX#XA./.,XOX0.0.-       ( u.7.",
"< A o.0.&.$     . R f.g.m.I.&X1X#XoX#Xk.k.{. XA.4.+       / r.w.",
"6 Z :.9.4.8 X     ] 5.s.v.A.C.A.G.G.|.&X XG.].4.: .     # } 3.g.",
"O B =.<.^.{ 3     o 1.K h.c.C.5.G.z.].=X).#.:.m o     3 # O.6.@.",
"1 I 4.[._.7./ +     @ A 4./.L.x.T.V.G.0.>.m # 4       4 m [ +.s.",
"* Z E 5.Z.0.1.- +     . + 4 w m ` Z m 4 9 X         m q o.A V k ",
"1  .R A.A.Z.V.k.- o         o - o o o ;         . B ; <.N.| s = ",
"& i b  .[ e.0.D ! . .                           e 4 B n ^ 0 , * ",
"y s R a.R !. XL P :.7                   . ! < m R P H l ^ R B i.",
"& 1 Z } D M b w v v ^ %.6 - . .     # - r 8 *.] K G A A L ..@.[ ",
"& u B P L Z J b n h ] ..R a.:.0.K b 7 f >.7.9.=.K z V A H W @.A ",
"O = f u w w v i j n K A L L C k.h.k.f.p.8.4.4.W Q C 6 w s d < a "
};
