/* XPM */
static char *result[] = {
/* columns rows colors chars-per-pixel */
"32 32 209 2 ",
"   c #010100",
".  c #0A0604",
"X  c #0D0906",
"o  c #130A06",
"O  c #1B0B06",
"+  c #140D09",
"@  c #1B120D",
"#  c #17110C",
"$  c #1F1611",
"%  c #2A0A07",
"&  c #340D07",
"*  c #380C07",
"=  c #22160E",
"-  c #2E130E",
";  c #34120A",
":  c #3D1A0E",
">  c #3C130C",
",  c #211710",
"<  c #2D1713",
"1  c #231A15",
"2  c #2C1C13",
"3  c #341C14",
"4  c #3C1C11",
"5  c #2D2219",
"6  c #3B2316",
"7  c #34251C",
"8  c #3D2519",
"9  c #37291E",
"0  c #480F05",
"q  c #42130B",
"w  c #45190E",
"e  c #4C160D",
"r  c #56170A",
"t  c #5C1209",
"y  c #531C0D",
"u  c #421711",
"i  c #441E11",
"p  c #4C1D14",
"a  c #5D1F12",
"s  c #64190B",
"d  c #711D0A",
"f  c #681F11",
"g  c #5F260F",
"h  c #422215",
"j  c #4D2416",
"k  c #48251A",
"l  c #442B1D",
"z  c #4D2D1C",
"x  c #572413",
"c  c #582917",
"v  c #552B1B",
"b  c #5B2C1B",
"n  c #5C2414",
"m  c #5B331E",
"M  c #56331E",
"N  c #65220E",
"B  c #69220F",
"V  c #78240F",
"C  c #6D2B15",
"Z  c #642B1A",
"A  c #6B2B18",
"S  c #642514",
"D  c #722615",
"F  c #792C16",
"G  c #742B16",
"H  c #66331C",
"J  c #6B331E",
"K  c #68381D",
"L  c #75351C",
"P  c #7B341C",
"I  c #412E21",
"U  c #4E2C23",
"Y  c #572E22",
"T  c #4E3528",
"R  c #4B3527",
"E  c #543323",
"W  c #5C3523",
"Q  c #58372C",
"!  c #553A29",
"~  c #5D3B2A",
"^  c #5C3826",
"/  c #533F31",
"(  c #642F23",
")  c #653423",
"_  c #6C3421",
"`  c #633A24",
"'  c #6C3A26",
"]  c #643C2A",
"[  c #6C3D2A",
"{  c #61362A",
"}  c #723723",
"|  c #743B23",
" . c #7C3B22",
".. c #773C28",
"X. c #683E30",
"o. c #5B402D",
"O. c #5D4030",
"+. c #65432E",
"@. c #6D442C",
"#. c #6D482D",
"$. c #7C4125",
"%. c #74442B",
"&. c #7D4A2C",
"*. c #7B442B",
"=. c #6B4432",
"-. c #654A35",
";. c #664D3C",
":. c #6A4935",
">. c #7A4532",
",. c #754B33",
"<. c #7B4C32",
"1. c #734D3A",
"2. c #7C4D3A",
"3. c #734534",
"4. c #6B513C",
"5. c #7D5135",
"6. c #75513B",
"7. c #7C543C",
"8. c #634F40",
"9. c #6A5041",
"0. c #7B5B44",
"q. c #785B49",
"w. c #755643",
"e. c #7B614B",
"r. c #746555",
"t. c #81230B",
"y. c #912F11",
"u. c #813516",
"i. c #83361B",
"p. c #86391A",
"a. c #8B3C1D",
"s. c #923918",
"d. c #803F29",
"f. c #853C23",
"g. c #9A441D",
"h. c #B1521F",
"j. c #834125",
"k. c #8D4425",
"l. c #854823",
"z. c #8C4925",
"x. c #83432C",
"c. c #8D472C",
"v. c #844A2D",
"b. c #8C4B2C",
"n. c #944A2A",
"m. c #8C522F",
"M. c #965127",
"N. c #9F512C",
"B. c #98562C",
"V. c #844E39",
"C. c #854C34",
"Z. c #914D33",
"A. c #9A4D30",
"S. c #835235",
"D. c #8B5335",
"F. c #82543A",
"G. c #8B553A",
"H. c #835A3D",
"J. c #8C5C3D",
"K. c #945434",
"L. c #945A35",
"P. c #9B5A34",
"I. c #955C3B",
"U. c #A34C28",
"Y. c #A04C23",
"T. c #A4582D",
"R. c #B05C2C",
"E. c #A85A37",
"W. c #A45D37",
"Q. c #8E613F",
"!. c #94603D",
"~. c #9C623E",
"^. c #A6653B",
"/. c #B56B37",
"(. c #855B45",
"). c #8A5D43",
"_. c #925D42",
"`. c #876043",
"'. c #8C6146",
"]. c #85624B",
"[. c #8C644A",
"{. c #8E694E",
"}. c #9C6A46",
"|. c #94654A",
" X c #92694B",
".X c #9A6546",
"XX c #9C704D",
"oX c #866854",
"OX c #8B6A53",
"+X c #986D54",
"@X c #8F7057",
"#X c #87715C",
"$X c #987458",
"%X c #A56541",
"&X c #AA6B48",
"*X c #A76F44",
"=X c #A6724D",
"-X c #AC744C",
";X c #B47547",
":X c #A47B5B",
">X c #A97755",
",X c #B97E53",
"<X c #937964",
"1X c #BF825D",
"2X c #BA8357",
"3X c #A78367",
"4X c #B38866",
"5X c #A98E78",
"6X c #B09074",
/* pixels */
"% % Y P _ D t U n > y N v c ~ _ f U D  .j.L P A ' B V C s r q > ",
"- < Y _ A Z ) %.@.%.b ^ b Y ..A Z i.i.A a.&.v.$.i. .p.L f f p q ",
"% 4 F D F a 3.K.6.|.x.] Z )  .G L s.i.Z s.S.L.&.f.x.a. .D D S e ",
"< 3 Y 3.c.D.c.d.n.T.C.F.( Z } w.z.k.v.x.J.U.L.!.c.P b f.a A f.D ",
"< & Z ..C.(.C.2.<.,.^ R 7 7 9 7 8 6 7 I ! ].(.`.V...E =.{ Q n p ",
"p T x P H.n.J.*.! < o . o . X + X X X @ O :.>X}./.-X}.[.Z.' L n ",
"U R W [ (.F.>.3 . X                         ;.~.I..XD.).V.@.b p ",
"T X.@.#.].V.y ; X                           5 *X^.E.R.R.a.i.L a ",
"Y { } ' ..V.[.$       + # .       .         . q.4X+X=Xl.m.0.G.S.",
"Z v _ J P C.3 7   3 z 2 8 -XP.^.&X>X6..       [.3X|.[.5.K.D.S.).",
"i p Z } p.D.=X~ z = +.-XXX=X,X3X2X7.= 5     + .X^.P.'.&.$.s.} W.",
"u b b _ P <. XJ.`.}.+X X>X@XQ.0.o.o.o.    7 $ $X}.'.!.#.| | ' x.",
"C v.l.&.D.n.[.S.(.I.=X].,X:X5.z 9 $     5 8.4..XXX~.1X^.l.] k.F ",
"x J J J %.v.S.e.0.6.$X3X6X:X5 7 $     # ;.! :X:X:X;.,.%.=.| H @.",
"y D G P ,.z.z.7.>.*.).^. X#..         $ # 7.@X4X3X+.=.Z ` P b b ",
"i x C ` *.m.J.S.>.V.=.P.}.7.              7 q.5X6XoX,.-.H c m x ",
"w x g L v.&.G.G.*.6.6.J.P.= +               2 oX<Xq.1.+.m j h w ",
"r N n F c.=X-XL.A.v.K.I.M.U.m h               ! @X!.K.#.H x y J ",
"y C C L z.%X>X XD.D.G.D.K.K.K.D.C.F.L.3 .       )..XZ.+.m =.Q ] ",
"a u.g.M.T.^.&X&X$X%X%XE.E..X%X>XT.N.;XB.,       N.D.K.&.2.oXq.b.",
"j ' 1.q.#XOX#XOXoX]  .G.!.[. X>X X+X$X&.X       1.<.;.=.q.;.r.;.",
": b [ 7.e.+X#X[.F.x F L z.B.~.;XOX(.w.h -     . J.Z.q.6.(.-.q.9.",
"3 v %.6.`.[.{._.2 + # : : h h 6 6 6 1 l     + @ c.(.[.w.1.} >.f.",
"O x @.-.(.q.[.I.2         . + X X . #       #.= z.6.[.9.=.] 3. .",
"> f ,.}.'.{.{.~ Y                       . #.l F.Q I.).@.~ E } a.",
"; v H <.S.7.7.M $                     @ z 7 6.7.T #.#.~ [ b n a ",
"> ` H D.D.S.C.N.<.H z M z o .   .   2 : K 1X=XF.E L k.1.Z._ r * ",
"% w j ` E 0.7.m ] Y Y %.| ` +.:.4...%.#.5.7.'.+.o.W Z k U 8 ; * ",
"0 r H p.H ^..XZ A %.A V.F &.%.K.<.L n.>.&.S.j.v.U.P V s m H x V ",
"% > v ) m z j 6 h h ! X.) | [ :.) | ' f.6.;.1.~ A f b b Z '  .W ",
"% q x A Z v S j j h ~ ' H p.%.6.P k.d.y.&.4.1.#.A d n b V L  .b ",
"O & p q 6 6 h w p j A b Z Z b f.g.j.g.u.5.,.,.L P b 3 6 r t : e "
};
