/* XPM */
static char *result[] = {
/* columns rows colors chars-per-pixel */
"32 32 214 2 ",
"   c #010000",
".  c #0A0604",
"X  c #0D0905",
"o  c #130B06",
"O  c #1C0906",
"+  c #130D09",
"@  c #1C120C",
"#  c #1E1711",
"$  c #2A0A07",
"%  c #200F08",
"&  c #360C07",
"*  c #2E140E",
"=  c #2A190F",
"-  c #3D190F",
";  c #39130C",
":  c #2E1A11",
">  c #2B1813",
",  c #361B14",
"<  c #3C1C11",
"1  c #2B2019",
"2  c #3B2519",
"3  c #3F2B1C",
"4  c #3A2215",
"5  c #3F2B20",
"6  c #480F05",
"7  c #45190E",
"8  c #48150C",
"9  c #56170A",
"0  c #5C1209",
"q  c #531B0D",
"w  c #421711",
"e  c #4C1D14",
"r  c #441D12",
"t  c #5D1F12",
"y  c #64190B",
"u  c #711D0A",
"i  c #681F11",
"p  c #5F260F",
"a  c #422115",
"s  c #4C2415",
"d  c #442719",
"f  c #49261A",
"g  c #492A1C",
"h  c #562413",
"j  c #5A2916",
"k  c #552B1B",
"l  c #5B2C1B",
"z  c #5C2414",
"x  c #5B331E",
"c  c #57311E",
"v  c #65220E",
"b  c #69220F",
"n  c #78240F",
"m  c #6D2B15",
"M  c #642B1A",
"N  c #6B2B18",
"B  c #642514",
"V  c #722615",
"C  c #792B16",
"Z  c #742B16",
"A  c #67341C",
"S  c #6B331E",
"D  c #69381D",
"F  c #75351C",
"G  c #7B341C",
"H  c #4E2C23",
"J  c #422C23",
"K  c #572E22",
"L  c #473224",
"P  c #4C3324",
"I  c #4D3628",
"U  c #4D3A2B",
"Y  c #47392E",
"T  c #543423",
"R  c #563926",
"E  c #5B3925",
"W  c #58372C",
"Q  c #5C3B2A",
"!  c #5C3423",
"~  c #642F23",
"^  c #653424",
"/  c #6C3421",
"(  c #633A24",
")  c #6C3A26",
"_  c #643C2A",
"`  c #6C3D2A",
"'  c #61362A",
"]  c #723723",
"[  c #7C3B22",
"{  c #773C28",
"}  c #743C23",
"|  c #683E30",
" . c #5F402D",
".. c #5D4030",
"X. c #65432E",
"o. c #6D442C",
"O. c #6D482D",
"+. c #7C4125",
"@. c #74442B",
"#. c #7D4A2C",
"$. c #78452F",
"%. c #6C4432",
"&. c #654A35",
"*. c #6B4B35",
"=. c #654C3C",
"-. c #694A37",
";. c #734532",
":. c #754B33",
">. c #7C4C32",
",. c #734C39",
"<. c #7A4A38",
"1. c #69513F",
"2. c #7C5134",
"3. c #75513B",
"4. c #7C533C",
"5. c #6A5041",
"6. c #785B49",
"7. c #795843",
"8. c #7B614B",
"9. c #746555",
"0. c #81230B",
"q. c #912F11",
"w. c #83361B",
"e. c #86391A",
"r. c #8B3B1D",
"t. c #813516",
"y. c #923918",
"u. c #803F29",
"i. c #853C23",
"p. c #9C461D",
"a. c #95411C",
"s. c #B1521F",
"d. c #8D4224",
"f. c #854823",
"g. c #8C4925",
"h. c #84432A",
"j. c #8D472C",
"k. c #844A2D",
"l. c #89482A",
"z. c #994A29",
"x. c #944828",
"c. c #8C522F",
"v. c #9F512C",
"b. c #965128",
"n. c #844E39",
"m. c #854C34",
"M. c #914D33",
"N. c #835235",
"B. c #8B5335",
"V. c #835439",
"C. c #8B553A",
"Z. c #845C3E",
"A. c #8C5C3C",
"S. c #945434",
"D. c #945A35",
"F. c #945C3B",
"G. c #9B5B36",
"H. c #A95428",
"J. c #B05C2C",
"K. c #A45C39",
"L. c #A55D36",
"P. c #A34C28",
"I. c #8E613F",
"U. c #94603D",
"Y. c #9D623E",
"T. c #A5643B",
"R. c #B56B37",
"E. c #865A45",
"W. c #8A5D43",
"Q. c #925D42",
"!. c #995F45",
"~. c #866144",
"^. c #8C6146",
"/. c #84634C",
"(. c #8C644A",
"). c #8E694E",
"_. c #956343",
"`. c #9C6443",
"'. c #94654A",
"]. c #99664B",
"[. c #9D6B4B",
"{. c #976A49",
"}. c #9C704D",
"|. c #866854",
" X c #8B6B54",
".X c #956B52",
"XX c #9A6D53",
"oX c #996E59",
"OX c #946F59",
"+X c #87715C",
"@X c #8F7058",
"#X c #99765C",
"$X c #957254",
"%X c #A56541",
"&X c #A36B45",
"*X c #AA6B48",
"=X c #A46D4B",
"-X c #A6724D",
";X c #AC744C",
":X c #B47749",
">X c #AD7553",
",X c #A57954",
"<X c #A67A58",
"1X c #B37D53",
"2X c #9A7D65",
"3X c #937964",
"4X c #BF825D",
"5X c #A78367",
"6X c #A2856E",
"7X c #B38866",
"8X c #B48F6E",
"9X c #AC8D75",
"0X c #AD947F",
"qX c #CD9A6C",
/* pixels */
"$ $ K G / V 0 H z ; q v k j W / i g Z [ f.F [ m ) i n m y 9 w ; ",
"* > K / N M ^ $.o.@.l ^ l K { N M w.w.N r.#.k.{ w.[ e.F i i e 8 ",
"$ - C V C t ;.S.*.E.h._ M ~ [ G { y.w.M y.N.D.#.i.u.r.[ V n B 8 ",
"> , K ;.j.B.j./ x D $.W.] / { E.z.p.S.M.U.P.D.I.l.G l i.t N i.V ",
"* & M { m.E.m.2 @ @ @ 7.<.3.E.6.C.B./.~.E..XE.I.n.{ T %.' W h e ",
"e I h G Z.b.W.f       / j.j.]._.].x.F._.f.'.4X[.R.;X[.^.M.) F z ",
"H I ! ` E.V.n.d        .(.(..X(.F.'.'.).$X+X7X`.F._.F.W.n.o.l e ",
"I | o.o./.m.V e       Q &X,X:X[.H.>X;X$X,X#X;X:XT.L.J.H.r.w.F t ",
"K _ ] ) { V.(.L +     L (.[.F.`.XX;X.XT.^.*X;X/.7XXX-Xf.c.7.C.N.",
"M k / / G m.Q.I +     I Q.;XG.L.*X>X).&XoX=X&X).5X'.(.2.S.B.N.W.",
"w e M ] e.B.-XQ X     R }.-X1X5X1XZ.B.4XoX].B.`.T.G.W.#.+.y.] L.",
"w l l / G #.{.R @     5 ,X$X^.{.U 1 *.-.6X|..X$X=XW.U.O.{ { ) h.",
"m k.f.#.B.z.(.g J     1 ;X<X&XR.# .     8X6XqX{.}.Y.4XT.f._ d.C ",
"h S S S @.k.V.U I     . 2X7X5X5XX       /.,X#X,X<X=.:.@.%.} A o.",
"q V Z F :.g.g.4.>       -.&X`.@X        ~.-X#X7X5XX.%.M ( F l l ",
"r h m ( @.c.A.V.d .     L ^.Y.o.        T $X#X0X9X|.,.&.A j x h ",
"7 h p F k.#.C.C.c @     + $.S.(         f &XXX5X3X6.3.X.x s a 7 ",
"9 v h C j.-X;XF.h.,       F c.s +       + b.T.>X#XU.S.O.A h q S ",
"q m m F g.&X>X(.B.E o     % ( X           k.Q.`.'._.M.X.x X.Q _ ",
"p t.p.b.H.T.*X*X#XT E X     .             T XXd.H.C.S.#.<. X6.j.",
"s ) ,.6.+X X+X X|.o., +                   Y .X<.4.<.=.%.6.=.9.1.",
"- l ` 4.8.XX+X(.`.G y.- o       . @ +     + V.B.A.M.6.4.E.&.6.5.",
", j $.3.~.(.).Q.F.`.D.B % .     ! @ 3       2.Z.j.E.(.7.,.] $.i.",
"O h o.&.E.6.(.F._.;X_.r.a.4 * @ = ) Q       2 N.g.3.^.5.%._ ,.[ ",
"; v :.{.^.).).2.B.N.z.z.W.].%XM.K.m.( +     > :.W F.Z.o.Q T ] r.",
"* k A >.N.4.4.#.:.;.m.h.;.;.V.:.>.@.f 4       L P O.O...` l z t ",
"; ( A B.B.V.m.P.>.S _ F.K.k.B.2.C.F.`.s X     . P F d.,.M./ 9 & ",
"$ 7 s ( T 6.4.x _ K K @.} ( X.*.,.{ @.3 o     2 Q ! M f H 2 ; & ",
"6 9 A w.A T.`.M N @.N N.Z #.@.S.>.F z.Q =   . 4 v.G n y x A h n ",
"$ ; j ( x g s 2 a a T | ^ } ` &.^ } ) i.3.=.Q 2 m i l l M ) [ ! ",
"$ w h m M k B s f a Q ) A r.@.4.G x.{ q.#.1.,.o.m u z l n F [ l ",
"O & q 8 2 2 a 7 e f m l M M j e.p.h.a.t.2.:.:.F G j , 2 9 0 - 8 "
};
