/* XPM */
static char *result[] = {
/* columns rows colors chars-per-pixel */
"32 32 208 2 ",
"   c #010000",
".  c #090604",
"X  c #0E0906",
"o  c #0E0B08",
"O  c #130C07",
"+  c #1B0B06",
"@  c #130D09",
"#  c #180F0A",
"$  c #1C130C",
"%  c #1D1611",
"&  c #2A0A07",
"*  c #360C07",
"=  c #24140D",
"-  c #2D150E",
";  c #2C190E",
":  c #3D140C",
">  c #3E1A0F",
",  c #34140B",
"<  c #201A15",
"1  c #2C1C13",
"2  c #291712",
"3  c #341B13",
"4  c #3B1D14",
"5  c #2E231A",
"6  c #332115",
"7  c #33231A",
"8  c #3C2619",
"9  c #3B291D",
"0  c #3A2214",
"q  c #3C2C22",
"w  c #45190E",
"e  c #47140C",
"r  c #56170A",
"t  c #56180C",
"y  c #421711",
"u  c #4A1D14",
"i  c #5D1F12",
"p  c #480F05",
"a  c #64190B",
"s  c #711D0A",
"d  c #681F11",
"f  c #5F260F",
"g  c #422115",
"h  c #4B2415",
"j  c #48251A",
"k  c #4A2B1B",
"l  c #572413",
"z  c #582917",
"x  c #552B1B",
"c  c #5B2C1B",
"v  c #5C2414",
"b  c #49301E",
"n  c #5C331E",
"m  c #50311F",
"M  c #65220E",
"N  c #69220F",
"B  c #78240F",
"V  c #6D2B15",
"C  c #642B1A",
"Z  c #6B2B18",
"A  c #652714",
"S  c #722615",
"D  c #732B14",
"F  c #792B16",
"G  c #752F1C",
"H  c #66331C",
"J  c #6B331E",
"K  c #663117",
"L  c #75351C",
"P  c #7A351C",
"I  c #4E2C23",
"U  c #572E22",
"Y  c #473124",
"T  c #4D3324",
"R  c #4D3528",
"E  c #543323",
"W  c #5B3524",
"Q  c #543A26",
"!  c #5A3925",
"~  c #58372C",
"^  c #52392A",
"/  c #5C3A2A",
"(  c #503E31",
")  c #642F23",
"_  c #643423",
"`  c #6C3421",
"'  c #6C3A26",
"]  c #653D2A",
"[  c #6C3D2A",
"{  c #633925",
"}  c #723723",
"|  c #7C3B22",
" . c #773C28",
".. c #743C23",
"X. c #683E30",
"o. c #5E402C",
"O. c #5B4433",
"+. c #594535",
"@. c #65432D",
"#. c #6D442D",
"$. c #6D482D",
"%. c #7C4224",
"&. c #75442B",
"*. c #7D4A2C",
"=. c #754629",
"-. c #6B4433",
";. c #644A35",
":. c #664D3D",
">. c #694B35",
",. c #724432",
"<. c #754B33",
"1. c #7B4C32",
"2. c #724638",
"3. c #734C39",
"4. c #7C4B38",
"5. c #69513F",
"6. c #7B5135",
"7. c #75513B",
"8. c #7C533C",
"9. c #6A5041",
"0. c #785B49",
"q. c #775944",
"w. c #7B614B",
"e. c #7A6554",
"r. c #81230B",
"t. c #912F11",
"y. c #83361B",
"u. c #86391A",
"i. c #8B3B1D",
"p. c #813516",
"a. c #923918",
"s. c #843D23",
"d. c #803F29",
"f. c #8A3D23",
"g. c #9A441D",
"h. c #B1521F",
"j. c #834125",
"k. c #854823",
"l. c #8C4925",
"z. c #85442A",
"x. c #844A2D",
"c. c #8C482A",
"v. c #944A2A",
"b. c #89512F",
"n. c #9F512C",
"m. c #95512B",
"M. c #844C34",
"N. c #844E39",
"B. c #8B4F35",
"V. c #914D33",
"C. c #835235",
"Z. c #8B5335",
"A. c #825339",
"S. c #8B553A",
"D. c #8B5B3C",
"F. c #845B3E",
"G. c #945534",
"H. c #965C39",
"J. c #A4582D",
"K. c #AC5226",
"L. c #B05C2C",
"P. c #A85A37",
"I. c #A45D37",
"U. c #8E613F",
"Y. c #94603D",
"T. c #9D623E",
"R. c #A5643C",
"E. c #AC6634",
"W. c #855A45",
"Q. c #8A5D42",
"!. c #915B42",
"~. c #876043",
"^. c #8C6146",
"/. c #84634C",
"(. c #8C644A",
"). c #8E694E",
"_. c #956342",
"`. c #94654A",
"'. c #926A4C",
"]. c #9C6747",
"[. c #9C704D",
"{. c #866854",
"}. c #9A6D53",
"|. c #946F59",
" X c #996E59",
".X c #976C52",
"XX c #87715C",
"oX c #9B7454",
"OX c #9A765C",
"+X c #947255",
"@X c #AA6B48",
"#X c #A66944",
"$X c #A5724D",
"%X c #AC744C",
"&X c #A87758",
"*X c #A97956",
"=X c #B47D53",
"-X c #967A64",
";X c #A57D61",
":X c #C27D4B",
">X c #BF825D",
",X c #A78367",
"<X c #B38866",
"1X c #AC8D75",
"2X c #AD947F",
"3X c #C3895B",
"4X c #CD9A6C",
"5X c #C89E7A",
/* pixels */
"& & U G } S r U v : t M x z ~ ` N k S %.j.L P Z [ M B V a r y : ",
"- 2 U ` Z C _ &.-.&.c W c U  .Z C y.y.Z i.*.x.%.y.| u.L d d u e ",
"& 4 F S F i ,.G.7.`.z.X.C ) | G n D Z z D <.x.*.s.d.i.| S B v e ",
"- 4 U ,.c.B.c.d.v.J.M.Q.} ` ` -.- + 2 = O h 0 6.z.P c f.i V s.S ",
"- * C  .N.W.M.4.6.H.S.W.4.^ 7 q O           . 5 ,. .E -.{ ~ v u ",
"u R l P W.v.D.V.Q.Z.K. .` = R                 . &.%X#X(.V.[ } v ",
"U R W [ W.C.N.N.2.S.A.@.< R               .   $.H._.D.Q.N.#.c u ",
"R X.#.$./.N.F F _ f./ 1 !     X K T Q O.>.+.T 6 M.P.L.h.i.y.} a ",
"U ] ` '  .N.(.~./.=.; R     $ #.q _.}.R.^.#X%X/.<X}.$Xk.b.q.S.Z.",
"C x ` ` P M.!.^.(.; 3     5 =.n @X%X}.@X X$X#X).,X`.(.6.G.Z.C.Q.",
"y u C } u.Z.$X].#.9     $ 6.Q ,X3X=X:X3X X`.Z.].R.H.Y.*.%.a.} I.",
"y c c ` P 1.`.C.$ .     >.+.U.).*X;X*X&X1X{..X|.[.Q.U.$... .' z.",
"S x.k.*.Z.m.(.! O     o Y (.Y.E.oX5X,X*X5X-X4X`.[.T.3XR.k.] l.F ",
"l ` J J =.x.C.% .     o % 5 +.+.0.e.$X X+X*X*X&X&X:.,.&.-...K #.",
"t S D L <.l.P .               o 9 Y <.W.oX$XOX<X,X@.-.C { P c c ",
"y z V { =.b.9 .                     @ b 7.'.OX2X1X{.3.;.H z n l ",
"w l f L x.=.<               .         X 3 S.'.,X-X0.7.;.n h g w ",
"r M v F c.<..     O = 3 k C n =         . ; Z.%XOXY.G.$.H l t ` ",
"t V D L l.T       . ! Z.G.G.G.Z.[ o X       E D.'._.V.@.W X./ ] ",
"f P g.m.J.0     . b #XI.P.Y.R.%XJ.n.b .     . s.K.S.G.*.4.{.0.c.",
"h ' 7.0.XX%       E | S.H.(.'.,X'.}./.$     . -.8.1.:.-.0.:.e.:.",
": c [ 8.w.^       C a.f.J.J.#X:XOX}.OX#     . 1.D.V.q.8.W.;.0.9.",
"3 x =.7.~.^ .     ! *.i.v.G.m.Z.G.G.7.=       F.c.W.(.q.3.} ,.s.",
"+ l $.;.W.( $     O 1 C L z.z.] %.n $ .     $ C.l.7.(.9.-.] 2.| ",
": d <.].^.;.q o       + 9 ^ ! j ; = 6     1 5 _.~ H.F.#./ E } i.",
"* x H 1.C.8.>.= #         . . X         2 Q >.8.R $.<./ [ z v i ",
": { J Z.Z.C.M.P $ .                   , %.Y $XA.E } l.3.B.` r * ",
"& > h { E 0.8.n ] 4 X             . 2 b 0 8.^.@.o.W C j I g , * ",
"p r K y.H R.].C Z &.Z @.w $ . O 1 > H [ *.C.j.x.n.P B a W K z r.",
"& : x _ n b h 8 g g E X._ } [ ;._ ..' s.7.:.3./ Z N c c C ' | W ",
"& e l V C x M h j g / ' H i.&.8.P l.d.t.*.9.7.&.V s v c B G | x ",
"+ * u e 8 8 g w u j V z C C x i.g.d.g.p.6.<.<.G P z 3 g r r y e "
};
