/* XPM */
static char *result[] = {
/* columns rows colors chars-per-pixel */
"32 32 212 2 ",
"   c #010000",
".  c #090604",
"X  c #0D0806",
"o  c #0E0B09",
"O  c #130C07",
"+  c #1C0A06",
"@  c #130D09",
"#  c #1C0E09",
"$  c #16110C",
"%  c #1C120C",
"&  c #1E1611",
"*  c #2A0A07",
"=  c #250D07",
"-  c #340D07",
";  c #380C07",
":  c #21130C",
">  c #2F120E",
",  c #2B1A0F",
"<  c #33140C",
"1  c #3B130C",
"2  c #311A0D",
"3  c #3E190F",
"4  c #2D1713",
"5  c #251A12",
"6  c #2B1E15",
"7  c #201711",
"8  c #351B14",
"9  c #3D1D11",
"0  c #2D2219",
"q  c #352216",
"w  c #35241A",
"e  c #3C251A",
"r  c #3C2A1C",
"t  c #37251A",
"y  c #3B2E25",
"u  c #480F05",
"i  c #42130B",
"p  c #441B0E",
"a  c #4C160D",
"s  c #56170A",
"d  c #5C1209",
"f  c #531B0D",
"g  c #421711",
"h  c #4C1D14",
"j  c #441D12",
"k  c #5D1F12",
"l  c #64190B",
"z  c #711D0A",
"x  c #681F11",
"c  c #4F230F",
"v  c #5F260F",
"b  c #422215",
"n  c #4C2416",
"m  c #48251A",
"M  c #452A1D",
"N  c #4C2B1B",
"B  c #572413",
"V  c #582917",
"C  c #552B1B",
"Z  c #5B2C1B",
"A  c #5B2514",
"S  c #5B331E",
"D  c #65220E",
"F  c #69220F",
"G  c #78240F",
"H  c #6D2B15",
"J  c #642B1A",
"K  c #6B2B18",
"L  c #642514",
"P  c #722615",
"I  c #792B16",
"U  c #732A14",
"Y  c #67341C",
"T  c #6B331E",
"R  c #6A3014",
"E  c #75351C",
"W  c #7A351C",
"Q  c #452C22",
"!  c #4E2D23",
"~  c #572E22",
"^  c #4E3528",
"/  c #493528",
"(  c #543323",
")  c #5C3423",
"_  c #533925",
"`  c #58362B",
"'  c #5B3B2B",
"]  c #5F3B25",
"[  c #653423",
"{  c #6C3421",
"}  c #633A24",
"|  c #6C3A26",
" . c #643C2A",
".. c #6C3D2A",
"X. c #61362A",
"o. c #723723",
"O. c #753C24",
"+. c #7C3B22",
"@. c #773C28",
"#. c #683E30",
"$. c #5E402D",
"%. c #584335",
"&. c #64422D",
"*. c #6C442C",
"=. c #6D482D",
"-. c #7B4124",
";. c #74432B",
":. c #7D4A2C",
">. c #75462B",
",. c #624331",
"<. c #6C4432",
"1. c #654A35",
"2. c #654D3C",
"3. c #6C4D39",
"4. c #7A4531",
"5. c #754B33",
"6. c #734C39",
"7. c #794A35",
"8. c #69513F",
"9. c #7B5135",
"0. c #74513B",
"q. c #7C533C",
"w. c #6A5041",
"e. c #6E5947",
"r. c #795B49",
"t. c #795843",
"y. c #77614D",
"u. c #746555",
"i. c #81230B",
"p. c #912F11",
"a. c #813516",
"s. c #83361B",
"d. c #86391A",
"f. c #8B3B1D",
"g. c #893617",
"h. c #923918",
"j. c #803F29",
"k. c #863C23",
"l. c #9A441D",
"z. c #B1521F",
"x. c #834125",
"c. c #854824",
"v. c #8C4925",
"b. c #84442B",
"n. c #8D472C",
"m. c #844A2D",
"M. c #8B4B2C",
"N. c #8D4224",
"B. c #994A29",
"V. c #934A2A",
"C. c #8C522F",
"Z. c #9F512C",
"A. c #965127",
"S. c #844E39",
"D. c #854D34",
"F. c #914D33",
"G. c #9A4D30",
"H. c #835235",
"J. c #8B5335",
"K. c #82543A",
"L. c #8B553A",
"P. c #855A3C",
"I. c #8C5C3D",
"U. c #945434",
"Y. c #945A35",
"T. c #945C3B",
"R. c #9B5A34",
"E. c #A54E27",
"W. c #B05C2C",
"Q. c #A45C37",
"!. c #A4582D",
"~. c #8E613F",
"^. c #94603D",
"/. c #9D623E",
"(. c #A6653B",
"). c #B56B37",
"_. c #855B44",
"`. c #8A5D42",
"'. c #945E43",
"]. c #876043",
"[. c #8C6146",
"{. c #84624B",
"}. c #8C654A",
"|. c #8E694E",
" X c #9D6A46",
".X c #94654B",
"XX c #9D6B4B",
"oX c #9A6444",
"OX c #9C704D",
"+X c #866854",
"@X c #8C6B54",
"#X c #966C52",
"$X c #9A6D53",
"%X c #946F59",
"&X c #87715C",
"*X c #987152",
"=X c #9A765C",
"-X c #947255",
";X c #A56541",
":X c #AA6B48",
">X c #A36A45",
",X c #A6724D",
"<X c #AC744C",
"1X c #A77957",
"2X c #B47749",
"3X c #967A64",
"4X c #BF825D",
"5X c #A78367",
"6X c #B38866",
"7X c #AC8D75",
"8X c #AD947F",
"9X c #CD9A6C",
/* pixels */
"* * ! W o.P d ! A 1 f D C V ` { x N U +.x.E W K | F G H l s g 1 ",
"> 4 ~ { K J [ @.*.;.Z ) Z ~ @.K J s.s.K d.:.m.-.s.+.g.o.x F h i ",
"* 9 I P I x 5.U.0..Xb.` B ! K K T g.s.J h.H.Y.:.k.b.f.+.P G L a ",
"4 8 ~ 5.M.J.n.@.V.c.) t # # # y e H >.F.^.Z.Y.^.n.W V k.k K k.P ",
"> - J @.D._.D.7.' q @ X           : w 0.].#X].].S.@.( <.` ` A h ",
"h ^ B W _.V.I.X.5 m                   6 -..X4X X).<X>X}.F...E L ",
"! ^ ) .._.K. .# Q             o       X %.u.6XoXT.oXI.`.S.*.V h ",
"^ #.*.=.{.D.= 1     . _ t r >.&.p     % w 2. X2X(.Q.W.z.k.s.E k ",
"~ X.o.| @.S.7     % ;.6 3.XXT.oX.X_       X  X{.6X$X,Xc.C.t.L.H.",
"J C { { W ) O     : b .X[.<XR.C.' o       M >X|.3X.X[.9.U.J.H.`.",
"j h J o.d.( _     % 9.<XOX,X<X%.M 6     @ ' J.oX(.R.[.:.-.h.O.Q.",
"g Z Z { W Q $.    . / 0.}.-X_ t 6     0 e.y $X%X,X'.[.=.O.@.| b.",
"H m.c.:.J.V.t %     @ & 9.{.6 X   . %./ e.3X9X.XXXoX4X(.c. .N.I ",
"B T T T >.m.5.& $       o @ .     %.' y.-X1X1X1X1X2.5.;.<.O.Y *.",
"f P U E 5.v.v.&.# @               6 ] }.*X,X=X6X5X&.*.J } W Z Z ",
"j B H } >.C.I.H.4.! .             % 0 &.P.*X=X8X7X+X6.1.Y V S B ",
"p B v E m.m.L.L.>.q.0.r               O | P.$X5X3Xr.0.,.S n b p ",
"s D A I M.,X<XT.B.m.U.T.E .             @ 2 C.XX=X^.U.=.Y B f T ",
"f H H E v.;X1X}.L.J.L.J.]       X           5 K..XoXF.&.S #.'  .",
"k a.l.A.!.Q.:X:X=X;X;XQ.N       V -.% O       2 E.L.U.:.7.@Xr.M.",
"n | 0.r.&X@X&X@X+X| +.L.:       0.*X@Xq       . 6.7.2.#.r.2.u.2.",
"3 Z ..q.y.$X&X}.oXk.h.k.2       @X$X=XO.:       K.F.r.q._.1.r.w.",
"8 C ;.0._.}.}.'.T.>XT.f.%       >.U.XX>XO       M._.}.t.6.o.4.k.",
"+ B *.1._.r.}.T.oX<X'.f.c       C :.K.*.%     X v.0.}.w.<. .6.+.",
"1 F 5. X`.@X|.9.J.H.B.B.Q o     : b N 6       $ ` T._.*.' ( o.f.",
"< C Y 9.H.q.q.m.5.5.D.b.~ q           %     $ t ^ =.=.$...V A A ",
"1 } Y J.J.H.D.Z.7.T  .Y.Q.8 $             w _ &.( E N.6.D.{ s u ",
"* i n } ( t.q.S  .~ ~ ;.O.M %           5 ' 8 &.$.) J m ~ t - - ",
"u s Y d.T (.oXJ K ;.K H.I :.;.;.M # . : , ( x.m.B.W G l ) Y B G ",
"* 1 C [ S N n t j b ( #.[ O...1.[ O.| k.0.2.6.' K F Z Z J | +.) ",
"* i B K J C L n m b ' | Y f.;.q.W N.+.p.:.8.0.*.K z L Z z E +.V ",
"+ - f i e e b p h m H Z J J C k.l.x.l.s.9.5.7.W W Z 8 e s d 3 a "
};
