/* XPM */
static char *result[] = {
/* columns rows colors chars-per-pixel */
"64 64 159 2 ",
"   c black",
".  c #030202",
"X  c #050201",
"o  c #040303",
"O  c #060302",
"+  c #090403",
"@  c #080503",
"#  c #080504",
"$  c #080707",
"%  c #0C0806",
"&  c #090909",
"*  c #0E0B09",
"=  c #0F0C0A",
"-  c #0F0D0B",
";  c #100D0C",
":  c #100E0C",
">  c #110E0C",
",  c #110F0D",
"<  c #12100E",
"1  c #19120E",
"2  c #18120F",
"3  c #191514",
"4  c #191614",
"5  c #1E1915",
"6  c #30110A",
"7  c #34140D",
"8  c #38170E",
"9  c #38180F",
"0  c #231C1C",
"q  c #261E1E",
"w  c #3B1A11",
"e  c #3B1B11",
"r  c #3D1910",
"t  c #3E1A11",
"y  c #302625",
"u  c #302726",
"i  c #332928",
"p  c #342A29",
"a  c #421B11",
"s  c #431C12",
"d  c #472218",
"f  c #47241A",
"g  c #482319",
"h  c #48251B",
"j  c #4B261A",
"k  c #4B261B",
"l  c #4C271C",
"z  c #4C271D",
"x  c #4D281D",
"c  c #502B1F",
"v  c #512B1F",
"b  c #542E21",
"n  c #5B372A",
"m  c #5E372B",
"M  c #613A2D",
"N  c #623B2D",
"B  c #613A2E",
"V  c #633C2F",
"C  c #643C2F",
"Z  c #643E2F",
"A  c #694030",
"S  c #6B4332",
"D  c #6C483D",
"F  c #6E493D",
"G  c #6F4A3D",
"H  c #774B31",
"J  c #734836",
"K  c #7A4E32",
"L  c #7B4F33",
"P  c #7A4F35",
"I  c #724A39",
"U  c #7A4F3C",
"Y  c #7D5034",
"T  c #7D5134",
"R  c #7E5135",
"E  c #7E5237",
"W  c #7E5337",
"Q  c #7F5337",
"!  c #805438",
"~  c #815539",
"^  c #825639",
"/  c #83573B",
"(  c #84573A",
")  c #875839",
"_  c #84583B",
"`  c #88593A",
"'  c #89593B",
"]  c #895A3B",
"[  c #8A5A3A",
"{  c #8B5B3B",
"}  c #8C5C3C",
"|  c #956443",
" . c #966544",
".. c #9B6946",
"X. c #9D6A47",
"o. c #976A4B",
"O. c #986A4B",
"+. c #9A6A4B",
"@. c #9E6B48",
"#. c #9E6C49",
"$. c #986B4C",
"%. c #9B6B4C",
"&. c #A06E4C",
"*. c #A16E4C",
"=. c #A06F4F",
"-. c #A1704F",
";. c #A37250",
":. c #A37251",
">. c #A37453",
",. c #A47454",
"<. c #A57554",
"1. c #A57655",
"2. c #A7795B",
"3. c #AA7C5D",
"4. c #AA856C",
"5. c #B48D71",
"6. c #B58D72",
"7. c #B68F74",
"8. c #B79075",
"9. c #B89176",
"0. c #B5937B",
"q. c #C19779",
"w. c #C2977A",
"e. c #C49A7D",
"r. c #C59B7E",
"t. c #C69C7F",
"y. c #C19C83",
"u. c #C29D84",
"i. c #C4A48F",
"p. c #C4A58F",
"a. c #CAA288",
"s. c #CBA389",
"d. c #D0A88D",
"f. c #D1A98E",
"g. c #D1AA8F",
"h. c #D2AA90",
"j. c #D3AC91",
"k. c #D0AE96",
"l. c #D0AF97",
"z. c #D1AF98",
"x. c #D1B098",
"c. c #D3B19A",
"v. c #CDB2A0",
"b. c #CEB3A0",
"n. c #DFBBA2",
"m. c #DABCA8",
"M. c #DABDAA",
"N. c #DBBEAB",
"B. c #E0BCA3",
"V. c #DDC0AC",
"C. c #E9CAB4",
"Z. c #EBCCB7",
"A. c #EEE7E4",
"S. c #EEE8E5",
"D. c #F4F1F0",
"F. c #F8F4F2",
"G. c #F8F5F3",
"H. c white",
"J. c None",
/* pixels */
"J.J.J.J.J.J.J.J.J.J.J.J.J.J.J.J.                                                                J.J.J.J.J.J.J.J.J.J.J.J.J.J.J.J.",
"J.J.J.J.J.J.J.J.J.J.J.J.J.J.J.J.                                                                J.J.J.J.J.J.J.J.J.J.J.J.J.J.J.J.",
"J.J.J.J.J.J.J.J.J.J.J.J.J.J.J.J.                                                                J.J.J.J.J.J.J.J.J.J.J.J.J.J.J.J.",
"J.J.J.J.J.J.J.J.J.J.J.J.J.J.J.J.O O O O O O O O O O O O O O O O O O O O O O O O O O O O X X X X J.J.J.J.J.J.J.J.J.J.J.J.J.J.J.J.",
"J.J.J.J.J.J.J.J.J.J.J.J.        h h h h h h h h h h h h h h h h h h h h h h h h h h h f t r r r         J.J.J.J.J.J.J.J.J.J.J.J.",
"J.J.J.J.J.J.J.J.J.J.J.J.        x x x x x x x x x x x x x x x x x x x x x x x x x x x l s a a a         J.J.J.J.J.J.J.J.J.J.J.J.",
"J.J.J.J.J.J.J.J.J.J.J.J.        x x x x x x x x x x x x x x x x x x x x x x x x x x x l s a a a         J.J.J.J.J.J.J.J.J.J.J.J.",
"J.J.J.J.J.J.J.J.J.J.J.J.        x x x x x x x x x x x x x x x x x x x x x x x x x x x l s a a a         J.J.J.J.J.J.J.J.J.J.J.J.",
"J.J.J.J.J.J.J.J.      O h x x x x x x x d d d d x x x x x x x x x x x x x x x x d d d d x x x x a a a r X       J.J.J.J.J.J.J.J.",
"J.J.J.J.J.J.J.J.      O h x x x x x x x d d d d x x x x x x x x x x x x x x x x d d d d x x x x a a a r X       J.J.J.J.J.J.J.J.",
"J.J.J.J.J.J.J.J.      O h x x x x x x x d d d d x x x x x x x x x x x x x x x x d d d d x x x x a a a r X       J.J.J.J.J.J.J.J.",
"J.J.J.J.J.J.J.J.      O h x x x x x x x d d d d x x x x x x x x x x x x x x x x d d d d x x x x a a a r X       J.J.J.J.J.J.J.J.",
"J.J.J.J.J.J.J.J.      O h x x x x x x x d d d d x x x x g d d d x x x x x x x x d d d d x x x x a a a r X       J.J.J.J.J.J.J.J.",
"J.J.J.J.J.J.J.J.      O h x x x x x x x d d d d x x x x d d d d x x x x x x x x d d d d x x x x a a a r X       J.J.J.J.J.J.J.J.",
"J.J.J.J.J.J.J.J.      O h x x x x x x x d d d d x x x x d d d d x x x x x x x x d d d d x x x x a a a r X       J.J.J.J.J.J.J.J.",
"J.J.J.J.J.J.J.J.      O h x x x x x x x d d d d x x x x d d d d x x x x x x x x d d d d x x x x a a a r X       J.J.J.J.J.J.J.J.",
"J.J.J.J.        x x x x x x x x x x x v W ^ ^ ^ x x x v W ^ ^ ^ x x x v W ^ ^ ^ d d d d x x x x a a a r X       J.J.J.J.J.J.J.J.",
"J.J.J.J.        x x x x x x x x x x x v W ^ ^ ^ x x x v W ^ ^ ^ x x x v W ^ ^ ^ d d d d x x x x a a a r X       J.J.J.J.J.J.J.J.",
"J.J.J.J.        x x x x x x x x x x x v W ^ ^ ^ x x x v W ^ ^ ^ x x x v W ^ ^ ^ d d d d x x x x a a a r X       J.J.J.J.J.J.J.J.",
"J.J.J.J.        x x x x x x x x v v v b Q ^ ^ ^ v v v b Q ^ ^ ^ x x x v W ^ ^ ^ j j j k z x x x s s s t + X X X J.J.J.J.J.J.J.J.",
"J.J.J.J.        x x x x x x x x W W W Q ^ ^ ^ ^ W W W Q ^ ^ ^ ^ x x x v W ^ ^ ^ E E E P k d d d l l l k t r r r         J.J.J.J.",
"J.J.J.J.        x x x x x x x x ^ ^ ^ ^ ^ ^ ^ ^ ^ ^ ^ ^ ^ ^ ^ ^ x x x v W ^ ^ ^ ^ ^ ^ E j d d d x x x l s a a a         J.J.J.J.",
"J.J.J.J.        x x x x x x x x ^ ^ ^ ^ ^ ^ ^ ^ ^ ^ ^ ^ ^ ^ ^ ^ x x x v W ^ ^ ^ ^ ^ ^ E j d d d x x x l s a a a         J.J.J.J.",
"J.J.J.J.        x x x x x x x x ^ ^ ^ ^ ^ ^ ^ ^ ^ ^ ^ ^ ^ ^ ^ ^ x x x v W ^ ^ ^ ^ ^ ^ E j d d d x x x l s a a a         J.J.J.J.",
"J.J.J.J.J.J.J.J.      X r a a a [ [ [ ) C B B B B B B V ! ^ ^ ^ [ [ [ ) C B B B B B B C ) [ [ [ x x x c H K K K         J.J.J.J.",
"J.J.J.J.J.J.J.J.      X r a a a [ [ [ ) C B B B B B B V ! ^ ^ ^ [ [ [ ) C B B B B B B C ) [ [ [ x x x c H K K K         J.J.J.J.",
"J.J.J.J.J.J.J.J.      X r a a a [ [ [ ) C B B B B B B V ! ^ ^ ^ [ [ [ ) C B B B B B B C ) [ [ [ x x x c H K K K         J.J.J.J.",
"J.J.J.J.J.J.J.J.      X r a a a } } } ' M m m m D D D F / _ _ _ { { { ` M m m m D D D G ] { { { x x x c H K K K         J.J.J.J.",
"J.J.J.J.J.J.J.J.      X r a a a -.-.-.+.e 7 7 7 D.D.D.S.2.-.-.-.X.X.X.| w 7 7 7 D.D.D.A.>.X.X.X.x x x c H K K K         J.J.J.J.",
"J.J.J.J.J.J.J.J.      X r a a a :.:.:.%.9 6 6 6 H.H.H.G.3.:.:.:.@.@.@. .8 6 6 6 H.H.H.F.1.@.@.@.x x x c H K K K         J.J.J.J.",
"J.J.J.J.J.J.J.J.      X r a a a :.:.:.%.9 6 6 6 H.H.H.G.3.:.:.:.@.@.@. .8 6 6 6 H.H.H.F.1.@.@.@.x x x c H K K K         J.J.J.J.",
"J.J.J.J.J.J.J.J.      X r a a a :.:.:.%.9 6 6 6 H.H.H.G.3.:.:.:.@.@.@. .8 6 6 6 H.H.H.F.1.@.@.@.x x x c H K K K         J.J.J.J.",
"J.J.J.J.J.J.J.J.      X r a a a :.:.:.:.:.:.:.:.:.:.:.:.:.:.:.:.@.@.@.@.@.@.@.@.@.@.@.#.;.:.:.:.                J.J.J.J.J.J.J.J.",
"J.J.J.J.J.J.J.J.      X r a a a :.:.:.:.:.:.:.:.:.:.:.:.:.:.:.:.@.@.@.@.@.@.@.@.@.@.@.#.;.:.:.:.                J.J.J.J.J.J.J.J.",
"J.J.J.J.J.J.J.J.      X r a a a :.:.:.:.:.:.:.:.:.:.:.:.:.:.:.:.@.@.@.@.@.@.@.@.@.@.@.#.;.:.:.:.                J.J.J.J.J.J.J.J.",
"J.J.J.J.J.J.J.J.      X r a a a o.o.o.$.,.<.<.<.-.-.-.-.=.=.=.=.................*.*.*.&.O.o.o.o.                J.J.J.J.J.J.J.J.",
"J.J.J.J.J.J.J.J.J.J.J.J.J.J.J.J.% % % 1 6.w.w.w._ _ _ ( R T T T Y Y Y Y Y Y Y Y q.q.q.5.1 % % % J.J.J.J.J.J.J.J.J.J.J.J.J.J.J.J.",
"J.J.J.J.J.J.J.J.J.J.J.J.J.J.J.J.      * 7.e.e.e.^ ^ ^ ~ L K K K K K K K K K K K e.e.e.7.*       J.J.J.J.J.J.J.J.J.J.J.J.J.J.J.J.",
"J.J.J.J.J.J.J.J.J.J.J.J.J.J.J.J.      * 7.e.e.e.^ ^ ^ ~ L K K K K K K K K K K K e.e.e.7.*       J.J.J.J.J.J.J.J.J.J.J.J.J.J.J.J.",
"J.J.J.J.J.J.J.J.J.J.J.J.J.J.J.J.      * 7.e.e.e.^ ^ ^ ~ L K K K K K K K K K K K e.e.e.7.*       J.J.J.J.J.J.J.J.J.J.J.J.J.J.J.J.",
"J.J.J.J.J.J.J.J.J.J.J.J.        e.e.e.r.d.f.f.f.      * 7.e.e.e.e.e.e.7.*       f.f.f.d.r.e.e.e.        J.J.J.J.J.J.J.J.J.J.J.J.",
"J.J.J.J.J.J.J.J.J.J.J.J.        e.e.e.r.d.f.f.f.      * 7.e.e.e.e.e.e.7.*       f.f.f.d.r.e.e.e.        J.J.J.J.J.J.J.J.J.J.J.J.",
"J.J.J.J.J.J.J.J.J.J.J.J.        e.e.e.r.d.f.f.f.      * 7.e.e.e.e.e.e.7.*       f.f.f.d.r.e.e.e.        J.J.J.J.J.J.J.J.J.J.J.J.",
"J.J.J.J.J.J.J.J.J.J.J.J.= = = = r.r.r.t.d.f.f.f.      * 7.e.e.e.r.r.r.8.*       f.f.f.d.t.r.r.r.* * * * J.J.J.J.J.J.J.J.J.J.J.J.",
"J.J.J.J.J.J.J.J.      = 0.u.u.u.d.d.d.d.f.f.f.f.      * 7.e.e.e.d.d.d.y.=       f.f.f.f.d.d.d.d.7.7.7.4.*       J.J.J.J.J.J.J.J.",
"J.J.J.J.J.J.J.J.      = u.f.f.f.f.f.f.f.f.f.f.f.      * 7.e.e.e.f.f.f.u.=       f.f.f.f.f.f.f.f.e.e.e.7.*       J.J.J.J.J.J.J.J.",
"J.J.J.J.J.J.J.J.      = u.f.f.f.f.f.f.f.f.f.f.f.      * 7.e.e.e.f.f.f.u.=       f.f.f.f.f.f.f.f.e.e.e.7.*       J.J.J.J.J.J.J.J.",
"J.J.J.J.J.J.J.J.      = u.f.f.f.f.f.f.f.f.f.f.f.      * 7.e.e.e.f.f.f.u.=       f.f.f.f.f.f.f.f.e.e.e.7.*       J.J.J.J.J.J.J.J.",
"J.J.J.J.J.J.J.J.      # S J J J e.e.e.r.d.f.f.f.f.f.f.f.f.f.f.f.f.f.f.f.f.f.f.f.f.f.f.a.U J J J A A A N @       J.J.J.J.J.J.J.J.",
"J.J.J.J.J.J.J.J.      # S J J J e.e.e.r.d.f.f.f.f.f.f.f.f.f.f.f.f.f.f.f.f.f.f.f.f.f.f.a.U J J J A A A N @       J.J.J.J.J.J.J.J.",
"J.J.J.J.J.J.J.J.      # S J J J e.e.e.r.d.f.f.f.f.f.f.f.f.f.f.f.f.f.f.f.f.f.f.f.f.f.f.a.U J J J A A A N @       J.J.J.J.J.J.J.J.",
"J.J.J.J.J.J.J.J.      # Z S S S 7.7.7.9.g.j.j.j.j.j.j.j.j.j.j.j.j.j.j.j.j.j.j.j.h.h.h.s.I S S S N N N n @       J.J.J.J.J.J.J.J.",
"J.J.J.J.J.J.J.J.J.J.J.J.# # # # * * * 5 m.C.C.C.C.C.C.C.C.C.C.C.C.C.C.C.C.C.C.C.n.n.n.k.2 # # # @ @ @ @ J.J.J.J.J.J.J.J.J.J.J.J.",
"J.J.J.J.J.J.J.J.J.J.J.J.              , M.Z.Z.Z.Z.Z.Z.Z.Z.Z.Z.Z.Z.Z.Z.Z.Z.Z.Z.Z.B.B.B.l.;               J.J.J.J.J.J.J.J.J.J.J.J.",
"J.J.J.J.J.J.J.J.J.J.J.J.              , M.Z.Z.Z.Z.Z.Z.Z.Z.Z.Z.Z.Z.Z.Z.Z.Z.Z.Z.Z.B.B.B.l.;               J.J.J.J.J.J.J.J.J.J.J.J.",
"J.J.J.J.J.J.J.J.J.J.J.J.              , M.Z.Z.Z.Z.Z.Z.Z.Z.Z.Z.Z.Z.Z.Z.Z.Z.Z.Z.Z.B.B.B.l.;               J.J.J.J.J.J.J.J.J.J.J.J.",
"J.J.J.J.J.J.J.J.J.J.J.J.J.J.J.J.      , M.Z.Z.Z.B.B.B.z.>             < N.Z.Z.Z.B.B.B.l.;       J.J.J.J.J.J.J.J.J.J.J.J.J.J.J.J.",
"J.J.J.J.J.J.J.J.J.J.J.J.J.J.J.J.      , M.Z.Z.Z.B.B.B.z.>             < N.Z.Z.Z.B.B.B.l.;       J.J.J.J.J.J.J.J.J.J.J.J.J.J.J.J.",
"J.J.J.J.J.J.J.J.J.J.J.J.J.J.J.J.      , M.Z.Z.Z.B.B.B.z.>             < N.Z.Z.Z.B.B.B.l.;       J.J.J.J.J.J.J.J.J.J.J.J.J.J.J.J.",
"J.J.J.J.J.J.J.J.J.J.J.J.J.J.J.J.      : v.V.V.V.x.x.x.p.>             < b.N.N.N.c.c.c.i.-       J.J.J.J.J.J.J.J.J.J.J.J.J.J.J.J.",
"J.J.J.J.J.J.J.J.J.J.J.J.J.J.J.J.      o u p p p 4 4 4 4 J.J.J.J.J.J.J.J.3 4 4 4 i i i y o       J.J.J.J.J.J.J.J.J.J.J.J.J.J.J.J.",
"J.J.J.J.J.J.J.J.J.J.J.J.J.J.J.J.      . 0 q q q & & & & J.J.J.J.J.J.J.J.$ $ $ $ q q q 0 .       J.J.J.J.J.J.J.J.J.J.J.J.J.J.J.J.",
"J.J.J.J.J.J.J.J.J.J.J.J.J.J.J.J.      . 0 q q q & & & & J.J.J.J.J.J.J.J.$ $ $ $ q q q 0 .       J.J.J.J.J.J.J.J.J.J.J.J.J.J.J.J.",
"J.J.J.J.J.J.J.J.J.J.J.J.J.J.J.J.      . 0 q q q & & & & J.J.J.J.J.J.J.J.$ $ $ $ q q q 0 .       J.J.J.J.J.J.J.J.J.J.J.J.J.J.J.J."
};
