/* XPM */
static char *result[] = {
/* columns rows colors chars-per-pixel */
"32 32 103 2 ",
"   c #020201",
".  c #090503",
"X  c #0C0A03",
"o  c #0B0A0B",
"O  c #120E01",
"+  c #110D0C",
"@  c #151102",
"#  c #191403",
"$  c #11100F",
"%  c #1F1E1F",
"&  c #2C0F03",
"*  c #2F1003",
"=  c #2F190F",
"-  c #341204",
";  c #391507",
":  c #3D1A05",
">  c #3B1608",
",  c #3D190B",
"<  c #241D1D",
"1  c #321B10",
"2  c #3F1E11",
"3  c #3C2217",
"4  c #38251D",
"5  c #3D281E",
"6  c #201F20",
"7  c #232222",
"8  c #292525",
"9  c #282628",
"0  c #2D2B2C",
"q  c #332C2B",
"w  c #302F30",
"e  c #411C05",
"r  c #431E0B",
"t  c #401E11",
"y  c #4A210C",
"u  c #442417",
"i  c #442619",
"p  c #4B2B1C",
"a  c #522D1C",
"s  c #563324",
"d  c #5B3727",
"f  c #5E3A2C",
"g  c #603826",
"h  c #663D2B",
"j  c #4A4A1B",
"k  c #52521E",
"l  c #77771C",
"z  c #5C5C21",
"x  c #6B412F",
"c  c #674030",
"v  c #6E4433",
"b  c #744A36",
"n  c #724B39",
"m  c #7A4F3A",
"M  c #77503E",
"N  c #7B513C",
"B  c #71702B",
"V  c #797528",
"C  c #7D7829",
"Z  c #775040",
"A  c #7D5646",
"S  c #A5511A",
"D  c #B0561A",
"F  c #8F6B09",
"G  c #9B7609",
"H  c #9E790A",
"J  c #A57F0B",
"K  c #A55623",
"L  c #AF5B24",
"P  c #815742",
"I  c #855A45",
"U  c #815B49",
"Y  c #87614E",
"T  c #88624F",
"R  c #84841E",
"E  c #A6810D",
"W  c #AA820B",
"Q  c #B68C10",
"!  c #B88C11",
"~  c #BD9412",
"^  c #949422",
"/  c #C19714",
"(  c #C79A12",
")  c #CA9C14",
"_  c #D6A617",
"`  c #DCAC19",
"'  c #E5B31A",
"]  c #EAB61A",
"[  c #868281",
"{  c #949392",
"}  c gray60",
"|  c #A39992",
" . c #A2A2A2",
".. c #ACAAA9",
"X. c #B2ADAB",
"o. c #B4B4B4",
"O. c #BABAB9",
"+. c #C1BEBD",
"@. c #C3C3C3",
"#. c #ECE9E9",
"$. c #F0EDED",
"%. c #F6F2F1",
"&. c None",
/* pixels */
"&.&.&.&.&.&.&.&.                                &.&.&.&.&.&.&.&.",
"&.&.&.&.&.&.&.&.# # O @ @ @ @ @ @ @ @ O @ @ O O &.&.&.&.&.&.&.&.",
"&.&.&.&.&.&.    ` _ ! ! ! ! ~ Q ~ Q ! ~ ! Q H G     &.&.&.&.&.&.",
"&.&.&.&.&.&.    ] ] ) ) ( ( ( ( ( ( ( ( ( ( W J     &.&.&.&.&.&.",
"&.&.&.&.&.&.    ] ] ) ) ( ( ( ( ( ( ( ( ( ( E E     &.&.&.&.&.&.",
"&.&.&.&.&.&.X X ' ` / / / / / / / ~ / ~ / ~ E J . . &.&.&.&.&.&.",
"&.&.&.&.  . l R V V V V V V V V V V V V V V V B k j .   &.&.&.&.",
"&.&.&.&.  X R ^ B B B B B B B B B B B B B B B B z k .   &.&.&.&.",
"&.&.  O ` ] ) ( ( ( ( ( ( ( ( ( ( ( ( / ( ( ( / ( / J G X   &.&.",
"&.&.  X ) _ ! ! ! ! ! ! ! ! ! ! J ! ! ! ! ! ! ! Q Q G F .   &.&.",
"&.&.    e e e e e e e e e e e e y e e e e e r e e e : :     &.&.",
"&.&.    - - - - ; - - - t t - - ; e - - t t , , - - ; ; .   &.&.",
"  . & - - - - - g s . + X.X.u ; g a . + ..X.Z h - e v h ; * .   ",
"o + - - - - ; - g g . + O.O.p > h g . $ O.+.P b - e v v ; *     ",
"{ [ 2 - . . * - m v 1 3 #.$.U b P Z 1 5 #.$.Y m - r v v > *     ",
"| { 2 &     * - m v , q $.%.U m I A 1 i $.%.Y m - > v v > -     ",
"@.@.&.&.    - - I I N m N m N N m m m m N N I I p u         &.&.",
"@.@.&.&.    * * M M b b b b b M b b b b n n m M u 3 .       &.&.",
"@.@.&.&.&.&.    X o 0 q p p p p p p a p q 0 o o o o &.&.&.&.&.&.",
"@.@.&.&.&.&.      . 8 0 i i p i p p i i 9 9 .   o o &.&.&.&.&.&.",
"&.&.@.o.o . 7 9 9 9 7 6 . . 9 0 0 6 o   6 7 9 9 9 7     &.&.&.&.",
"&.&.@.o.$   9 0 9 9 7 6   . 9 9 0 9     6 7 9 0 0 9     &.&.&.&.",
"&.&. .} o . 9 9 7 7 7 %     % 7 6 6 .   6 6 7 7 6 6     &.&.&.&.",
"&.&. .} o . 7 0 % 7 7 %     % 7 6 6 .   6 6 6 6 6 6     &.&.&.&.",
" . .&.&.  . h b 6 6 6 7 7 7 7 % 6 7 6 7 7 7 v n c f .   &.&.&.&.",
"| | &.&.. X f h % % 7 7 7 7 7 7 7 7 7 7 7 9 f c f s .   &.&.&.&.",
"L K a u r r + .   o 0 w w w w w w w w w w 0 o . .   &.&.&.&.&.&.",
"D S a p y r .       0 w 0 0 0 0 0 0 0 0 w 0         &.&.&.&.&.&.",
"&.&.&.&.&.&.&.&.    0 0 o   .         o 0 0 .   &.&.&.&.&.&.&.&.",
"&.&.&.&.&.&.&.&.  . 0 0                 0 0 .   &.&.&.&.&.&.&.&.",
"&.&.&.&.&.&.&.&.    < < o o &.&.&.&.o . < <     &.&.&.&.&.&.&.&.",
"&.&.&.&.&.&.&.&.    % % o o &.&.&.&.. o < <     &.&.&.&.&.&.&.&."
};
