/* XPM */
static char *result[] = {
/* columns rows colors chars-per-pixel */
"32 32 119 2 ",
"   c #010101",
".  c #0A0604",
"X  c #0D0906",
"o  c #0C0A08",
"O  c #120E01",
"+  c #120D0B",
"@  c #14110F",
"#  c #1A120E",
"$  c #1B1715",
"%  c #1E1E1E",
"&  c #201F1F",
"*  c #332E1F",
"=  c #232323",
"-  c #282728",
";  c #2D2C2D",
":  c #322D2E",
">  c #373228",
",  c #3B362C",
"<  c #302F30",
"1  c #363334",
"2  c #3C3534",
"3  c #383738",
"4  c #3D3B3D",
"5  c #401C0A",
"6  c #48200B",
"7  c #4F2814",
"8  c #572C15",
"9  c #522E1C",
"0  c #41381E",
"q  c #5A321D",
"w  c #433B2C",
"e  c #563324",
"r  c #5C3726",
"t  c #583528",
"y  c #5F3A2A",
"u  c #633B2A",
"i  c #683F2F",
"p  c #4A453A",
"a  c #69402D",
"s  c #6B4231",
"d  c #704733",
"f  c #714A36",
"g  c #774E3B",
"h  c #7A4F3A",
"j  c #7F533D",
"k  c #5D5D5D",
"l  c #6B6A6B",
"z  c #797979",
"x  c #835741",
"c  c #926046",
"v  c #9B6649",
"b  c #9D684C",
"n  c #9D6A53",
"m  c #966E5C",
"M  c #9D735F",
"N  c #A36C4E",
"B  c #A57044",
"V  c #B97D4D",
"C  c #A36F56",
"Z  c #AD7453",
"A  c #A1735F",
"S  c #AD755B",
"D  c #AE795E",
"F  c #B17555",
"G  c #B27A5F",
"H  c #A47662",
"J  c #AC7B63",
"K  c #B47C60",
"L  c #B87E60",
"P  c #AD8716",
"I  c #B68C1A",
"U  c #BA9114",
"Y  c #CC9F0E",
"T  c #C59717",
"R  c #CA9C13",
"E  c #D5A80C",
"W  c #DFAD0A",
"Q  c #DFAE11",
"!  c #D5A61C",
"~  c #D6A81B",
"^  c #DDB015",
"/  c #EDBB0D",
"(  c #E9B619",
")  c #F0BE10",
"_  c #FAC313",
"`  c #B78166",
"'  c #BA8165",
"]  c #B18269",
"[  c #BB8469",
"{  c #BD896F",
"}  c #C08566",
"|  c #C08568",
" . c #C68C6F",
".. c #CB8F71",
"X. c #C59074",
"o. c #CE9173",
"O. c #CF9679",
"+. c #CD9A7F",
"@. c #D09375",
"#. c #D09579",
"$. c #D49A7C",
"%. c #BA8A8A",
"&. c #AFABA9",
"*. c #B3B2B2",
"=. c #CC9C82",
"-. c #D19E83",
";. c #C79492",
":. c #CE9999",
">. c #D99F99",
",. c #D9A589",
"<. c #DBA88C",
"1. c #DBA19E",
"2. c #DDA4A3",
"3. c #C3BEBC",
"4. c gray78",
"5. c #E5E1DF",
"6. c #ECE7E5",
"7. c gray99",
"8. c None",
/* pixels */
"8.8.8.8.8.8.8.8.8.8.                            8.8.8.8.8.8.8.8.",
"8.8.8.8.8.8.8.8.8.8.. . . . . . . . . . . . . . 8.8.8.8.8.8.8.8.",
"8.8.8.8.8.8.8.8.  . t u u y y t r r r r r r r e .   8.8.8.8.8.8.",
"8.8.8.8.8.8.8.8.  . y a s i u u u u u u u u u r + o 8.8.8.8.8.8.",
"8.8.8.8.8.8.8.8.  . y s u u u u u u u u u u u a M m +   8.8.8.8.",
"8.8.8.8.8.8.8.8.X @ a s i i i i a u a i u u a s H M +   8.8.8.8.",
"8.8.8.8.8.8.  o ` { G G G G G G G G G G u a A A x g X   8.8.8.8.",
"8.8.8.8.8.8.  + ..$.} ' ' ' ' ' ' ' ' ' u a J J j f X   8.8.8.8.",
"8.8.8.8.8.8.  o [  .' ' ' ` ' ' ' ' ' ' } G j h h f X   8.8.8.8.",
"8.8.8.8.8.8.  X `  .' ' ' ' ' ' ' ` ' ' ' G j h h f X   8.8.8.8.",
"8.8.8.8.8.8.  X '  .} ' ' ' ' ' ' ' ` ' ' G j h h f o   8.8.8.8.",
"8.8.8.8.8.8.  X J [ [ { ' ` ' L D D [ { ' L x j h f X   8.8.8.8.",
"8.8.8.8.8.8.    X $ &.3.' ' ' D # $ &.3.o...' G j f X   8.8.8.8.",
"8.8.8.8.8.8.      @ *.4.} [ [ D + + *.4.@.o.} G j f X   8.8.8.8.",
"8.8.8.8.8.8.    5 9 5.7.,.,.,.+.8 9 5.7.2.1.} L j f X   8.8.8.8.",
"8.8.8.8.8.8.    6 q 6.7.<.<.<.-.8 q 6.7.2.1.| G j f X   8.8.8.8.",
"8.8.8.8.8.8.  + :.2.<.<.<.<.<.<.$.$.o.o.F V _ / X   8.8.8.8.8.8.",
"8.8.8.8.8.8.  + %.;.=.=.+.+.-.=.O.O.o.o.b B ( E O   8.8.8.8.8.8.",
"8.8.8.8.8.8.8.8.o @ 1 2 a s s d S D S S o o O O 8.8.8.8.8.8.8.8.",
"8.8.8.8.8.8.8.8.  o > , u u y i n C Z Z         8.8.8.8.8.8.8.8.",
"8.8.8.8.8.8.    3 , E / < : : : : w U T ; ; ; ;     8.8.8.8.8.8.",
"8.8.8.8.8.8.o o 4 k ^ ) , , , , , w P U < > < ; o   8.8.8.8.8.8.",
"8.8.8.8.  o 1 4 < > w w Y Y ! ! U P > * ; < < < ; -     8.8.8.8.",
"8.8.8.8.    4 4 ; : ; ; W W ( ( R U * & ; ; < < ; ; .   8.8.8.8.",
"8.8.8.8.  + Z Z 1 ; ; < ; ; ; ; ; ; ; ; ; w  .o.G N +   8.8.8.8.",
"8.8.8.8.  + v b ; ; ; ; < < < 1 < < ; ; ; 2 J ` b c +   8.8.8.8.",
"8.8.8.8.8.8.. X o   - ; 4 4 4 4 4 4 = = = % o + X .     8.8.8.8.",
"8.8.8.8.8.8.        ; 1 4 4 4 4 4 4 = % - =             8.8.8.8.",
"8.8.8.8.8.8.8.8.  o l z o   o           l k o   8.8.8.8.8.8.8.8.",
"8.8.8.8.8.8.8.8.  o l z                 l k .   8.8.8.8.8.8.8.8.",
"8.8.8.8.8.8.8.8.    - -     8.8.8.8.    - =     8.8.8.8.8.8.8.8.",
"8.8.8.8.8.8.8.8.    % =     8.8.8.8.    = %     8.8.8.8.8.8.8.8."
};
