/* XPM */
static char *result[] = {
/* columns rows colors chars-per-pixel */
"32 32 208 2 ",
"   c black",
".  c #010101",
"X  c #030201",
"o  c #040201",
"O  c #040301",
"+  c #050301",
"@  c #040202",
"#  c #040302",
"$  c #050302",
"%  c #070303",
"&  c #060402",
"*  c #070502",
"=  c #020306",
"-  c #030406",
";  c #040405",
":  c #060504",
">  c #060605",
",  c #040406",
"<  c #080503",
"1  c #0A0603",
"2  c #080506",
"3  c #070709",
"4  c #05060A",
"5  c #07070C",
"6  c #07070D",
"7  c #0B0708",
"8  c #0B0709",
"9  c #0A0908",
"0  c #0B0A0B",
"q  c #0A0B0F",
"w  c #100B08",
"e  c #110C09",
"r  c #1B140F",
"t  c #1C140F",
"y  c #1A1110",
"u  c #1B1110",
"i  c #1B1211",
"p  c #1B1311",
"a  c #1B1412",
"s  c #211713",
"d  c #221813",
"f  c #6B431B",
"g  c #6E451C",
"h  c #70461C",
"j  c #73481D",
"k  c #74491E",
"l  c #774D22",
"z  c #734A25",
"x  c #744B25",
"c  c #784D24",
"v  c #784E24",
"b  c #774F2A",
"n  c #795027",
"m  c #7C5025",
"M  c #282C52",
"N  c #2A2E54",
"B  c #2A2F56",
"V  c #2C3058",
"C  c #343456",
"Z  c #353558",
"A  c #353659",
"S  c #36375B",
"D  c #973D3D",
"F  c #9A3D3D",
"G  c #9E3F3F",
"H  c #805226",
"J  c #815427",
"K  c #855628",
"L  c #845A2D",
"P  c #895A2E",
"I  c #895B2E",
"U  c #8A5E2F",
"Y  c #8D5F33",
"T  c #8D6033",
"R  c #8D6134",
"E  c #91653A",
"W  c #95683B",
"Q  c #986A3C",
"!  c #996B3D",
"~  c #973F40",
"^  c #9A4041",
"/  c #9E4243",
"(  c #9C6D41",
")  c #4D5181",
"_  c #4E5282",
"`  c #4E5283",
"'  c #4F5384",
"]  c #515584",
"[  c #525686",
"{  c #525687",
"}  c #525788",
"|  c #5465B7",
" . c #5667BB",
".. c #5768BC",
"X. c #5869BF",
"o. c #5C6BBE",
"O. c #5C6CBF",
"+. c #5869C0",
"@. c #596AC0",
"#. c #6676C8",
"$. c #6778CB",
"%. c #6C7BCF",
"&. c #717ECE",
"*. c #727FCE",
"=. c #6A7BD0",
"-. c #6B7BD0",
";. c #6B7CD1",
":. c #6B7CD3",
">. c #6D7CD0",
",. c #6E7ED3",
"<. c #6C7DD4",
"1. c #6E7FD4",
"2. c #7180D3",
"3. c #7181D3",
"4. c #7281D2",
"5. c #7787D9",
"6. c #7788DA",
"7. c #7A8BDF",
"8. c #7E8DDE",
"9. c #7E8EDF",
"0. c #7B8CE0",
"q. c #8F92B2",
"w. c #8E95B7",
"e. c #8E95B8",
"r. c #9698BA",
"t. c #939ABD",
"y. c #959CBF",
"u. c #C29D84",
"i. c #C39E86",
"p. c #C4A793",
"a. c #CDAE99",
"s. c #D3B39C",
"d. c #D4B49E",
"f. c #E0B59F",
"g. c #DC84A4",
"h. c #E288A8",
"j. c #E589AA",
"k. c #E78BAA",
"l. c #EB8DAF",
"z. c #EF97B5",
"x. c #F59BBA",
"c. c #F89DBC",
"v. c #F89DBD",
"b. c #FA9EBC",
"n. c #FB9FBD",
"m. c #F89EBE",
"M. c #D6B6A0",
"N. c #D7B7A1",
"B. c #DAB2A0",
"V. c #DAB3A1",
"C. c #DCB3A2",
"Z. c #DCB4A3",
"A. c #D3BDAD",
"S. c #DABFAE",
"D. c #E0B6A0",
"F. c #FAA0BD",
"G. c #DDC0AD",
"H. c #DEC1AD",
"J. c #D6C0B3",
"K. c #D9C3B2",
"L. c #DEC3B0",
"P. c #DDC2B2",
"I. c #DDC5B5",
"U. c #DDC6B9",
"Y. c #DDC7BA",
"T. c #DFC8BA",
"R. c #DFC8BB",
"E. c #DFC9BC",
"W. c #E0C4B1",
"Q. c #E1C6B5",
"!. c #E0C7B6",
"~. c #E2C9B8",
"^. c #E1CAB8",
"/. c #E3CAB9",
"(. c #E3CBB9",
"). c #E0C9BB",
"_. c #E3CBBA",
"`. c #E4CDBD",
"'. c #949BC0",
"]. c #949CC0",
"[. c #A2A4C5",
"{. c #A0A7C9",
"}. c #A2A9CB",
"|. c #A6A9CB",
" X c #A5ABCF",
".X c #A5ACD0",
"XX c #A5ADD1",
"oX c #A6ADD0",
"OX c #A7AED1",
"+X c #FEA0C1",
"@X c #FFA1C2",
"#X c #FFA2C3",
"$X c #FEA3C3",
"%X c #FFA3C3",
"&X c #EFCBD9",
"*X c #EFCCDA",
"=X c #F1CBD7",
"-X c #F0CDD8",
";X c #F6CFDE",
":X c #F5D1DF",
">X c #F6D0DF",
",X c #F5D2E0",
"<X c #FAF8F6",
"1X c #FAF8F7",
"2X c #FBFAF9",
"3X c #FEFDFD",
"4X c white",
"5X c None",
/* pixels */
"5X5X5X5X5X5X5X5X  . e e e e e e e e e e e w X X 5X5X5X5X5X5X5X5X",
"5X5X5X5X5X5X5X5X7 8 i p a a p p a a p p u y $ # 5X5X5X5X5X5X5X5X",
"5X5X5X5X5X5X    c.c.v.v.*X&Xm.v.*X&Xm.v.j.g.s r 5X5X5X5X5X5X5X5X",
"5X5X5X5X5X5X    @X@X@X@X,X>X%X@X,X>X%X@Xl.h.d t 5X5X5X5X5X5X5X5X",
"5X5X5X5X5X5X    @X$X:X,X@X$X:X,X@X$X:X,X@X+Xl.l.    5X5X5X5X5X5X",
"5X5X5X5X5X5X    @X$X:X,X@X$X;X>X@X$X:X,X@X+Xl.l.    5X5X5X5X5X5X",
"5X5X            @X$X:X,X@X@X#X%X@X$X:X,X@X+Xl.l.    5X5X5X5X5X5X",
"5X5X            @X$X:X,X@X@X@X@X@X$X:X,X@X+Xl.l.    5X5X5X5X5X5X",
"  7 c.@X@X@X@X@X@X@X@X@X,X>X%X@X,X>X%X@Xl.l.l.l.    5X5X5X5X5X5X",
"  7 z.x.n.n.n.n.b.b.b.b.-X=XF.b.-X=XF.b.k.k.k.k.& & 5X5X5X5X5X5X",
"5X5X2 2 ( ( ( ( T T T T R R T T R R T T Y Y Y Y J m o   5X5X5X5X",
"5X5X    ! ! ! ! U U U U U U U U U U U U U U U U K H o   5X5X5X5X",
"5X5X    ! Q U U j j j j j l s.M.j j j j j k K K K H o   5X5X5X5X",
"5X5X< < Q Q U U c c n n z b d.N.c v n n z x P I K H 1 & 5X5X5X5X",
"  * E W U U U U G.L.<X2X%.*.T.(.!.^.1X2X%.&.S.H.K K J J     5X5X",
"  * W ! U U U U W.Q.3X4X<.3.)._._.`.3X4X<.2.P.W.K K K K     5X5X",
"5X5X    U L O   f.D./._._._._._._._._._._./.D.f.  + h j     5X5X",
"5X5X    U L O   C.Z.R.E.~.~.~.~.~.~.~.~.Y.U.V.B.. $ f g     5X5X",
"5X5X5X5X5X5X    8.8.9.9.i.i.i.i.i.i.i.i.O.O.o.o.6 5 X X 5X5X5X5X",
"5X5X5X5X5X5X    0.0.0.0.u.u.u.u.u.u.u.u.X.X.X.X.6 5     5X5X5X5X",
"5X5X5X5X  4 6.0.0.6.B M X.X.X.X.X. .A C <.:.+.X.X.| =   5X5X5X5X",
"5X5X5X5X  4 6.0.7.5.V N @.@.@.@.@...S Z <.:.+.X.X.| =   5X5X5X5X",
"5X5X5X5X  4 6.0.<.;.` ) <.<.<.<.<.=.` ) <.:.+.X.X.| =   5X5X5X5X",
"5X5X5X5X  4 6.0.<.-.' _ <.<.<.<.<.-.' _ <.:.+.X.X.| =   5X5X5X5X",
"5X5X5X5X  9 I._.<.-.' _ <.<.<.<.<.-.' _ <.3.)._.M.a.:   5X5X5X5X",
"5X5X5X5X  9 A.K.$.#.} [ 1.1.,.,.,.>.{ ] ,.4.J.K.a.p.:   5X5X5X5X",
"5X5X5X5X5X5X> > - q {. XXX.X].'.'.'.t.t.'.e.0 > : : 5X5X5X5X5X5X",
"5X5X5X5X5X5X      3 }.OXOXoXy.y.y.y.y.y.y.w.,       5X5X5X5X5X5X",
"5X5X5X5X5X5X5X5X  3 }.OX                y.w.,   5X5X5X5X5X5X5X5X",
"5X5X5X5X5X5X5X5X  3 [.|.                r.q.;   5X5X5X5X5X5X5X5X",
"5X5X5X5X5X5X5X5X  % ^ /     5X5X5X5X    / ~ @   5X5X5X5X5X5X5X5X",
"5X5X5X5X5X5X5X5X  % F G     5X5X5X5X    G D @   5X5X5X5X5X5X5X5X"
};
