/* XPM */
static char *result[] = {
/* columns rows colors chars-per-pixel */
"32 32 143 2 ",
"   c #010101",
".  c #090503",
"X  c #0E0906",
"o  c #100A06",
"O  c #120D0A",
"+  c #1C0F0B",
"@  c #1A140D",
"#  c #141111",
"$  c #1C1613",
"%  c #1F1812",
"&  c #211D1A",
"*  c #3E2421",
"=  c #422623",
"-  c #462925",
";  c #4A2B27",
":  c #4D2E29",
">  c #522E28",
",  c #5B3922",
"<  c #56332E",
"1  c #5A372F",
"2  c #613D24",
"3  c #623E39",
"4  c #654026",
"5  c #6A4227",
"6  c #664329",
"7  c #6C462B",
"8  c #6E492D",
"9  c #724629",
"0  c #7B472A",
"q  c #714A2D",
"w  c #674236",
"e  c #754E32",
"r  c #775032",
"t  c #7B5234",
"y  c #7F5739",
"u  c #6E4640",
"i  c #6D4B47",
"p  c #784E46",
"a  c #72514D",
"s  c #79524E",
"d  c #7E5955",
"f  c #825536",
"g  c #835738",
"h  c #895738",
"j  c #875B3C",
"k  c #8C5A39",
"l  c #925C39",
"z  c #B34C2F",
"x  c #BA4E32",
"c  c #B75033",
"v  c #BC5334",
"b  c #C45435",
"n  c #C85535",
"m  c #CA5A3A",
"M  c #A85841",
"N  c #996744",
"B  c #9E6A47",
"V  c #9D6C49",
"C  c #A16C48",
"Z  c #B96745",
"A  c #BB6248",
"S  c #A6714D",
"D  c #AC744E",
"F  c #B17751",
"G  c #B37952",
"H  c #C9664B",
"J  c #C9684C",
"K  c #D76644",
"L  c #D86745",
"P  c #D96846",
"I  c #D96C49",
"U  c #CD724D",
"Y  c #D9714E",
"T  c #CB6D51",
"R  c #CC7254",
"E  c #F2D03E",
"W  c #F9DD3D",
"Q  c #FFEB3B",
"!  c #CD946D",
"~  c #D1976E",
"^  c #D8956C",
"/  c #D9986F",
"(  c #CF9973",
")  c #CB9D78",
"_  c #D49D75",
"`  c #DA9D72",
"'  c #D39F78",
"]  c #DB9F79",
"[  c #DDAF6E",
"{  c #DFB06F",
"}  c #DDA076",
"|  c #D4A27B",
" . c #DAA47C",
".. c #DCA87F",
"X. c #E4A67A",
"o. c #E8A67E",
"O. c #EAAB7E",
"+. c #EDBD77",
"@. c #999592",
"#. c #9B9B9B",
"$. c #A09C99",
"%. c gray63",
"&. c #ACA6A2",
"*. c gray68",
"=. c #B1ADAA",
"-. c #DDA582",
";. c #DEAC85",
":. c #DCAA8A",
">. c #E3AD84",
",. c #EBAB85",
"<. c #E3AE88",
"1. c #E4B086",
"2. c #EEB58D",
"3. c #F2B183",
"4. c #F0B38D",
"5. c #F2B98D",
"6. c #E4B695",
"7. c #E9BA99",
"8. c #F0B690",
"9. c #F3BC93",
"0. c #F5BE99",
"q. c #FBBF98",
"w. c #DD8DA9",
"e. c #DF92A6",
"r. c #E997AD",
"t. c #F49FB6",
"y. c #F79EBD",
"u. c #F5A2B5",
"i. c #F7A1BA",
"p. c #F8A2BA",
"a. c #FDC395",
"s. c #F6C098",
"d. c #FDC39A",
"f. c #FFC99E",
"g. c #F3C5A3",
"h. c #F9C9A7",
"j. c #E6E2E1",
"k. c #EBE9E8",
"l. c #F0EBEB",
"z. c #F6F2EF",
"x. c #F6F4F4",
"c. c #FFFDFC",
"v. c None",
/* pixels */
"v.v.v.v.v.v.v.v.v.v.                            v.v.v.v.v.v.v.v.",
"v.v.v.v.v.v.v.v.v.v.o o X X X X o o X X X X . X v.v.v.v.v.v.v.v.",
"v.v.v.v.v.v.v.v.  o t f f f f h f f r r t t 5 2     v.v.v.v.v.v.",
"v.v.v.v.v.v.v.v.. o f k k k l l l l h h g g 9 7 . . v.v.v.v.v.v.",
"v.v.v.v.v.v.    < < < < > < x b b b b v h g g y 4 , .   v.v.v.v.",
"v.v.v.v.v.v.  . < < < < ; > x n n n n b k f g g 7 4 X . v.v.v.v.",
"v.v.v.v.    - : < < : ; ; > x n K K K K b v h y f t 4 , .   v.v.",
"v.v.v.v.  . : 1 < < ; ; ; > c b P P P L n b h g g f 9 2 .   v.v.",
"v.v.v.v.  . : < ; 1 ( ` ` ` ` ` ` ` ` ^ I L n b g f 9 4 .   v.v.",
"v.v.v.v.  . : < < w ~ ` ` ` ` ` ` ` ` ` Y I m b h f 9 4 .   v.v.",
"v.v.v.v.  . : < ! ( >.>.>.>.>.>.>.>.>.>.` ^ T J b c 9 5 .   v.v.",
"v.v.v.v.  . : < _ _ ' | >.>.>.>.| | ;.>.` / R T n v 0 5 .   v.v.",
"v.v.v.v.  . : 1 &.@.$ & | >.>.>.o % %.&.;.>.` / H H b z .   v.v.",
"v.v.v.v.    : < *.#.# # | >.1.1.. $ %.*.;.>.} ` T J n x .   v.v.",
"v.v.v.v.    : < x.j.i u 5.a.a.a.3 a k.x.f.a.9.9.8.,.m x X   v.v.",
"v.v.v.v.  . : 1 c.l.s p 5.a.a.a.w d x.c.f.d.s.0.s.4.m x .   v.v.",
"v.v.v.v.    = ; i.p.d.d.a.a.a.a.d.d.p.y.y.y.0.0.Q W U A X   v.v.",
"v.v.v.v.    = ; w.e.2.2.a.q.a.a.a.q.u.t.r.r.:.:.W E Z M X   v.v.",
"v.v.v.v.    = ; O $ q y _ } } | >.>.<.>.g e @ O U Z + o v.v.v.v.",
"v.v.v.v.  . * = X + 7 r ! ( ( _ -.-. ._ r 7 O . A M .   v.v.v.v.",
"v.v.v.v.v.v.. . S S D D r r e e e e e r g y 6 6 X X v.v.v.v.v.v.",
"v.v.v.v.v.v.    F G G D e q q q 8 q 8 8 y g q 8 . . v.v.v.v.v.v.",
"v.v.v.v.v.v.    G G C V N N k k g y t y g g t g 2 , .   v.v.v.v.",
"v.v.v.v.v.v.    G G C B B B l k g g h g g g g g 8 4 .   v.v.v.v.",
"v.v.v.v.v.v.    a.5.S S g.h.,.o.3.3.3.O.j g g y d.1.O   v.v.v.v.",
"v.v.v.v.v.v.    1...V V 6.7.] ] X.X.X.} j y r r 1.) O   v.v.v.v.",
"v.v.v.v.v.v.    O @ 4 6 8 8 7 7 r r r r 8 7 O . O O     v.v.v.v.",
"v.v.v.v.v.v.      X , , , , , 2 8 8 6 6 7 6 X           v.v.v.v.",
"v.v.v.v.v.v.v.v.  . , , X . v.v.v.v.. X 6 6 X   v.v.v.v.v.v.v.v.",
"v.v.v.v.v.v.v.v.  X 6 4 .   v.v.v.v.  . 8 q X   v.v.v.v.v.v.v.v.",
"v.v.v.v.v.v.v.v.  @ { { X   v.v.v.v.  O { { @   v.v.v.v.v.v.v.v.",
"v.v.v.v.v.v.v.v.  @ +.+.O   v.v.v.v.  O +.+.@   v.v.v.v.v.v.v.v."
};
