/* XPM */
static char *result[] = {
/* columns rows colors chars-per-pixel */
"32 32 243 2 ",
"   c black",
".  c #010000",
"X  c #010100",
"o  c #000001",
"O  c #010101",
"+  c #020101",
"@  c #030202",
"#  c gray1",
"$  c #040303",
"%  c #030306",
"&  c #050504",
"*  c gray2",
"=  c #040407",
"-  c #070707",
";  c #080604",
":  c #090605",
">  c #090705",
",  c #0B0705",
"<  c #0A0706",
"1  c #0B0706",
"2  c #0B0806",
"3  c #0B0807",
"4  c #0D0806",
"5  c #0D0907",
"6  c #040508",
"7  c #050508",
"8  c #0D0A08",
"9  c #0E0A08",
"0  c #0F0B08",
"q  c #0E0B09",
"w  c #0F0B09",
"e  c #0E0D0C",
"r  c #0F0E0D",
"t  c #100B09",
"y  c #100C0A",
"u  c #110C0A",
"i  c #130D0A",
"p  c #100D0C",
"a  c #110E0C",
"s  c #100F0E",
"d  c #160F0D",
"f  c #17100C",
"g  c #1A130F",
"h  c #161412",
"j  c #171513",
"k  c #191715",
"l  c #1D1B19",
"z  c #1F1C1A",
"x  c #1C1A1C",
"c  c #221B1B",
"v  c #231D1A",
"b  c #261E1E",
"n  c #2D2321",
"m  c #2D2C2D",
"M  c #332724",
"N  c #302D2C",
"B  c #37302D",
"V  c #313131",
"C  c #383331",
"Z  c #3D3A3A",
"A  c #3D3B3A",
"S  c #684736",
"D  c #6E4635",
"F  c #6E4736",
"G  c #764A38",
"H  c #764B39",
"J  c #704D3B",
"K  c #714D3B",
"L  c #74503D",
"P  c #7B503E",
"I  c #78523F",
"U  c #7C513F",
"Y  c #222647",
"T  c #25284A",
"R  c #262A4F",
"E  c #292D53",
"W  c #2B2F56",
"Q  c #2C3056",
"!  c #2F335C",
"~  c #323354",
"^  c #333354",
"/  c #30345E",
"(  c #35395F",
")  c #3A3A5E",
"_  c #323760",
"`  c #333761",
"'  c #353A60",
"]  c #343862",
"[  c #383C64",
"{  c #393E67",
"}  c #373B69",
"|  c #383C69",
" . c #383C6A",
".. c #393D6A",
"X. c #393D6B",
"o. c #3A3E6C",
"O. c #3A3F6D",
"+. c #3B3F6D",
"@. c #3B406B",
"#. c #3F436C",
"$. c #3C406E",
"%. c #3C416F",
"&. c #3D416F",
"*. c #3E4370",
"=. c #7D5240",
"-. c #7B5441",
";. c #7C5443",
":. c #7E5744",
">. c #414265",
",. c #414366",
"<. c #434467",
"1. c #4A4766",
"2. c #41426A",
"3. c #41426B",
"4. c #444669",
"5. c #46476B",
"6. c #43446D",
"7. c #404573",
"8. c #414573",
"9. c #414674",
"0. c #434876",
"q. c #434877",
"w. c #484972",
"e. c #494A73",
"r. c #4A4F7D",
"t. c #504D72",
"y. c #4E5079",
"u. c #4C517F",
"i. c #565479",
"p. c #825944",
"a. c #835A45",
"s. c #845B45",
"d. c #855C46",
"f. c #8C5C43",
"g. c #875E49",
"h. c #845E4B",
"j. c #855D4C",
"k. c #855F4C",
"l. c #89604B",
"z. c #8B614B",
"x. c #88614D",
"c. c #8A614C",
"v. c #8C614C",
"b. c #92654E",
"n. c #93664F",
"m. c #94664F",
"M. c #9D684B",
"N. c #8D6450",
"B. c #8E6550",
"V. c #946650",
"C. c #946750",
"Z. c #956750",
"A. c #936853",
"S. c #966851",
"D. c #946953",
"F. c #976952",
"G. c #956A55",
"H. c #9A6C56",
"J. c #9B6D57",
"K. c #9C6E57",
"L. c #9D6F58",
"P. c #9E7059",
"I. c #B07454",
"U. c #AC7C67",
"Y. c #A77F6A",
"T. c #B98268",
"R. c #AF8670",
"E. c #B68B75",
"W. c #BE8871",
"Q. c #BB8E77",
"!. c #B48C7C",
"~. c #B58C7D",
"^. c #BE917D",
"/. c #BF927E",
"(. c #BF927F",
"). c #CF9274",
"_. c #C4967D",
"`. c #565781",
"'. c #575782",
"]. c #585883",
"[. c #565B89",
"{. c #575C8A",
"}. c #575C8B",
"|. c #5C6190",
" X c #5C6191",
".X c #5D6292",
"XX c #696B94",
"oX c #6A6D96",
"OX c #6B6D96",
"+X c #BCAB9E",
"@X c #BDACA2",
"#X c #C39783",
"$X c #CB9C83",
"%X c #CC9D84",
"&X c #DBA88C",
"*X c #CBA594",
"=X c #CDA998",
"-X c #D4AA97",
";X c #D5AB98",
":X c #D1AD9C",
">X c #D79EA3",
",X c #D8A1A4",
"<X c #C7B4A7",
"1X c #C8B5A8",
"2X c #C9B6A9",
"3X c #CAB8AE",
"4X c #CBB8AE",
"5X c #CCBAAF",
"6X c #DCB3A0",
"7X c #DFB6A3",
"8X c #DCB9A8",
"9X c #DEBAAF",
"0X c #CDBBB1",
"qX c #CFBEB4",
"wX c #DFBBB0",
"eX c #DFBDB0",
"rX c #E8A7A7",
"tX c #E9ABA9",
"yX c #E0B7A4",
"uX c #E3B9A6",
"iX c #E4BDAA",
"pX c #E6BDAA",
"aX c #E7BEAB",
"sX c #E0BDB1",
"dX c #D5C1B3",
"fX c #D6C4B6",
"gX c #D9C6B8",
"hX c #DAC8BD",
"jX c #DBC9BE",
"kX c #EDC5B2",
"lX c #EEC6B2",
"zX c #F1C8B7",
"xX c #F1CAB7",
"cX c #F2CBB8",
"vX c #F1CDBC",
"bX c #DECCC1",
"nX c #E6D2C3",
"mX c #F3D1C0",
"MX c #E2DDDB",
"NX c #EFEFEF",
"BX c #F0E9E6",
"VX c #FEFBFA",
"CX c None",
/* pixels */
"CXCXCXCXCXCXCXCX                                    CXCXCXCXCXCX",
"CXCXCXCXCXCXCXCXu u u u u u u u u u u u u t +   t t CXCXCXCXCXCX",
"CXCXCXCXCXCX    A.A.A.A.A.A.A.A.A.A.A.A.A.x.t   z.:.1   CXCXCXCX",
"CXCXCXCXCXCX2 2 P.P.L.L.P.P.L.L.L.L.L.L.L.A.g 1 S.g.i : CXCXCXCX",
"CXCXCXCX  3 h.A.P.L.F.F.L.L.F.F.F.F.F.F.F.S.v.z.S.n.-.K :   CXCX",
"CXCXCXCX  3 N.P.L.L.F.F.L.L.F.S.S.S.S.S.S.S.S.S.Z.b.-.J :   CXCX",
"CXCXCXCX  3 N.P.F.F.S.S.F.F.S.S.S.S.S.S.S.S.S.S.s.I f 5 O   CXCX",
"CXCXCXCX  3 N.P.S.S.S.S.S.S.S.S.S.S.S.S.S.S.S.S.p.L >       CXCX",
"CXCX  2 A.P.P.P.S.S.S.S.S.S.S.S.S.S.S.S.S.S.S.S.p.L >   CXCXCXCX",
"CXCX  2 A.P.P.P.F.F.S.S.S.S.S.S.S.S.S.S.S.S.C.V.L S ;   CXCXCXCX",
"CXCX  2 A.P.P.P.L.L.F.S.S.S.S.S.S.S.S.S.S.Z.d.a.> ; .   CXCXCXCX",
"CXCX  < x.D.L.P.J.H.V.m.m.V.J.K.m.m.m.m.m.n.c.l.q 8 O   CXCXCXCX",
"CXCX  X < d B.P.H H G G G =.;XyXG G G G G =.-X7XQ.Y.9   CXCXCXCX",
"CXCX      2 k.G.U P D F ;.j.6XaXU P D F ;.j.6XaX$XE.w   CXCXCXCX",
"CXCXCXCX  $ n M iX:XB C MXBXvXxXiX:XB C MXBXvXxXuX*Xp   CXCXCXCX",
"CXCXCXCX  @ c b cX8XN V NXVXmXcXcX8XN V NXVXmXcXpX=Xa   CXCXCXCX",
"CXCXCXCXCXCX    rXtXzXcXcXcXcXcXcXcXcXcXcXzXtXrX    CXCXCXCXCXCX",
"CXCXCXCXCXCX    >X,X9XeXkXlXlXlXlXlXlXkXsXwX,X>X    CXCXCXCXCXCX",
"CXCXCXCXCXCX    ].`.w.t.#X%X%X%X%X%X%X#Xi.y.'.].        CXCXCXCX",
"CXCXCXCXCXCX7 7 u.r.X.3.~.(.(.(.(./.^.!.e.8.r.u.7 = o   CXCXCXCX",
"CXCXCXCX  7 ' @.9.*.E E 3.6.6.6.6.2.^ ~ ..o.o.O.@.( 6   CXCXCXCX",
"CXCXCXCX  7 { 7.7.*.Q W | X.X.X.X.} W W }  . . .*.[ 6   CXCXCXCX",
"CXCXCXCX  7 { 7.7.0.}.{.+.X.X.X.X.%.{.[.` / / / E T %   CXCXCXCX",
"CXCXCXCX  7 { 7.7.q..X X$.X.X.X.X.&. X|._ ! ! ! R Y %   CXCXCXCX",
"CXCXCXCX  y _.&X7.q..X|._ ! ! ! ! ] |.|._ ) W.).I.M.4   CXCXCXCX",
"CXCXCXCX  q R._.{ #.oXOX5.<.,.>.>.5.XXXX4.1.U.T.M.f.,   CXCXCXCX",
"CXCXCXCX  O q y 7 x qXbXjXhX5X3X3X4X0X0X4X@Xv 0 4 , X   CXCXCXCX",
"CXCXCXCX          k fXnXgXfX2X<X<X<X<X1XdX<Xj           CXCXCXCX",
"CXCXCXCXCXCXCXCX  j 1X2Xz s r r r r r l 1X<Xj   CXCXCXCXCXCXCXCX",
"CXCXCXCXCXCXCXCX  h +X+Xe             e +X+Xh   CXCXCXCXCXCXCXCX",
"CXCXCXCXCXCXCXCX  - A Z &   CXCXCXCX  & Z A -   CXCXCXCXCXCXCXCX",
"CXCXCXCXCXCXCXCX  * m m #   CXCXCXCX  # m m *   CXCXCXCXCXCXCXCX"
};
