/* XPM */
static char *result[] = {
/* columns rows colors chars-per-pixel */
"64 64 178 2 ",
"   c black",
".  c #010000",
"X  c #010100",
"o  c #010101",
"O  c #030202",
"+  c #030302",
"@  c gray1",
"#  c #030306",
"$  c #040404",
"%  c #090605",
"&  c #0A0706",
"*  c #0B0706",
"=  c #0B0806",
"-  c #0C0806",
";  c #0D0806",
":  c #040508",
">  c #050508",
",  c #0F0A08",
"<  c #0E0B09",
"1  c #0F0B09",
"2  c #0E0D0C",
"3  c #0F0E0D",
"4  c #120C09",
"5  c #100C0A",
"6  c #100D0C",
"7  c #100E0C",
"8  c #110F0E",
"9  c #141316",
"0  c #1C1714",
"q  c #231C1C",
"w  c #261E1E",
"e  c gray13",
"r  c #272423",
"t  c #2B2120",
"y  c #2F2422",
"u  c #2D2C2D",
"i  c #302D2C",
"p  c #352F2D",
"a  c #302F30",
"s  c #383635",
"d  c #3C3A39",
"f  c #6D4535",
"g  c #6E4635",
"h  c #734836",
"j  c #704D3B",
"k  c #7B503E",
"l  c #7B513F",
"z  c #79533F",
"x  c #7C513F",
"c  c #232749",
"v  c #25294C",
"b  c #262A4F",
"n  c #272B51",
"m  c #282C52",
"M  c #2A2E54",
"N  c #2B2F56",
"B  c #2C3056",
"V  c #2F335C",
"C  c #30345D",
"Z  c #3A3A5E",
"A  c #323760",
"S  c #3B3D62",
"D  c #3C3E63",
"F  c #3C3F64",
"G  c #383C69",
"H  c #3A3E68",
"J  c #383C6A",
"K  c #393D6B",
"L  c #3A3F6D",
"P  c #3E4166",
"I  c #3B406B",
"U  c #3B406E",
"Y  c #3C406E",
"T  c #3F436E",
"R  c #3E4370",
"E  c #3E4371",
"W  c #7B5440",
"Q  c #7D5544",
"!  c #454363",
"~  c #404573",
"^  c #464771",
"/  c #414674",
"(  c #424775",
")  c #484872",
"_  c #4D4F78",
"`  c #4E4F79",
"'  c #4C517F",
"]  c #825944",
"[  c #835A45",
"{  c #825A46",
"}  c #855B46",
"|  c #855D4C",
" . c #8B614B",
".. c #88614D",
"X. c #8B634F",
"o. c #93664F",
"O. c #986448",
"+. c #956750",
"@. c #936853",
"#. c #966851",
"$. c #976952",
"%. c #956A55",
"&. c #9D6F58",
"*. c #9E7059",
"=. c #A36C4E",
"-. c #B07454",
";. c #B7826B",
":. c #BB8E77",
">. c #BD9179",
",. c #BD917A",
"<. c #C0886C",
"1. c #C48B72",
"2. c #CF9274",
"3. c #4D5280",
"4. c #575782",
"5. c #575882",
"6. c #585883",
"7. c #595D8D",
"8. c #595E8D",
"9. c #5B608F",
"0. c #5C6190",
"q. c #5C6191",
"w. c #5D6292",
"e. c #5F6494",
"r. c #646893",
"t. c #666994",
"y. c #686B96",
"u. c #696C98",
"i. c #BCAA9E",
"p. c #BDABA2",
"a. c #C99980",
"s. c #CB9C82",
"d. c #CB9C83",
"f. c #CC9D84",
"g. c #DBA88C",
"h. c #D4AD9B",
"j. c #D6B09E",
"k. c #DDA1A4",
"l. c #DEA3A5",
"z. c #C7B4A7",
"x. c #CAB8AB",
"c. c #CAB8AE",
"v. c #CBB9AF",
"b. c #DEB5A2",
"n. c #DBB6A5",
"m. c #DFB7A4",
"M. c #CDBBB1",
"N. c #CEBBB2",
"B. c #CFBEB4",
"V. c #E8A7A7",
"C. c #E9AAA8",
"Z. c #E4BAA7",
"A. c #E6BDAA",
"S. c #E7BEAB",
"D. c #E3BFAD",
"F. c #E4BFB2",
"G. c #E5BFB2",
"H. c #D6C2B4",
"J. c #D7C3B5",
"K. c #D7C5B7",
"L. c #DAC7BC",
"P. c #DBC9BE",
"I. c #E9C2AF",
"U. c #E5C1B3",
"Y. c #EFC7B4",
"T. c #F1C8B7",
"R. c #F1CAB7",
"E. c #F2CBB8",
"W. c #F1CDBB",
"Q. c #F3CFBD",
"!. c #DECCC2",
"~. c #E7D3C4",
"^. c #E8D4C5",
"/. c #F5EFED",
"(. c #F5F2F1",
"). c #FEFBFA",
"_. c white",
"`. c None",
/* pixels */
"`.`.`.`.`.`.`.`.`.`.`.`.`.`.`.`.                                                                        `.`.`.`.`.`.`.`.`.`.`.`.",
"`.`.`.`.`.`.`.`.`.`.`.`.`.`.`.`.                                                                        `.`.`.`.`.`.`.`.`.`.`.`.",
"`.`.`.`.`.`.`.`.`.`.`.`.`.`.`.`.                                                                        `.`.`.`.`.`.`.`.`.`.`.`.",
"`.`.`.`.`.`.`.`.`.`.`.`.`.`.`.`.= = = = = = = = = = = = = = = = = = = = = = = = = = = & X       * * * * `.`.`.`.`.`.`.`.`.`.`.`.",
"`.`.`.`.`.`.`.`.`.`.`.`.        @.@.@.@.@.@.@.@.@.@.@.@.@.@.@.@.@.@.@.@.@.@.@.@.@.@.@...&        . . .{ *       `.`.`.`.`.`.`.`.",
"`.`.`.`.`.`.`.`.`.`.`.`.        *.*.*.*.*.*.*.*.*.*.*.*.*.*.*.*.*.*.*.*.*.*.*.*.*.*.*.@.=       #.#.#. .*       `.`.`.`.`.`.`.`.",
"`.`.`.`.`.`.`.`.`.`.`.`.        *.*.*.*.*.*.*.*.*.*.*.*.*.*.*.*.*.*.*.*.*.*.*.*.*.*.*.@.=       #.#.#. .*       `.`.`.`.`.`.`.`.",
"`.`.`.`.`.`.`.`.`.`.`.`.        *.*.*.*.*.*.*.*.*.*.*.*.*.*.*.*.*.*.*.*.*.*.*.*.*.*.*.@.=       #.#.#. .*       `.`.`.`.`.`.`.`.",
"`.`.`.`.`.`.`.`.      = @.*.*.*.*.*.*.&.$.#.#.#.*.*.*.&.$.#.#.#.#.#.#.#.#.#.#.#.#.#.#.#.#.#.#.#.#.#.#.+.[ ] ] ]         `.`.`.`.",
"`.`.`.`.`.`.`.`.      = @.*.*.*.*.*.*.&.$.#.#.#.*.*.*.&.$.#.#.#.#.#.#.#.#.#.#.#.#.#.#.#.#.#.#.#.#.#.#.+.[ ] ] ]         `.`.`.`.",
"`.`.`.`.`.`.`.`.      = @.*.*.*.*.*.*.&.$.#.#.#.*.*.*.&.$.#.#.#.#.#.#.#.#.#.#.#.#.#.#.#.#.#.#.#.#.#.#.+.[ ] ] ]         `.`.`.`.",
"`.`.`.`.`.`.`.`.      = @.*.*.*.&.&.&.&.$.#.#.#.&.&.&.&.$.#.#.#.#.#.#.#.#.#.#.#.#.#.#.#.#.#.#.#.+.+.+.o.W z z z         `.`.`.`.",
"`.`.`.`.`.`.`.`.      = @.*.*.*.$.$.$.$.#.#.#.#.$.$.$.$.#.#.#.#.#.#.#.#.#.#.#.#.#.#.#.#.#.#.#.#.[ [ [ W 4 % % %         `.`.`.`.",
"`.`.`.`.`.`.`.`.      = @.*.*.*.#.#.#.#.#.#.#.#.#.#.#.#.#.#.#.#.#.#.#.#.#.#.#.#.#.#.#.#.#.#.#.#.] ] ] z %               `.`.`.`.",
"`.`.`.`.`.`.`.`.      = @.*.*.*.#.#.#.#.#.#.#.#.#.#.#.#.#.#.#.#.#.#.#.#.#.#.#.#.#.#.#.#.#.#.#.#.] ] ] z %               `.`.`.`.",
"`.`.`.`.`.`.`.`.      = @.*.*.*.#.#.#.#.#.#.#.#.#.#.#.#.#.#.#.#.#.#.#.#.#.#.#.#.#.#.#.#.#.#.#.#.] ] ] z %               `.`.`.`.",
"`.`.`.`.        *.*.*.*.*.*.*.*.#.#.#.#.#.#.#.#.#.#.#.#.#.#.#.#.#.#.#.#.#.#.#.#.#.#.#.#.#.#.#.#.] ] ] z %       `.`.`.`.`.`.`.`.",
"`.`.`.`.        *.*.*.*.*.*.*.*.#.#.#.#.#.#.#.#.#.#.#.#.#.#.#.#.#.#.#.#.#.#.#.#.#.#.#.#.#.#.#.#.] ] ] z %       `.`.`.`.`.`.`.`.",
"`.`.`.`.        *.*.*.*.*.*.*.*.#.#.#.#.#.#.#.#.#.#.#.#.#.#.#.#.#.#.#.#.#.#.#.#.#.#.#.#.#.#.#.#.] ] ] z %       `.`.`.`.`.`.`.`.",
"`.`.`.`.        *.*.*.*.*.*.*.*.$.$.$.$.#.#.#.#.#.#.#.#.#.#.#.#.#.#.#.#.#.#.#.#.#.#.#.#.+.+.+.+.z z z j %       `.`.`.`.`.`.`.`.",
"`.`.`.`.        *.*.*.*.*.*.*.*.&.&.&.&.$.#.#.#.#.#.#.#.#.#.#.#.#.#.#.#.#.#.#.#.#.#.#.+.} [ [ [ % % % % .       `.`.`.`.`.`.`.`.",
"`.`.`.`.        *.*.*.*.*.*.*.*.*.*.*.&.$.#.#.#.#.#.#.#.#.#.#.#.#.#.#.#.#.#.#.#.#.#.#.+.[ ] ] ]                 `.`.`.`.`.`.`.`.",
"`.`.`.`.        *.*.*.*.*.*.*.*.*.*.*.&.$.#.#.#.#.#.#.#.#.#.#.#.#.#.#.#.#.#.#.#.#.#.#.+.[ ] ] ]                 `.`.`.`.`.`.`.`.",
"`.`.`.`.        *.*.*.*.*.*.*.*.*.*.*.&.$.#.#.#.#.#.#.#.#.#.#.#.#.#.#.#.#.#.#.#.#.#.#.+.[ ] ] ]                 `.`.`.`.`.`.`.`.",
"`.`.`.`.              = @.*.*.*.h h h h h h h h h h h k b.A.A.A.h h h h h h h h h h h k b.A.A.A.a.a.a.:.<       `.`.`.`.`.`.`.`.",
"`.`.`.`.              = @.*.*.*.h h h h h h h h h h h k b.A.A.A.h h h h h h h h h h h k b.A.A.A.a.a.a.:.<       `.`.`.`.`.`.`.`.",
"`.`.`.`.              = @.*.*.*.h h h h h h h h h h h k b.A.A.A.h h h h h h h h h h h k b.A.A.A.a.a.a.:.<       `.`.`.`.`.`.`.`.",
"`.`.`.`.              = X.%.%.%.x x x l g f f f Q Q Q | m.S.S.S.x x x l g f f f Q Q Q | m.S.S.S.d.d.d.,.1       `.`.`.`.`.`.`.`.",
"`.`.`.`.`.`.`.`.      + t y y y I.I.I.n.p r r r (.(.(./.W.R.R.R.I.I.I.n.p r r r (.(.(./.W.R.R.R.Z.Z.Z.h.6       `.`.`.`.`.`.`.`.",
"`.`.`.`.`.`.`.`.      O q w w w E.E.E.D.i e e e _._._.).Q.E.E.E.E.E.E.D.i e e e _._._.).Q.E.E.E.A.A.A.j.7       `.`.`.`.`.`.`.`.",
"`.`.`.`.`.`.`.`.      O q w w w E.E.E.D.i e e e _._._.).Q.E.E.E.E.E.E.D.i e e e _._._.).Q.E.E.E.A.A.A.j.7       `.`.`.`.`.`.`.`.",
"`.`.`.`.`.`.`.`.      O q w w w E.E.E.D.i e e e _._._.).Q.E.E.E.E.E.E.D.i e e e _._._.).Q.E.E.E.A.A.A.j.7       `.`.`.`.`.`.`.`.",
"`.`.`.`.`.`.`.`.`.`.`.`.        V.V.V.C.T.E.E.E.E.E.E.E.E.E.E.E.E.E.E.E.E.E.E.E.E.E.E.T.C.V.V.V.        `.`.`.`.`.`.`.`.`.`.`.`.",
"`.`.`.`.`.`.`.`.`.`.`.`.        V.V.V.C.T.E.E.E.E.E.E.E.E.E.E.E.E.E.E.E.E.E.E.E.E.E.E.T.C.V.V.V.        `.`.`.`.`.`.`.`.`.`.`.`.",
"`.`.`.`.`.`.`.`.`.`.`.`.        V.V.V.C.T.E.E.E.E.E.E.E.E.E.E.E.E.E.E.E.E.E.E.E.E.E.E.T.C.V.V.V.        `.`.`.`.`.`.`.`.`.`.`.`.",
"`.`.`.`.`.`.`.`.`.`.`.`.        k.k.k.l.F.U.U.U.Y.Y.Y.Y.Y.Y.Y.Y.Y.Y.Y.Y.Y.Y.Y.Y.U.U.U.G.l.k.k.k.        `.`.`.`.`.`.`.`.`.`.`.`.",
"`.`.`.`.`.`.`.`.`.`.`.`.        6.6.6.4.) ^ ^ ^ f.f.f.f.f.f.f.f.f.f.f.f.f.f.f.f._ _ _ ` 5.6.6.6.                `.`.`.`.`.`.`.`.",
"`.`.`.`.`.`.`.`.`.`.`.`.        3.3.3.' L K K K a.a.a.a.a.a.a.a.a.a.a.a.a.a.a.a.~ ~ ~ / ' 3.3.3.                `.`.`.`.`.`.`.`.",
"`.`.`.`.`.`.`.`.`.`.`.`.        3.3.3.' L K K K a.a.a.a.a.a.a.a.a.a.a.a.a.a.a.a.~ ~ ~ / ' 3.3.3.                `.`.`.`.`.`.`.`.",
"`.`.`.`.`.`.`.`.`.`.`.`.        3.3.3.' L K K K a.a.a.a.a.a.a.a.a.a.a.a.a.a.a.a.~ ~ ~ / ' 3.3.3.                `.`.`.`.`.`.`.`.",
"`.`.`.`.`.`.`.`.      > I ~ ~ ~ ~ ~ ~ R m b b b K K K K K K K K K K K G n b b b K K K K K K K K ~ ~ ~ I >       `.`.`.`.`.`.`.`.",
"`.`.`.`.`.`.`.`.      > I ~ ~ ~ ~ ~ ~ R m b b b K K K K K K K K K K K G n b b b K K K K K K K K ~ ~ ~ I >       `.`.`.`.`.`.`.`.",
"`.`.`.`.`.`.`.`.      > I ~ ~ ~ ~ ~ ~ R m b b b K K K K K K K K K K K G n b b b K K K K K K K K ~ ~ ~ I >       `.`.`.`.`.`.`.`.",
"`.`.`.`.`.`.`.`.      > I ~ ~ ~ ~ ~ ~ E B M M M K K K K K K K K K K K G N M M M J J J J J J J J R R R H :       `.`.`.`.`.`.`.`.",
"`.`.`.`.`.`.`.`.      > I ~ ~ ~ ~ ~ ~ ( 8.9.9.9.K K K K K K K K K K K U 7.9.9.9.C C C C C C C C m m m v #       `.`.`.`.`.`.`.`.",
"`.`.`.`.`.`.`.`.      > I ~ ~ ~ ~ ~ ~ ( w.e.e.e.K K K K K K K K K K K Y q.e.e.e.V V V V V V V V b b b c #       `.`.`.`.`.`.`.`.",
"`.`.`.`.`.`.`.`.      > I ~ ~ ~ ~ ~ ~ ( w.e.e.e.K K K K K K K K K K K Y q.e.e.e.V V V V V V V V b b b c #       `.`.`.`.`.`.`.`.",
"`.`.`.`.`.`.`.`.      > I ~ ~ ~ ~ ~ ~ ( w.e.e.e.K K K K K K K K K K K Y q.e.e.e.V V V V V V V V b b b c #       `.`.`.`.`.`.`.`.",
"`.`.`.`.`.`.`.`.      5 s.g.g.g.~ ~ ~ ( w.e.e.e.V V V V V V V V V V V A 0.e.e.e.V V V Z 1.2.2.2.-.-.-.=.;       `.`.`.`.`.`.`.`.",
"`.`.`.`.`.`.`.`.      5 s.g.g.g.~ ~ ~ ( w.e.e.e.V V V V V V V V V V V A 0.e.e.e.V V V Z 1.2.2.2.-.-.-.=.;       `.`.`.`.`.`.`.`.",
"`.`.`.`.`.`.`.`.      5 s.g.g.g.~ ~ ~ ( w.e.e.e.V V V V V V V V V V V A 0.e.e.e.V V V Z 1.2.2.2.-.-.-.=.;       `.`.`.`.`.`.`.`.",
"`.`.`.`.`.`.`.`.      1 >.s.s.s.I I I T t.u.u.u.F F F D S S S S S S S P r.y.y.y.S S S ! ;.<.<.<.=.=.=.O.-       `.`.`.`.`.`.`.`.",
"`.`.`.`.`.`.`.`.      o 1 5 5 5 > > > 9 B.!.!.!.P.P.P.L.v.c.c.c.c.c.c.c.M.N.N.N.c.c.c.p.0 , , , ; ; ; - X       `.`.`.`.`.`.`.`.",
"`.`.`.`.`.`.`.`.                      8 K.^.^.^.^.^.^.~.J.H.H.H.H.H.H.H.H.H.H.H.H.H.H.z.3                       `.`.`.`.`.`.`.`.",
"`.`.`.`.`.`.`.`.                      8 K.^.^.^.^.^.^.~.J.H.H.H.H.H.H.H.H.H.H.H.H.H.H.z.3                       `.`.`.`.`.`.`.`.",
"`.`.`.`.`.`.`.`.                      8 K.^.^.^.^.^.^.~.J.H.H.H.H.H.H.H.H.H.H.H.H.H.H.z.3                       `.`.`.`.`.`.`.`.",
"`.`.`.`.`.`.`.`.`.`.`.`.`.`.`.`.      3 z.H.H.H.                                H.H.H.z.3       `.`.`.`.`.`.`.`.`.`.`.`.`.`.`.`.",
"`.`.`.`.`.`.`.`.`.`.`.`.`.`.`.`.      3 z.H.H.H.                                H.H.H.z.3       `.`.`.`.`.`.`.`.`.`.`.`.`.`.`.`.",
"`.`.`.`.`.`.`.`.`.`.`.`.`.`.`.`.      3 z.H.H.H.                                H.H.H.z.3       `.`.`.`.`.`.`.`.`.`.`.`.`.`.`.`.",
"`.`.`.`.`.`.`.`.`.`.`.`.`.`.`.`.      2 i.x.x.x.                                x.x.x.i.2       `.`.`.`.`.`.`.`.`.`.`.`.`.`.`.`.",
"`.`.`.`.`.`.`.`.`.`.`.`.`.`.`.`.      $ s d d d         `.`.`.`.`.`.`.`.        d d d s $       `.`.`.`.`.`.`.`.`.`.`.`.`.`.`.`.",
"`.`.`.`.`.`.`.`.`.`.`.`.`.`.`.`.      @ u a a a         `.`.`.`.`.`.`.`.        a a a u @       `.`.`.`.`.`.`.`.`.`.`.`.`.`.`.`.",
"`.`.`.`.`.`.`.`.`.`.`.`.`.`.`.`.      @ u a a a         `.`.`.`.`.`.`.`.        a a a u @       `.`.`.`.`.`.`.`.`.`.`.`.`.`.`.`.",
"`.`.`.`.`.`.`.`.`.`.`.`.`.`.`.`.      @ u a a a         `.`.`.`.`.`.`.`.        a a a u @       `.`.`.`.`.`.`.`.`.`.`.`.`.`.`.`."
};
