/* XPM */
static char *result[] = {
/* columns rows colors chars-per-pixel */
"32 32 200 2 ",
"   c black",
".  c #010101",
"X  c #020101",
"o  c #020202",
"O  c #030202",
"+  c #020203",
"@  c gray1",
"#  c #050302",
"$  c #010402",
"%  c #060403",
"&  c #020204",
"*  c #020205",
"=  c #040304",
"-  c #040305",
";  c #040404",
":  c gray2",
">  c #070504",
",  c #060606",
"<  c #070707",
"1  c #0A0706",
"2  c gray3",
"3  c gray4",
"4  c #0B0B0B",
"5  c #090D0A",
"6  c gray6",
"7  c #141210",
"8  c #231C1C",
"9  c #241D1D",
"0  c #251D1D",
"q  c #261E1E",
"w  c #271F1E",
"e  c #261F1F",
"r  c #271F1F",
"t  c #281F1E",
"y  c #28201F",
"u  c #2A201F",
"i  c #261F20",
"p  c #202020",
"a  c gray13",
"s  c #222222",
"d  c gray14",
"f  c #262525",
"g  c gray15",
"h  c #2A2020",
"j  c #2A2120",
"k  c #2B2120",
"l  c #2A2121",
"z  c #2A2222",
"x  c #2B2222",
"c  c #2A2323",
"v  c #2D2A29",
"b  c #2D2B2A",
"n  c #2C2A2C",
"m  c #2D2B2D",
"M  c #2E2C2E",
"N  c #2F2D2F",
"B  c #2F2E2F",
"V  c #362929",
"C  c #36292B",
"Z  c #382A2A",
"A  c #382A2B",
"S  c #382A2C",
"D  c #392C2C",
"F  c #3D2E2D",
"G  c #3D2E2E",
"H  c #302E30",
"J  c #302F30",
"K  c #323032",
"L  c #3F3D3F",
"P  c #4A291B",
"I  c #4A291D",
"U  c #4A2A1D",
"Y  c #4A2A1E",
"T  c #4C2B1D",
"R  c #4C2C1F",
"E  c #0C6323",
"W  c #0C6624",
"Q  c #166A2C",
"!  c #166D2E",
"~  c #744C38",
"^  c #764D39",
"/  c #784E39",
"(  c #7A4F3A",
")  c #2E325A",
"_  c #2F335A",
"`  c #2F335C",
"'  c #30345D",
"]  c #353963",
"[  c #373B66",
"{  c #373B67",
"}  c #3A3C67",
"|  c #373B68",
" . c #393C68",
".. c #3A3D68",
"X. c #383C6A",
"o. c #393D6B",
"O. c #3D3E69",
"+. c #3E3F6A",
"@. c #3A3E6C",
"#. c #403E40",
"$. c #434143",
"%. c #4B494B",
"&. c #4B4A4B",
"*. c #4C4A4C",
"=. c #4D4B4D",
"-. c #4E4C4E",
";. c #4F4D4F",
":. c #4D507D",
">. c #4E507E",
",. c #696869",
"<. c #6E6D6E",
"1. c gray43",
"2. c #737273",
"3. c #797979",
"4. c #7B7A7B",
"5. c #7B7B7B",
"6. c #7D7C7C",
"7. c gray49",
"8. c gray50",
"9. c #FF7F27",
"0. c #9B6953",
"q. c #9E6A53",
"w. c #9F6B53",
"e. c #9D6A54",
"r. c #A16A4D",
"t. c #A36E55",
"y. c #A06D56",
"u. c #A16D56",
"i. c #A86F50",
"p. c #AA7052",
"a. c #AB7052",
"s. c #AB7359",
"d. c #AC745A",
"f. c #B07454",
"g. c #B17454",
"h. c #B37655",
"j. c #B97A57",
"k. c #BA7B59",
"l. c #FE802A",
"z. c #FF832D",
"x. c #FE8430",
"c. c #BA8165",
"v. c #BB8367",
"b. c #C1896D",
"n. c #C68C6F",
"m. c #C88D70",
"M. c #C88E72",
"N. c #CA8F72",
"B. c #CD9173",
"V. c #CF9274",
"C. c #D09376",
"Z. c #D2997B",
"A. c #D49A7C",
"S. c #D49B7D",
"D. c #4D5180",
"F. c #4D5181",
"G. c #4E5282",
"H. c #525380",
"J. c #808080",
"K. c #848484",
"L. c gray58",
"P. c #9A9A9A",
"I. c gray63",
"U. c #A2A2A2",
"Y. c #BBBBBB",
"T. c gray74",
"R. c #D69F9E",
"E. c #D69F9F",
"W. c #D7A284",
"Q. c #D4A388",
"!. c #D5A388",
"~. c #D4A389",
"^. c #DAA68A",
"/. c #DAA78B",
"(. c #DDA688",
"). c #DBA88C",
"_. c #DBA88D",
"`. c #D7A09F",
"'. c #D7A0A0",
"]. c #DEA5A4",
"[. c #DEA5A5",
"{. c #C0C0C0",
"}. c gray76",
"|. c #C3C3C3",
" X c #C5C5C5",
".X c #DDDDDD",
"XX c #E1E1E1",
"oX c #E4E4E4",
"OX c #E7E7E7",
"+X c gray91",
"@X c gray92",
"#X c #F8F3EF",
"$X c #F1F1F1",
"%X c #F7F9F7",
"&X c #FFFAF6",
"*X c #F8F8F8",
"=X c #F8FBF9",
"-X c #FDFDFD",
";X c white",
":X c None",
/* pixels */
":X:X:X:X:X:X:X:X                                :X:X:X:X:X:X:X:X",
":X:X:X:X:X:X:X:X* * * * * * * * * * * * * &     :X:X:X:X:X:X:X:X",
":X:X:X:X:X:X    | | | | | | | | | | | | | ] +       :X:X:X:X:X:X",
":X:X:X:X:X:X    o.o.o.o.o.o.o.o.o.o.o.o.o.[ +       :X:X:X:X:X:X",
":X:X:X:X:X:X    G.F.@.o.G.F.@.o.G.F.@.o.G.D.' `     :X:X:X:X:X:X",
":X:X:X:X:X:X    G.F.@.o.G.F.@.o.G.F.@.o.G.D.' `     :X:X:X:X:X:X",
":X:X            G.F.@.o.G.F.@.o.G.F.@.o.G.D.' `     :X:X:X:X:X:X",
":X:X            G.F.@.o.G.F.@.o.G.F.@.o.G.D.' `     :X:X:X:X:X:X",
"  * | o.o.o.o.o.G.F.@.o.G.G.G.G.o.o.o.o.o.X.` `     :X:X:X:X:X:X",
"  * ] [ [ {  . .>.:...} H.H.>.>.} } } } +.O._ )     :X:X:X:X:X:X",
":X:X+ + + - C S Y Y U I u.e.R Y I I I I y.0.l i         :X:X:X:X",
":X:X      o V Z P P P P t.w.T P P P P P t.q.h q         :X:X:X:X",
"|.|.:X:X  o V Z   2 T.|.c.c.c.c.  2 T.|.V.m.k q q 9 .       :X:X",
"|.|.:X:X  o V Z $ 5 {. Xv.v.v.v.$ 5 {. XC.M.k q u t O X     :X:X",
":X:X:X:X  o V Z E Q %X-X/./././.E Q %X-X].R.x q / ~ w 0     :X:X",
":X:X:X:X  o V Z W ! =X;X).).).).W ! =X;X[.E.x q ( ^ y q     :X:X",
"|.Y.,   Z Z Z Z [.]._.).).).).).S.A.V.V.f.g.j.j.q q q q         ",
"|.Y.,   Z Z Z Z '.`.~.Q.^.^.^.^.Z.Z.B.B.p.a.h.h.q q q q X X     ",
"|.Y.,   Z Z Z Z G G F F k.k.k.k.d.d.d.d.h h j j q q q q 0 8 .   ",
"|.Y.,   Z Z Z Z Z Z Z Z j.j.j.j.s.s.s.s.q q q q q q q q q 9 .   ",
"|.|.:X:X  o V Z ;.&.o   #.#.#.#.#.L r q g g g g q q q q q 9 .   ",
"}.}.:X:X  o A D -.%.2 : #.#.#.#.#.L c z g g g g e e q q 9 8 .   ",
"U.U.:X:X  = *.-.N K 3.5.#.#.#.#.#.$.4.6.g g g g g f q q . .     ",
"I.I.:X:X  ; =.;.M K 7.8.#.#.#.#.#.$.7.8.g g g g g f q q         ",
"I.P.:     1 !.).M K 7.8.a s M M M K 7.8.g b N.V.f.i.#   :X:X:X:X",
"P.L.6 4 4 7 W.(.n B 3.5.s s M M M K 3.5.g v b.n.i.r.#   :X:X:X:X",
": 6 $X*X*X#Xx.l.. @ N H J J J J J B d d a p > % # #     :X:X:X:X",
"  4 *X;X;X&Xz.9.  o m M J J J J J B a a a p .           :X:X:X:X",
"                  : 5.8.                <.,.@   :X:X:X:X:X:X:X:X",
"                  , J.K.                2.1.@   :X:X:X:X:X:X:X:X",
":X:X:X:X:X:X:X:X  3 XX+X    :X:X:X:X    OX.X<   :X:X:X:X:X:X:X:X",
":X:X:X:X:X:X:X:X  3 oX@X    :X:X:X:X    @XXX<   :X:X:X:X:X:X:X:X"
};
