/* XPM */
static char *result[] = {
/* columns rows colors chars-per-pixel */
"32 32 38 1 ",
"  c #010000",
". c #302831",
"X c #782B01",
"o c #A90100",
"O c #EC1C25",
"+ c #FE0133",
"@ c #C25B23",
"# c #B77B57",
"$ c #B97A57",
"% c #B57C5C",
"& c #B97A58",
"* c #F75B63",
"= c #FEF301",
"- c #B88F78",
"; c #858C97",
": c #858E9A",
"> c #87919B",
", c #8A949E",
"< c #8C96A1",
"1 c #8E99A2",
"2 c #929CA5",
"3 c #959EA9",
"4 c #97A0A9",
"5 c #9EA6AF",
"6 c #A5ACB2",
"7 c #A9B1B6",
"8 c #ACB3BB",
"9 c #B1B6BE",
"0 c #B1B8BF",
"q c #B4BBC2",
"w c #BABFC5",
"e c #BCC2C6",
"r c #BEC3C9",
"t c #C1C6CB",
"y c #C4CACE",
"u c #C6CDD1",
"i c #D1D5D7",
"p c #D4D7DB",
/* pixels */
"p800qq000q90q-wqw00qq8qqqqqqwqqu",
"y12,1                     222:17",
"t>1,1 +o++++.$XX$@ +++o++ ,,<:17",
"t<2,1 +o+++.$####$$ ++oo+ <,<:<8",
"t4424 ++++ $$$$#$&$@ ++++ <:<;<7",
"u422< o+++ $$$$$$$$@ ++++ 22221q",
"t2,,1 +++ @$$$$$$$$$$ ++o 3<<218",
"y4,12 +++ @$$$$$$$$%@@ ++ 3;<228",
"r2,<1 ++ &#$$$$$$*$#%@.++ <11<<8",
"e,<<1 o+ @##$$$****##@.++ 1<<:18",
"r22<1 ++ @$#$$#$**$#$$$++ 21<:18",
"w1121 + @@$$$$$$$$$$$$$ + 111<28",
"r2422 + *$$#$$*$**$*$$* + 33212q",
"e3411 + *$$*$**$**&**$* + 111<<8",
"w,<21 + *#**$**$**$**** + <1<<18",
"e1<24 + *$**$*$$**#*$** + 1<1>10",
"w<<<< + $**$**$$**$*#$* + 2,2:18",
"w:,,< + $$$$$$$$&$$$##$ + 122><8",
"t1<<1 + $$$$$$$$@#$===X + 222:,8",
"r<<<2 + $$$$$$$#$$$$O=$ + ,,,:<8",
"r1231 + $$$$$$$&$$$$$$$ + <<1,28",
"r1121 + $$@@@@XXXX@$$$$ + 144,28",
"r<<<1 ++ $$@@@&&$$@@@$  + 211,<8",
"r<><2 ++ $$$$$@@@@$$&$ ++ 111>18",
"e<1<> ++ X&$$@@@@$$$#- +o 11,:,8",
"r2211 ++ #X@@@$$@@@@@ ++o 1<1,18",
"e<<11 o++.$@$##$$$$#@ +++ 11,,28",
"r,1<< o+++.X&$$$$$$$ ++++ 11,,27",
"t3422 ++++.&#X$$X$$$ ++++ 1,1,,8",
"u411< ++o++.$X$#X$  ++o++ 111,,0",
"u2<,1 ++o+++...    +++o++ 2,,118",
"i8667        .....        85678e"
};
