/* XPM */
static char *result[] = {
/* columns rows colors chars-per-pixel */
"32 32 191 2 ",
"   c #3D3937",
".  c #3F3A37",
"X  c #3A3A3A",
"o  c gray23",
"O  c #3C3A3A",
"+  c #3C3B3A",
"@  c #671C18",
"#  c #7E1C17",
"$  c #7E1D18",
"%  c #463A35",
"&  c #4A3C34",
"*  c #543D34",
"=  c #553D34",
"-  c #5A3E33",
";  c #54463E",
":  c #57483F",
">  c #794E39",
",  c #7A4F3A",
"<  c #3F3F40",
"1  c #414141",
"2  c #525253",
"3  c #535354",
"4  c #575758",
"5  c #585859",
"6  c #58585A",
"7  c #5A5A5C",
"8  c #755544",
"9  c #795745",
"0  c #5E5E60",
"q  c #5F5F61",
"w  c #606062",
"e  c #636366",
"r  c #656668",
"t  c #68696C",
"y  c #6C6C6D",
"u  c #6A6C73",
"i  c #6D6E71",
"p  c #727273",
"a  c #727274",
"s  c #73747A",
"d  c #767779",
"f  c #74767C",
"g  c #78797C",
"h  c #7A7A7D",
"j  c #911F18",
"k  c #95201A",
"l  c #96231C",
"z  c #9A231D",
"x  c #9B251F",
"c  c #942720",
"v  c #962B25",
"b  c #9F2D27",
"n  c #9D312B",
"m  c #8A3B37",
"M  c #A12822",
"N  c #A22A24",
"B  c #A32D26",
"V  c #A22D27",
"C  c #A32E27",
"Z  c #A8312A",
"A  c #A33B36",
"S  c #8D433F",
"D  c #86563F",
"F  c #B2413B",
"G  c #C5463E",
"H  c #875740",
"J  c #AC4F4A",
"K  c #B24741",
"L  c #B04B45",
"P  c #BA4943",
"I  c #BD4841",
"U  c #BF4C46",
"Y  c #B44D48",
"T  c #B7544E",
"R  c #B8534D",
"E  c #BD534D",
"W  c #B45854",
"Q  c #9E6648",
"!  c #A0684A",
"~  c #816364",
"^  c #836464",
"/  c #826565",
"(  c #866D6D",
")  c #B96763",
"_  c #B16A67",
"`  c #AF7E7F",
"'  c #B87D7B",
"]  c #C24A43",
"[  c #C64840",
"{  c #C24B44",
"}  c #C34C45",
"|  c #C74C45",
" . c #C74D46",
".. c #C34F48",
"X. c #C7524C",
"o. c #C8524B",
"O. c #CE534C",
"+. c #C9554E",
"@. c #D1534C",
"#. c #CC5E57",
"$. c #CA5F59",
"%. c #D65952",
"&. c #CB645F",
"*. c #C36C67",
"=. c #C7706C",
"-. c #DE716B",
";. c #C47470",
":. c #C77672",
">. c #C97A75",
",. c #CA7D78",
"<. c #D27A75",
"1. c #D07B77",
"2. c #D47D77",
"3. c #DB837F",
"4. c #7D7E80",
"5. c #7F7F82",
"6. c #7A7C85",
"7. c #7C7D85",
"8. c #7C7D86",
"9. c #7C7E87",
"0. c #837980",
"q. c #7E8088",
"w. c #828285",
"e. c #808188",
"r. c #858588",
"t. c #85878C",
"y. c #84868E",
"u. c #89838A",
"i. c #908B8E",
"p. c #908C8F",
"a. c #8D8D90",
"s. c #919193",
"d. c #96979B",
"f. c #93949E",
"g. c #999A9C",
"h. c #9C9C9E",
"j. c #9E9FA3",
"k. c #9A9BA5",
"l. c #9B9DA6",
"z. c #A1A1A6",
"x. c #A1A3AC",
"c. c #A2A3AD",
"v. c #A6A7AE",
"b. c #A8A9AD",
"n. c #A8A9AF",
"m. c #A9AAAE",
"M. c #AAAAAE",
"N. c #B6B3B5",
"B. c #B5B3B6",
"V. c #B6B7BC",
"C. c #B9BABD",
"Z. c #C58685",
"A. c #C59191",
"S. c #C59A99",
"D. c #C7999A",
"F. c #C8A6A6",
"G. c #CCA9AA",
"H. c #CCAEB0",
"J. c #CAB2B4",
"K. c #CCB7BA",
"L. c #CDBABC",
"P. c #CCBCBF",
"I. c #D1BDBF",
"U. c #E5B6B3",
"Y. c #E9C1BF",
"T. c #BDBEC2",
"R. c #C0BFC3",
"E. c #C5BCC1",
"W. c #C4BDC3",
"Q. c #C6BDC3",
"!. c #C4BEC3",
"~. c #C2C3C5",
"^. c #C3C1C6",
"/. c #C6C4C7",
"(. c #C4C4C8",
"). c #C7C7CA",
"_. c #C7C7CB",
"`. c #C8C4C8",
"'. c #C9C4C8",
"]. c #D2C7C9",
"[. c #D2CACD",
"{. c #D1D2D6",
"}. c #ECD3D1",
"|. c #EFDBDA",
" X c #F2DDDC",
".X c #F3E1E0",
"XX c #FBF4F3",
"oX c #FCF7F6",
"OX c #FEFCFC",
"+X c white",
"@X c None",
/* pixels */
"@X@X@X@X@X@X@X@X@X@X@X@X@X@X@X@X@X@X@X@X@X@X@X@X@X@X@X@X@X@X@X@X",
"@X@X@X@X@X@X@X@X@X@X@X@X@X@X@X@X@X@X@X@X@X@X@X@X@X@X@X@X@X@X@X@X",
"@X@X@X@X@X@X@X@X@X@X@X@X@X@X@X@X@X@X@X@X@X@X@X@X@X@X@X@X@X@X@X@X",
"@X@X@X@X@X@X@X@X@X@X@X@X@X@X@X@X@X@X@X@X@X@X@X@X@X@X@X@X@X@X@X@X",
"@X@X@X@X@X@X@X@X@X@X@X@X@X@X@X; : @X@X@X@X@X@X@X@X@X@X@X@X@X@X@X",
"@X@X@X@X@X@X@X@X@X@X@X@X@X  8 Q ! 9 . @X@X@X@X@X@X@X@X@X@X@X@X@X",
"@X@X@X@X@X@X@X@X@X@X@X@X@X% > D H , & @X@X@X@X@X@X@X@X@X@X@X@X@X",
"@X@X@X@X@X@X@X@X@X@X@X@XX + * - - = O o @X@X@X@X@X@X@X@X@X@X@X@X",
"@X@X@X@X@X@X@X@X@X@X@X@XC.{.{.{.{.{.{.T.@X@X@X@X@X@X@X@X@X@X@X@X",
"@X@X@X@X@X@X@X@X@X@X@X@X7.x.l.f.f.k.c.e.@X@X@X@X@X@X@X@X@X@X@X@X",
"@X@X@X@X@X@X@X@X@X@X@X@Xa M.f u s t.b.h @X@X@X@X@X@X@X@X@X@X@X@X",
"@X@X@X@X@X@X@X@X@X@X@X3 (.n.q.9.y.V.v._.6 @X@X@X@X@X@X@X@X@X@X@X",
"@X@X@X@X@X@X@X@X@X@X@Xr.'.u.8.6.0.` Z.I.a.@X@X@X@X@X@X@X@X@X@X@X",
"@X@X@X@X@X@X@X@X@X@Xw ^.1.O.o.X.@.%.-.3.`.r @X@X@X@X@X@X@X@X@X@X",
"@X@X@X@X@X@X@X@X@X@Xd.H.+.| [ G G [  .#.G.j.@X@X@X@X@X@X@X@X@X@X",
"@X@X@X@X@X@X@X@X@Xt W.:.} ] <.&.$.2.{ ..=.E.i @X@X@X@X@X@X@X@X@X",
"@X@X@X@X@X@X@X@X@Xe !.;.U U.+XOXOX+XY.I *.Q.t @X@X@X@X@X@X@X@X@X",
"@X@X@X@X@X@X@X@X@X@Xz.D.E  X+X+X+X+X.XP A.m.@X@X@X@X@X@X@X@X@X@X",
"@X@X@X@X@X@X@X@X@X@Xg P.R >.XX+X+XoX,.F K.5.@X@X@X@X@X@X@X@X@X@X",
"@X@X@X@X@X@X@X@X@X@X7 R.) K Y }.|.T Z W /.q @X@X@X@X@X@X@X@X@X@X",
"@X@X@X@X@X@X@X@X@X@X@Xs.F.L N B C M V S.g.@X@X@X@X@X@X@X@X@X@X@X",
"@X@X@X@X@X@X@X@X@X@X@Xy [.J b z z x A ].p @X@X@X@X@X@X@X@X@X@X@X",
"@X@X@X@X@X@X@X@X@X@X@X@X~.' n k k l _ ).3 @X@X@X@X@X@X@X@X@X@X@X",
"@X@X@X@X@X@X@X@X@X@X@X@Xs.L.v j j c J.h.@X@X@X@X@X@X@X@X@X@X@X@X",
"@X@X@X@X@X@X@X@X@X@X@X@X2 B.S $ # m N.5 @X@X@X@X@X@X@X@X@X@X@X@X",
"@X@X@X@X@X@X@X@X@X@X@X@X@X4.( @ @ ^ w.@X@X@X@X@X@X@X@X@X@X@X@X@X",
"@X@X@X@X@X@X@X@X@X@X@X@X@X4 p./ ~ i.0 @X@X@X@X@X@X@X@X@X@X@X@X@X",
"@X@X@X@X@X@X@X@X@X@X@X@X@X< d 5.5.g 1 @X@X@X@X@X@X@X@X@X@X@X@X@X",
"@X@X@X@X@X@X@X@X@X@X@X@X@X@X@X@X@X@X@X@X@X@X@X@X@X@X@X@X@X@X@X@X",
"@X@X@X@X@X@X@X@X@X@X@X@X@X@X@X@X@X@X@X@X@X@X@X@X@X@X@X@X@X@X@X@X",
"@X@X@X@X@X@X@X@X@X@X@X@X@X@X@X@X@X@X@X@X@X@X@X@X@X@X@X@X@X@X@X@X",
"@X@X@X@X@X@X@X@X@X@X@X@X@X@X@X@X@X@X@X@X@X@X@X@X@X@X@X@X@X@X@X@X"
};
