/* XPM */
static char *result[] = {
/* columns rows colors chars-per-pixel */
"32 32 230 2 ",
"   c #1C0906",
".  c #2A0A07",
"X  c #340D07",
"o  c #310D09",
"O  c #3E0A05",
"+  c #2F120E",
"@  c #3C130C",
"#  c #3E190F",
"$  c #34120B",
"%  c #3C1C11",
"&  c #361A15",
"*  c #2D1713",
"=  c #3C2519",
"-  c #42130B",
";  c #4B130C",
":  c #45190E",
">  c #4F1B0E",
",  c #5C1209",
"<  c #531B0D",
"1  c #56170A",
"2  c #441D12",
"3  c #4C1D14",
"4  c #421711",
"5  c #5D1F12",
"6  c #480F05",
"7  c #64190B",
"8  c #711D0A",
"9  c #681F11",
"0  c #5F260F",
"q  c #422115",
"w  c #4C2416",
"e  c #4C2B1C",
"r  c #48251A",
"t  c #572413",
"y  c #5C2414",
"u  c #552B1B",
"i  c #5B2C1B",
"p  c #582917",
"a  c #5B331E",
"s  c #65220E",
"d  c #69220F",
"f  c #78240F",
"g  c #612414",
"h  c #6D2B15",
"j  c #642B1A",
"k  c #6B2B18",
"l  c #6A2714",
"z  c #732A14",
"x  c #792B16",
"c  c #752F1C",
"v  c #722615",
"b  c #6B331E",
"n  c #67341C",
"m  c #74341D",
"M  c #7B341C",
"N  c #77361A",
"B  c #4E2C23",
"V  c #572E22",
"C  c #4E3528",
"Z  c #543324",
"A  c #5C3424",
"S  c #5C3A2A",
"D  c #58372C",
"F  c #642F23",
"G  c #653423",
"H  c #6C3421",
"J  c #633A24",
"K  c #6C3A26",
"L  c #643C2A",
"P  c #6C3D2A",
"I  c #61362A",
"U  c #723723",
"Y  c #743C23",
"T  c #7C3B22",
"R  c #773C28",
"E  c #683E30",
"W  c #5E402C",
"Q  c #5D4030",
"!  c #65432E",
"~  c #6D442C",
"^  c #6D482D",
"/  c #7C4125",
"(  c #73432C",
")  c #7B452B",
"_  c #7D4A2C",
"`  c #774529",
"'  c #644431",
"]  c #6C4432",
"[  c #654A35",
"{  c #664D3D",
"}  c #6D4D3B",
"|  c #6C4A33",
" . c #734532",
".. c #7A4531",
"X. c #754B33",
"o. c #7C4C32",
"O. c #734C39",
"+. c #7C4D3A",
"@. c #724638",
"#. c #69513F",
"$. c #7C5134",
"%. c #75513B",
"&. c #7C533C",
"*. c #6A5041",
"=. c #745341",
"-. c #7B5B44",
";. c #785B49",
":. c #7B614B",
">. c #746555",
",. c #81230B",
"<. c #912F11",
"1. c #813516",
"2. c #83361B",
"3. c #8B3B1D",
"4. c #86391A",
"5. c #923918",
"6. c #843C23",
"7. c #8A3D23",
"8. c #803F29",
"9. c #95411C",
"0. c #9C461D",
"q. c #B1521F",
"w. c #834125",
"e. c #8D4224",
"r. c #854823",
"t. c #8C4925",
"y. c #85432B",
"u. c #844A2D",
"i. c #8C4B2C",
"p. c #8D472C",
"a. c #944323",
"s. c #934C2C",
"d. c #994A29",
"f. c #8C522F",
"g. c #93502E",
"h. c #9F512C",
"j. c #965127",
"k. c #844C34",
"l. c #844E39",
"z. c #8B4F35",
"x. c #914D33",
"c. c #9A4D30",
"v. c #835235",
"b. c #8B5335",
"n. c #825339",
"m. c #8B553A",
"M. c #8C5C3D",
"N. c #845B3E",
"B. c #935434",
"V. c #945A35",
"C. c #9B5A34",
"Z. c #945C3B",
"A. c #9C5C3B",
"S. c #975635",
"D. c #A34C28",
"F. c #AC5226",
"G. c #A4582D",
"H. c #B05C2C",
"J. c #A35E35",
"K. c #A45C39",
"L. c #A85A37",
"P. c #8E613F",
"I. c #94603D",
"U. c #9D623E",
"Y. c #A4633C",
"T. c #A6653B",
"R. c #B56B37",
"E. c #855C43",
"W. c #8A5D42",
"Q. c #865946",
"!. c #925D42",
"~. c #995F45",
"^. c #A35F41",
"/. c #876043",
"(. c #8C6146",
"). c #84624C",
"_. c #8C644A",
"`. c #8E694E",
"'. c #956343",
"]. c #9C6443",
"[. c #94654A",
"{. c #99664B",
"}. c #92694B",
"|. c #9D6B4B",
" X c #9C6A46",
".X c #9C704D",
"XX c #8B6B54",
"oX c #866854",
"OX c #966C52",
"+X c #9A6D53",
"@X c #946F59",
"#X c #996E59",
"$X c #947255",
"%X c #987152",
"&X c #9B755B",
"*X c #98775D",
"=X c #87715C",
"-X c #A56541",
";X c #A46B45",
":X c #AC6D44",
">X c #A46D4B",
",X c #AA6B48",
"<X c #A6724D",
"1X c #AC744C",
"2X c #A97147",
"3X c #B47749",
"4X c #A36F51",
"5X c #A57453",
"6X c #AD7553",
"7X c #A57954",
"8X c #AC7953",
"9X c #A47B5A",
"0X c #AC7E5C",
"qX c #A87758",
"wX c #B47D53",
"eX c #BD7E53",
"rX c #997A63",
"tX c #937964",
"yX c #A57D61",
"uX c #C27D4B",
"iX c #BF825D",
"pX c #A78367",
"aX c #B38866",
"sX c #AC8D75",
"dX c #AD947F",
"fX c #B09074",
"gX c #C3895B",
"hX c #C18050",
"jX c #C89E7A",
"kX c #CD9A6C",
/* pixels */
". . B M U v , B y @ < s u p S H 9 e z / w.m T k K 9 f l 7 1 4 @ ",
"+ * V H k j G ` ~ ( i A i V R k j 2.2.k 3._ u./ 2.T 4.m 9 d 3 - ",
". % x v x 5  .B.%.[.y.E j F T c Y 5.2.j 5.v.V._ 6.8.3.T z f g ; ",
"* & V  .i.b.p.8.s.G.k.W.U H 8.Q.d.0.B.x.I.D.V.I.p.M i 7.5 k 6.v ",
"+ o j R k.Q.k.+.$.Z.m.Q.+.%.Q.;.m.b.)./.E.OXE./.l.R Z ] I D y 3 ",
"3 C t M N.s.M.x.W.z.F.R p.p.{.'.{.a.Z.'.r.[.iX XR.1X|._.x.P m y ",
"B C A P Q.n.l.k.@.m.n.W._._.OX_.!.[.}.`.$X=XaX].Z.'.M.W.l.~ i 3 ",
"C E ~ ^ ).k.x x G 7.o.1X;X7X3X|.F.6X1X$X7X*X1X3XT.L.H.q.3.2.m 5 ",
"V L U K R l._./.).C.C.E._.|.Z.].+X1X+XY.(.,X1X).aX+X<Xr.f.-.m.v.",
"j u H b M k.!.(.`.C.C.[.!.1XC.K.,X6X+X,X#X>X;X`.pX[._.$.B.b.v.W.",
"2 3 j U 4.b.<X].I.-X X1X.X<XwXpXgXwXuXgX#X{.b.].T.C.P._ / 5.U J.",
"4 i i H M o.[.M.W. XOX[.7X$XP.}.7XyX8XqXsXoXOX@X|.(.P.^ Y R K y.",
"h u.r._ b.s._.v.Q.A.<X).eX9X;XR.9XjXpX0XjXrXkX{..XU.iXT.r.L e.x ",
"t b b b ` u.v.:.-.%.$XpXfXaXpXpXpXrX8X@X$X7X9XqX9X{ X.( ] Y n ~ ",
"< v z N X.t.t.&...) W.T.}.;X].pX7X_.U.}.%X<X*XaXpX! ] j J N i i ",
"2 t h J ` f.M.n...+.] C. X(.U.U.Y. X:.I.'.%X&XdXsXoXO.[ n p a t ",
": t 0 m u._ m.m.) &.%.M.C.b.V.B.Z.Z.-.f.B.;X+XpXtX;.%.' a w q : ",
"1 s y x i.<X1XZ.c.u.B.Z.j.D.S.a.d.i.I.b.V.G.T.6X*XI.B.^ n t < b ",
"< h h N t.-X8X_.b.b.m.b.B.S.B.b.k.v.V.f.Z.B.I.~.[.'.x.! a E S L ",
"5 1.0.j.G.J.,X,X&X-X-XK.L.'.-X5XG.h.3XR.{.-X+Xe.F.m.S._ +.oX;.i.",
"w K %.;.=XXX=XXXoXP T m.I._.}.0X}.+X&Xb.W.rX#X+.&.o.{ ] ;.{ >.{ ",
"# i P &.:.+X=X_.].T 5.7.h.G.:XuX&X+X&Xy.y.[.].b.M.x.;.&.E.[ ;.*.",
"& u ( %./._.`.!.Z.].Z.3.d.B.g.b.B.S.|.;X~.S.I.N.i.E._.=.O.U ..6.",
"  t ~ [ Q.;._.Z.'.1X~.3.9.i.s.o.B.i.'.2X!.x.Z.v.t.%._.*.] L @.T ",
"@ s X. X(.`.`.$.b.v.d.d.W.{.-Xx.K.k.S.(.Y.].5X'.D Z.N.~ S Z U 3.",
"$ u n o.v.&.&._ X.X.k.y. . .n.X.o.( k.$.b.P.}.&.C ^ ^ Q P i y 5 ",
"@ J n b.b.v.k.h.o.b L V.K.u.b.$.m.A.].F.G.iX<Xn.Z m e.O.z.H 1 O ",
". # w J Z -.&.a L V V ( Y J ! | } R ( ^ $.&.(.! W A j r B = $ X ",
"6 1 n 4.n Y.].j k ( k v.x _ ( B.o.m d..._ v.w.u.h.M f 7 a n t ,.",
". @ u G a e w = q q Z E G Y P [ G Y K 6.%.{ O.S k d i i j K T A ",
". - t k j u g w r q S K n 3.( &.N a.8.<._ #.%.~ h 8 y i f m T u ",
"  X > - = = q : 3 r h i j j u 6.0.w.9.1.$.X.X.N M p & = 1 , # ; "
};
