/* XPM */
static char *result[] = {
/* columns rows colors chars-per-pixel */
"32 32 211 2 ",
"   c #D4D7DB",
".  c #AFB6BD",
"X  c #B1B8BF",
"o  c #B5BCC2",
"O  c #B3BAC1",
"+  c #B2B9C0",
"@  c #B1B7BE",
"#  c #B5BCC3",
"$  c #B8BFC6",
"%  c #B6BDC3",
"&  c #B6BDC4",
"*  c #B2B8C0",
"=  c #B0B7BF",
"-  c #B3B9C1",
";  c #B3B9C0",
":  c #B4BBC2",
">  c #B0B6BE",
",  c #B2B8BF",
"<  c #C7CCD1",
"1  c #C4C8CD",
"2  c #8E99A3",
"3  c #8F99A3",
"4  c #8C97A1",
"5  c #8F9AA3",
"6  c #8B96A0",
"7  c #909BA4",
"8  c #89939D",
"9  c #929CA6",
"0  c #929DA7",
"q  c #8A949E",
"w  c #8A959F",
"e  c #8E99A2",
"r  c #8C96A0",
"t  c #8D99A2",
"y  c #8E98A2",
"u  c #8B959F",
"i  c #86909B",
"p  c #929DA6",
"a  c #919BA5",
"s  c #868F9A",
"d  c #A8B0B8",
"f  c #C2C6CB",
"g  c #8D96A1",
"h  c #88929C",
"j  c #8F99A2",
"k  c #8E97A1",
"l  c #8B949E",
"z  c #89939E",
"x  c #8F98A2",
"c  c #8A929D",
"v  c #89949E",
"b  c #8C95A0",
"n  c #8D96A0",
"m  c #8A939E",
"M  c #838C97",
"N  c #89929C",
"B  c #87909B",
"V  c #858E99",
"C  c #88919C",
"Z  c #878F9A",
"A  c #8E98A1",
"S  c #A9B0B8",
"D  c #BFC4C9",
"F  c #919CA5",
"G  c #8F9AA4",
"H  c #8D97A1",
"J  c #909BA5",
"K  c #909AA3",
"L  c #95A0A9",
"P  c #8B95A0",
"I  c #858E9A",
"U  c #8C98A1",
"Y  c #96A1AA",
"T  c #949EA7",
"R  c #8D98A2",
"E  c #939EA7",
"W  c #ABB3BA",
"Q  c #C2C7CB",
"!  c #959FA8",
"~  c #949EA8",
"^  c #9099A3",
"/  c #939DA7",
"(  c #8D98A1",
")  c #88929D",
"_  c #929CA5",
"`  c #909AA4",
"'  c #919AA4",
"]  c #8C97A0",
"[  c #848D97",
"{  c #8B969F",
"}  c #ABB2BA",
"|  c #C5CACE",
" . c #97A1AA",
".. c #8D95A0",
"X. c #89929D",
"o. c #959FA9",
"O. c #98A2AB",
"+. c #8D97A2",
"@. c #939CA6",
"#. c #8C959F",
"$. c #929BA5",
"%. c #AFB6BE",
"&. c #C3C8CD",
"*. c #88939E",
"=. c #87919B",
"-. c #909BA3",
";. c #919BA4",
":. c #8E9AA3",
">. c #C4C9CE",
",. c #97A0A9",
"<. c #8C949F",
"1. c #8F97A2",
"2. c #96A0A9",
"3. c #8B939D",
"4. c #8E96A1",
"5. c #8A949F",
"6. c #949DA6",
"7. c #88909B",
"8. c #939DA6",
"9. c #959EA7",
"0. c #929AA4",
"q. c #AEB5BC",
"w. c #BDC1C6",
"e. c #858F9A",
"r. c #8F9BA4",
"t. c #96A0AA",
"y. c #BDC2C7",
"u. c #ACB4BB",
"i. c #BDC2C8",
"p. c #86919B",
"a. c #97A0AA",
"s. c #87919C",
"d. c #8F99A4",
"f. c #BAC0C5",
"g. c #8C96A1",
"h. c #AEB5BD",
"j. c #BEC3C9",
"k. c #969FA9",
"l. c #959EA8",
"z. c #939BA5",
"x. c #949DA7",
"c. c #969FA8",
"v. c #9098A3",
"b. c #BCC2C7",
"n. c #949FA8",
"m. c #ADB5BC",
"M. c #B9BEC4",
"N. c #BCC1C7",
"B. c #8B949F",
"V. c #8B96A1",
"C. c #BBBFC6",
"Z. c #848E9A",
"A. c #838C98",
"S. c #88909C",
"D. c #8F98A3",
"F. c #8B94A0",
"G. c #ACB2BB",
"H. c #C0C5CA",
"J. c #89949D",
"K. c #88939D",
"L. c #A9B1B8",
"P. c #BFC3C9",
"I. c #8E97A2",
"U. c #88919B",
"Y. c #ACB3BB",
"T. c #C0C4C9",
"R. c #8A95A0",
"E. c #8A959E",
"W. c #BEC2C8",
"Q. c #ABB3BB",
"!. c #BFC3C8",
"~. c #BBBFC5",
"^. c #89949F",
"/. c #858D99",
"(. c #868E9A",
"). c #848E99",
"_. c #89919C",
"`. c #BDC3C8",
"'. c #909CA5",
"]. c #919CA6",
"[. c #ADB4BB",
"{. c #87909A",
"}. c #AAB1B9",
"|. c #C2C7CC",
" X c #909CA4",
".X c #AAB2BA",
"XX c #C6CACF",
"oX c #939CA5",
"OX c #8F97A1",
"+X c #ADB4BC",
"@X c #AAB2B9",
"#X c #D1D4D7",
"$X c #A4ACB3",
"%X c #A4ABB3",
"&X c #A8B0B7",
"*X c #A1A7B0",
"=X c #A3AAB2",
"-X c #A1A7AF",
";X c #A2AAB1",
":X c #A3ABB3",
">X c #A8AFB7",
",X c #A7AEB5",
"<X c #A6AEB5",
"1X c #A3A9B1",
"2X c #A4ABB2",
"3X c #A5ACB4",
"4X c #A7AEB6",
"5X c #9FA5AE",
"6X c #A2A9B1",
"7X c #9FA6AE",
"8X c #A9B0B7",
/* pixels */
"  . X X o O O . + O @ + # $ o % & * = - + . ; : > + : % & , : < ",
"1 2 3 4 5 6 7 6 2 7 8 2 9 0 q w e r t y 5 e u e i t p a p s e d ",
"f 8 g h j y k l z y r 9 x 3 h h y c v b n m M N B V C 8 h Z A S ",
"D 4 F 4 G H J K L 3 P 5 I U r p Y T F R R a b 7 3 E y H e B A W ",
"Q ! ~ E E ^ 5 3 / ( ) 6 s H 3 r r _ 5 6 6 ` r e ' F ] q ] [ { } ",
"|  .9 y b ..` X.u r X.y r ~ o. .O.' _ r +.9 @.T #.3 $.` a $.` %.",
"&.p v w e *.t ) J p 6 e =.5 F ` G 4 e ) 5 -.w t h 7 p ] U ;.:.} ",
">.,.k n _ <.n 1.2.2.3...4.3 $.q 5.c l k $.6.7.l l 8.9.s #.0.K q.",
"w.2 w r 5 e.e R :.5 6 5 y / 4 ( 5 9 r.5 / t.H e i :.R 3 5 v :.W ",
"y.u r R 2 B 5 r 7 5 y e 3 _ 4 j y 8.5 4 6 y l { V e e H ] V K u.",
"i.F E w H C p.u 4 G 3 2 H E a.o. .@.3 3 / o.5.s.b 4 d.3 R s.2 } ",
"f.e ` 7 G 4 r P 5 7 r :.q G 7 y 2 a 5 w e 3 A e C G 3 4 :.g.7 h.",
"j.6.k.$.` 4.b 0.a k.l._ z.x.,.l.c.a. .k.l.c.x g.v._ k.l.a ' $.. ",
"b.p ~ e 5 u e H 5 5 R 7 r p n.J n.9 5 ( F n.3 e z 5 R e 2 5.5 m.",
"M.w 3 ;.2 r 4 5.e a r 4 X.4 ` ] r 3 y r 4 2 n u I y A 3 P #.y q.",
"N.5 g.E t.9 n.~ ~ e n 4 8./ H H 5 #.] ` ~ e u r B.V.y H 5 X.3 . ",
"M.e 6 ] H H 4 3 E R / E / F v w 5 P e +.8.R A t z n.9 w 5 I 5 W ",
"C.Z.) m H H P z g H m v 3 $.r B.5.Z A.g $.y B.P S.H D.K 9 X.F.G.",
"H.:.3 r r.P 5 H 5 7 J.r.9 p K.J.e r e +.:.e P :.s.t p 5 J i ( L.",
"P.m I.u ` ' ' 4.v +.#.` ` 3 8 q 3 u +.+.` u U.r C 8 B.q u s r Y.",
"T.e F n.t 3 7 6 :.5 q t ` { F ( 5 3 G R.e t r 2 P p R H 5 E.e W ",
"H.e G _ e 5.7 y 7 7 $.n.o.L ! K 2 K 5 q u y m ( 5.F ( n.! m 7 u.",
"W.H v 5.y X.4 g w 6 8 6 3 2.a r 2 ,.T 8.a ! n r C H ` a 5 q +.Q.",
"!.t q ] 5 i e r 7 7 3 5 3 p 4 5 5 / e 6 e 7 y t e.7 7 ( e K.7 W ",
"~.q D.m ^./.i B.P +.x 4 I.F ` a ` $.` j H 3 (.)._.u 3 I.q V 5.S ",
"`.p ~ 5 5 P t H 5 5 ( 7 r p ~ '.E _ 5 H ].n.5 ( z 5 y e 5 w 5 Y.",
"f.v y 3 4 u q C y 7 r 4 B v 5 ] 4 7 5 r K.6 u v s 2 y y { B.7 [.",
"P.w 3 w 4 q E.] ~ R u y I H R 9 L 8.G r w H {.R 2 p H g.( X.7 }.",
"|.n.n.E E y 5 G E R z ( B  X` 4 U F 5 6 t 5 u 2 ` F 6 E.R i ( .X",
"XXk.a y B.B.y =.w w B 5.B.9 9 ' ` g y m 5.` oX8.<.y ` k I.OXg +X",
"| p w w e ) e h G ].q e =.G 9 7 7 4 j K.5 7 w t C G a ] 4 ` 5 @X",
"#X}.$X%X&X*X=X%Xm.m.-X%X;X:X>X,X<X1X2X3X4XS 5X6X=Xu.L.7X$X8X&Xb."
};
