/* XPM */
static char *result[] = {
/* columns rows colors chars-per-pixel */
"32 32 110 2 ",
"   c #010101",
".  c #0A0604",
"X  c #0F0B07",
"o  c #0B0B0B",
"O  c #120C0A",
"+  c #1C1701",
"@  c #17110D",
"#  c #0D0E10",
"$  c #0F1012",
"%  c #111213",
"&  c #181213",
"*  c #1E1E1E",
"=  c #201C1A",
"-  c #212121",
";  c #2E2C2E",
":  c #302D2F",
">  c #3C362B",
",  c #3F392B",
"<  c #312F30",
"1  c #3E3634",
"2  c #393639",
"3  c #3E3C3E",
"4  c #451F0B",
"5  c #4D220C",
"6  c #413A2B",
"7  c #593424",
"8  c #5F3A2B",
"9  c #413A37",
"0  c #633B29",
"q  c #6B422F",
"w  c #694130",
"e  c #714634",
"r  c #724835",
"t  c #7A4F3A",
"y  c #7E543E",
"u  c #413E41",
"i  c #4C4442",
"p  c #646364",
"a  c #6F6D6E",
"s  c #737373",
"d  c #7F7F7E",
"f  c #81543E",
"g  c #9E6C50",
"h  c #B77C4D",
"j  c #A46E51",
"k  c #AB7253",
"l  c #A0745F",
"z  c #AB7359",
"x  c #B17555",
"c  c #B97A57",
"v  c #B57C5E",
"b  c #A67964",
"n  c #A87A65",
"m  c #AD7F6B",
"M  c #B37D63",
"N  c #B68E14",
"B  c #CB9E0C",
"V  c #C79A12",
"C  c #DFAC09",
"Z  c #DBAE15",
"A  c #D6A81C",
"S  c #E3B30C",
"D  c #ECBC12",
"F  c #EBB71B",
"G  c #FFC90E",
"H  c #BB8165",
"J  c #BC856B",
"K  c #BC8A6F",
"L  c #C78D70",
"P  c #CA8F71",
"I  c #CE9274",
"U  c #D49B7D",
"Y  c #737B83",
"T  c #77808A",
"R  c #7B838D",
"E  c #7F8790",
"W  c #7F8992",
"Q  c #828B94",
"!  c #858E9A",
"~  c #86909B",
"^  c #8A949E",
"/  c #91979E",
"(  c #92989F",
")  c #8C96A1",
"_  c #8E99A3",
"`  c #919BA5",
"'  c #959FA8",
"]  c #96A0AA",
"[  c #9FA5AC",
"{  c #A1A7B0",
"}  c #A4ACB3",
"|  c #A8AEB7",
" . c #A8B0B7",
".. c #ACB3BB",
"X. c #B1B1B1",
"o. c #B1B8BF",
"O. c #C69393",
"+. c #DBA88C",
"@. c #DBA39F",
"#. c #DEA5A5",
"$. c #B4BBC2",
"%. c #BABFC5",
"&. c #BCC1C6",
"*. c #BEC3C9",
"=. c #C3C3C3",
"-. c #C2C6CB",
";. c #C4C9CE",
":. c #D4D7DB",
">. c #EEEAE8",
",. c #FFFFFF",
/* pixels */
":...o.o.$.$.$.o.$.$.$                         % [ o.$.%.$.$.$.;.",
";.` ) ) ` ^ _ ^ _ _ #                         % T ) ` ` ` ~ `  .",
"-.^ ) ^ ) ) ) E $   8 w 0 w 0 0 0 0 0 0 0 0 0 7 .   R ^ ~ ! ^  .",
"*.) ` ) ` ) ` W $   8 w w w 0 0 0 0 0 0 0 0 0 7 .   Q ) ` ~ ` ..",
"*.] ` ] ] ` _ W O   0 w 0 0 0 0 0 0 0 0 0 0 0 w b m O   ^ ! ^ ..",
";.] ] ) ^ ^ ~ s = O w e q q q q w w w w 0 0 w r l n O   ` ` ` o.",
";.` ) ) ) R   & L U H H L v H H H H H H 0 q J b y t .   ^ ` ) ..",
";.] ) ) ` E   @ L U H H H M H H H H H H w r b l y t .   ^ ` ` ..",
"&.) ^ ) _ R   @ M I H H M M L M H H H H v z f y t t .   ` ^ ) ..",
"&.) ) _ ) R   O M L H H v L v H H H M H H v y t t t .   ^ ~ ` ..",
"*.` ] ^ ) R   O M P J H J M H H H H H H M M t t t t .   ) ^ ) ..",
"&._ _ _ ` Q   O n P H H H H M H H H H H H M t y t t .   _ ) ) o.",
"*.] ] _ _ W         X.=.H H H H     =.=.I P H v y t .   ` _ ` ..",
"&._ ] _ ) W         X.=.H H H H     =.=.I P H c f y .   _ ) _ o.",
"&.^ _ _ _ W   . 4 5 >.,.+.+.+.+.5 5 ,.,.#.@.H v f t .   ) ^ ) o.",
"&._ ) ] ] !   . 4 5 >.,.+.+.+.+.5 5 ,.,.@.@.L v f t .   _ ^ _ ..",
"$.) ) ) ) Q   & O.#.+.+.+.+.+.+.U U I I x h G S +   ! ^ ) ! _ ..",
"&.! ^ ) ^ W   & O.#.+.+.+.+.+.+.U U I I k h G S +   Q ` ` ^ ^ ..",
"-._ ) ) ` ) ) E #   ; ; 0 0 0 0 z z z z       $ T ) ` ` ` ~ )  .",
"*.) ) ^ ` ` ` R #   ; ; 0 0 0 0 z z z z       $ T ^ ) ^ ^ ~ ) ..",
"*._ ` ' _ Q   o 2 u D G ; ; ; : ; ; V V < < : ; .   W _ _ ^ ) ..",
"-.) _ ` Q Y o o 2 3 Z D , 6 6 6 > > N N < < : ; o   T ~ ] ^ ` ..",
"*.) ) )     3 3 < : ; ; C C F F V V - - : ; < < < <     / ^ ) ..",
"*.) ^ )   o i i < ; ; ; B B A A N N - - : : 9 9 1 1 .   ) ^ ` ..",
"%.^ _ ^   X k g 1 ; < : 6 6 6 6 , , ; ; ; 1 K H j j X   ^ ~ ^  .",
"*.` ] )   O c k 1 < ; ; : ; ; ; ; ; ; : ; 1 I P x x @   _ ^ _ ..",
"&.^ ) ` Q Y O O     ; ; 3 3 3 3 3 3 - - - - @ @ X X     ^ ^ _ ..",
"*.^ _ ^ ) R         ; ; u u u u u u - - - *             / ~ ] ..",
"-.] ] ] ` ) _ W %   s d                 a p   $ W ` _ ^ / ~ _  .",
";.] _ ) ^ ) _ T #   s d                 a p   % E ) ) _ _ ) ) ..",
";.` ) ^ ) ~ _ R %   * -     ` ` ` )     - *   $ T _ ` _ ) _ _ ..",
":. .} }  .{ } ( %   * -     | | } {     - *   % ( ....[ }  . .*."
};
