/* XPM */
static char *result[] = {
/* columns rows colors chars-per-pixel */
"32 32 60 1 ",
"  c #847E09",
". c #87810A",
"X c #8B850A",
"o c #8E880A",
"O c #928C0A",
"+ c #96900B",
"@ c #9B950B",
"# c #9F990B",
"$ c #A39C0B",
"% c #A7A00C",
"& c #ACA40C",
"* c #AFA80C",
"= c #B4AC0C",
"- c #BCB40D",
"; c #C3BB0D",
": c #C8BF0D",
"> c #C3BB11",
", c #CCC30D",
"< c #D7CE06",
"1 c #DACF03",
"2 c #D0C70E",
"3 c #D6CD0E",
"4 c #D8CE0E",
"5 c #DAD10D",
"6 c #CDC410",
"7 c #D0C714",
"8 c #D6CD11",
"9 c #D8CF11",
"0 c #DAD011",
"q c #DDD41B",
"w c #E7DE06",
"e c #E8DF06",
"r c #E1D70B",
"t c #E4DB0D",
"y c #E9DF0C",
"u c #E1D710",
"i c #E4DB11",
"p c #E9DF10",
"a c #E1D71F",
"s c #E9E007",
"d c #EAE00D",
"f c #F0E60E",
"g c #EBE112",
"h c #EDE41D",
"j c #E4DA23",
"k c #E4DC29",
"l c #EEE423",
"z c #ECE32B",
"x c #F0E62D",
"c c #EEE434",
"v c #F1E734",
"b c #F2E934",
"n c #F1E73B",
"m c #F4EB3B",
"M c #F6ED44",
"N c #F8EF46",
"B c #F7EE49",
"V c #F8EF4C",
"C c #F8F047",
"Z c #F9F14A",
/* pixels */
"1<<<<<<<<<<<<<<<<<<<<<<<<<<<<<<<",
"55599395599350505995450595599540",
"r4499333353935534434444444444434",
"r4430530933933333433944449459350",
"5903494399338qajaq09299485533305",
"r999004598qzMNCBCCCmk92408505930",
"r49304530zmMMMMMbbmmMnq280035850",
"14930939nCCMmzgyddssglvj,2008585",
"r993095kBNNbhisssdipswhl7:530530",
"r40333jNNMcgwddddddddssf0-200333",
"59930qMMNxwwsdgddddddddds,*,3050",
"r0030kNMvgdggydddddddgsgft%=3003",
"r493qMBMgsdydiddddddddpddf-#:338",
"r498jMNvsddydddddddddddtdf6@-330",
"144<kNMgsdddddddddiddddddf5+&,00",
"r443cZbddgdddddddddddddtgfu##;33",
"1933mZzgddygddddddddddtdgdt#@-33",
"r952mZhsdyddpdyydddddddddg5@O=90",
"r43<cBgsgydyddddddddddddgd5@+=29",
"r43<cVgsgdddyddddidddddgdg2++=29",
"r994qZlsyyydddddddtddddddd-X+=39",
"19940Mzsygdddddddddddsddfu=X@-39",
"59533jmpddydddddddddgddsd2oX%-93",
"r90039vlsddddddddddddddgq&.o*,35",
"r4599<jzdddddddddddddgst-+X+-299",
"140904,jddddddddddddddt,+X+%;909",
"r494092,6qfdssdddsdddy;#.o@-3903",
"r4939457;-,5gfgfddd5,*o.o#-60035",
"r90300932;&&-,355,;&OX.o%=,33999",
"5993990493:&+XooOo  .o@%-2355903",
"r4940400052,-*#+OOOO#%--23909093",
"r499000000037,--=*==-;,809099000"
};
