/* XPM */
static char *result[] = {
/* columns rows colors chars-per-pixel */
"32 32 239 2 ",
"   c black",
".  c #010000",
"X  c #000100",
"o  c #010100",
"O  c #000001",
"+  c #010001",
"@  c #000101",
"#  c #010101",
"$  c #838C97",
"%  c #858D97",
"&  c #838C98",
"*  c #858D99",
"=  c #858E98",
"-  c #848F98",
";  c #848E99",
":  c #848F99",
">  c #858F99",
",  c #848E9A",
"<  c #858E9A",
"1  c #848F9A",
"2  c #858E9B",
"3  c #848F9B",
"4  c #868E9A",
"5  c #868F9A",
"6  c #878F9A",
"7  c #868E9B",
"8  c #878F9B",
"9  c #86909A",
"0  c #87909A",
"q  c #86919A",
"w  c #87919A",
"e  c #86909B",
"r  c #86919B",
"t  c #87919B",
"y  c #87909C",
"u  c #87919C",
"i  c #86919D",
"p  c #89909B",
"a  c #88919B",
"s  c #88909C",
"d  c #89909C",
"f  c #88919C",
"g  c #89919C",
"h  c #89909D",
"j  c #89919D",
"k  c #88929C",
"l  c #89929C",
"z  c #88939C",
"x  c #89939C",
"c  c #88929D",
"v  c #89929D",
"b  c #89939D",
"n  c #8A929D",
"m  c #8A939D",
"M  c #8B939D",
"N  c #88929E",
"B  c #89929E",
"V  c #89939E",
"C  c #8A929E",
"Z  c #8B929E",
"A  c #8A939E",
"S  c #8B939E",
"D  c #8A929F",
"F  c #8A939F",
"G  c #89949D",
"H  c #89949E",
"J  c #89959E",
"K  c #89949F",
"L  c #88959F",
"P  c #89959F",
"I  c #8A949E",
"U  c #8B949E",
"Y  c #8A959E",
"T  c #8B959E",
"R  c #8A949F",
"E  c #8B949F",
"W  c #8A959F",
"Q  c #8B959F",
"!  c #8A969E",
"~  c #8B969E",
"^  c #8B979F",
"/  c #8C949E",
"(  c #8D959E",
")  c #8C949F",
"_  c #8C959F",
"`  c #8D959F",
"'  c #8A94A0",
"]  c #8B94A0",
"[  c #8A95A0",
"{  c #8B95A0",
"}  c #8B95A1",
"|  c #8A96A0",
" . c #8B96A0",
".. c #8A97A0",
"X. c #8B97A0",
"o. c #8A96A1",
"O. c #8B96A1",
"+. c #8A97A1",
"@. c #8C94A0",
"#. c #8D94A0",
"$. c #8C95A0",
"%. c #8D95A0",
"&. c #8C96A0",
"*. c #8D96A0",
"=. c #8C97A0",
"-. c #8D97A0",
";. c #8C96A1",
":. c #8D96A1",
">. c #8C97A1",
",. c #8D97A1",
"<. c #8E97A0",
"1. c #8E96A1",
"2. c #8F96A1",
"3. c #8E97A1",
"4. c #8F97A1",
"5. c #8D97A2",
"6. c #8D97A3",
"7. c #8E96A2",
"8. c #8F96A2",
"9. c #8E97A2",
"0. c #8F97A3",
"q. c #8C98A0",
"w. c #8D98A0",
"e. c #8C99A0",
"r. c #8C98A1",
"t. c #8D98A1",
"y. c #8C99A1",
"u. c #8D99A1",
"i. c #8E98A0",
"p. c #8F98A0",
"a. c #8F99A0",
"s. c #8E98A1",
"d. c #8C98A2",
"f. c #8D98A2",
"g. c #8C99A2",
"h. c #8D99A2",
"j. c #8C98A3",
"k. c #8D98A3",
"l. c #8C99A3",
"z. c #8D99A3",
"x. c #8E98A2",
"c. c #8F98A2",
"v. c #8E99A2",
"b. c #8F99A2",
"n. c #8E98A3",
"m. c #8F98A3",
"M. c #8E99A3",
"N. c #8F99A3",
"B. c #8E9AA2",
"V. c #8F9AA2",
"C. c #8E9BA2",
"Z. c #8F9BA2",
"A. c #8E9AA3",
"S. c #8F9AA3",
"D. c #8E9BA3",
"F. c #8F9BA3",
"G. c #8F99A4",
"H. c #8F9AA4",
"J. c #8F9BA4",
"K. c #8E9AA5",
"L. c #8F9AA5",
"P. c #8F9BA5",
"I. c #9198A3",
"U. c #909AA3",
"Y. c #919AA3",
"T. c #909BA3",
"R. c #909AA4",
"E. c #919AA4",
"W. c #909BA4",
"Q. c #919BA4",
"!. c #909AA5",
"~. c #919AA5",
"^. c #909BA5",
"/. c #919BA5",
"(. c #929AA4",
"). c #929BA4",
"_. c #939BA4",
"`. c #939AA5",
"'. c #929BA5",
"]. c #939BA5",
"[. c #909CA4",
"{. c #919CA4",
"}. c #919DA4",
"|. c #909CA5",
" X c #919CA5",
".X c #909DA5",
"XX c #919DA5",
"oX c #929CA4",
"OX c #939CA4",
"+X c #929DA4",
"@X c #929CA5",
"#X c #939CA5",
"$X c #929DA5",
"%X c #909CA6",
"&X c #919CA6",
"*X c #929CA6",
"=X c #939CA6",
"-X c #929DA6",
";X c #939DA6",
":X c #929CA7",
">X c #939CA7",
",X c #929DA7",
"<X c #939DA7",
"1X c #939EA6",
"2X c #939FA6",
"3X c #929EA7",
"4X c #939EA7",
"5X c #939FA7",
"6X c #949DA6",
"7X c #959DA6",
"8X c #949DA7",
"9X c #949EA6",
"0X c #959EA7",
"qX c #959FA7",
"wX c #949EA8",
"eX c #959EA8",
"rX c #949FA8",
"tX c #959FA8",
"yX c #949EA9",
"uX c #959EA9",
"iX c #949FA9",
"pX c #959FA9",
"aX c #969EA8",
"sX c #979FA8",
"dX c #979EA9",
"fX c #969FA9",
"gX c #979FA9",
"hX c #95A0A8",
"jX c #94A1A8",
"kX c #95A0A9",
"lX c #96A0A9",
"zX c #97A0A9",
"xX c #96A0AA",
"cX c #96A1AA",
"vX c #97A1AA",
"bX c #97A0AB",
"nX c #96A1AB",
"mX c #97A1AB",
"MX c #98A2AB",
/* pixels */
"          X   @       O     . .     O X     X # O O . O         ",
"X M.N.,.S.+.R.| n.Q.x N.*X<XI Y b.:.z.x.V.M.Q n.e h.,X/.;X6 n.X ",
"  c =.k N.c.3.U B x.,.;Xc.b.k k N.n K $.=.A $ z w = j v l 8 s.  ",
"X ,. X>.L.,.^.T.kXx.{ S.< u.:.;XvX0X{.k.j.Q.@.R.c.5Xc.,.n.w i.  ",
"  iXwX5X1XI.A.N.-Xu.v o.4 ,.x.&.*.$XS.| o.!.:.M.Q. X=.Y >.% ! X ",
"O nX-Xc.#.#.E.b Q >.v c.&.yXiXcXMX^.+X;.5.=X>XqX_ b.).Q./.(.R.@ ",
"O *XL W x.N h.z !.-X..v.q D.XXR.H.,.b.l F.T.Q h.k ^.*X*.q./.S.  ",
"  zX3.;.+X) ,.8.lXlXm %.1.v.'.I W M U 3._.8Xp U E *X0X5 ` ].U.  ",
"  m.Y &.D.< M.k.S.Z.| D.x.:X>.t.S.*XJ.S.<XbX>.v.9 A.j.N.Z.J A.o ",
"  Q &.j.b.t V.=.~.S.b.v.N.@X>.m.N.;XS.>. .n.U ^ - v.M.,.=.> U.O ",
"  }.4XQ :.f q E =.K.M.N.&.3XmXpXmX=Xm.m.,XiXR y $.>.G.n.f.u N.  ",
"  n.W.Q.H.>.&.} A.W.&.A.I H.Q.b.M./.S.Y x.N.s.v.f H.N.-.B.;.~.  ",
". 7XfX).^.4.$.`.W.gXpX#X_.6XlXpXfXcXbXdXrXsXc.,.I.oXfXuX/.R.'.. ",
"  -XwXx.S.E v.*.S.V.k.Q.&.<XtX^.rX:XF.y.XXiXN.n.B V.f.M.v.R S.. ",
"  W M.R.M.&.>.Y x./.&.>.b >.~.&.-.n.m.:.&.b.&.Q < n.p.m.{ _ N.X ",
"o A.>.1XxX*XrXwXwXc.*.;.<X,X,.*.B.( *.R.wXb.T *.E O.M.*.F.x n.  ",
". N. .=.:.,.=.b.4Xh.<X3X;X{.J E F.' v.5.:Xj.a.g.B tX*XY A.2 Z.. ",
". , v Z ,.*.{ V *.>.A J c.].*.Q T 7 & &.).x.W { h &.b.Y.;Xk }   ",
"  A.m.*.J.} V.-.Z.^.G P.=X-Xz G N.>.x.6.Z.v.] A.i z.-XA.^.t u.+ ",
"  S 7.T E.E.~.1.H 5._ E.R.N.v R v.W 5.5.R.T a -.f x Q I U 5 ,.  ",
"  v.[.pXd.N.W.X.B.F.I g.!.^ |.y.D.N.L.[ b.l.*.v.} -Xh.>.S.T v.. ",
"  c.L.#Xx.E W.c.W.W.'.eXtXjXtXU.N.T.S.I R v.A u.I {.w.rXrXD W.. ",
"O =.H W c.c >.,.Q O.b X.N.zXQ.;.M.zX9X;X!.iX*.=.g ,.R.Q.A.Y 6.X ",
"  h.I *.S.e M.*.^.Q.m.S.b.,X>.F.V.=Xv. .v./.c.h.1 W.Q.t.b.x /.O ",
". Y m.F P * 0 Y { 5.v.:.9..XR.!.~.].!.b.,.N.4 ; f W N.7.W : Y   ",
"  :XiXF.V.{ h.>.S.C.e.W.&.-XyX.X3X@XA.,.&XrXS.u.B A.x.b.A.R C.X ",
"  P N.b.>.U I d m.^.&.=.t H B.:.*.Q.S.:.z O.T H 6 n.x.x.~ R W.  ",
". Y M.Y :.E Y =.yXj.Q c.3 :.f.=XhX,XH.=.R ;.q k.c.-X:.;.t.x Q.  ",
". iXrX2X4Xx.V.H.4Xd.V u.0 [.^.>.r.[.S. .z.Z.Q M.R.|.| Y l.e w.X ",
"X aX~.n.R Q x.r I I t T U *X=XE.R.*.c.C I W.OX;X/ x.!.<.0.2.:.  ",
"O -XI R M.k c.c J.%XQ v.t L.*X^.^.=.M.b C.R.W g.s L.~.*.=.E.V.  ",
"@ X . . @ O X X O   O X   # O X   +     O + O   .       . @   O "
};
