/* XPM */
static char *result[] = {
/* columns rows colors chars-per-pixel */
"32 32 41 1 ",
"  c #127C03",
". c #138303",
"X c #148C02",
"o c #188809",
"O c #149302",
"+ c #159C03",
"@ c #16A303",
"# c #17AA03",
"$ c #18AE03",
"% c #18B403",
"& c #1ABC03",
"* c #24BC0C",
"= c #1CC403",
"- c #16CD04",
"; c #19CC02",
": c #1BC609",
"> c #1CC90B",
", c #17D500",
"< c #1BD601",
"1 c #1BD902",
"2 c #22C60A",
"3 c #25CC0E",
"4 c #22D60A",
"5 c #25D80C",
"6 c #29C713",
"7 c #2ACE13",
"8 c #2FCE18",
"9 c #25D612",
"0 c #2AD213",
"q c #2CD915",
"w c #2FDB18",
"e c #32D51A",
"r c #33DB1C",
"t c #37DC20",
"y c #3BDC23",
"u c #41DE2A",
"i c #45E12E",
"p c #47E230",
"a c #4AE333",
"s c #4FE738",
"d c #51E83A",
/* pixels */
"===2==========&===============:=",
"====&2========22>>&:==========:=",
"===2======27euiipyy86&======;===",
"2======&=eadsapuasddsp:&==>=====",
"=====&&3yaauiiyyw90rtyae&&=====;",
"======0iaaaur4<<1,,,,,9te&&=2===",
"2====3paaay91,<,,<<<1,,193$&=:==",
"===&2uapur1,,<<<<<<<<<<<14%#&===",
"====eappr4<<<<<<<<<<<<<1<1=@#&==",
"===0ipay4,,,<<<<14<<<<<1,1<$+$==",
"===yaap4,<<<<<<1<<<<<<<4<<1&O#&=",
"===uapq,<<<<<<<<<<<<<<<<1<<<@O$=",
"=&3apy4,<<<4<<<<<<<<<<1<1<<1%.@&",
"==7aar,,<<<<<<<<<<<<<<<<<<<1= +%",
"==7aaq,<<,1<<<<<<1<<<<4<<<,1=.O$",
"==0ai5,<<,<<<<1<<<<<<<<<<<,,=.X#",
"=&0au4,<<<<<<<<<<<<<<<<<<<<<= X+",
"==7au5,<<<<1<<<<<<<<1<<<<<<<& X+",
"==6aa4,<1<<<<<<11<<4<<<<<1<<# O@",
"===ua5,,<<<<<<<<<<<<<<<,<<1=+.X@",
"===ea51,<4<<4<<<<<<<1<<<,,<&X O#",
"===7pr,1<<<<<<<<<<<<<<,<<1=+. +$",
"====8u4,<<<<<<<1<<<<<<11,<$. X@%",
"==2&&yq,,1<<<<<<<<<<<<41<&O .O$&",
"=====6y,,1<<<<<<<<<<<,1,=@. .O%=",
"=2=2=&&2<,,<1<,,<<1<11-%O  .O%==",
"=2&==&&%&<,11<<<1<1,<;*+.  X+%==",
"=======%@@&;<1111<<=%#o  .X@%===",
"=2====2=%+XO+%&*&%#O.   .O#%====",
"===2=:===2#OX...    . .O@#&=====",
"==========&%$+OOXXXXO++#%&=2====",
"==:=========&%$$+@@@##%&====2==="
};
