/* XPM */
static char *result[] = {
/* columns rows colors chars-per-pixel */
"32 32 59 1 ",
"  c #204F85",
". c #205086",
"X c #21528B",
"o c #235691",
"O c #245895",
"+ c #265C9C",
"@ c #275FA2",
"# c #2760A3",
"$ c #2862A6",
"% c #2965AC",
"& c #2A68AF",
"* c #2B6AB4",
"= c #2C6DBA",
"- c #2E71BF",
"; c #2F74C4",
": c #2E76CA",
"> c #3076C7",
", c #3077C9",
"< c #3279CD",
"1 c #2E7BD4",
"2 c #327DD5",
"3 c #327FD9",
"4 c #3580D7",
"5 c #3B81D1",
"6 c #3581D9",
"7 c #3B85DB",
"8 c #3F88DD",
"9 c #2E81E6",
"0 c #2E84E8",
"q c #3585E5",
"w c #3C8BE7",
"e c #3587EA",
"r c #3688EB",
"t c #3A8BEA",
"y c #368BF0",
"u c #398DF0",
"i c #428ADD",
"p c #438DE3",
"a c #418EE8",
"s c #4790E4",
"d c #4B92E5",
"f c #4492ED",
"g c #4B96ED",
"h c #4E98ED",
"j c #5398E7",
"k c #559BEC",
"l c #599EEE",
"z c #4C97F0",
"x c #4E99F0",
"c c #519BF0",
"v c #589FF0",
"b c #5AA0EF",
"n c #5BA1F2",
"m c #63A6F4",
"M c #66A9F6",
"N c #69ABF5",
"B c #67ABF8",
"V c #6CAEF9",
"C c #6EB0FB",
/* pixels */
"66666674666666446446666666666666",
"66666666664466222236336666666266",
"664644643642337wpw76326633666672",
"66666446626dnMVVVVCVld3236636666",
"6666646644kBVNNMmmmMmBj222662626",
"666644368nCMVNngpwttafnvi<266q66",
"6666446wMNNNlp0000eqey0rvi,33672",
"6666617MMMmh00eeeeeeeeeeqw>,2666",
"666626nBMMfeeeeeeeteeeeeqr2&<333",
"66642dBNMg9erreeeeeeeeeeerq@=133",
"66642nMMle0reeeeeeeeeeeerrr;$-33",
"66647NNnteeeeeeeeeeeeeeeery3@$<3",
"6643sVNh0eerqeereeeeeteeeerq#+>2",
"6643kNMreeereeereeeeeeeeeeer*X=<",
"6664lNn0e0eeereeeteeeeeeeeet*X&>",
"6666lMk0eeeeeeereeeeeeeeeeet= %>",
"6436vBf0eeeeeeeeeeeeeeeeeeet= @;",
"6444kCfeeeeeeeeeeeeeeeeeetye* @=",
"6464gMfeeeeeeeeeeeeeteeeetr3% @-",
"66627Vf0eeeeeeeeeeteeeeeeee1+ @;",
"66634Bzeeeeeeeeeeeeeeeeeeet>OX@;",
"66443ln0eteeereeeeeeeeeeeeq%Xo%>",
"466418meqeeeeeeeeeeeeeteeq<O +*,",
"66463<jfeeeeeeeeeeteeeeer3&Xo@;2",
"4666612hyreeeeeeeeerereee;oXO&>3",
"666664<2pueqtyreeqeeeyr3>XXo%>23",
"6666644:;,etrerreeetrq<*@XX@=<23",
"66666642:**;qryyyete2=@X o+*,233",
"666446663,*$&;22322;%+XXX+&>2726",
"6663664463<>@+oooXXXXXX@$-,27266",
"663qq6666622:=&%++O+@@&=><276666",
"6666666666333<;;**&&*=>,<33q6666"
};
