/* XPM */
static char *result[] = {
/* columns rows colors chars-per-pixel */
"45 42 53 1 ",
"  c #3581D9",
". c #3682DA",
"X c #3481DC",
"o c #3681D7",
"O c #317ED5",
"+ c #3380D8",
"@ c #3783DE",
"# c #357FD6",
"$ c #327EDA",
"% c #2E7AD3",
"& c #2E7CD8",
"* c #2B76CD",
"= c #337CD1",
"- c #3F87DD",
"; c #478FE2",
": c #4F98ED",
"> c #62A7F6",
", c #6AADF9",
"< c #70B1FC",
"1 c #59A0F2",
"2 c #2A76D7",
"3 c #69AAF3",
"4 c #5699E7",
"5 c #4085D4",
"6 c #2D6FBD",
"7 c #3179CC",
"8 c #4492ED",
"9 c #3586E6",
"0 c #3383E1",
"q c #2A7CE3",
"w c #2D83E8",
"e c #3386E9",
"r c #3287EE",
"t c #2F74C5",
"y c #2788E9",
"u c #3587EA",
"i c #3689ED",
"p c #2B6AB3",
"a c #3889E9",
"s c #378DF2",
"d c #2760A3",
"f c #2864AA",
"g c #265D9D",
"h c #255A99",
"j c #235691",
"k c #3D8DEB",
"l c #215189",
"z c #204F85",
"x c #245894",
"c c #22538C",
"v c #21548E",
"b c #2879D5",
"n c white",
/* pixels */
"                                             ",
"   ..      X..oOO+@++o##+$$.XXXX@.o .oooO#.  ",
"   ..      X ++..$%&%%**%OOXOOooOOO  ... +#  ",
"         ++%X@X%%=O-;;::;;-&$&%+-@$$$++ ..o  ",
"        +++@XO%#;:>,,<<<<<<,1;#*2$XXXX$O @.  ",
"       ++++@%*-1,<,333333,,<33>4=*+o.@X&O #  ",
"      +++++*o:,<,33,,>>11:::1><,156=7o@X+.o  ",
"     ++++++-1<<3>,<1:890qwewre9:>>;=t7@@X@.  ",
"     ++++++>,333,>;ewwwwwee9wrrww8>57*#$$ #  ",
"   $@o@$*->,>>,3:eyuuuiuuuuuueuruuu8#p7+%@X..",
"   X .+%.:,>3318aeeuuuuuuuuuuuuuuuis@6p7O$#..",
"   .O@%=:,,>3>8wweuuuuuuuuuuuuuuuuuri7dp#$#  ",
"    O@%->,3,18wwuiruuuuuuuuuuuuuuuurs0fdt% + ",
"   o+$=4,333:wwiauuuuuuuuuuuuuuuuuuarstgpt+++",
"   .X%o>,3,:iwuaeeauuuuuuuuuuuuuuuuars@fhp7++",
"   .X%;,33>aeeuueeauuuuuuuuuuuuuuuuaesi6jdtO+",
"   #X%1<331weeeukawuuuuuuuuuuuuuuuuwaus7jg6O+",
"   o&=>3<>keeeuuuuiuuuuuuuuuuuuuuuuuuusXglpt=",
"   o&=,3,1ueeeuuuuuuuuuuuuuuuuuuuuuu9us@dlft=",
"   .$#,33:weeeuuuuuuuuuuuuuuuuuuuuuu9us0dld67",
"  +XXo,,>8weeuuuuiuuuuuuuuuuuuuuuuuuuas0fzg67",
"  +$ o,,>kwuuuuuuuuuuuuuuuuuuuuuuuuuuus0fzxpt",
"  +$+o><>aruuuuuuuuuuuuuuuuuuuuuuuuuiuiXdzxpt",
"  +++#>,>9ruuuuuuuuuuuuuuuuuuuuuuuuuiruOgzhpt",
"  + +O13>0euuuuuuuuuuuuuuuuuuuuuuuuiire=gzhpt",
" + .+*;<>aweuuuuuuuuuuuuuuuuuuuuuuuiuu06jzhpt",
" +  o&-,,aruuueeeeuuuuuuuuuuuuuuuuueia+pclgpt",
"   +#XO1<8wuuuueeeuuuuuuuuuuuuuuuuuwiatgzvg67",
"+   #$b;<1qeuiueeuiuuuuuuuuuuuuuuuuei@pczxd67",
"+   oO&#4,9eeuuuuuuuuuuuuuuuuuuuuuua9tgzlgft=",
"+ .#@O+*5,:eeeeuueeuuuuuuuuuuuuuuuua7fjzjdp7O",
"+ .#@+o%7;1iueeeuueuuuuuuuuuuuuuuuu#pxcvhf6=#",
"+ .#$+oX*74ssueeuiuuuuuuuuuuuuuuuuutgzlxgpt# ",
"   .   oO**;ksr90asiuu999eeeerss9=tjclchpt7  ",
"   .   ooO*t7+ussi0uuuuaaaiiiia@7pdllvxd67O  ",
"   . + .o#O6ppt@ssssirrruuusa@=6fxzlcxdpt=$  ",
"   . + ..ooOtpff6#uissssiuaX=tfgvlzvxd6t=+   ",
"   XX +   +.+76dggd6tt777ttfdhvzzcjgf6tO+ o  ",
"   XXX  +++ ++=tpgjvjxxxjvclzzzzchdp67=  o#  ",
"   $XXX.   X##O#7tpghxjclzzlvjxgdp6*7=o.  +  ",
"   $$X@....+X.$+=7t66pfddddddffp6t7%Oo.. XX  ",
"XXXXXXXXXXXXXX XXXX77tt666p666t77==XXXXXXXXXX"
};
