/* XPM */
static char *result[] = {
/* columns rows colors chars-per-pixel */
"48 45 41 1 ",
"  c #D8CD01",
". c #D5CC02",
"X c #E2D605",
"o c #DAD10E",
"O c #D8D00F",
"+ c #D7CE12",
"@ c #D8CE0E",
"# c #DAD012",
"$ c #D6CE0C",
"% c #DCD315",
"& c #D3CA0D",
"* c #D4C901",
"= c #DFD622",
"- c #E8DE2A",
"; c #F0E62E",
": c #CDC40D",
"> c #F4EA3B",
", c #F6ED44",
"< c #F9F148",
"1 c #F8EF4D",
"2 c #FDF451",
"3 c #EDE41E",
"4 c #E7DD0E",
"5 c #EAE00D",
"6 c #EAE108",
"7 c #C6BE0E",
"8 c #E7DE05",
"9 c #ECE112",
"0 c #F2E80E",
"q c #BDB50D",
"w c #E9E20E",
"e c #B5AD0C",
"r c #ABA40C",
"t c #EEE40D",
"y c #A29B0B",
"u c #99930B",
"i c #908A0B",
"p c #8A8409",
"a c #86800A",
"s c #827C09",
"d c white",
/* pixels */
"  ..............................................",
"XoooOOOooooooooooooooooooooooooooooooooooooooooo",
"XoOO+++OOOOOOOOOOOOOOOOOOOOOOOOOOOOOOOOOOOOOOOOO",
"Xo@@@++@@@@@@@@@@@@@@@@@@@@@@@@@@@@@@@@@@@@@@@@@",
"Xo+#+$#o$$O#+$$@#%#$$$O&$###+@@O$@oo@@#OOOOOOOOO",
"Xo+#+$#$@O$+###$&&&&$$&$&***&@###++@##$OOOOOOOOO",
"Xo+#+$#@#O$@##$oO$+%=--;--==+&:&@##@@O#OOOOOOOOO",
"Xo+#+$###@@O@$&:#->,,<<1<<<,>-=$&&OoO+#OOOOOOOOO",
"Xo+#+$##@oo$&+=;><<1,,,1<<12222-=&:@%#&OOOOOOOOO",
"Xo+#+$#@@o$&+-><,,,,,,,>;;3;;>>1,-&:&ooOOOOOOOOO",
"Xo+#+$#$#@&#-><,,,,>;3445666665;>>-&7:oOOOOOOOOO",
"Xo+#+$###$&=<2,<,,;348686554856883>-:7:OOOOOOOOO",
"Xo+#+$O+&o-1<>,1>9885555555555548680-qq+o$+#$$+O",
"Xo+#+$Oo&=><,,,;34865555555555558550w:e7&O#@OO@O",
"Xo+#+$O@%>1,,1;8886559555555555545966Xer7+o$#O@O",
"Xo+#+$O&-<,,1;w855955555555555599855t0:yr:O@##@O",
"Xo+#+$O%,<,,>w8ww9955555555555559859504rye&@#+OO",
"Xo+#+$O-11,,38555555455555555556945t5607uy7&#$#O",
"Xo+#+$O,,1,;8895545w5555555555555945650%yue:+$#O",
"Xo+#+$O<><>48t6955www565555555598t48t90tyir7+$#O",
"X@$$#*=,1,;669555555555555555555555459t9qpuq:O%O",
"X@@$#&-<1,3669555555555555555555555559t97pue:$@O",
"X@#$O&;<1>3655555555555555555555555559t07pir7&+O",
"X@#O@&;11;5655555555555555555555555559tt7pir7++O",
"X@#O@&;11;6655555555555555555555555559tt7ppyq+#O",
"X@#$O&-1138695555555555555555555555559t57piyq&+O",
"Xo@$#*-<138695555555555555555555555559tXqaiyq:+O",
"8@$$O*=<138695555555555555555555555559toesiyq:+O",
"Xo+#+$$,2;88954555555555555555555544tt5%usiyq&#O",
"Xo+#+$&;1;8698w5555555555555555t4459t94:uaiyq&#O",
"Xo+#+$$=1>w85455555555555555555t8495t5oeiaur7&#O",
"Xo+O#$@$><3X5t55555555555555555t4wt864:uapur7+oO",
"Xo+O#$@*=,;8805555555555555555555tt65+epsiye:@oO",
"Xo+O#@O&&-,3855555555555555555599ttt=qusaurq&@oO",
"Xo+O#@#+*+;;t8955555555555555559t64%7yapiye:++%O",
"Xo+O#@#%.7+;08955555555555555555t5X&rpsiurq:o+#O",
"Xo+#+$#%#:7&-0tt5w9w885www445tttt4:ypaiiyq:&+##O",
"Xo+#+$#+OO&7q:%006845wwt666tttt4@qyisaiur7&O##OO",
"Xo+#+$#+@o#:qeqo50000940tttt9X@:eupaaiyeq:#o#@OO",
"Xo+#+$##+$$#&qrye:%4t00t56w4#:quisspuyrq:+o@@@@O",
"Xo+#+$#+%#&$#&7ryuyeq7:&::qeyipssaiuyeq:$Oo$++#O",
"Xo+#+$#$#%#@@+&:qyuippiiiipassspiuyre7&$#oO++##O",
"Xo+#+$#@$+%%#$@::7qryuipppppiiuuyreq7&@###@+##@O",
"Xo+#+$####$$Ooo##&:7qeryyyyyyyrreq:&##@OO@@O#@&O",
"Xo@@OO##########+++&::7qqqeqqq7:::&+############"
};
