/* XPM */
static char *result[] = {
/* columns rows colors chars-per-pixel */
"32 32 55 1 ",
"  c #871413",
". c #8B1514",
"X c #941716",
"o c #9B1716",
"O c #951817",
"+ c #9B1817",
"@ c #9D1918",
"# c #A21918",
"$ c #AC1A1A",
"% c #B31B1B",
"& c #BA1B1C",
"* c #C31D1C",
"= c #CB1D1D",
"- c #D51D1D",
"; c #D91D1D",
": c #E71917",
"> c #E91917",
", c #E61E1D",
"< c #EA1E1E",
"1 c #D6201F",
"2 c #D9201F",
"3 c #E5201E",
"4 c #E9201E",
"5 c #D91F20",
"6 c #EB1F20",
"7 c #CA2323",
"8 c #D62121",
"9 c #D82121",
"0 c #DB2827",
"q c #DB2728",
"w c #D32C2B",
"e c #DC2B2B",
"r c #DB3534",
"t c #E42021",
"y c #EB2222",
"u c #EA2826",
"i c #E12D2D",
"p c #EB2B2A",
"a c #F02021",
"s c #ED302F",
"d c #E33435",
"f c #ED3433",
"g c #E63837",
"h c #E53939",
"j c #EB3D3C",
"k c #F03E3E",
"l c #E8403F",
"z c #EC4544",
"x c #EE4847",
"c c #EE4A4A",
"v c #F04343",
"b c #F24B4B",
"n c #F45454",
"m c #F65959",
"M c #F85A5A",
/* pixels */
"9989299;992922112222892222822222",
"92888989989991;;88888988;9889998",
";8;998q9818------=;;998998888q98",
"898989998;-qdjzzzzhe8;98888q8999",
"9989999;;qhbMMMMmmMmbh;;91999899",
";9898919hbMmnncjfsfflncw=1999999",
"89899;9bmmnnjp,<<:,<>yszr*899999",
"959859cmnMzu:6<6y<<6y6<<u7&8989q",
";999-dnmmby:666666666<6,a9&*5;88",
"888;;nnmby<6<,6666<66<6<6<*%=998",
"188;hmmvy:6<,6666<y<<666<6;#%599",
"888qcmMp:6<6666666<6666<<<6$#*59",
"898emmv:6666,6,6666666<666a&O%=9",
"99;ennf>666666666<6666666<6*X#=2",
"98;dmnu<66666666666<666666a=O#*;",
"95;dmv:y<6666666666666<66ay=XO%-",
"88;dMv>6<<<666666y66666666a=.O&-",
"98;iMk64y6666<666t6<66<6666&.O&=",
"9980mv><<66,6<6,6y6666<<<66$ +&-",
"8999bb,<<666yu666,6666<<,66# @%5",
"998-gn<<66<6<66<666<66666<=X.#&8",
"959;9mf>6<666<<y666666<ya9% O#*9",
"8998=dv>:<6<6666,6,6666t,&O +&=;",
"989885hy<<<y6666y666666,-+ .$*99",
"95989;wi6a<<y6<6,,666<6=$..@&=9;",
"858899=7=;6<<66666666;%o..+%*998",
"995999;=&%&56a<<66,-=$.  @%*;999",
";88899998*%##$&&%%#O. .O#%*188;9",
"9;89989998*%#oX.. .XOO#$&=198989",
"89898899;8;;=&%%#@@##$*=-9899999",
"8;819299;95;--=**&***-5;88;81;92",
"-;;-;-;;;--;;-;-------;;;;;;-;;-"
};
