/* XPM */
static char *result[] = {
/* columns rows colors chars-per-pixel */
"45 45 40 1 ",
"  c #D82222",
". c #DB2223",
"X c #D72020",
"o c #DA1F1E",
"O c #D71D1C",
"+ c #D41F1F",
"@ c #DB2A2A",
"# c #D81A19",
"$ c #D21818",
"% c #CD1E1E",
"& c #DF3030",
"* c #E03736",
"= c #E83C3B",
"- c #C61C1D",
"; c #F34E4D",
": c #F85858",
"> c #F95F5F",
", c #F35757",
"< c #EF4141",
"1 c #D43332",
"2 c #DE191A",
"3 c #E11F1E",
"4 c #E71613",
"5 c #EB1F20",
"6 c #E81E1E",
"7 c #EC2D2E",
"8 c #BE1C1C",
"9 c #A81A19",
"0 c #F12021",
"q c #B31B1B",
"w c #9E1918",
"e c #951817",
"r c #8D1514",
"t c #871414",
"y c #811412",
"u c #7B1311",
"i c #C92A28",
"p c #85100F",
"a c #7F100F",
"s c white",
/* pixels */
" .X ooooXoooooooooooooooooooooooooooooooooooO",
" .O++                                        ",
" O X XX XXX...    X++XXX++XXO ++ XOo.        ",
" O X .X+.@.X++XXO#$$#OO$$OOo .  X.. %       X",
" O X .XX    ..O$$ &*====*& %-#o. +%+         ",
" O X X  X+XoO$+@=;:>>:>>>>,<<%$#.@ X.    X  X",
" O X    .oO+$*<:>>:,:>,,,,>>>,=+$o.oO        ",
" O X  X .O$@=:::,,,::;;<<<<<;>>;1-$$.    X  X",
" O X X oO+@<>::,,,;=&234444563<:;*%%         ",
" O X  .O$&;>,,,:;=644555666645447;18-       X",
" O . X.$@,:;,>:<6465655555555555667@9%X.XX.@X",
" O   .$X<:::,;734555655555555655660.88-X + .X",
" O  XO$=:::>;76455660555555555656606$9q%.+X.+",
" O  X$@,:,>;7460566605655565566555506q98+X..+",
" O  O$<::,,72455665565556555656556550-w9-X .X",
" X  +.,:,><5455565556565555555555666569eq%X o",
" X X+*:,::74556555650555656555555666608e98%+.",
" X X$<>,><2555566656656555555656555500-ewq%+.",
" X.O+;,,:54555555555555565565555555550Owr9-+o",
" X OX:,,;66556556556556556555565655550o9r9-%o",
" X O.::,<45655555555565555565555555550o9rw8%o",
".X+O.:,,74065556565655555655565565550039teq-o",
".X+O.:>:640665555555565655565556555550o9teq-o",
" X O.:>,645565656556555556555655555550o9yeq-O",
" X OX;>;656565555565565555565556555555+wyeq-O",
" X.O+;>;503565556555555676555555655556%wyeq-O",
" X X$=>,545555565565565665565655666506qttwq-o",
" X X+&,>74565555567655555655555566655.qttwq-X",
" X  +$;>74556565566556555556555555563%wtrwq%X",
" O  +$=><440655555555556565555565006.qrtew8+X",
" O  XO ;:745655655656555555553665003%wytw98OX",
" O  X.-&:<4456556555555655655655556%qryrwq-oo",
" O    $+=<046555556556555655555063+qette98% o",
" O . +@$-=70655565555556555555006X-wutrwq-+ .",
" O X + o+i1500565556356636655665.8etrrwq-%XoX",
" O X  .o+%i%$05566555505055005o-qwptee9q%XoXX",
" O X .. O+-8qX350005666555633X8wrparw9q-+oo  ",
" O X X  oo+-qw98+300000056o%%9wtttrw98-+o.   ",
" O X +X ...+%q9ww9q-%+%%-89wetptrew9q%+oo +X ",
" O X X     oXX-qwrrrrrrrttyyuttrewq8-+X  X++X",
" O X    +  oX+%-8q9werrttreewww9qq-%+X    XX ",
" O X  XX ..oXXXO+%8qqq9wwww999q8-%O.    .o   ",
"+.+ o          XX++%%8888q888%%+++X o        ",
"+ + +XXXXXXXX..  XX++%%%%%%%%+++XX   XXXXXXXO",
"$O#OO#O#O#O#O#########2#####2####2222########"
};
