/* XPM */
static char *result[] = {
/* columns rows colors chars-per-pixel */
"32 32 195 2 ",
"   c #0D0C03",
".  c #140D04",
"X  c #190E07",
"o  c #140E08",
"O  c #1A0F08",
"+  c #151106",
"@  c #1B1305",
"#  c #1F1807",
"$  c #1C1409",
"%  c #1D1909",
"&  c #221505",
"*  c #231A06",
"=  c #22160A",
"-  c #231A0B",
";  c #2B1C0D",
":  c #281405",
">  c #331B0B",
",  c #321708",
"<  c #221710",
"1  c #241810",
"2  c #2B1C10",
"3  c #321E11",
"4  c #26200C",
"5  c #2B210C",
"6  c #362702",
"7  c #31230B",
"8  c #39270F",
"9  c #3B2A0D",
"0  c #372B08",
"q  c #2E2312",
"w  c #2F2A14",
"e  c #342413",
"r  c #3B2514",
"t  c #332914",
"y  c #3B2B13",
"u  c #3C2E1A",
"i  c #322519",
"p  c #3F321A",
"a  c #392F21",
"s  c #3D3120",
"d  c #422605",
"f  c #442C15",
"g  c #4D2C16",
"h  c #48281A",
"j  c #532C16",
"k  c #443214",
"l  c #4B3617",
"z  c #493812",
"x  c #42331A",
"c  c #4A341D",
"v  c #4B3A1B",
"b  c #413C1E",
"n  c #533217",
"m  c #5B3017",
"M  c #503D17",
"N  c #51321A",
"B  c #5A341C",
"V  c #5D3A1C",
"C  c #553D1E",
"Z  c #66391C",
"A  c #433421",
"S  c #463B23",
"D  c #4C3C21",
"F  c #533D25",
"G  c #5C3C23",
"H  c #5F3B2D",
"J  c #603720",
"K  c #623C26",
"L  c #6B3F29",
"P  c #5B431D",
"I  c #4D4224",
"U  c #574326",
"Y  c #5A4726",
"T  c #5D4920",
"R  c #554628",
"E  c #5A4428",
"W  c #554A2B",
"Q  c #5C4D2D",
"!  c #5C512E",
"~  c #5D5025",
"^  c #5F4B37",
"/  c #5C4530",
"(  c #5C5031",
")  c #654922",
"_  c #684F2F",
"`  c #67462D",
"'  c #704123",
"]  c #794920",
"[  c #79482B",
"{  c #65512D",
"}  c #75562A",
"|  c #6E4E30",
" . c #6D4F38",
".. c #654231",
"X. c #744C34",
"o. c #794436",
"O. c #605833",
"+. c #6D5B34",
"@. c #675B38",
"#. c #685838",
"$. c #7A5F37",
"%. c #735139",
"&. c #7F5039",
"*. c #765E38",
"=. c #72613B",
"-. c #786239",
";. c #766434",
":. c #766742",
">. c #746943",
",. c #81502C",
"<. c #814F33",
"1. c #804F3C",
"2. c #8B433B",
"3. c #825233",
"4. c #8D5934",
"5. c #8C5F3E",
"6. c #89553A",
"7. c #905C35",
"8. c #925F3A",
"9. c #826738",
"0. c #9A673E",
"q. c #9A693D",
"w. c #974C49",
"e. c #8C5C47",
"r. c #915841",
"t. c #9A5C44",
"y. c #965350",
"u. c #9F5053",
"i. c #856E44",
"p. c #946441",
"a. c #9B6343",
"s. c #99664A",
"d. c #81764F",
"f. c #907042",
"g. c #97714B",
"h. c #947050",
"j. c #937D51",
"k. c #A36544",
"l. c #A56D40",
"z. c #A5674F",
"x. c #AA6D4C",
"c. c #A3724A",
"v. c #AA714B",
"b. c #A07A49",
"n. c #AD7646",
"m. c #B27547",
"M. c #B3754A",
"N. c #B47B4B",
"B. c #B97C4C",
"V. c #AB6B54",
"C. c #A66C5A",
"Z. c #B4675D",
"A. c #A57653",
"S. c #AB7B58",
"D. c #B47454",
"F. c #B47B55",
"G. c #BB7C55",
"H. c #BC7D5B",
"J. c #B27B59",
"K. c #BE7B60",
"L. c #C37E5B",
"P. c #C37863",
"I. c #BC804E",
"U. c #A58656",
"Y. c #BA8155",
"T. c #B9855B",
"R. c #B18473",
"E. c #C18356",
"W. c #C2835A",
"Q. c #C5885B",
"!. c #C58464",
"~. c #CA8666",
"^. c #CC8B64",
"/. c #CB896B",
"(. c #D08F67",
"). c #D48F6B",
"_. c #CF906E",
"`. c #D4946D",
"'. c #D79A6E",
"]. c #DB956F",
"[. c #CE8B71",
"{. c #D69571",
"}. c #DA9574",
"|. c #DB9C75",
" X c #DA9678",
".X c #DD9C7B",
"XX c #D39278",
"oX c #DBA47D",
"OX c #E1A27E",
"+X c #DD9A82",
"@X c #D9AC83",
"#X c #E2A282",
"$X c #E5B095",
"%X c #E9B39B",
"&X c None",
/* pixels */
"&X&X&X&X&X&X&X&X&X&X&X&X&X&X&X&X&X&X&X&X&X&X&X&X&X&X&X&X&X&X&X&X",
"&X&X&X&X&X&X&X&X&X&X&X&X&X&X&X&X&X&X&X&X&X&X&X&X&X&X&X&X&X&X&X&X",
"&X&X&X&X&X&X&X&X&X&X&X&X&X&X&X&X&X&X&X&X&X&X&X&X&X&X&X&X&X&X&X&X",
"&X&X&X&X&X&X&X&X&X&X&X&X&X&X&X&X&X&X&X&X&X&X&X&X&X&X&X&X&X&X&X&X",
"&X&X&X&X&X&X&X&X&X&X&X&X&X&Xy f p z l &X&X&X&X&X&X&X&X&X&X&X&X&X",
"&X&X&X&X&X&X&X&X&X&X&X&XS 7 7 e y - e r v &X&X&X&X&X&X&X&X&X&X&X",
"&X&X&X&X&X&X&X&X&X&X&X=.U D E c & 2 2 $ % $ 9 &X&X&X&X&X&X&X&X&X",
"&X&X&X&X&X&X&X&X&X&X{ W g.`.T.0.W.M.B = = q r P &X&X&X&X&X&X&X&X",
"&X&X&X&X&X&X&X&X&X( ! A.|.|..X].`.).^.<.& + & D ) &X&X&X&X&X&X&X",
"&X&X&X&X&X&X&X&X>.( =.oXOX.X.X].}.}.).G.X.X = x { &X&X&X&X&X&X&X",
"&X&X&X&X&X&X&Xd.@.I ( oX`..XoX.X X]./.L.k.. 2 2 f ) &X&X&X&X&X&X",
"&X&X&X&X&X&X&X:.( W h.oX.X#X@X.XOXOX{.!.k., A $ v } &X&X&X&X&X&X",
"&X&X&X&X&X&Xj.>.@.b S.@XT.F./.|./.K ; x c = - $ e k &X&X&X&X&X&X",
"&X&X&X&X&X&X>.=.( I _ $...` L {.).t.[ t.p.= X e & e ) &X&X&X&X&X",
"&X&X&X&X&XU.-.( W I  .c.c./ e.{.~.4.R.L g ; = < . - r C &X&X&X&X",
"&X&X&X&X&Xi.+.R W b %.c.s.s.H.$X/.P.K.J.!.Z 2 2 O = A 8 &X&X&X&X",
"&X&X&X&X&Xi.@.I A S %.|.|.{..X%X+XK.}. X Xa.> O = y ( F &X&X&X&X",
"&X&X&X&Xi.-.*.D b p 6.'.#X#X X XXXz.[.+X.XZ.& O * @ N e M &X&X&X",
"&X&X&X&Xf.*.O.R x t F `.@X}.{.J.r.1.P.~.!.K i . @ = - x &X&X&X&X",
"&X&X&Xb.;.I S p t q G G.(.M.X.K V.B e.X.G., ; O X o - y &X&X&X&X",
"&X&X&X9.U F D y w 4 h H.B.3.o.2.w.u.y.t.v.& ; = $ X < p y x &X&X",
"&X&X&X$.{ x y t 5 - % q.n.N.W.P.Z.y.V.L.8.V ; O = % i e 5 &X&X&X",
"&X&X&X_ 9 R y 4 5 @ % t q.N.M.k.6.C.L.D.4.d O   $ < * f &X&X&X&X",
"&X&X&X&X_ y 7 e % = = $ V l.Y.Y.x.1.5.5.[ 2 . X X = e R k &X&X&X",
"&X&X&X} l r 7 2 - @ $ $ ,.j N g f h ; f g h o X $ $ c 0 T } &X&X",
"&X&X&X&X6 9 e 2 @ $ & $ 7.] > & O + O G [ N $ o $ + = ^ y Y &X&X",
"&X&X&X&XP y r & + - $ O 3.m.7.m j B a.V.F.' X + X $ + e r v &X&X",
"&X&X&X&X&X; 7 * & . $ + 3.B.m.m.k.H.Q.F.H.k.. X @ - 4 7 8 s &X&X",
"&X&X&X6 Q @ @ . % . + + 7.B.B.m.E.!.L.H.Y.a.& X - % p * * &X&X&X",
"&X&X&XI 5 * * + @ $ $ j l.Y.Q.B.l.x.x.G.v.a.- % $ $ e &X&X&X&X&X",
"&X&X;.4 @ * * ; 4 - % % ; B.E.E.G.D.H.H.v.B % + % 5 W b &X&X&X&X",
"&X&X0 @ . - +   @ # = % - p A.W.G.G.G.H.C % % % % - 4 w w &X&X&X"
};
