/* XPM */
static char *result[] = {
/* columns rows colors chars-per-pixel */
"32 32 197 2 ",
"   c #0D0D02",
".  c #140F03",
"X  c #0E1100",
"o  c #151404",
"O  c #1A1505",
"+  c #1D1906",
"@  c #1A1508",
"#  c #1D1A09",
"$  c #221B06",
"%  c #2C1B05",
"&  c #241D0A",
"*  c #2D1C09",
"=  c #371E0B",
"-  c #27210C",
";  c #2B230C",
":  c #292407",
">  c #30260C",
",  c #3D230C",
"<  c #332B0C",
"1  c #3F2B0C",
"2  c #3A3704",
"3  c #2E2814",
"4  c #342611",
"5  c #342D11",
"6  c #3B2B13",
"7  c #3A3110",
"8  c #452B0D",
"9  c #46290D",
"0  c #48300B",
"q  c #432B10",
"w  c #492C15",
"e  c #542E18",
"r  c #4B3212",
"t  c #443A14",
"y  c #4C3916",
"u  c #4E341A",
"i  c #4F3819",
"p  c #433C1B",
"a  c #523214",
"s  c #543913",
"d  c #583F16",
"f  c #52341A",
"g  c #5A351B",
"h  c #543C1A",
"j  c #5A3B1C",
"k  c #693B1D",
"l  c #613A1B",
"z  c #4C3823",
"x  c #573C20",
"c  c #5A3D21",
"v  c #653F24",
"b  c #673C29",
"n  c #5A411D",
"m  c #64431E",
"M  c #664F1F",
"N  c #5C4220",
"B  c #5C4B24",
"V  c #574829",
"C  c #594B30",
"Z  c #634427",
"A  c #6A4524",
"S  c #664C23",
"D  c #6B4B24",
"F  c #6C462A",
"G  c #674A29",
"H  c #76452C",
"J  c #744B2B",
"K  c #7A4B29",
"L  c #67562F",
"P  c #6D542C",
"I  c #6E5523",
"U  c #715627",
"Y  c #785725",
"T  c #73552A",
"R  c #785A2C",
"E  c #784C33",
"W  c #765431",
"Q  c #7F5C3F",
"!  c #7A5935",
"~  c #7F632E",
"^  c #7D6636",
"/  c #804E2E",
"(  c #825536",
")  c #895737",
"_  c #8C5C3C",
"`  c #81622F",
"'  c #846333",
"]  c #856438",
"[  c #91603F",
"{  c #916F39",
"}  c #9C613B",
"|  c #93743D",
" . c #9D7F3E",
".. c #945F48",
"X. c #975D44",
"o. c #9A6344",
"O. c #9D6A44",
"+. c #996C45",
"@. c #977645",
"#. c #957A44",
"$. c #9A7054",
"%. c #A46547",
"&. c #A76448",
"*. c #A16B4C",
"=. c #AA6D4B",
"-. c #A66A46",
";. c #A7774A",
":. c #AD714E",
">. c #AF6F54",
",. c #B86850",
"<. c #A67454",
"1. c #AC7353",
"2. c #AC7E5C",
"3. c #A97C54",
"4. c #B47252",
"5. c #B3735B",
"6. c #B07F58",
"7. c #B87958",
"8. c #B86F66",
"9. c #BA7C64",
"0. c #C17E65",
"q. c #C97E74",
"w. c #9F8345",
"e. c #9B8853",
"r. c #AB884A",
"t. c #AB835C",
"y. c #B1825B",
"u. c #BF825E",
"i. c #BC885E",
"p. c #AD9153",
"a. c #A49758",
"s. c #B69859",
"d. c #B68364",
"f. c #B98765",
"g. c #B68964",
"h. c #B88866",
"j. c #BD846E",
"k. c #BC8A6C",
"l. c #B99567",
"z. c #BE8A71",
"x. c #BFA166",
"c. c #BFA66F",
"v. c #C28C5D",
"b. c #C48665",
"n. c #C48D64",
"m. c #C98A66",
"M. c #C2866E",
"N. c #CA856B",
"B. c #C38C6D",
"V. c #CB8C6E",
"C. c #C79767",
"Z. c #C6966C",
"A. c #CA926C",
"S. c #CB9B6D",
"D. c #C49966",
"F. c #CF8374",
"G. c #C48D72",
"H. c #CE8B78",
"J. c #CD8C74",
"K. c #C39274",
"L. c #CB9574",
"P. c #CE9D73",
"I. c #C6937B",
"U. c #CB937A",
"Y. c #CD9A7C",
"T. c #D29474",
"R. c #D29B74",
"E. c #D4957B",
"W. c #D39F7D",
"Q. c #DA9C7C",
"!. c #C4A562",
"~. c #C2A862",
"^. c #CFA170",
"/. c #CBA37C",
"(. c #C8A878",
"). c #D8A97F",
"_. c #D6A277",
"`. c #D8BC7D",
"'. c #E1A27F",
"]. c #D69785",
"[. c #D39D80",
"{. c #DB9D83",
"}. c #D69F88",
"|. c #DE9E8B",
" X c #DEA486",
".X c #DFA885",
"XX c #DFA58C",
"oX c #DDA88A",
"OX c #E0AE87",
"+X c #E3A98D",
"@X c #E3A18B",
"#X c #E5B68D",
"$X c #E7AB93",
"%X c #E4BB94",
"&X c #E7BE9D",
"*X c #E9BD9C",
"=X c None",
/* pixels */
"=X=X=X=X=X=X=X=X=X=X=X=X=X=X=X=X=X=X=X=X=X=X=X=X=X=X=X=X=X=X=X=X",
"=X=X=X=X=X=X=X=X=X=X=X=X=X=X=X=X=X=X=X=X=X=X=X=X=X=X=X=X=X=X=X=X",
"=X=X=X=X=X=X=X=X=X=X=X=X=X=X=X=X=X=X=X=X=X=X=X=X=X=X=X=X=X=X=X=X",
"=X=X=X=X=X=X=X=X=X=X=X=X=X=X=X=X=X=X=X=X=X=X=X=X=X=X=X=X=X=X=X=X",
"=X=X=X=X=X=X=X=X=X=X=X` ] 1 % B U D m n 1 U @.=X=X=X=X=X=X=X=X=X",
"=X=X=X=X=X=X=X=X=X=Xr.U h & y N D s T s 0 Z P =X=X=X=X=X=X=X=X=X",
"=X=X=X=X=X=X=X=X=Xr.{ T i - $ q d h 8 8 9 h 8 8 =X=X=X=X=X=X=X=X",
"=X=X=X=X=X=X=X=Xs.| @.R G 6 * q 0 D S n c f h S `.=X=X=X=X=X=X=X",
"=X=X=X=X=X=X=X=X!.#.' W S e f f j h q = , h Z R !.=X=X=X=X=X=X=X",
"=X=X=X=X=X=X=X=Xp.P T ! F b J m F A 9 w u h N I OX=X=X=X=X=X=X=X",
"=X=X=X=X=X=X=X=Xs.#.` J E _ { K m A a 9 x w h ~ s.=X=X=X=X=X=X=X",
"=X=X=X=X=X=X=X=Xs.r.` F X.:.=.-.( k g g u r i n x.=X=X=X=X=X=X=X",
"=X=X=X=X=X=X=X=X!.r.g _ 1.7.4.:.=.o./ H e f u ! ^ =X=X=X=X=X=X=X",
"=X=X=X=X=X=X=X=X~.{ | A _ H K -.7.} H H ) _ F W e.=X=X=X=X=X=X=X",
"=X=X=X=X=X=X=X=X=X` %X;.F & l / '.7.k 9 > K k.t.c.=X=X=X=X=X=X=X",
"=X=X=X=X=X=X=X=X=Xp.%X^.v.-.o.T.{.V.M.&.4.Z.P.t.P.=X=X=X=X=X=X=X",
"=X=X=X=X=X=X=X=XI..X%X#X@X{.+X+X@XL.E.{.].W.[.g.XX=X=X=X=X=X=X=X",
"=X=X=X=X=X=X=X=X=X,.*X+X$X|.m.*XXXU.5.{.}.].}.Q.F.=X=X=X=X=X=X=X",
"=X=X=X=X=X=X=X=X=X_.*X.XQ.N.4.l X.b 5.&.N.].[.oX}.=X=X=X=X=X=X=X",
"=X=X=X=X=X=X=X=X=X=X@XT.b.&.T.m...M.H.0.>.M.I._.=X=X=X=X=X=X=X=X",
"=X=X=X=X=X=X=X=X=X=X=XL.m.v.A.J.E.q.j.9.u.B.I.=X=X=X=X=X=X=X=X=X",
"=X=X=X=X=X=X=X=X=X=X=XP.A.v.J.q.q.q.8.V.V.B.Y.=X=X=X=X=X=X=X=X=X",
"=X=X=X=X=X=X=X=X=X=X=X=Xn.R.Q.0.5.9.H.U.B.k.K.=X=X=X=X=X=X=X=X=X",
"=X=X=X=X=X=X=X=X=X=X=X=X(.Z.R.T.E.T.U.A.h.h./.=X=X=X=X=X=X=X=X=X",
"=X=X=X=X=X=X=X=X=X=X=X=X(.S.;.*.*.1.<.2.<.Y.W.C ; & =X=X=X=X=X=X",
"=X=X=X=X=X=X=X=X=X=X=Xt B S.C.] v Z ( 2.K.U.Y.V $ - . L > + $ =X",
"=X=X=X=X=X=X=X=X=X=XB : < S.).^.O.d.L.Y.Y.I.I.z # @ & : O .   V ",
"=X=X=X=X=X=X=X=X=X=X2 > ; W._.^.W.I.K.I.U.Y.z.$ $ $ # # o o & ; ",
"=X=X=X=X=X=X=X=X=X=X< 7 ; $.P.S.i.d.j.k.G.I.% & & - $ - # - # & ",
"=X=X=X=X=X=X=X=X=X7 > o ; > 3.S.d.d.z.z.z.t.& $ - - & $ * # @ @ ",
"=X=X=X=X=X=X=X7 < p < $ o 5 Q y.6.g.d.K.l.- ; ; & - - $ . o o o ",
"=X=X=X=X=XS 6 > > ; 3 - # + 3 y.6.2.g.a.e.; : > ; & X o o o @ # "
};
