/* XPM */
static char *result[] = {
/* columns rows colors chars-per-pixel */
"32 32 197 2 ",
"   c #080601",
".  c #0B0A02",
"X  c #120C04",
"o  c #110703",
"O  c #0E1001",
"+  c #1B1204",
"@  c #1E1A06",
"#  c #1A1808",
"$  c #151307",
"%  c #251D0C",
"&  c #2B1B0B",
"*  c #2C1305",
"=  c #24210E",
"-  c #29240C",
";  c #3B240F",
":  c #272112",
">  c #2C2512",
",  c #332A14",
"<  c #3A2B14",
"1  c #342D1C",
"2  c #3A2B19",
"3  c #352515",
"4  c #3A301B",
"5  c #402309",
"6  c #49341C",
"7  c #413818",
"8  c #4D3417",
"9  c #573C1D",
"0  c #55361B",
"q  c #413220",
"w  c #4C3F23",
"e  c #553425",
"r  c #583726",
"t  c #583921",
"y  c #573C27",
"u  c #6B3F27",
"i  c #4E441E",
"p  c #564515",
"a  c #544525",
"s  c #5F4128",
"d  c #59482B",
"f  c #5A5237",
"g  c #6C4422",
"h  c #6F462C",
"j  c #6C4C2D",
"k  c #644322",
"l  c #714027",
"z  c #734B29",
"x  c #72512E",
"c  c #6D4C30",
"v  c #724F31",
"b  c #784C34",
"n  c #645633",
"m  c #7B5332",
"M  c #735B33",
"N  c #7F5939",
"B  c #7A5737",
"V  c #7D633A",
"C  c #746840",
"Z  c #855D2F",
"A  c #814937",
"S  c #865C3D",
"D  c #875938",
"F  c #90583C",
"G  c #A94F3D",
"H  c #8D6337",
"J  c #88633D",
"K  c #816939",
"L  c #92653B",
"P  c #9D663F",
"I  c #A0623F",
"U  c #8A5E46",
"Y  c #9C5449",
"T  c #9D5A48",
"R  c #A75D51",
"E  c #8F6042",
"W  c #936B44",
"Q  c #9D6B42",
"!  c #9A6949",
"~  c #85774E",
"^  c #9C744C",
"/  c #94704A",
"(  c #997757",
")  c #A26647",
"_  c #B06C4A",
"`  c #AB7244",
"'  c #AD734C",
"]  c #A5764A",
"[  c #B57B4C",
"{  c #B47949",
"}  c #A76B54",
"|  c #A47A53",
" . c #AC7A53",
".. c #B17352",
"X. c #B47B53",
"o. c #BA7E56",
"O. c #BB7E5A",
"+. c #B5775C",
"@. c #927362",
"#. c #BE7C61",
"$. c #C07E60",
"%. c #CD7A76",
"&. c #B7824E",
"*. c #BB804D",
"=. c #A5865A",
"-. c #BB8252",
";. c #BC825A",
":. c #B4895D",
">. c #B6815A",
",. c #9F8E61",
"<. c #988261",
"1. c #AF8560",
"2. c #AC8C63",
"3. c #BE8665",
"4. c #AD9066",
"5. c #BC9464",
"6. c #B5936B",
"7. c #BB9369",
"8. c #BC9D6B",
"9. c #B19061",
"0. c #AD9470",
"q. c #BE9C73",
"w. c #BEA574",
"e. c #C28955",
"r. c #C1865D",
"t. c #C08658",
"y. c #C7905D",
"u. c #CD915D",
"i. c #C28563",
"p. c #C58964",
"a. c #CC8C64",
"s. c #C38A6B",
"d. c #C98D69",
"f. c #D38A64",
"g. c #CC9465",
"h. c #C5946C",
"j. c #CC946E",
"k. c #C89A6A",
"l. c #D3936C",
"z. c #D8976D",
"x. c #D3986C",
"c. c #CF8971",
"v. c #D48773",
"b. c #D58F72",
"n. c #CC9B70",
"m. c #C59677",
"M. c #D49375",
"N. c #DC9C74",
"B. c #D4957A",
"V. c #DB9B7C",
"C. c #D79874",
"Z. c #E19F7E",
"A. c #C2A16E",
"S. c #C3A27A",
"D. c #CCA47B",
"F. c #CDAA7D",
"G. c #DEA174",
"H. c #DCA27C",
"J. c #D7A67A",
"K. c #D2B27F",
"L. c #E2A37B",
"P. c #E1AB7F",
"I. c #D88687",
"U. c #DC9E84",
"Y. c #E09E84",
"T. c #CCAD83",
"R. c #CDA782",
"E. c #DDA182",
"W. c #DFAF85",
"Q. c #D5AA85",
"!. c #CEB487",
"~. c #CCB88F",
"^. c #D4B385",
"/. c #D4B58A",
"(. c #DDB58C",
"). c #D9B98C",
"_. c #DAB692",
"`. c #D7BC93",
"'. c #DFBF93",
"]. c #DFBC99",
"[. c #E3A483",
"{. c #E3AB84",
"}. c #E3A58C",
"|. c #E4AC8B",
" X c #E4B48D",
".X c #E2B98F",
"XX c #E5AE91",
"oX c #E2BA93",
"OX c #E7B796",
"+X c #DCC49D",
"@X c #D9C59A",
"#X c #E3C299",
"$X c #E2CC9D",
"%X c #DBC8A0",
"&X c #E5CEA7",
"*X c #E3D4AE",
"=X c None",
/* pixels */
"=X=X=X=X=X=X=X=X=X=X=X=X=X=X=X=X=X=X=X=X=X=X=X=X=X=X=X=X=X=X=X=X",
"=X=X=X=X=X=X=X=X=X=X=X=X=X=X=X=X=X=X=X=X=X=X=X=X=X=X=X=X=X=X=X=X",
"=X=X=X=X=X=X=X=X=X=X=X=X=X=X=X=X=X=X=X=X=X=X=X=X=X=X=X=X=X=X=X=X",
"=X=X=X=X=X=X=X=X=X=X=X=X=X=X=X=X=X=X=X=X=X=X=X=X=X=X=X=X=X=X=X=X",
"=X=X=X=X=X=X=X=X=X=X=X=X=X=X=X=X=X=X=X=X=X=X=X=X=X=X=X=X=X=X=X=X",
"=X=X=X=X=X=X=X=X=X=X=X=X=X=X=X=X=X=X=X=X=X=X=X=X=X=X=X=X=X=X=X=X",
"=X=X=X=X=X=X=X=X=X=X=X=X=Xa * & 2 2 n =X=X=X=X=X=X=X=X=X=X=X=X=X",
"=X=X=X=X=X=X=X=X=X=X=Xp 6 9 U h b c 3 a =X=X=X=X=X=X=X=X=X=X=X=X",
"=X=X=X=X=X=X=X=X=X=XK W N.G.G.N.z.l.f.' d =X=X=X=X=X=X=X=X=X=X=X",
"=X=X=X=X=X=X=X=X=X=X^ H.L.L.z.N.Z.H.l.p.n.M =X=X=X=X=X=X=X=X=X=X",
"=X=X=X=X=X=X=X=X=XM  XP.L.[.[.L.[.[.N.g.i.| =X=X=X=X=X=X=X=X=X=X",
"=X=X=X=X=X=X=X=X=XV .X{. X|.}.|.[.}.E.M.h._.~ =X=X=X=X=X=X=X=X=X",
"=X=X=X=X=X=X=X=X=X2..X| v r } U.[.s.y r U #X,.=X=X=X=X=X=X=X=X=X",
"=X=X=X=X=X=X=X=X=X9.oXl.l.o.' H.U._ ) s.i.*X=.=X=X=X=X=X=X=X=X=X",
"=X=X=X=X=X=X=X=X=X).W.F 9 @.i.L.b.#.@.e U &Xw.=X=X=X=X=X=X=X=X=X",
"=X=X=X=X=X=X=X=X=X#X XJ._ #.l.XXY.$...) s._.~.R.=X=X=X=X=X=X=X=X",
"=X=X=X=X=X=X=X=X#.#X X|.[.[.{.XXY.%.B.V.J.].s.G =X=X=X=X=X=X=X=X",
"=X=X=X=X=X=X=X=XOX(. X}.}.[.U.b.v.m.B.U.U.Q.O.v.=X=X=X=X=X=X=X=X",
"=X=X=X=X=X=X=X=XV.oXN.V.N.C.v...A } l.B.B.D.B.U.=X=X=X=X=X=X=X=X",
"=X=X=X=X=X=X=X=X=XM.n.r.l.l.Q B ! h 3.j.d.Q.M.=X=X=X=X=X=X=X=X=X",
"=X=X=X=X=X=X=X=X=Xf.J.g.[ >.T R Y Y 3.| h.].B.=X=X=X=X=X=X=X=X=X",
"=X=X=X=X=X=X=X=X%XZ D.x.-.l.v.I.I.%.O.+.n.0.!.=X=X=X=X=X=X=X=X=X",
"=X=X=X=X=X=X=Xy.] g 5 g.e.t.I u u ) o.;.h.| 6.@X@X=X=X=X=X=X=X=X",
"=X=X=X=X=X=X^.:.0 9 x &.&.u.g.a.$.i.] o.:.X u B J `.=X=X=X=X=X=X",
"=X=X=X=X=X=XF.K m v J u.L x v S S h j ^ >.+ y c ; W =X=X=X=X=X=X",
"=X=X=X=X=X&XK.m k o :.e.&.8 & & ; * < X.r.( V 6 / 0.*X=X=X=X=X=X",
"=X=X=X=X=X$X#Xj 8.H H e.[ e.z g u m ;.p.t.* 4.( W /.%X$ =X=X=X=X",
"=X=X=X=X=X*XK.@X5.J.D *.t.e.e.I ' ;.t.p.r.D m./ /./.<.: . > =X=X",
"=X=X=Xo o & ^.F.).K.D P &.{ ` { ;.;.o.r.-.7.q.w.~.!.# $   = # =X",
"=X=XO X 7 i V ^.8.^.).L { -.{ P ' O.r.;.Q m././.R.d @ $ . > , 1 ",
"=X& . = , i f # ^.A.5.).] -.....-.X.r. .7./.!.S.4.= : 1 : 4 2 , ",
"=X@ = , , n > > w.^.F.=.9 F.[  .o.;.;.1.`.T.q.q.2.> > > 4 4 q , "
};
