/* XPM */
static char *result[] = {
/* columns rows colors chars-per-pixel */
"31 32 241 2 ",
"   c #909AA4",
".  c #979EA8",
"X  c #B0B8BE",
"o  c #B0B9BF",
"O  c #969EA8",
"+  c #B3BAC1",
"@  c #B3BBC0",
"#  c #969FA8",
"$  c #B3B8C1",
"%  c #B2BAC0",
"&  c #B2B9C1",
"*  c #B4BCC3",
"=  c #969FA9",
"-  c #B4BDC2",
";  c #B7BDC3",
":  c #979FA9",
">  c #B2B9C0",
",  c #B1B7BE",
"<  c #969EA9",
"1  c #B3B9C0",
"2  c #AFB7BC",
"3  c #B4BAC2",
"4  c #B1B6BE",
"5  c #B5BAC2",
"6  c #B7BCC2",
"7  c #B2B9BE",
"8  c #B5BBC3",
"9  c #909AA5",
"0  c #8E99A2",
"q  c #8F99A3",
"w  c #8C97A1",
"e  c #8E9AA2",
"r  c #010001",
"t  c #010000",
"y  c #000100",
"u  c black",
"i  c #010101",
"p  c #010100",
"a  c #000001",
"s  c #939CA7",
"d  c #939DA6",
"f  c #878E9A",
"g  c #8F99A2",
"h  c #89939C",
"j  c #8D97A0",
"k  c #89929C",
"l  c #8E98A2",
"z  c #FF0032",
"x  c #A90001",
"c  c #FE0132",
"v  c #FF0133",
"b  c #FE0033",
"n  c #312831",
"m  c #B87A56",
"M  c #782B01",
"N  c #792A00",
"B  c #B97B56",
"V  c #C35B22",
"C  c #FE0133",
"Z  c #89909C",
"A  c #88929D",
"S  c #878E9B",
"D  c #8F99A0",
"F  c #909BA5",
"G  c #8C96A0",
"H  c #919DA5",
"J  c #8D96A1",
"K  c #8E9AA5",
"L  c #FE0032",
"P  c #A80101",
"I  c #FF0132",
"U  c #312830",
"Y  c #B87B56",
"T  c #B97B57",
"R  c #A90000",
"E  c #8F98A2",
"W  c #8C96A1",
"Q  c #87909A",
"!  c #8E98A1",
"~  c #919AA5",
"^  c #949EA8",
"/  c #949EA9",
"(  c #939FA6",
")  c #929EA6",
"_  c #FF0033",
"`  c #B87A57",
"'  c #C35B23",
"]  c #8D96A0",
"[  c #8A949F",
"{  c #8D97A1",
"}  c #848D97",
"|  c #8B979F",
" . c #919AA4",
".. c #97A1AB",
"X. c #8E98A3",
"o. c #8C94A1",
"O. c #A80001",
"+. c #B97A57",
"@. c #B87B57",
"#. c #C25B22",
"$. c #929AA4",
"%. c #919BA5",
"&. c #939AA4",
"*. c #939CA6",
"=. c #88959E",
"-. c #8B949F",
";. c #8F98A3",
":. c #000101",
">. c #C25A23",
",. c #B97A54",
"<. c #B97A56",
"1. c #929CA6",
"2. c #8C97A0",
"3. c #8D98A1",
"4. c #8F9AA3",
"5. c #96A1A8",
"6. c #8E97A1",
"7. c #939DA4",
"8. c #B57C5D",
"9. c #C25B23",
"0. c #C35A23",
"q. c #949FA7",
"w. c #8C949E",
"e. c #929AA5",
"r. c #909BA3",
"t. c #8A959F",
"y. c #8F9AA2",
"u. c #F65B62",
"i. c #B57F5F",
"p. c #8C98A2",
"a. c #8E99A3",
"s. c #8E9BA3",
"d. c #89959E",
"f. c #8F9BA2",
"g. c #A80100",
"h. c #F75B62",
"j. c #F65A62",
"k. c #848F99",
"l. c #919AA3",
"z. c #919CA5",
"x. c #929FA6",
"c. c #8B959F",
"v. c #8F99A4",
"b. c #8D98A3",
"n. c #87919C",
"m. c #919BA4",
"M. c #8F9AA5",
"N. c #C25A22",
"B. c #909BA4",
"V. c #949CA6",
"C. c #F75A62",
"Z. c #F65B63",
"A. c #F65A63",
"S. c #939BA5",
"D. c #929CA7",
"F. c #F75A63",
"G. c #F75B63",
"H. c #8F9BA3",
"J. c #8A949E",
"K. c #8A94A0",
"L. c #8C959F",
"P. c #97A1AA",
"I. c #8E9AA3",
"U. c #88939C",
"Y. c #8A96A0",
"T. c #8B959E",
"R. c #858F9B",
"E. c #858E9A",
"W. c #8A929F",
"Q. c #B97857",
"!. c #909AA3",
"~. c #929DA7",
"^. c #8B95A1",
"/. c #8F9BA5",
"(. c #B87857",
"). c #FEF200",
"_. c #FEF300",
"`. c #FFF201",
"'. c #792B01",
"]. c #87919B",
"[. c #8C99A0",
"{. c #8A929E",
"}. c #8E96A2",
"|. c #B77A56",
" X c #EC1C25",
".X c #FFF300",
"XX c #8A959E",
"oX c #878F9B",
"OX c #919DA4",
"+X c #8D98A2",
"@X c #B97A59",
"#X c #8D99A3",
"$X c #8F9BA4",
"%X c #929DA4",
"&X c #8D98A0",
"*X c #949FA9",
"=X c #959FA8",
"-X c #8A939E",
";X c #88959F",
":X c #8B949E",
">X c #8C96A3",
",X c #C35A22",
"<X c #8B939E",
"1X c #782A01",
"2X c #B57E61",
"3X c #8F96A3",
"4X c #848E99",
"5X c #959EA8",
"6X c #B77A57",
"7X c #792B00",
"8X c #A80000",
"9X c #A90101",
"0X c #B87957",
"qX c #8A969E",
"wX c #A90100",
"eX c #312931",
"rX c #782A00",
"tX c #959EA9",
"yX c #939EA6",
"uX c #312930",
"iX c #B67B58",
"pX c #8A97A0",
"aX c #86919B",
"sX c #979EA9",
"dX c #302931",
"fX c #8F97A0",
"gX c #8E97A3",
"hX c #8F96A0",
"jX c #302830",
"kX c #302930",
"lX c #8E9BA2",
"zX c #ABB0B9",
"xX c #A5ADB3",
"cX c #A5AAB3",
"vX c #A9B1B7",
"bX c #302831",
"nX c #A9B1B9",
"mX c #9FA6AF",
"MX c #A5ACB2",
"NX c #A8B0B6",
"BX c white",
/* pixels */
"  . X o O + @ # $ % # & * = - ; : > , < 1 2 . 3 4 = 5 6 = 7 8 ",
"9 0 q w e r t y u r i p u i r u u u t r i y a a p r s 9 d f g ",
"  h j k l p z x c z v b n m M N B V a v v b x b C y Z A A S D ",
"F G H J K y L P c I I U m B m Y T m T a v I P R I t E W E Q ! ",
"~ ^ / ( ) u _ L c _ t Y T T B ` B ` T ' i v b b v y ] [ { } | ",
" ...d X.o.y O.L I c y T B B +.T m @.T #.p I _ z v a $.F %.&.%.",
"~ *.=.-.;.:.C z c y >.,.B T B Y ` ` ` <.` :.v z x :.1.2.3.9 4.",
"~ 5.6.G 7.u I L I r >.<.T B Y Y T <.<.8.9.0.u C z y q.S w.e.r.",
"F q t.w y.i z C t @.+.m T m B T +.u.@.m i.>.n b L p p.a.s.d.f.",
"  t.] p.;.a g.v a ' <.m +.Y B u.h.O.j.T T V U c v :.g w W k.l.",
"9 z.x.c.j :.c L :.9.<.+.Y <.<.T R j.@.@.+.T ` L L t v.E b.n.X.",
"m.0 F ~ M.r _ i 0.N.m @.T @.` Y ` +.<.m B +.B y v t g 2.4.W B.",
"~ V.< $.  y I a C.Y T T <.T Z.<.u.C.+.A.` m j.p I :.: ^   B.S.",
"9 D./ 0 e r I y C.B ` C.<.F.C.<.G.G.T j.j.T A.a C t p.g ;.-.H.",
"~ J.0  .g p c i G.T C.h.Y F.h.+.j.C.` j.j.G.A.i I u l q K.L.0 ",
" .H.{ ( P.y _ a G.` G.j.@.Z.B m h.F.T C.@.u.F.y L u 0 W I.U.q ",
" .g Y.G J r c i ` j.u.<.u.u.@.Y u.h.T u.Y B C.:.C t *.T.I.R.4.",
"B.E.k W.j p C r m Y ` Y Y B T Q.Y T B @.` T <.u z i g !.~.h ^.",
"  f.l W /.a C u @.T Y T Y m T (.>.+.+.)._.`.'.:.C y ~.I. .].[.",
"B.{.}.c.F u b a ` B @.@.+.@.` |.@.` Y m  X.XT y v r t.[ XXoX] ",
"9 0 OX^ +Xu I u T +.<.+.m ` Y @X` ` <.` <.m B u I u #X] y.T.;.",
"~ q $X%Xg i C :.T @.0.>.V #.N '.'.M 0.@.B T T p c a &X*X=X-Xm.",
" .G ;X:X0 r _ b r +.` >.9.' @.+.<.<.#.>.V m i y _ r F F s.[ >X",
"B.p.XXJ s.t C v u Y +.+.Y Y V ,X0.V T B m +.r L v r ~ &XX.k %.",
"m.-.0 <X=.i C C p 1XB ` +.>.#.N.>.` +.` Y 2Xu C g.i X.3Xc.4XJ.",
"~ ~.5Xs.e t L v p 6X7XV V #.m @.0.9.9.>.V t z C 8Xt q a.s.-.H.",
" .d.g g J :.9X_ c n @.#.@.T B B <.T 0XY V t v c C u a.q qX:X  ",
"F :Xa.[ ] p wXb c z eXrXm Y B m B ` (.@.i z v _ _ t j j 3.k 9 ",
"%.tX/ yX( y L C z L uXm <.1XiXY '.Y ` @.u I v _ v i pXT.+XaX&X",
"B.sX%.X.c.y _ C P v v dX` M <.@.'.` p p v _ 9XI C y 9 fXgXhX{ ",
"F *.[ -.0 y b C 9Xc I z uXjXkXi y t a _ c z P C I :.~ G w %.lX",
"m.zXxXcXvXy y t y r p :.r dXbXuXkXU y i y y r i i a nXmXMXNXNX"
};
