/* XPM */
static char *result[] = {
/* columns rows colors chars-per-pixel */
"32 32 37 1 ",
"  c #010100",
". c #312931",
"X c #782A00",
"o c #A90101",
"O c #ED1C25",
"+ c #FF0032",
"@ c #C35B23",
"# c #B77B57",
"$ c #B87A56",
"% c #B57D5C",
"& c #B87A58",
"* c #FFF200",
"= c #B88F78",
"- c #848D96",
"; c #858E9A",
": c #86909C",
"> c #8A949E",
", c #8D96A1",
"< c #8E99A2",
"1 c #919CA5",
"2 c #959EA8",
"3 c #96A1AA",
"4 c #9FA6AE",
"5 c #A5ABB3",
"6 c #A9B1B6",
"7 c #ACB3BB",
"8 c #B1B6BF",
"9 c #B1B9BF",
"0 c #B4BBC2",
"q c #B9BEC5",
"w c #BCC1C6",
"e c #BEC3C9",
"r c #C1C6CA",
"t c #C5CACE",
"y c #C7CCD1",
"u c #D1D4D6",
"i c #D5D7DB",
/* pixels */
"i799w0990980q=q000700990080q000y",
"t1,><                     212;,6",
"r:,>, +o++++.$XX$$ +++o++ :::;,7",
"r,1,< +o+++.$#$$$$$ ++oo+ <,1;,7",
"t3113 ++++ $$@$$$@$$ ++++ ,>,->7",
"t311, o+++ $$@$$#@$$ ++++ 1111,0",
"t1>>1 +++ X$$@$$$@$$$ ++o 1,,1,7",
"t2,>1 +++ X$$$$$$$$%$$ ++ 3:>117",
"w1>,1 ++ $$@@@@@@@@@=$.++ <<<,,7",
"w>,,< o+ ##$$$$$$$$$$$.++ <,,;17",
"w31>, ++ $$$$$$$$$$$$$$++ <<<:,7",
"w,11< + $$$$@$$$@$$@$$$ + <,<,<9",
"e1311 + $$$$@$$$@$$@$$X + 231117",
"e13,, + X$$$@$$$@$$@$$$ + ,1<>17",
"q><11 + $$$$@$$$@$$$@$X + ,,,,,9",
"w,>33 + $$$$@$$$@$$$@$$ + 1,,:17",
"w,,,, + X&X$$$$$@$$$$$$ + 3><:<7",
"w;:,, + $$X$@$$#@$$$$$$ + ,11>:7",
"e<<,< + $$$$@$$$@$$***X + 2,1:,7",
"e,<>1 + &$$$@$#&$$$$O*$ + :,>;,7",
"e<12, + $$$$$$$$$$$$$$$ + <,,>,7",
"e<<1< + $$@@@@XXXX@$$$$ + <23:17",
"w,,>< ++ $$$$$$$##$$$$  + <1<:<7",
"w<><, ++ $&@$@$$@#@$$$ ++ 1<<,<7",
"q,<,: ++ X#@$@@$@$$@#= +o <<,;,5",
"w21<< ++ #X$$$@$@$$@$ ++o <<<,<7",
"w,,<, o++.$#$$@$$$$$$ +++ <<>,17",
"w,<,, o+++.X#$$$$$$# ++++ <,,:<7",
"r3132 ++++.$$X&$X$$$ ++++ ,><:,7",
"t21,> ++o++.$X$$X$  ++o++ 1>,,,7",
"t1>>, ++o+++...    +++o++ <<,<<7",
"u7557        .....        74566e"
};
