/* XPM */
static char *result[] = {
/* columns rows colors chars-per-pixel */
"32 32 16 1 ",
"  c #00A060",
". c #00A868",
"X c #00F0B0",
"o c #38F8C8",
"O c #B8F8E8",
"+ c #00C080",
"@ c #009050",
"# c #008848",
"$ c #00D090",
"% c #00E0A0",
"& c #F8F8F8",
"* c #78F8D8",
"= c #007840",
"- c #087038",
"; c #18F8C0",
": c white",
/* pixels */
"        .XoOOo+.  @@#@  .+$+ ###",
"        .%oO&OOo%++...+$**$ ###@",
"   @@@@  +oO&OOO*%%%*OOO&O+ ##@ ",
"  @#==#@ .oOOo$+.  .+oO&Oo. @  .",
"  #====# .*o$+  @### +oOO$+. ...",
". ==---= +%+  #######.%oO$++... ",
"$. #=== .+. @######## +;O$++.  @",
"+%+.  .+$.@###########.;Oo+  @##",
".%*o$o*%+ ############ $O*.@####",
" +oOO*o$ @############ +OO+ @###",
"#.%OOo$+ ############# +OOo. @##",
"=#.oO$++. ########### .$O&Oo+  @",
"-= oO$.+. @#########@ +$O&&Oo;+.",
"-- o*+  .. @#######@ .+oO&OOOOOO",
"=#+*o.# .+.  @###@  .+$*OOo$+..+",
".+oO+ # .++..     ..++o*o$+  ## ",
"%oOO+   ++++....+++++o*o$+. ## .",
"o*&&*..+++.    ..+++o*o$+++.  .+",
"+o*OOo++.  ####  ++o*o$++++...++",
" .+oOO$. ####### +o*o$+.     ..+",
"#  +o*o.####### +o*o$.  #####  .",
"=## +o*$  ##  .$**o%. ######### ",
"-=## +o*o+..+$**oo*+ ###########",
"--=## +*OOOOO*o$$%o+ ###########",
"-=### .oO*o$+...+$*+ ###########",
"=##### $*Oo$+. .$oO$ ###########",
"##### .+oOOo$$$o*OOo.###########",
"  ##  ++$O&OOOO***OO$ ##########",
"..  .+++$O&Oo+.+$o***+  ########",
"+++..+++$OO+  #  .$o*o$.  ######",
"+++. .++%Oo ##### .+$Xoo$.  ### ",
"++. @ .+;O+ ###### +++$%oo$.   +"
};
