/* XPM */
static char *result[] = {
/* columns rows colors chars-per-pixel */
"32 32 229 2 ",
"   c #5E471D",
".  c #5D461F",
"X  c #79510F",
"o  c #7B520F",
"O  c #7D530D",
"+  c #7F530C",
"@  c #7C530E",
"#  c #7D530E",
"$  c #7D530F",
"%  c #7F540C",
"&  c #6A4C17",
"*  c #6D4C15",
"=  c #6E4D15",
"-  c #6C4C16",
";  c #6D4C16",
":  c #674A19",
">  c #64491A",
",  c #65491A",
"<  c #61481D",
"1  c #62491C",
"2  c #654B1D",
"3  c #684B18",
"4  c #6A4C18",
"5  c #6A4C19",
"6  c #6D4D18",
"7  c #6E4F1A",
"8  c #694D1C",
"9  c #704D13",
"0  c #734E12",
"q  c #704E14",
"w  c #704E15",
"e  c #724F14",
"r  c #724F15",
"t  c #704F16",
"y  c #765011",
"u  c #775011",
"i  c #745012",
"p  c #755012",
"a  c #755013",
"s  c #775112",
"d  c #765013",
"f  c #775213",
"g  c #735015",
"h  c #725017",
"j  c #745114",
"k  c #745015",
"l  c #775214",
"z  c #765215",
"x  c #775215",
"c  c #745116",
"v  c #755216",
"b  c #765216",
"n  c #775216",
"m  c #795211",
"M  c #7A5210",
"N  c #7B5210",
"B  c #7B5311",
"V  c #795212",
"C  c #785213",
"Z  c #795213",
"A  c #795313",
"S  c #7A5313",
"D  c #7B5413",
"F  c #7D5410",
"G  c #7D5511",
"H  c #7E5511",
"J  c #7F5611",
"K  c #7C5412",
"L  c #7E5512",
"P  c #7F5612",
"I  c #7F5613",
"U  c #785214",
"Y  c #785315",
"T  c #795416",
"R  c #715018",
"E  c #865607",
"W  c #895707",
"Q  c #8B5807",
"!  c #8C5906",
"~  c #8D5906",
"^  c #8C5907",
"/  c #8F5B06",
"(  c #80540B",
")  c #82540A",
"_  c #82550A",
"`  c #82550B",
"'  c #83550B",
"]  c #855608",
"[  c #855609",
"{  c #865608",
"}  c #875608",
"|  c #84560A",
" . c #84560B",
".. c #86560A",
"X. c #80540C",
"o. c #80540D",
"O. c #80550D",
"+. c #81550D",
"@. c #82550C",
"#. c #83550C",
"$. c #83560C",
"%. c #80550E",
"&. c #80550F",
"*. c #81560E",
"=. c #83570F",
"-. c #84560C",
";. c #84570C",
":. c #85570C",
">. c #84570D",
",. c #86570C",
"<. c #84570E",
"1. c #84570F",
"2. c #885709",
"3. c #88570A",
"4. c #86580C",
"5. c #85580F",
"6. c #86580E",
"7. c #86590E",
"8. c #87590E",
"9. c #87590F",
"0. c #895808",
"q. c #895909",
"w. c #8A5909",
"e. c #89590B",
"r. c #8A5A0A",
"t. c #8A5A0B",
"y. c #8B5A0B",
"u. c #8C5A08",
"i. c #8D5A08",
"p. c #8E5B09",
"a. c #8D5B0B",
"s. c #8F5C08",
"d. c #89590C",
"f. c #88590D",
"g. c #895A0D",
"h. c #88590E",
"j. c #905A02",
"k. c #915A02",
"l. c #905A03",
"z. c #915A03",
"x. c #905B03",
"c. c #915B03",
"v. c #925B03",
"b. c #935B03",
"n. c #925C03",
"m. c #935C03",
"M. c #935D03",
"N. c #945C03",
"B. c #945D03",
"V. c #905B04",
"C. c #915B04",
"Z. c #905B05",
"A. c #905B07",
"S. c #915C05",
"D. c #935C04",
"F. c #925C05",
"G. c #935C05",
"H. c #935D05",
"J. c #915C07",
"K. c #925C06",
"L. c #925D07",
"P. c #935D07",
"I. c #945C04",
"U. c #945D04",
"Y. c #955D04",
"T. c #945D05",
"R. c #955D05",
"E. c #955E04",
"W. c #945E05",
"Q. c #955E05",
"!. c #965E04",
"~. c #975E04",
"^. c #965F04",
"/. c #975F04",
"(. c #965E05",
"). c #975E05",
"_. c #965F05",
"`. c #975F05",
"'. c #945E06",
"]. c #955E06",
"[. c #955F06",
"{. c #945E07",
"}. c #955F07",
"|. c #965E06",
" X c #975F06",
".X c #985F04",
"XX c #985F05",
"oX c #905C08",
"OX c #915C08",
"+X c #915D08",
"@X c #905C09",
"#X c #925D08",
"$X c #925D09",
"%X c #935E08",
"&X c #905C0A",
"*X c #925F0B",
"=X c #945E08",
"-X c #955F08",
";X c #945E09",
":X c #945F09",
">X c #955F09",
",X c #805510",
"<X c #815610",
"1X c #825711",
"2X c #835810",
"3X c #865910",
"4X c #976007",
"5X c #986004",
"6X c #986005",
"7X c #996005",
"8X c #996105",
"9X c #9A6005",
"0X c #9A6105",
"qX c #9A6205",
"wX c #986006",
"eX c #996006",
"rX c #986007",
"tX c #996107",
"yX c #9A6106",
"uX c #9B6106",
"iX c #9B6206",
"pX c #9C6206",
"aX c #9D6306",
"sX c #9D6307",
"dX c #9E6406",
"fX c #9E6407",
"gX c #9F6507",
"hX c #A06507",
"jX c None",
/* pixels */
"jXjXjXjXjXjXjXjXjXjXjXjXjXjXjXf.jXjXjXjXjXjXjXjXjXjXjXjXjXjXjXjX",
"jXjXjXjXjXjXjXjXjXjXjXjXjXjX/.7X6 jXjXjXjXjXjXjXjXjXjXjXjXjXjXjX",
"jXjXjXjXjXjXjXjXjXjXjXjXjX9X0XR.<X,XjXjXjXjXjXjXjXjXjXjXjXjXjXjX",
"jXjXjXjXjXjXjXjXjXjXjXjX8 H 0Xg.u.Q.= jXjXjXjXjXjXjXjXjXjXjXjXjX",
"jXjXjXjXjXjXjXjXjXjXjX.X_.T 8 6.!.v.U.` jXjXjXjXjXjXjXjXjXjXjXjX",
"jXjXjXjXjXjXjXjXjXjX`.8XY.(.2 z `.m.v.D.q jXjXjXjXjXjXjXjXjXjXjX",
"jXjXjXjXjXjXjXjXjX+ A eX8XI.A.f U (.v.v.D.X.jXjXjXjXjXjXjXjXjXjX",
"jXjXjXjXjXjXjXjX/.'.; S 7X/.m./ 5 A !.v.v.D.* jXjXjXjXjXjXjXjXjX",
"jXjXjXjXjXjXjX0XE.^.!.X C #XB.v.D.M K =Xn.c.Y.' jXjXjXjXjXjXjXjX",
"jXjXjXjXjXjXJ rX`.U./.D.3 j (.m.c.I.t P _.v.v.Y.q jXjXjXjXjXjXjX",
"jXjXjXjXjX/.B k iX/.U.U.@ - l `.m.v.S.%.1X6Xk.c.U.+.jXjXjXjXjXjX",
"jXjXjXjX/.E.=XN *.7XU./ O.W : l .Xv.v.F.f 2Xm.j.n.W.< jXjXjXjXjX",
"jXjXjX&.8X0XU.`.# p r.+.D.v.l.0 x ;Xb.z.Y.-.5.}.C.O t.4.jXjXjXjX",
"jXjX>.w $X0X!.D.Y.+ k q.Y.I.m.x.> Y (.v.z.Y.F h.<.d m./.g jXjXjX",
"jX!./.@Xw y.7XU.v.N.( M E.Y.m.m.! 9 Y |.z.v.T.e.R :X!.m._.7.jXjX",
"9X!.!./.$.e _.^.c.v.V.) :.(.Y.m.U.! 1 x !.v.m.T.Z 9.0X`.Y._.h jX",
"jXgX).U.Y.Z.i w.!.m.v.B.] o.].!.v.m.C.= b >XY.m.'.D 5.4X6X!.6XOX",
"jXjXyXE.M.m._ y './.v.v.N.} e.].m.v.Y.C.  v yX!.3.y.z 5.yX7XN.jX",
"jXjXjX7XB.I.v.Q o +X!.c.m.Y.E +.6XY.v.N.i.& n :X&XG.L.I 1.6XjXjX",
"jXjXjXjXY.U.m.b.| # 0XY.c.v.D.{ d.8XY.n.!.i.. 7 eX7XY.#X=.jXjXjX",
"jXjXjXjXjXY.!.I.m.2.o =XB.c.v.!.[ B 4X6XN.B.J.4 x %XqX!.jXjXjXjX",
"jXjXjXjXjXjX!.!.~ $ ..#. XN.c.m.H.u 8.rX/.N./.Q., G /.jXjXjXjXjX",
"jXjXjXjXjXjXjXXX&.^ D./  .{.!.v.@.e.% Z aXXXB.!.P.@ jXjXjXjXjXjX",
"jXjXjXjXjXjXjXjXp.B.v.m.0.+.yXOX@.F.'.# 3XsX7X!.5XjXjXjXjXjXjXjX",
"jXjXjXjXjXjXjXjXjXyXY.m.U.K.m L 0X!.I.6XB c tX9XjXjXjXjXjXjXjXjX",
"jXjXjXjXjXjXjXjXjXjX7X!.v.Y.;.s -XuX!.U.wXV *XjXjXjXjXjXjXjXjXjX",
"jXjXjXjXjXjXjXjXjXjXjXpX!.N.Y.oXa a.7X7XY.`.jXjXjXjXjXjXjXjXjXjX",
"jXjXjXjXjXjXjXjXjXjXjXjXyX/.m.Y.,.r wX7X5XjXjXjXjXjXjXjXjXjXjXjX",
"jXjXjXjXjXjXjXjXjXjXjXjXjXfX7XE.!.[.r %XjXjXjXjXjXjXjXjXjXjXjXjX",
"jXjXjXjXjXjXjXjXjXjXjXjXjXjXpX0XY.~.s.jXjXjXjXjXjXjXjXjXjXjXjXjX",
"jXjXjXjXjXjXjXjXjXjXjXjXjXjXjXhX7X.XjXjXjXjXjXjXjXjXjXjXjXjXjXjX",
"jXjXjXjXjXjXjXjXjXjXjXjXjXjXjXjXdXjXjXjXjXjXjXjXjXjXjXjXjXjXjXjX"
};
