/* XPM */
static char *result[] = {
/* columns rows colors chars-per-pixel */
"32 32 102 2 ",
"   c #000000",
".  c #0D0807",
"X  c #07060B",
"o  c #0C0A0A",
"O  c #120D0A",
"+  c #15100D",
"@  c #18110D",
"#  c #0F1012",
"$  c #121212",
"%  c #1A1312",
"&  c #261E1E",
"*  c #212121",
"=  c #2B2B2B",
"-  c #35312F",
";  c #3D312F",
":  c #312F30",
">  c #734836",
",  c #794D3B",
"<  c #77513E",
"1  c #79523F",
"2  c #262A4F",
"3  c #35324E",
"4  c #272B50",
"5  c #2A2F54",
"6  c #2E335C",
"7  c #363351",
"8  c #30345E",
"9  c #3E3C5E",
"0  c #393D6B",
"q  c #3D426F",
"w  c #3F4372",
"e  c #404573",
"r  c #454872",
"t  c #4F4F74",
"y  c #515076",
"u  c #835A45",
"i  c #875D48",
"p  c #8D644F",
"a  c #94664F",
"s  c #8F6551",
"d  c #946751",
"f  c #966851",
"g  c #996D55",
"h  c #9D6F59",
"j  c #9E7059",
"k  c #A36E55",
"l  c #B27656",
"z  c #BA846E",
"x  c #BC8770",
"c  c #CB8E70",
"v  c #CE9274",
"b  c #4D5280",
"n  c #5E6393",
"m  c #7B848D",
"M  c #7F8A91",
"N  c #828B93",
"B  c #858F9A",
"V  c #87909B",
"C  c #8A949E",
"Z  c #92989F",
"A  c #BA9387",
"S  c #B4A59C",
"D  c #8C96A1",
"F  c #8E99A2",
"G  c #919CA5",
"H  c #959FA8",
"J  c #9CA3A7",
"K  c #97A1AA",
"L  c #9FA6AE",
"P  c #A1A7B0",
"I  c #A4ACB3",
"U  c #A8AFB7",
"Y  c #A8B0B7",
"T  c #ACB3BB",
"R  c #B1B8BF",
"E  c #C99981",
"W  c #CB9D89",
"Q  c #CF9595",
"!  c #DBA88D",
"~  c #C2B0A3",
"^  c #C7B5AD",
"/  c #DCB8A6",
"(  c #CBB9B1",
")  c #E8A7A7",
"_  c #E3B9A5",
"`  c #E6BDAB",
"'  c #D6C2B4",
"]  c #D7C5BB",
"[  c #F1C9B7",
"{  c #F2CBB8",
"}  c #B5BCC2",
"|  c #BABFC5",
" . c #BCC1C6",
".. c #BEC3C9",
"X. c #C1C6CB",
"o. c #C4C9CE",
"O. c #DAC9C1",
"+. c #C6CCD1",
"@. c #D1D4D7",
"#. c #D4D7DB",
"$. c #E8D4C5",
"%. c #FFFEFD",
/* pixels */
"#.T R R } } } J $                                   P } | R } o.",
"o.G F C F D F m #                                   B G G V F Y ",
"X.C D C D N   O s j j j j j j j j j j j j s   O i f o   V V F Y ",
"..D G D F M   O d j j j j j j j j j j j j s   o i f .   G V F T ",
"X.K K G   O j j j j f f h h f f f f f f f f f f f f u u     C T ",
"o.K G F   o j j h h f f h h f f f f f f f f f f d f 1 <     G R ",
"o.G C C   O j j f f f f f f f f f f f f f f f a u u .       F Y ",
"o.K M m O % j h f f f f f f f f f f f f f f f f u u .   $ $ G T ",
" .F # # p p j j f f f f f f f f f f f f f f f a u u .   N m F T ",
" .C     j j j j f f f f f f f f f f f f f f f a u u .   C B G T ",
"..G     j j j j j j f f f f f f f f f a f a u < O .     F V F Y ",
" .F     j j j j j j f f f f f f f f f f f f u , .       F C G R ",
"..G       o j g , > > > > > ` ` > > > > > 1 ` _ W E O   G G G T ",
" .G       O j g , > > > > > ` ` > > > > > 1 ` _ E E +   F C G T ",
" .D F F   X & ; / { - * %.%.{ { { { * * %.%.{ [ [ _ $   D C F T ",
" .F D G     & ; / { - * %.%.{ { { [ * * %.%.{ [ ` ` %   F C F R ",
"| F C D F N   % Q ) [ [ { { { [ { { { { { [ ) Q $   B C F B F Y ",
"| B C C D M   % Q ) [ [ { { { [ { { { { { { ) Q %   N G G C D T ",
"..F F D F M   X w y q 0 E A E E E E v E e e y r o       G C D Y ",
"..C F D G N   # w b q q W v E v E E E E e e b r X       D B D T ",
"..F G H   X w w w w 6 4 0 0 0 0 q 0 4 2 q 0 0 q w w X   D D D Y ",
"X.F F G   X r w w w 6 5 0 0 0 0 0 0 5 5 0 0 0 0 q w X   H D G T ",
"..D C D   o w w w w n n 0 0 0 0 0 0 n n 5 6 6 5 4 2 X   F C D T ",
"..D C D   o y y w q n n 0 0 0 0 0 0 n n 6 6 q 9 7 3 X   D D G T ",
" .C F C   O W A t e n n 6 6 0 6 8 8 n n 6 9 x z k k O   C B C Y ",
"..G H F   + ! W y w n n 6 6 6 6 6 8 n n 6 9 v c l l O   F C G T ",
" .C F F     + + X X ( O.] ] ^ ^ ^ ^ ( ( ^ S + + O .     D C G T ",
"..C F C             ' $.$.$.' ' ' ' ' ' ' ~             D C G Y ",
"X.K K G H D F M $   ~ '                 ' ~ . $ N G C C D V D T ",
"+.H F F D C D m #   ~ '                 ] S   # m G G F D F D T ",
"+.G C C F C F m $   = :     G F F D     - =   + n J G D D G G Y ",
"@.Y I I U P I D $   = :     Y Y Y I     : =   @ Z R U L I Y Y  ."
};
