/* XPM */
static char *result[] = {
/* columns rows colors chars-per-pixel */
"32 32 132 2 ",
"   c #010101",
".  c #0A0705",
"X  c #0C0806",
"o  c #06070B",
"O  c #08070B",
"+  c #0C0C0C",
"@  c #120A04",
"#  c #110D0B",
"$  c #090A12",
"%  c #111111",
"&  c #191615",
"*  c #161C18",
"=  c gray10",
"-  c #251D1D",
";  c #281E1D",
":  c #252525",
">  c #2D2423",
",  c #292729",
"<  c #2D2C2D",
"1  c #322625",
"2  c #392A27",
"3  c #33272B",
"4  c #322B2A",
"5  c #392B2B",
"6  c #302F30",
"7  c #353335",
"8  c #383738",
"9  c #3D3B3D",
"0  c #452619",
"q  c #46281B",
"w  c #4B2C22",
"e  c #522F20",
"r  c #523326",
"t  c #5B3626",
"y  c #533328",
"u  c #59382A",
"i  c #443332",
"p  c #4C3834",
"a  c #453F3E",
"s  c #0B5B20",
"d  c #0C6624",
"f  c #246C37",
"g  c #26763C",
"h  c #694534",
"j  c #714A37",
"k  c #7A4F3A",
"l  c #2C2F55",
"z  c #2E3155",
"x  c #2F335C",
"c  c #31345B",
"v  c #333760",
"b  c #353964",
"n  c #3B3B63",
"m  c #3A3E6C",
"M  c #403E40",
"N  c #464445",
"B  c #494242",
"V  c #4E4B4D",
"C  c #444268",
"Z  c #4D4D76",
"A  c #4B4F7D",
"S  c #4C507F",
"D  c #56547C",
"F  c #616061",
"G  c #6E6E6E",
"H  c #706F6F",
"J  c #717171",
"K  c #7A7A7A",
"L  c #ED7624",
"P  c #8C5C43",
"I  c #9D684B",
"U  c #966654",
"Y  c #996751",
"T  c #9E6B53",
"R  c #A26B4F",
"E  c #A26E55",
"W  c #A57057",
"Q  c #A97051",
"!  c #AE765C",
"~  c #B17655",
"^  c #B97A57",
"/  c #B37858",
"(  c #BC7D5B",
")  c #A97861",
"_  c #B37B60",
"`  c #B87F64",
"'  c #FC822E",
"]  c #ED833A",
"[  c #BC8469",
"{  c #BD896F",
"}  c #FB8E43",
"|  c #C0876C",
" . c #C88C6F",
".. c #C48B71",
"X. c #CC8F72",
"o. c #CC9275",
"O. c #C4967D",
"+. c #CF9678",
"@. c #D09375",
"#. c #D0977B",
"$. c #D49B7D",
"%. c #4D5181",
"&. c #838383",
"*. c #909090",
"=. c #A3A3A3",
"-. c #AEADAD",
";. c #BBB5B2",
":. c #B9BAB9",
">. c #CB9B83",
",. c #CE9997",
"<. c #CC9898",
"1. c #D19C9C",
"2. c #D7A386",
"3. c #DFA481",
"4. c #D8A488",
"5. c #DBA88C",
"6. c #DCAC92",
"7. c #DEA5A4",
"8. c #DFA9A6",
"9. c #E0ABAB",
"0. c #C3C2C2",
"q. c #C8C4C2",
"w. c #CECECE",
"e. c #D0D0D0",
"r. c #DBDBDB",
"t. c #EEE5DF",
"y. c #EBEDEC",
"u. c #EEF4F0",
"i. c #F7F3F2",
"p. c #FCF9F7",
"a. c #FDF9F9",
"s. c None",
/* pixels */
"s.s.s.s.s.s.s.s.                                s.s.s.s.s.s.s.s.",
"s.s.s.s.s.s.s.s.o o o o o o o o o o o o o o     s.s.s.s.s.s.s.s.",
"s.s.s.s.s.s.    b b b b b b b b b b b b b c o       s.s.s.s.s.s.",
"s.s.s.s.s.s.    m m m m m m m m m m m m m b $ o     s.s.s.s.s.s.",
"s.s.s.s.s.s.    %.%.m m A %.m m %.A m m %.%.x l     s.s.s.s.s.s.",
"s.s.s.s.s.s.    %.%.m m %.%.m m %.%.m m %.%.v x     s.s.s.s.s.s.",
"s.s.            %.%.m m %.%.m m %.%.m m S S c x     s.s.s.s.s.s.",
"s.s.            %.%.m m %.%.m m %.%.m m %.S v x     s.s.s.s.s.s.",
"  o b m m m m m %.A m m %.%.%.%.m m m m m m c c     s.s.s.s.s.s.",
"  o c c v c b n Z Z n n D D D Z c n n n C C c l     s.s.s.s.s.s.",
"s.s.o o o o 3 5 w w w r U U r w w w w w U U 1 >         s.s.s.s.",
"s.s.      o 1 5 q q r u T T t r q q r u T Y 1 -         s.s.s.s.",
"0.0.s.s.    1 5   & -.;.[ _ / _   & -.;.o.{ 2 - - -         s.s.",
"0.0.s.s.  . 1 5   * :.q.{ [ [ [ . * :.q.#. .5 - ; ; .       s.s.",
"s.s.s.s.    1 5 s f y.i.5.5.4.4.s f y.i.9.,.5 - j h ; =     s.s.",
"s.s.s.s.    1 5 d g u.p.6.5.5.5.d g u.p.9.1.5 ; k j > -     s.s.",
"0.-.+   1 4 5 5 8.8.5.5.5.5.5.$.$.$.@.o.~ ~ ^ ^ ; ; - -         ",
"0.-.+ o 1 5 5 2 ,.,.O.$.$.5.$.$.@.+. . .Q R Q Q ; - - - .       ",
"0.-.+ . 1 5 5 5 8 i i p [ [ [ [ ! ! / E 2 > > > - - - - - =     ",
"q.-.+ . 1 1 5 5 5 2 > q Q ~ ~ ~ W W E Y > > ; > - ; - - - - .   ",
"0.0.s.s.  X 4 5 V N + X M N N B B M > > : : : : - - - - - ;     ",
"0.0.s.s.    4 5 V N % + 9 M M M z a 4 > : , : , ; ; - - ; =     ",
"=.=.s.s.  . N V 6 8 G G N M M M a B J J < : , : : : : - .       ",
"=.=.s.s.  . N V < 7 K K N M M M a B K K < : : : : : - -         ",
"=.*.+     + O.5.< 8 K K , : < < < 8 K K < 4 { o.~ I X   s.s.s.s.",
"*.&.: = = > o.3., 6 J J : : < < < 7 G J < < ! [ I P .   s.s.s.s.",
"$ : r.y.u.t.} ' . o 6 7 < 6 6 6 6 6 < : : = X @ X X     s.s.s.s.",
"  = r.u.y.t.] L   o 6 7 < < < < < < = : : : o           s.s.s.s.",
"    % % % % @ @   + J D +   .       o X F F O   s.s.s.s.s.s.s.s.",
"                  $ K { O             O G G +   s.s.s.s.s.s.s.s.",
"s.s.s.s.s.s.s.s.  & e.e.%   s.s.s.s.  % w.w.&   s.s.s.s.s.s.s.s.",
"s.s.s.s.s.s.s.s.  * r.r.%   s.s.s.s.  % r.r.=   s.s.s.s.s.s.s.s."
};
