/* XPM */
static char *result[] = {
/* columns rows colors chars-per-pixel */
"32 32 115 2 ",
"   c #010101",
".  c #06060B",
"X  c #0B0B0D",
"o  c #1C0F04",
"O  c #120C0A",
"+  c #14100D",
"@  c #1E1308",
"#  c #0E0F19",
"$  c #0F1012",
"%  c #121313",
"&  c #1F1E1E",
"*  c #261E1E",
"=  c #231D20",
"-  c #252424",
";  c #2E2423",
":  c #2E2C2D",
">  c #322525",
",  c #372924",
"<  c #342F2C",
"1  c #382B2B",
"2  c #34302A",
"3  c #38322F",
"4  c #302F30",
"5  c #333233",
"6  c #3D3131",
"7  c #3E3B3D",
"8  c #4A291B",
"9  c #492C23",
"0  c #4A3737",
"q  c #115F25",
"w  c #0C6624",
"e  c #714A36",
"r  c #7B4F3A",
"t  c #2A2D52",
"y  c #2F335C",
"u  c #33365F",
"i  c #343761",
"p  c #363963",
"a  c #393D6B",
"s  c #403E40",
"d  c #4B4748",
"f  c #4D4B4D",
"g  c #454974",
"h  c #4A4E7E",
"j  c #4C507E",
"k  c #646364",
"l  c #6F6C6E",
"z  c #767676",
"x  c #7F7F7F",
"c  c #E37122",
"v  c #E0752C",
"b  c #8E6252",
"n  c #966650",
"m  c #996957",
"M  c #9B6B59",
"N  c #A36F54",
"B  c #A97051",
"V  c #AB7359",
"C  c #B17555",
"Z  c #B97A57",
"A  c #FD8330",
"S  c #BA8165",
"D  c #BC866B",
"F  c #BA917C",
"G  c #CB8E70",
"H  c #CF9274",
"J  c #D49B7D",
"K  c #4E5282",
"L  c #747A83",
"P  c #767E89",
"I  c #77808A",
"U  c #7B848D",
"Y  c #7F8791",
"T  c #7F8990",
"R  c #838C94",
"E  c #868F9A",
"W  c #87909B",
"Q  c #8A949E",
"!  c #91979E",
"~  c #92989F",
"^  c #8D97A1",
"/  c #8E99A3",
"(  c #919CA5",
")  c #949EA8",
"_  c #9CA2A7",
"`  c #97A1AB",
"'  c #9FA5AC",
"]  c #A1A1A1",
"[  c #A1A7B0",
"{  c #A4ACB3",
"}  c #A8AFB7",
"|  c #AAB1B7",
" . c #ACB3BB",
".. c #B1B1B0",
"X. c #B1B8BF",
"o. c #CA9C84",
"O. c #CC9797",
"+. c #DBA88C",
"@. c #DEA5A5",
"#. c #B4BBC2",
"$. c #B9BEC5",
"%. c #BBC1C6",
"&. c #BFC4C9",
"*. c #C2C3C3",
"=. c #C3C7CB",
"-. c #C4C9CE",
";. c #C7CCD1",
":. c #D4D4D5",
">. c #D4D7DB",
",. c #E9DDD6",
"<. c #E7E7E7",
"1. c #EBEBEB",
"2. c #E8F1EB",
"3. c #FEF3EB",
"4. c #FFFFFF",
/* pixels */
">. .X.X.#.#.#._ %                             % ' X.#.$.#.X.#.;.",
"-.( / ^ / ^ / U %                             $ I / ( ( ) E / } ",
"=.Q ^ Q / T   . u a a a a a a a a a a a a i         U Q Q E ^ } ",
"&.^ / ^ ( R   . u a a a a a a a a a a a a i         R Q ^ W /  .",
"=.) ) ) ) R   . g K a a K K a a j K a a j h y t .   R Q ^ E Q  .",
";.` E R Y L   X g K a a K K a a K K a a K h y t .   R ( ( ( ( X.",
"&.)           X g K a a K K a a K K a a K h y t .   R Q Q ( /  .",
" .R . . . . . # h K a a K K a a j h a a j h y t .   E W Q ( (  .",
"% % u u u u u p j K a a K K j j a a a a a a u t .   T / / Q /  .",
"    a a a a a a j K a a K K j K a a a a a a u t .   R ^ / E /  .",
"| R . . . X 1 1 9 9 9 9 M M 9 9 9 9 9 9 m b = =     $ O / W /  .",
"%./       . 1 1 8 8 8 8 B N 8 8 8 8 8 8 N n * *         / / /  .",
"*.*.` (     , > .   ..*.S S S S     *.*.G D * * * *         (  .",
"*.*.) /   . 1 > .   ..*.S S S S     *.*.G G * = * ;         / #.",
"%.Q / /   . 1 2 q w 2.4.+.+.+.+.w w 4.4.@.O.* ; e r ; *     ^  .",
"%./ ^ )     1 2 q w 2.4.+.+.+.+.w w 4.4.@.O.* ; e r ; *     / X.",
"*.*.    1 1 1 0 O.@.+.+.+.+.+.+.J J H H C C Z B , * * *         ",
"*.*.    1 1 1 0 O.@.+.+.+.+.+.+.J J H H C C Z B , * * *         ",
"*.*.    1 1 1 1 1 1 1 1 Z Z Z Z V V V V * * * - * * * * * *     ",
"*.*.    1 1 1 1 1 1 1 < Z Z Z Z V V V V * * * * * * * * * *     ",
"*.*./ )     3 3 d f .   s s s s s s - = - - - - * * * * * *     ",
"*.*./ )   . 1 6 d f % X s s s s s s - - - - - - * * * * * *     ",
"] ] Q Q   . f f 4 : z F s s s s s s L z - - - : - - * *         ",
"] ] U U   . k f 5 - l L 7 7 7 7 7 7 F L : - 6 5 2 3 * * $ $ % % ",
"] ] % $   O o.F 6 4 z z ; - 4 4 4 : x x - 5 D S N N O   U P U ) ",
"] ]       + +.o.7 < z R & & : : : : x x - 2 H G C V O   ( Q /  .",
"$ X <.<.<.,.A v @ . 4 5 2 4 4 4 4 4 : : - * O O O O     Q Q (  .",
"    4.4.4.3.A c o   - : 4 4 4 4 4 4 - & & &             ( W ( | ",
"                    z x                 l k   % T / ^ ^ ! W /  .",
"                    z x                 l k   % Y / / ^ ^ ^ ^  .",
"-.) Q ^ / W / I %   :.1.    ) / / /     1.:.  $ U / / ^ ! / /  .",
":. .{ { | [ { ~ %   :.1.    | } { [     1.:.  % /  . .' { } } %."
};
