/* XPM */
static char *result[] = {
/* columns rows colors chars-per-pixel */
"32 32 126 2 ",
"   c #000000",
".  c #090606",
"X  c #0C0906",
"o  c #050509",
"O  c #07080D",
"+  c #0E0C0B",
"@  c #120D0A",
"#  c #17100C",
"$  c #19110C",
"%  c #0B0C13",
"&  c #171112",
"*  c #1C1411",
"=  c #1F1C1A",
"-  c #201612",
";  c #211B19",
":  c gray13",
">  c #2B2423",
",  c #2D2C2D",
"<  c #392C29",
"1  c #302F30",
"2  c #3F3937",
"3  c #3D3B3A",
"4  c #453B37",
"5  c #423F3E",
"6  c #6E4635",
"7  c #764A38",
"8  c #7B4F3C",
"9  c #74503D",
"0  c #7A523F",
"q  c #262A4F",
"w  c #272B51",
"e  c #2A2E54",
"r  c #2C3057",
"t  c #2F335C",
"y  c #333455",
"u  c #30345E",
"i  c #323760",
"p  c #373C64",
"a  c #393E67",
"s  c #393D6B",
"d  c #3B406B",
"f  c #3E4370",
"g  c #7D5543",
"h  c #414366",
"j  c #43446C",
"k  c #484769",
"l  c #46486B",
"z  c #414573",
"x  c #454972",
"c  c #4C4D74",
"v  c #4B4F7A",
"b  c #4C517F",
"n  c #515076",
"m  c #56557C",
"M  c #815644",
"N  c #845B45",
"B  c #855E4A",
"V  c #885D4B",
"C  c #8B614C",
"Z  c #94664F",
"A  c #9D684B",
"S  c #8E6550",
"D  c #956750",
"F  c #966852",
"G  c #9A6C55",
"H  c #9D6F58",
"J  c #9E7059",
"K  c #A06B4E",
"L  c #B27656",
"P  c #A87967",
"I  c #B88267",
"U  c #B88571",
"Y  c #B68B74",
"T  c #BB8E77",
"R  c #B58C7D",
"E  c #BF927E",
"W  c #CE9173",
"Q  c #575781",
"!  c #585883",
"~  c #545988",
"^  c #595E8D",
"/  c #5F6494",
"(  c #666890",
")  c #6C6E97",
"_  c #6E7099",
"`  c #BCAB9E",
"'  c #C39783",
"]  c #CC9D84",
"[  c #C08D91",
"{  c #CF9595",
"}  c #D0989D",
"|  c #D6A58B",
" . c #D0A793",
".. c #D1A894",
"X. c #D1AD9C",
"o. c #D8AF9C",
"O. c #D79EA3",
"+. c #D8A2A5",
"@. c #C7B4A7",
"#. c #C9B6A9",
"$. c #CAB8AD",
"%. c #DEB4A1",
"&. c #DCB9A8",
"*. c #CDBBB1",
"=. c #DEBCB0",
"-. c #E0A1A1",
";. c #E8A7A7",
":. c #E9ACAA",
">. c #E3BAA7",
",. c #E6BEAB",
"<. c #E0BDB1",
"1. c #D6C3B5",
"2. c #DAC7BB",
"3. c #DBC9BE",
"4. c #EEC6B2",
"5. c #F0C9B6",
"6. c #F2CBB9",
"7. c #DECCC2",
"8. c #E7D3C4",
"9. c #F4D2C2",
"0. c #E2DDDC",
"q. c #EFEFEF",
"w. c #F0E9E6",
"e. c #F0EBEA",
"r. c #FFFDFD",
"t. c None",
/* pixels */
"t.t.t.t.t.t.t.t.                                    t.t.t.t.t.t.",
"t.t.t.t.t.t.t.t.@ + @ @ @ @ @ + @ @ @ @ @ @     + @ t.t.t.t.t.t.",
"t.t.t.t.t.t.  . B S F F F F S F S F D F F D $   g C @   t.t.t.t.",
"t.t.t.t.t.t.X X S J J H J J J J J H H H H H - @ B F $ X t.t.t.t.",
"t.t.t.t.  X C D J J F F H J F A F F G F F F C C F F g 0 @   t.t.",
"t.t.t.t.  X F J J J F F H J F F F F F F F F F A F F g 0 X   t.t.",
"t.t.t.t.  X S J G F F F F F F F F F F F F F F F N N - X     t.t.",
"t.t.t.t.  O F J F F A F F F F F F F F F F F F F N N @       t.t.",
"t.t.    F J J J G D F F F F F F F F F F F F F F N N @   t.t.t.t.",
"t.t.    S H J J G D F F F F F F F F F F Z F F F 9 9 @   t.t.t.t.",
"t.t.    D H H H H H F F F F F F F F F F F F N g $ .     t.t.t.t.",
"t.t.    S F H H G H D D Z F G G Z A Z Z Z Z C B $ @     t.t.t.t.",
"t.t.    . @ F H g 7 7 7 7 g ..%.M 7 7 7 7 7  .%.E T *   t.t.t.t.",
"t.t.      X S G g g 6 6 g B +.>.V 8 6 6 g g o.,.] ] *   t.t.t.t.",
"t.t.t.t.  . > < X.>.> > 0.w.6.5.,.>.4 > 0.q.6.5.>.>.;   t.t.t.t.",
"t.t.t.t.    ; > &.5.: : q.r.9.5.6.6.2 : q.r.9.5.4.>.;   t.t.t.t.",
"t.t.t.t.t.t.  . { ;.6.6.6.6.5.5.6.6.6.6.6.6.:.-.&   t.t.t.t.t.t.",
"t.t.t.t.t.t.  O [ O.=.<.4.4.4.4.4.4.4.4.<.=.+.} &   t.t.t.t.t.t.",
"t.t.t.t.t.t.    c ! z z ' ] ] ] ] ] ] ] m v ! m O       t.t.t.t.",
"t.t.t.t.t.t.o O z Q p p R ' E ' E E E E c f v v % o     t.t.t.t.",
"t.t.t.t.  o p d f z w w j j j j j j u y s s s s d d O   t.t.t.t.",
"t.t.t.t.  o s z z z e e s s s s s s r e s s s s f d %   t.t.t.t.",
"t.t.t.t.  o s z z z ^ ^ d s s s s s ~ ^ u u u u e e O   t.t.t.t.",
"t.t.t.t.  O f f z f / / d s s d s s ^ ( i t t t w w O   t.t.t.t.",
"t.t.t.t.  @ ] | n z / / u u u t t t ^ / u t U W L L $   t.t.t.t.",
"t.t.t.t.  + Y E k d _ _ l h h h h h ( ) l h P I K A @   t.t.t.t.",
"t.t.t.t.    X @ o o 7.7.3.3.$.$.$.$.*.*.$.$.> X X X     t.t.t.t.",
"t.t.t.t.            8.8.2.1.#.#.@.@.@.@.1.1.=           t.t.t.t.",
"t.t.t.t.t.t.t.t.    1.1.= & + + + + + # #.1.;   t.t.t.t.t.t.t.t.",
"t.t.t.t.t.t.t.t.    #.$.+               ` #.=   t.t.t.t.t.t.t.t.",
"t.t.t.t.t.t.t.t.    5 5 o   t.t.t.t.    3 5 O   t.t.t.t.t.t.t.t.",
"t.t.t.t.t.t.t.t.    1 1     t.t.t.t.    , 1 X   t.t.t.t.t.t.t.t."
};
