/* XPM */
static char *result[] = {
/* columns rows colors chars-per-pixel */
"32 32 99 2 ",
"   c #000000",
".  c #0A0605",
"X  c #07080C",
"o  c #0B0A0E",
"O  c #110A07",
"+  c #120D09",
"@  c #13110F",
"#  c #0F1011",
"$  c #121212",
"%  c #191313",
"&  c #13141B",
"*  c gray11",
"=  c #231711",
"-  c #26211F",
";  c #2A2422",
":  c #0C6624",
">  c #237539",
",  c #7A4F3A",
"<  c #484648",
"1  c #4F4D4F",
"2  c #764F40",
"3  c #454974",
"4  c #81523D",
"5  c #9D715E",
"6  c #A36E55",
"7  c #AC7357",
"8  c #A7745A",
"9  c #B17453",
"0  c #B47A5C",
"q  c #95786E",
"w  c #9A7F72",
"e  c #AA7864",
"r  c #B47C61",
"t  c #B07D68",
"y  c #BA8165",
"u  c #BD866B",
"i  c #A38679",
"p  c #A2887B",
"a  c #A88B7E",
"s  c #C18D74",
"d  c #CC9174",
"f  c #CC9479",
"g  c #D49A7D",
"h  c #4E5282",
"j  c #505484",
"k  c #575B8B",
"l  c #5C6296",
"z  c #5F6499",
"x  c #747C83",
"c  c #788087",
"v  c #77808A",
"b  c #7B838D",
"n  c #7E8790",
"m  c #7F8992",
"M  c gray56",
"N  c #808791",
"B  c #828B94",
"V  c #858F9A",
"C  c #86909B",
"Z  c #8A949E",
"A  c #91979D",
"S  c #93989F",
"D  c #A78D81",
"F  c #B39688",
"G  c #B69A8C",
"H  c #B49C90",
"J  c #8C97A1",
"K  c #8E99A3",
"L  c #919CA5",
"P  c #959FA8",
"I  c #97A1AB",
"U  c #9FA4AC",
"Y  c #A1A1A1",
"T  c #A4ABB3",
"R  c #AAB1B6",
"E  c #ACB3BB",
"W  c #B1B8BF",
"Q  c #CA9980",
"!  c #D69C81",
"~  c #CF9595",
"^  c #C6AC9E",
"/  c #C9AA9B",
"(  c #C9AEA0",
")  c #D5B5A5",
"_  c #D5B9AB",
"`  c #D9BDAE",
"'  c #E5A3A1",
"]  c #E8A7A7",
"[  c #B4BBC2",
"{  c #BABFC5",
"}  c #BBC1C6",
"|  c #BEC3C8",
" . c #C2C6CB",
".. c #C4CACE",
"X. c #C7CCD1",
"o. c #D1D5D7",
"O. c #D4D7DB",
"+. c gray89",
"@. c #FFFFFF",
/* pixels */
"O.E [ W [ [ [ E P S +   . . . . . . . . . .   $ U [ [ [ { [ [ X.",
"..L J J K Z K Z b x o   . . . . . . . . . .   # v J L L L V J R ",
" .Z J C K K J b $   k z j h 3 j h h j h z l h 3 o   b Z J V J E ",
"| J L J K J K B $   k z j j j j h h h j z z h 3 X   B J J V J E ",
" .I I I I L K m $   k z z z h h h h z z z z h h h h X   J V Z E ",
"..I m B n n Y 3 & o k z z z h j h h z z l l h h h h X   L L L E ",
"| I         . # 3 j l z h h z z h j z z 3 j z l j h X   J L K E ",
"R V o o o o X & 3 3 l z h h z z 3 j z z j j z l j h o   J L L E ",
"% $ 3 3 3 3 3 3 3 j j j h h j k h h j j h h j h j h X   K Z J E ",
"    h j h h h h j j h j h h h 3 h h h h h h h h h h o   J V K E ",
"R B X X X X X % 5 t t t t t t t t t y t y e , , 2 2 .   J C K E ",
"} K           @ 8 y y y y y y y y y y y y e , , , , .   K J K [ ",
"| I I K K B   $ M Y o   6 6 6 6 I Y     f s 0 8 4 , .   K K L [ ",
"} I I K K m   $ M Y #   6 6 6 7 U Y     f f 0 8 4 , .   K J K E ",
"[ Z K K K n   * +.@.> : g g g g @.@.: : Q Q g f u y O   J J K E ",
"} S Z I I B   * +.@.> : g g g g @.@.: : f g g g u y o   K J K E ",
"{ J J J Z B   % ~ ] ! g g g g g g g g g ] ' r 8 = + V Z L V J E ",
"{ V Z Z J B   % ~ ] ! g g g g ! g g g Q ] ' y 8 = + B J L Z J E ",
" .J L Z L Z J b $   H / s 0 y y y y r y ( H   # x J L J K V J R ",
"| Z J Z L L L m $   G / 0 s r y y y y y ( H   # n Z J J J V J E ",
" .J L I J B   % ^ ` ` ` F F / ( ( ( F F ` _ / F %   B J K Z J E ",
" .J K L B x @ ; ^ ` ` ` F F ( ( ( ( F F ` ` ( H - @ x V P J L E ",
" .J Z Z   $ ` ` ` ` ` ` F F ` ` ` ` F G ` ` ` ` ( ^ @   J J J E ",
"| J Z J   @ ) ) _ ` ` ` G G ` ` ` ` G G ` ` ) ) / / $   J Z L E ",
"} Z J Z   o 0 y ) ` ` ` _ _ ` ` ` ` _ _ ` _ s s f f +   Z C Z R ",
"| L I L   + 9 0 ) ` ` ` ` ` ` ` ` ` ` ` ` ) u s d d @   L Z L E ",
"} Z J K Y 3 O @ $ $ D G a a a a a a a a a w + + @ @     J Z L E ",
"| Z K Z L m         p F i i i i i i i i i q             L C L R ",
"| P I I I K K m #   p F                 p q   # m L J J J V Z E ",
"X.I K K A Z K c $   p F                 p q   $ n K K J J L J E ",
"..I Z Z K Z K b $   < 1     N b b b     1 <   # b K K J J K L R ",
"o.R T T R U T S $   < 1     S A A Z     1 <   $ A E E U T R R | "
};
