/* XPM */
static char *result[] = {
/* columns rows colors chars-per-pixel */
"32 32 22 1 ",
"  c black",
". c gray22",
"X c #004800",
"o c #007808",
"O c #107800",
"+ c #505050",
"@ c #606060",
"# c gray47",
"$ c #805018",
"% c #A87838",
"& c #D06000",
"* c #78A040",
"= c #F8B028",
"- c #D8A860",
"; c #F0C070",
": c #0080FF",
"> c #909090",
", c #A0A0A0",
"< c #C0C0C0",
"1 c #D8D8D8",
"2 c #F8F8F8",
"3 c None",
/* pixels */
"333333333333333333 3333333333333",
"33333333333333 33  3333333333333",
"3333333333333  3   3 33333333333",
"333333333333         33333333333",
"33333333333          33333333333",
"33333333333           3333333333",
"33333333333           3333333333",
"3333333333             333333333",
"3333333333   $   $%$   333333333",
"3333333333  $-%  %-%$  333333333",
"3333333333 $ %     % $ 333333333",
"3333333333$-%%, % ,%%-$333333333",
"3333333333$%$-2+;+2-$%$333333333",
"33333333333$$%2 ; 2%$$3333333333",
"3333333333333$%-;-%$333333333333",
"33333333333XXX$%-%$XXX3333333333",
"3333333333.XOOX   XOOX.333333333",
"3333333333. X*OX XOOX .333333333",
"333333333.   X*oX*oX   .33333333",
"33333333###@.  &=&  @##@33333333",
"33333333#2<@:  &=&  :#1@33333333",
"33333333#><>@Xo*X*oX#>,@33333333",
"333333333#2<@X**oXoX#2<@33333333",
"3333333333@@3XXXXXXX3@@333333333",
"3333333333333.  .  .333333333333",
"3333333333333.  :  .333333333333",
"333333333333###@:###@33333333333",
"333333333333#2<@:#2<@33333333333",
"333333333333#>@@ #>@@33333333333",
"33333333333@&=>@ @>=&@3333333333",
"33333333333&=&@   @&=&3333333333",
"333333333333        333333333333"
};
