/* XPM */
static char *result[] = {
/* columns rows colors chars-per-pixel */
"32 32 102 2 ",
"   c #9E2315",
".  c #9F2316",
"X  c #A02618",
"o  c #A02719",
"O  c #A12719",
"+  c #A0271A",
"@  c #A1271A",
"#  c #A1281A",
"$  c #A1281B",
"%  c #A0291B",
"&  c #A1291B",
"*  c #A12A1C",
"=  c #A02A1D",
"-  c #A12B1D",
";  c #A22A1C",
":  c #A22A1D",
">  c #A22B1E",
",  c #A32B1E",
"<  c #A22C1E",
"1  c #A22C1F",
"2  c #A32C1F",
"3  c #A32D1F",
"4  c #A12C20",
"5  c #A32C20",
"6  c #A32D20",
"7  c #A22D21",
"8  c #A32D21",
"9  c #A22E21",
"0  c #A32E21",
"q  c #A32E22",
"w  c #A32F22",
"e  c #A42E21",
"r  c #A42F21",
"t  c #A42F23",
"y  c #A22F24",
"u  c #A43024",
"i  c #A53125",
"p  c #A53327",
"a  c #A63327",
"s  c #A63529",
"d  c #A6352A",
"f  c #A8382D",
"g  c #A8392D",
"h  c #A93A2F",
"j  c #A93B30",
"k  c #AA4339",
"l  c #AB443B",
"z  c #AB453B",
"x  c #AB453C",
"c  c #AB483E",
"v  c #AA483F",
"b  c #AB493F",
"n  c #AA4A42",
"m  c #AC4C43",
"M  c #AB4D44",
"N  c #AA4D45",
"B  c #AB4D45",
"V  c #AB4E45",
"C  c #AA4E46",
"Z  c #AB4E46",
"A  c #AA4F46",
"S  c #AA4F47",
"D  c #AB4F47",
"F  c #AC4E45",
"G  c #AC4E46",
"H  c #AC4F46",
"J  c #AC4F47",
"K  c #AD4F47",
"L  c #AC5047",
"P  c #AC5048",
"I  c #AD5048",
"U  c #AD5148",
"Y  c #AC5049",
"T  c #AD5149",
"R  c #AD514A",
"E  c #AD524A",
"W  c #AE524A",
"Q  c #AE534B",
"!  c #AD544A",
"~  c #AE544C",
"^  c #AF544C",
"/  c #AF554C",
"(  c #AE544D",
")  c #AE554D",
"_  c #AF554D",
"`  c #AF564D",
"'  c #AF564E",
"]  c #AE574E",
"[  c #AF574E",
"{  c #AE574F",
"}  c #AF574F",
"|  c #B0574F",
" . c #B0584F",
".. c #AF5A52",
"X. c #B05850",
"o. c #B05950",
"O. c #B05951",
"+. c #B05A51",
"@. c #B15A51",
"#. c #B15B52",
"$. c #B36159",
"%. c None",
/* pixels */
"%.%.%.%.%.%.%.%.%.%.%.%.%.%.%.%.%.%.%.%.%.%.%.%.%.%.%.%.%.%.%.%.",
"%.%.%.%.%.%.%.%.%.%.%.%.%.%.%.%.%.%.%.%.%.%.%.%.%.%.%.%.%.%.%.%.",
"%.%.%.%.%.%.%.%.%.%.%.%.%.%.%.%.%.%.%.%.%.%.%.%.%.%.%.%.%.%.%.%.",
"%.%.%.%.%.%.%.%.%.%.%.%.%.%.%.%.%.%.%.%.%.%.%.%.%.%.%.%.%.%.%.%.",
"%.%.%.%.%.%.%.%.%.%.%.%.%.%.%.%.%.%.%.%.%.%.%.%.%.%.%.%.%.%.%.%.",
"%.%.%.%.%.%.%.%.%.%.%.%.%.%.%.%.%.%.%.%.%.%.%.%.%.%.%.%.%.%.%.%.",
"%.%.%.%.%.%.%.%.%.%.%.%.%.%.%.%.%.%.%.%.%.%.%.%.%.%.%.%.%.%.%.%.",
"%.%.%.%.%.%.%.%.%.%.%.%.%.%.%.%.%.%.%.%.%.%.%.%.%.%.%.%.%.%.%.%.",
"%.%.J J J J J G d & & & & & %.G J J J J T q & & & & & %.%.%.%.%.",
"%.%.J J J J J G d & & & & & %.G J J J J T q & & & & & %.%.%.%.%.",
"%.%.%.%.%.} { ..%.v %.%.  . %.7 9 %.#.o.O.` ! ] %.s s d %.%.%.%.",
"%.%.%.%.%.D S J J J T 6 & 2 > & & %.W J J D S T u & & & & 2 %.%.",
"%.%.%.%.%.A J J J J P 8 : > * * * %.I Z Z N Z J %.o o o @ # %.%.",
"%.| ' ' ' | O.%.6 6 3 6 r %.E P P Z B L %.X X X O X %.%.%.%.%.%.",
"%.J P J J J T %.& & & & & > T J J J P W %.& & & & & % %.%.%.%.%.",
"%.J V B M M J %.: : = : : %. .' ' ' O.$.%.j j j f g %.%.%.%.%.%.",
"%.%.%.%.%.%.R W W W W B O # # # # & %.V F F F F B 5 @ @ @ @ + %.",
"%.%.%.%.%.%.J J J J J n # & & & & * %.J J J J J K 0 & & & & & %.",
"%.%.%.%.%.%.H %.b c c %.h %.%.x l x %./ %.k k z %.%.%.%.%.%.%.%.",
"%.Y J J J J T %.& & & & & 8 C J J J J J %.& , 2 & & 0 %.%.%.%.%.",
"%.E P P P T ~ %.< < < < < y H J J J J G %.; 2 & & & 0 %.%.%.%.%.",
"%.%.%.%.%.} } %.^ ^ %.%.3 < - < 1 %.U I U m m %.%.t u %.%.%.%.%.",
"%.%.%.%.%.J J J J J K 0 & & & & & %.H J J J J W 6 & & & & & %.%.",
"%.%.%.%.%.H H H H H T u > > > > > %.~ ( ) ) ) X.p t i t t t %.%.",
"%.%.O.@.+.+.+.%.%.w w w w 0 %.H H H H H I %.# # # # # %.%.%.%.%.",
"%.%.J J J J J Z a & & & & $ %.J J J J J T 6 & & & & & %.%.%.%.%.",
"%.%._ _ _ _ [ %.%.# # # # o %.Q W W W W Q %.e 4 2 2 2 %.%.%.%.%.",
"%.%.%.%.%.%.%.%.%.%.%.%.%.%.%.%.%.%.%.%.%.%.%.%.%.%.%.%.%.%.%.%.",
"%.%.%.%.%.%.%.%.%.%.%.%.%.%.%.%.%.%.%.%.%.%.%.%.%.%.%.%.%.%.%.%.",
"%.%.%.%.%.%.%.%.%.%.%.%.%.%.%.%.%.%.%.%.%.%.%.%.%.%.%.%.%.%.%.%.",
"%.%.%.%.%.%.%.%.%.%.%.%.%.%.%.%.%.%.%.%.%.%.%.%.%.%.%.%.%.%.%.%.",
"%.%.%.%.%.%.%.%.%.%.%.%.%.%.%.%.%.%.%.%.%.%.%.%.%.%.%.%.%.%.%.%."
};
