/* XPM */
static char *result[] = {
/* columns rows colors chars-per-pixel */
"32 32 67 1 ",
"  c #2080A0",
". c #2888A8",
"X c #207898",
"o c #187898",
"O c #587878",
"+ c #707068",
"@ c #906840",
"# c #B08050",
"$ c #187090",
"% c #186888",
"& c #207090",
"* c #186088",
"= c #287890",
"- c #286878",
"; c #307088",
": c #308098",
"> c #306880",
", c #206078",
"< c #408090",
"1 c #406878",
"2 c #506870",
"3 c #386070",
"4 c #385860",
"5 c #486068",
"6 c #285870",
"7 c #587070",
"8 c #485860",
"9 c #586060",
"0 c #586868",
"q c #405058",
"w c #404848",
"e c #708078",
"r c #687870",
"t c #788078",
"y c #888878",
"u c #686868",
"i c #383830",
"p c #505050",
"a c #504840",
"s c #483828",
"d c #606058",
"f c #685848",
"g c #807868",
"h c #584840",
"j c #786850",
"k c #605040",
"l c #504030",
"z c #887060",
"x c #787060",
"c c #888060",
"v c #786050",
"b c #706858",
"n c #908868",
"m c #908060",
"M c #887860",
"N c #907860",
"B c #706050",
"V c #988068",
"C c #705848",
"Z c #806850",
"A c #807050",
"S c #988060",
"D c #685040",
"F c #A08860",
"G c #A88860",
"H c #887050",
"J c white",
/* pixels */
" .  X oOO+@##@+OO$%&$ oXX$$X X$ ",
".  X   oXoOOOO$o&$&oXX o $   $o ",
"  XX$ $&XX .X$$o$ % $ o oo. $&$ ",
"o$ o o%$    o%&$X$$  oXXX& o&%  ",
"%ooX$$*$Xo$X%%&&==$ X=&=X$&$%$$ ",
"=&X=X&-;=;=&%=&%===&&%&&:$&%%$= ",
"=;;=;=;=X;;;;;%=&>,>->;>;;>;=&;;",
"=;<<<121;>1=>3>>;>,4>>3>>;;&;;==",
"=<;=;153133;3>>33311>161;3>;;&;=",
"O1718558>13,34513443341412143553",
"O9802+88316q8qqqwq83588448314455",
"e7rtytuq852q8qwiwwqwpqwpw84wwq8w",
"eetty+0a8ee08wwsswwiwpaawpq8p0pa",
"ttttydda9ete0q0pwiiiwdfpwwppppp9",
"tttyguhp9ttt+89t8wiw9+jkawapph+t",
"ygyygdlw9tyggu8u+swp++zfkwaah+gg",
"yyyyxdlpdgcycgppdwp+xgzvppahbggg",
"nmgxbpkbfxymyMbafapgggNBfhapxgMM",
"xMbBaabfpbMVVmzkawhMNMNBCphfBMNN",
"fBBpdkBhfBzVVVNflshmVNmZfhhBAMNN",
"BhhfvkkkfBjNVVNfaahSNNNzBkhvjMNN",
"MCBBBhakBBjzVVzfkakSVNMBBhafvzNz",
"NNzjfhskBvBMNVzfkhkSNNvBfalDkkvj",
"VVVjhalkvvNFVzzflsfNNzBBkllkkshB",
"VVVZallCvzFVVzfkslkCvvvvhashkalC",
"VNNzfslfVVFVVZasskkfvZzZhlslkhak",
"VNzzBhhfVFFVVzaskCkfCDCvhsfkhkhh",
"VNzBfvfhzFFVVZkkjCfhhhChalkalkka",
"VzfkkzzlCVGVNZffZZBklDfhkkhlslll",
"VvffCNZllzVNNvkkvZvBasllhkhsllss",
"NjCkZZllsfBDBfkvHZvvfsssshslfkll",
"NjCDMfllsskakhfNSzZCvhsslslBzfks"
};
